<svg width="260" height="72" viewBox="0 0 260 72" fill="none" xmlns="http://www.w3.org/2000/svg">
<g clip-path="url(#clip0_2_36)">
<path opacity="0.82" d="M46.9737 0.26672L33.3193 12.8374C35.0765 14.4669 36.0799 15.3496 37.0306 16.2904C40.9355 20.0901 43.2966 25.2247 43.6518 30.6899C44.0069 36.1551 42.3307 41.5575 38.951 45.8402C31.7877 54.9578 19.3576 56.8298 9.21765 50.3214C0.441202 44.6811 -2.59311 32.3578 2.40006 22.309C7.06675 12.9004 14.907 7.22617 24.418 3.68097C31.6485 0.969939 39.0566 -0.67414 46.9737 0.26672Z" fill="#00A4FF"/>
<path opacity="0.82" d="M11.5227 72L25.446 59.1674C23.6167 57.4361 22.5029 56.437 21.4514 55.3749C17.7279 51.6 15.4797 46.5934 15.1206 41.2769C14.7616 35.9604 16.3159 30.6918 19.4974 26.441C25.8156 17.9442 37.7993 15.3108 47.2527 20.34C57.0854 25.5729 61.1999 36.0727 57.335 46.8053C56.2116 49.9092 54.6656 53.0761 52.5339 55.5689C41.9282 68.1153 27.8465 72.0194 11.5227 72Z" fill="#005584"/>
<path d="M102.84 34.5984C100.757 33.5623 98.5713 32.7496 96.3201 32.1735C94.5485 31.6546 93.0602 31.2035 91.8407 30.8156C90.8382 30.5346 89.8935 30.0747 89.0512 29.4576C88.7383 29.208 88.4883 28.8872 88.3214 28.5215C88.1545 28.1557 88.0756 27.7553 88.091 27.3528C88.0614 26.8634 88.1641 26.3752 88.3882 25.9403C88.6124 25.5054 88.9495 25.1404 89.3633 24.8843C90.4642 24.2869 91.7069 24.0083 92.9546 24.0792C94.1489 24.0761 95.338 24.2393 96.4882 24.5642C97.6013 24.8739 98.6908 25.2645 99.7481 25.733C100.598 26.1084 101.428 26.5276 102.235 26.9891C102.672 27.2038 103.066 27.4981 103.397 27.8572L107.377 20.2624C106.196 19.5931 104.86 18.9239 103.368 18.2546C101.816 17.564 100.21 17.0044 98.5671 16.5814C96.8242 16.1315 95.0319 15.9066 93.233 15.9122C90.7456 15.8817 88.2794 16.3773 85.9929 17.3671C83.8644 18.2803 82.0339 19.7814 80.7117 21.698C79.3962 23.6379 78.7384 25.9949 78.7384 28.7689C78.6765 30.505 79.0655 32.2271 79.8667 33.7642C80.7093 35.1886 81.9124 36.3605 83.3523 37.1591C85.2337 38.2172 87.2298 39.052 89.3009 39.647C91.1445 40.2064 92.7753 40.7059 94.1933 41.1456C95.3758 41.4883 96.5065 41.9925 97.554 42.6442C97.9452 42.8892 98.2659 43.2336 98.4841 43.6429C98.7023 44.0522 98.8104 44.5122 98.7975 44.9769C98.8044 45.4074 98.6978 45.8319 98.4885 46.2069C98.2793 46.582 97.975 46.8939 97.6069 47.1109C96.8131 47.6217 95.6064 47.8755 93.9868 47.8723C92.4749 47.8718 90.9699 47.6663 89.5122 47.2612C88.1436 46.8891 86.805 46.4124 85.508 45.8354C84.4702 45.3821 83.463 44.8604 82.4929 44.2737C81.9728 43.9902 81.4891 43.6432 81.0526 43.2407L77.0724 51.2235C78.6678 52.2899 80.3725 53.1794 82.1568 53.8763C84.0241 54.6063 85.9522 55.1662 87.9182 55.5495C89.8572 55.9347 91.8282 56.1312 93.8044 56.1363C95.6458 56.1406 97.4812 55.9257 99.2728 55.4961C100.958 55.111 102.559 54.4174 103.997 53.4495C105.38 52.5039 106.509 51.2278 107.286 49.7346C108.145 47.9878 108.562 46.0534 108.501 44.104C108.501 41.6694 108.012 39.7117 107.036 38.2309C105.972 36.6738 104.526 35.4222 102.84 34.5984Z" fill="#575756"/>
<path d="M130.384 47.4843C129.857 47.9266 129.26 48.2759 128.617 48.5173C127.742 48.8344 126.807 48.9463 125.883 48.8446C124.959 48.743 124.07 48.4304 123.283 47.9305C122.31 47.2656 121.52 46.3609 120.988 45.3019C120.411 44.0846 120.11 42.7531 120.105 41.4035C120.1 40.054 120.392 38.7202 120.96 37.4986C121.494 36.4544 122.296 35.5749 123.283 34.9524C124.27 34.3338 125.411 34.014 126.572 34.031C127.578 34.021 128.57 34.2715 129.453 34.7585C130.327 35.2476 131.06 35.9579 131.58 36.8196L140.193 34.1959C139.029 31.8785 137.237 29.9428 135.027 28.6138C132.725 27.1782 129.917 26.4621 126.601 26.4653C123.285 26.4685 120.486 27.1572 118.204 28.5313C115.962 29.8387 114.118 31.7406 112.87 34.031C111.639 36.2864 111.001 38.8226 111.016 41.3978C111.006 43.3554 111.362 45.2973 112.068 47.1206C112.761 48.9072 113.804 50.5338 115.136 51.9025C116.525 53.3302 118.191 54.4544 120.028 55.2052C124.08 56.7423 128.533 56.8142 132.631 55.4089C134.325 54.7831 135.889 53.8458 137.245 52.6445C138.505 51.5347 139.529 50.1786 140.255 48.658L131.613 45.976C131.307 46.5562 130.889 47.0689 130.384 47.4843Z" fill="#575756"/>
<path d="M160.809 26.1064C159.016 26.1609 157.282 26.7629 155.835 27.8329C154.181 29.0365 152.85 30.6386 151.965 32.4936V26.8872H143.842V55.855H152.676V38.2745C153.544 36.8542 154.87 35.7789 156.43 35.2289C158.283 34.5184 160.253 34.1679 162.235 34.1959V26.1598C162.062 26.1201 161.884 26.1022 161.707 26.1064H160.809Z" fill="#575756"/>
<path d="M178.491 46.8732L171.77 26.8872H162.648L173.69 55.952C173.469 56.9787 173.136 57.9774 172.696 58.9298C172.416 59.5693 171.967 60.1193 171.4 60.5205C170.859 60.8515 170.236 61.0197 169.604 61.0055C169.019 60.999 168.435 60.9341 167.862 60.8115C167.218 60.6806 166.527 60.506 165.788 60.2829V67.8971C166.521 68.1846 167.28 68.4006 168.054 68.5421C168.802 68.6731 169.56 68.738 170.32 68.7361C172.031 68.7546 173.727 68.4041 175.294 67.7079C176.77 67.0469 178.09 66.0746 179.163 64.8562C180.24 63.6335 181.057 62.2008 181.564 60.6466L192.607 26.8727H184.238L178.491 46.8732Z" fill="#575756"/>
<path d="M223.055 30.8689C221.966 29.5203 220.613 28.4139 219.08 27.6195C217.51 26.8247 215.775 26.4206 214.02 26.441C212.047 26.3936 210.098 26.8738 208.369 27.8329C206.754 28.7759 205.425 30.148 204.528 31.8001V15.1071H195.675V55.8453H203.356V50.9955C204.274 52.6664 205.632 54.0479 207.279 54.9869C209.057 55.9666 211.059 56.4567 213.083 56.4079C214.908 56.4364 216.717 56.0688 218.388 55.33C220.06 54.5912 221.555 53.4984 222.772 52.1255C224.004 50.7405 224.97 49.1352 225.619 47.3921C226.312 45.5324 226.658 43.5594 226.642 41.5724C226.653 39.5613 226.328 37.5627 225.682 35.6605C225.096 33.9179 224.207 32.2952 223.055 30.8689ZM217.059 44.4483C216.742 45.3088 216.251 46.0933 215.618 46.752C214.962 47.4249 214.18 47.9586 213.316 48.3217C212.453 48.6848 211.527 48.87 210.592 48.8665C209.981 48.8625 209.375 48.761 208.796 48.5658C208.197 48.3715 207.621 48.1079 207.082 47.7801C206.54 47.4449 206.049 47.0333 205.622 46.558C205.176 46.0642 204.804 45.5071 204.518 44.9042V38.9632C204.911 38.0398 205.451 37.1879 206.117 36.4413C206.754 35.72 207.518 35.1233 208.369 34.6808C209.32 34.196 210.383 33.9755 211.447 34.042C212.51 34.1085 213.538 34.4595 214.423 35.0591C215.411 35.7639 216.2 36.7167 216.713 37.8235C217.268 38.9897 217.552 40.2687 217.544 41.5627C217.557 42.5511 217.393 43.5338 217.059 44.4629V44.4483Z" fill="#575756"/>
<path d="M258.176 33.997C256.939 31.7236 255.113 29.8326 252.894 28.5265C250.59 27.1362 247.799 26.4411 244.521 26.4411C241.244 26.4411 238.443 27.1443 236.119 28.5507C233.88 29.8738 232.038 31.7864 230.79 34.0843C229.54 36.4146 228.902 39.0292 228.937 41.6791C228.926 43.596 229.278 45.4973 229.974 47.2806C230.661 49.0503 231.704 50.6569 233.037 51.9995C234.437 53.3969 236.1 54.4953 237.929 55.2294C240.025 56.0522 242.259 56.4542 244.507 56.4128C246.566 56.438 248.613 56.0982 250.556 55.4089C252.295 54.7896 253.906 53.8526 255.309 52.6445C256.614 51.5279 257.677 50.1508 258.43 48.5998L250.916 46.4804C250.441 47.5952 249.591 48.5041 248.516 49.0459C247.374 49.6841 246.09 50.0179 244.785 50.0159C243.735 50.0186 242.697 49.7867 241.746 49.3369C240.803 48.8974 239.993 48.2129 239.398 47.3534C238.764 46.4023 238.393 45.2972 238.323 44.1525H259.765C259.798 43.7888 259.846 43.3571 259.899 42.8625C259.957 42.3602 259.986 41.855 259.986 41.3493C260.011 38.7829 259.388 36.2524 258.176 33.997ZM238.136 38.6625C238.252 37.5758 238.609 36.5296 239.182 35.6023C239.721 34.7451 240.475 34.0473 241.367 33.58C242.316 33.1047 243.361 32.8574 244.42 32.8574C245.48 32.8574 246.525 33.1047 247.474 33.58C248.377 34.0411 249.14 34.7398 249.682 35.6023C250.255 36.5303 250.614 37.5759 250.734 38.6625H238.136Z" fill="#575756"/>
</g>
<defs>
<clipPath id="clip0_2_36">
<rect width="260" height="72" fill="white"/>
</clipPath>
</defs>
</svg>
