<svg id="svg" version="1.1" xmlns="http://www.w3.org/2000/svg" xmlns:xlink="http://www.w3.org/1999/xlink" width="400" height="238.05555555555557" viewBox="0, 0, 400,238.05555555555557"><g id="svgg"><path id="path0" d="M0.000 111.667 C 0.000 181.283,0.084 223.333,0.224 223.333 C 0.485 223.333,0.798 222.883,0.871 222.401 C 0.934 221.981,2.406 220.702,2.652 220.854 C 2.752 220.915,2.954 220.740,3.102 220.464 C 3.252 220.183,3.515 220.019,3.701 220.090 C 3.883 220.160,4.106 220.098,4.196 219.953 C 4.301 219.783,4.250 219.756,4.054 219.877 C 3.849 220.004,3.786 219.957,3.864 219.736 C 3.928 219.554,4.155 219.419,4.368 219.437 C 4.582 219.455,4.698 219.375,4.626 219.259 C 4.554 219.143,4.710 219.048,4.972 219.048 C 5.234 219.048,5.519 218.933,5.605 218.793 C 5.692 218.653,5.895 218.590,6.058 218.652 C 6.220 218.715,6.504 218.658,6.688 218.527 C 6.954 218.338,6.937 218.316,6.607 218.422 C 6.378 218.496,6.190 218.453,6.190 218.326 C 6.190 218.110,6.612 218.002,7.337 218.034 C 7.510 218.041,7.591 217.988,7.518 217.915 C 7.351 217.748,7.838 217.143,8.138 217.143 C 8.261 217.143,8.296 217.249,8.216 217.378 C 8.133 217.513,8.228 217.553,8.439 217.472 C 8.641 217.395,8.762 217.258,8.706 217.168 C 8.598 216.992,9.188 216.720,11.119 216.055 C 11.799 215.821,12.309 215.552,12.251 215.459 C 12.193 215.365,12.302 215.228,12.494 215.154 C 12.685 215.081,12.914 215.138,13.002 215.281 C 13.105 215.447,13.258 215.379,13.427 215.092 C 13.572 214.845,13.958 214.619,14.286 214.589 C 15.294 214.498,15.841 214.383,16.141 214.197 C 16.299 214.099,16.432 214.106,16.436 214.212 C 16.440 214.318,16.553 214.217,16.687 213.987 C 16.861 213.688,17.099 213.611,17.522 213.717 C 17.898 213.812,18.263 213.733,18.521 213.502 C 18.745 213.302,19.250 213.085,19.643 213.021 C 20.738 212.841,21.204 212.597,21.024 212.296 C 20.934 212.147,21.042 212.171,21.264 212.351 C 21.526 212.564,21.667 212.584,21.667 212.410 C 21.667 212.263,21.860 212.143,22.095 212.143 C 22.331 212.143,22.648 212.019,22.799 211.867 C 23.008 211.658,23.175 211.673,23.488 211.927 C 23.715 212.111,23.834 212.149,23.752 212.012 C 23.669 211.874,23.836 211.616,24.123 211.438 C 24.611 211.134,24.621 211.140,24.286 211.548 C 23.950 211.956,23.962 211.965,24.485 211.686 C 24.791 211.523,25.103 211.452,25.180 211.529 C 25.256 211.605,25.488 211.523,25.695 211.346 C 26.184 210.928,26.976 210.644,26.784 210.955 C 26.704 211.085,26.752 211.190,26.891 211.190 C 27.029 211.190,27.143 211.076,27.143 210.936 C 27.143 210.786,27.349 210.748,27.649 210.843 C 27.989 210.951,28.102 210.917,27.992 210.740 C 27.897 210.587,28.010 210.463,28.260 210.445 C 29.709 210.342,29.956 210.354,29.851 210.525 C 29.786 210.629,29.836 210.714,29.960 210.714 C 30.085 210.714,30.258 210.530,30.344 210.304 C 30.479 209.953,30.534 209.945,30.723 210.245 C 30.873 210.482,30.946 210.499,30.949 210.298 C 30.951 210.134,31.066 210.000,31.205 210.000 C 31.343 210.000,31.390 210.107,31.310 210.238 C 31.229 210.369,31.276 210.476,31.415 210.476 C 31.553 210.476,31.668 210.289,31.670 210.060 C 31.672 209.824,31.750 209.746,31.849 209.881 C 32.110 210.236,32.846 210.165,33.102 209.760 C 33.225 209.565,33.329 209.512,33.333 209.643 C 33.337 209.774,33.444 209.720,33.571 209.524 C 33.725 209.286,33.803 209.266,33.806 209.464 C 33.810 209.819,34.449 209.867,34.564 209.521 C 34.663 209.225,35.663 209.011,35.814 209.254 C 36.012 209.575,37.619 209.255,37.619 208.894 C 37.619 208.622,37.719 208.608,38.124 208.825 C 38.479 209.015,38.581 209.017,38.467 208.833 C 38.376 208.686,38.467 208.571,38.676 208.571 C 38.881 208.571,39.048 208.686,39.048 208.827 C 39.048 208.967,39.205 208.924,39.398 208.731 C 39.591 208.539,40.129 208.381,40.595 208.381 C 41.060 208.381,41.590 208.258,41.771 208.107 C 41.998 207.919,42.149 207.912,42.255 208.084 C 42.362 208.257,42.572 208.248,42.931 208.057 C 43.405 207.805,43.422 207.816,43.121 208.181 C 42.832 208.531,42.839 208.563,43.181 208.432 C 43.396 208.350,43.573 208.106,43.575 207.891 C 43.578 207.563,43.614 207.555,43.796 207.844 C 43.969 208.116,44.134 208.132,44.597 207.922 C 44.917 207.775,45.273 207.746,45.387 207.857 C 45.502 207.968,45.997 207.919,46.488 207.748 C 46.979 207.577,47.381 207.517,47.381 207.614 C 47.381 207.711,47.648 207.740,47.973 207.678 C 48.335 207.609,48.503 207.459,48.404 207.294 C 48.313 207.143,48.409 207.160,48.624 207.333 C 48.907 207.563,49.049 207.572,49.175 207.367 C 49.300 207.166,49.406 207.179,49.572 207.415 C 49.749 207.668,49.825 207.673,49.919 207.439 C 49.986 207.274,50.160 207.214,50.306 207.304 C 50.655 207.519,52.452 207.410,52.613 207.164 C 52.682 207.059,53.297 206.994,53.980 207.021 C 54.662 207.048,55.172 206.990,55.112 206.893 C 55.052 206.796,55.618 206.732,56.371 206.751 C 57.328 206.775,57.827 206.679,58.036 206.429 C 58.295 206.119,58.315 206.127,58.189 206.488 C 58.036 206.929,58.322 207.046,58.702 206.697 C 59.045 206.383,60.238 206.151,60.238 206.399 C 60.238 206.518,60.414 206.683,60.629 206.766 C 60.925 206.879,60.959 206.842,60.768 206.613 C 60.555 206.356,61.664 206.175,61.964 206.417 C 62.197 206.605,62.857 206.579,62.857 206.382 C 62.857 206.249,63.014 206.200,63.207 206.274 C 63.399 206.347,63.620 206.305,63.697 206.180 C 63.954 205.764,64.519 205.924,64.362 206.369 C 64.243 206.709,64.275 206.731,64.536 206.488 C 64.713 206.324,65.157 206.190,65.524 206.190 C 65.890 206.190,66.190 206.083,66.190 205.952 C 66.190 205.821,66.304 205.714,66.443 205.714 C 66.581 205.714,66.629 205.821,66.548 205.952 C 66.456 206.101,66.937 206.190,67.829 206.190 C 68.615 206.190,69.320 206.090,69.396 205.967 C 69.511 205.781,70.534 205.769,70.952 205.949 C 71.160 206.039,72.720 205.930,73.185 205.794 C 73.502 205.701,73.577 205.750,73.445 205.964 C 73.320 206.167,73.356 206.205,73.556 206.081 C 73.719 205.980,77.084 205.889,81.033 205.879 C 87.925 205.861,88.022 205.854,83.452 205.720 L 78.690 205.580 83.512 205.528 C 86.655 205.494,88.333 205.560,88.333 205.718 C 88.333 205.872,89.371 205.937,91.191 205.897 C 92.762 205.862,94.048 205.910,94.048 206.004 C 94.048 206.099,94.182 206.131,94.345 206.077 C 95.145 205.814,97.367 205.786,97.470 206.038 C 97.543 206.216,97.588 206.202,97.600 205.998 C 97.611 205.826,97.740 205.761,97.888 205.853 C 98.259 206.082,102.364 206.356,102.233 206.143 C 102.174 206.049,102.454 206.086,102.854 206.225 C 103.396 206.414,103.671 206.404,103.934 206.186 C 104.170 205.990,104.286 205.980,104.286 206.155 C 104.286 206.336,104.470 206.347,104.879 206.191 C 105.304 206.029,105.456 206.044,105.414 206.243 C 105.383 206.396,105.571 206.516,105.833 206.511 C 107.170 206.483,107.404 206.420,107.235 206.131 C 107.139 205.967,107.267 206.006,107.519 206.216 C 108.228 206.811,109.013 206.922,109.276 206.466 C 109.486 206.099,109.553 206.100,110.222 206.474 C 110.636 206.705,111.001 206.781,111.080 206.653 C 111.156 206.529,111.326 206.429,111.457 206.429 C 111.588 206.429,111.614 206.563,111.516 206.726 C 111.412 206.900,111.524 206.875,111.786 206.667 C 112.032 206.470,112.161 206.431,112.072 206.580 C 111.979 206.736,112.110 206.903,112.384 206.975 C 112.645 207.043,112.798 207.001,112.724 206.883 C 112.651 206.764,112.704 206.667,112.843 206.667 C 112.982 206.667,113.097 206.801,113.099 206.964 C 113.101 207.149,113.169 207.171,113.277 207.024 C 113.533 206.676,115.000 206.607,115.000 206.944 C 115.000 207.097,115.062 207.161,115.137 207.085 C 115.212 207.010,115.586 207.038,115.967 207.147 C 116.348 207.256,116.707 207.270,116.765 207.176 C 116.904 206.952,117.915 207.003,118.323 207.255 C 118.557 207.400,118.593 207.363,118.454 207.120 C 118.300 206.850,118.325 206.843,118.584 207.083 C 118.944 207.417,119.380 207.489,119.191 207.183 C 119.124 207.073,119.220 206.984,119.405 206.984 C 119.590 206.984,119.672 207.100,119.587 207.242 C 119.502 207.384,119.614 207.353,119.835 207.173 C 120.136 206.929,120.238 206.921,120.238 207.140 C 120.238 207.336,120.441 207.382,120.853 207.278 C 121.252 207.178,121.415 207.211,121.315 207.371 C 121.100 207.720,121.748 207.681,122.105 207.323 C 122.341 207.088,122.439 207.089,122.588 207.330 C 122.720 207.544,123.188 207.597,124.174 207.512 C 125.137 207.428,125.631 207.482,125.759 207.683 C 125.905 207.914,125.946 207.913,125.949 207.679 C 125.951 207.515,126.066 207.381,126.205 207.381 C 126.343 207.381,126.390 207.488,126.310 207.619 C 126.229 207.750,126.336 207.857,126.548 207.857 C 126.767 207.857,126.863 207.744,126.771 207.595 C 126.654 207.406,126.745 207.406,127.101 207.597 C 127.371 207.741,127.662 207.971,127.746 208.108 C 127.852 208.280,127.994 208.278,128.207 208.102 C 128.421 207.923,128.709 207.921,129.165 208.095 C 129.739 208.313,129.799 208.292,129.669 207.921 C 129.545 207.563,129.576 207.569,129.880 207.962 C 130.079 208.219,130.238 208.292,130.238 208.127 C 130.238 207.963,130.347 207.896,130.480 207.979 C 130.613 208.061,130.666 208.219,130.598 208.329 C 130.483 208.516,131.650 208.437,132.315 208.213 C 132.475 208.159,132.713 208.298,132.844 208.522 C 133.034 208.849,133.083 208.858,133.092 208.571 C 133.101 208.254,133.128 208.254,133.333 208.571 C 133.487 208.810,133.565 208.829,133.568 208.631 C 133.570 208.467,133.792 208.333,134.062 208.333 C 134.331 208.333,134.486 208.440,134.405 208.571 C 134.324 208.702,134.431 208.810,134.643 208.810 C 134.855 208.810,134.973 208.721,134.906 208.612 C 134.839 208.503,135.020 208.436,135.309 208.462 C 135.597 208.489,135.804 208.639,135.768 208.797 C 135.732 208.954,135.793 209.027,135.904 208.959 C 136.303 208.712,137.389 208.604,137.253 208.824 C 137.177 208.947,137.342 209.048,137.619 209.048 C 137.957 209.048,138.066 208.949,137.949 208.750 C 137.854 208.586,137.990 208.640,138.252 208.869 C 138.776 209.328,139.162 209.426,138.924 209.040 C 138.742 208.745,139.736 208.890,140.424 209.258 C 140.680 209.395,140.963 209.434,141.053 209.344 C 141.526 208.870,143.095 209.057,143.099 209.587 C 143.101 209.888,143.179 210.008,143.277 209.864 C 143.596 209.399,144.295 209.272,144.442 209.653 C 144.548 209.930,144.655 209.949,144.909 209.739 C 145.158 209.532,145.325 209.538,145.595 209.762 C 145.792 209.925,145.952 209.978,145.952 209.881 C 145.952 209.783,146.100 209.826,146.279 209.975 C 146.459 210.124,146.762 210.187,146.953 210.113 C 147.143 210.040,147.585 210.089,147.935 210.222 C 148.342 210.377,148.571 210.381,148.571 210.232 C 148.571 210.104,148.685 210.000,148.824 210.000 C 148.962 210.000,149.004 210.116,148.917 210.257 C 148.821 210.412,148.934 210.493,149.200 210.459 C 149.444 210.428,149.841 210.489,150.084 210.593 C 150.364 210.714,150.592 210.675,150.709 210.484 C 150.811 210.319,150.934 210.286,150.983 210.412 C 151.032 210.537,151.446 210.709,151.905 210.795 C 152.492 210.906,152.633 210.882,152.381 210.716 C 152.104 210.534,152.167 210.492,152.661 210.529 C 153.012 210.556,153.247 210.662,153.183 210.765 C 153.119 210.868,153.225 210.952,153.418 210.952 C 153.612 210.952,153.824 210.818,153.890 210.655 C 153.958 210.487,154.018 210.552,154.029 210.803 C 154.044 211.172,154.109 211.198,154.405 210.952 C 154.652 210.747,154.853 210.731,155.060 210.900 C 155.442 211.214,156.468 211.345,156.820 211.125 C 156.970 211.032,157.149 211.100,157.217 211.277 C 157.302 211.499,157.643 211.569,158.313 211.502 C 158.895 211.444,159.286 211.505,159.286 211.655 C 159.286 211.792,159.399 211.905,159.538 211.905 C 159.677 211.905,159.724 211.798,159.643 211.667 C 159.408 211.287,159.800 211.391,160.320 211.845 C 160.582 212.074,160.718 212.128,160.622 211.964 C 160.501 211.758,160.639 211.667,161.071 211.667 C 161.414 211.667,161.639 211.756,161.572 211.866 C 161.504 211.975,161.792 212.042,162.212 212.014 C 162.632 211.986,163.131 212.084,163.320 212.232 C 163.595 212.447,163.621 212.429,163.452 212.143 C 163.285 211.859,163.313 211.839,163.585 212.044 C 163.774 212.185,164.330 212.293,164.821 212.282 C 165.365 212.270,165.714 212.373,165.714 212.546 C 165.714 212.832,166.434 212.791,166.942 212.477 C 167.095 212.382,167.152 212.411,167.071 212.543 C 166.943 212.750,167.496 212.857,168.690 212.857 C 170.206 212.857,170.696 212.933,170.564 213.146 C 170.500 213.249,170.588 213.342,170.760 213.353 C 172.125 213.437,172.430 213.503,172.580 213.746 C 172.688 213.921,172.877 213.945,173.094 213.811 C 173.306 213.679,173.560 213.701,173.760 213.867 C 174.003 214.069,174.132 214.059,174.276 213.825 C 174.425 213.585,174.527 213.615,174.727 213.960 C 174.869 214.204,174.989 214.271,174.993 214.107 C 174.997 213.943,175.167 213.810,175.371 213.810 C 175.575 213.810,175.684 213.904,175.612 214.020 C 175.540 214.136,175.748 214.282,176.074 214.345 C 176.400 214.407,176.667 214.372,176.667 214.267 C 176.667 214.163,176.881 214.093,177.143 214.113 C 177.405 214.133,177.619 214.240,177.619 214.350 C 177.619 214.461,177.717 214.491,177.837 214.417 C 177.957 214.343,178.109 214.417,178.175 214.582 C 178.271 214.820,178.300 214.820,178.315 214.583 C 178.334 214.271,178.996 214.189,179.608 214.424 C 179.830 214.509,179.912 214.717,179.820 214.960 C 179.686 215.314,179.715 215.312,180.090 214.940 C 180.550 214.484,180.828 214.386,180.595 214.762 C 180.455 214.989,180.942 215.107,181.631 215.012 C 181.808 214.988,181.882 215.082,181.796 215.222 C 181.709 215.362,181.746 215.476,181.877 215.476 C 182.008 215.476,182.181 215.369,182.262 215.237 C 182.359 215.081,182.590 215.095,182.931 215.278 C 183.218 215.431,183.479 215.539,183.512 215.516 C 183.819 215.309,184.758 215.529,184.611 215.774 C 184.507 215.947,184.620 215.922,184.881 215.714 C 185.196 215.463,185.272 215.452,185.138 215.676 C 184.993 215.916,185.113 215.979,185.628 215.934 C 186.003 215.901,186.885 216.050,187.589 216.266 C 188.293 216.482,188.987 216.585,189.132 216.495 C 189.588 216.214,190.197 216.259,190.079 216.565 C 190.018 216.725,190.102 216.940,190.267 217.042 C 190.438 217.147,190.607 217.106,190.661 216.947 C 190.777 216.597,191.584 216.579,191.796 216.921 C 191.882 217.061,192.118 217.112,192.320 217.034 C 192.523 216.957,192.905 217.083,193.171 217.316 C 193.436 217.548,193.575 217.604,193.479 217.440 C 193.270 217.082,193.715 217.036,193.936 217.393 C 194.040 217.561,194.184 217.564,194.379 217.402 C 194.577 217.238,194.871 217.268,195.311 217.496 C 195.664 217.679,196.170 217.788,196.435 217.737 C 196.721 217.682,197.028 217.822,197.190 218.083 C 197.425 218.459,197.512 218.474,197.797 218.189 C 198.210 217.777,198.595 217.756,198.442 218.155 C 198.331 218.445,198.579 218.494,200.654 218.585 C 201.080 218.603,201.375 218.704,201.310 218.808 C 201.139 219.086,201.777 219.274,202.137 219.051 C 202.306 218.947,202.744 218.947,203.109 219.052 C 203.475 219.156,203.835 219.181,203.911 219.105 C 203.986 219.030,204.048 219.074,204.048 219.203 C 204.048 219.332,204.488 219.435,205.027 219.432 C 205.607 219.429,206.117 219.567,206.277 219.773 C 206.578 220.158,207.460 220.321,207.231 219.949 C 207.151 219.820,207.313 219.836,207.590 219.985 C 207.868 220.133,208.095 220.184,208.095 220.098 C 208.095 220.012,208.239 220.061,208.415 220.207 C 208.591 220.353,208.805 220.402,208.891 220.315 C 208.977 220.229,209.048 220.284,209.048 220.437 C 209.048 220.589,209.215 220.714,209.419 220.714 C 209.637 220.714,209.728 220.592,209.639 220.417 C 209.556 220.253,209.631 220.280,209.805 220.476 C 210.167 220.886,210.826 221.088,210.599 220.720 C 210.380 220.365,211.100 220.421,211.471 220.787 C 211.877 221.188,212.619 221.470,212.619 221.223 C 212.619 220.889,213.307 221.017,213.445 221.376 C 213.541 221.625,213.661 221.651,213.880 221.469 C 214.089 221.295,214.290 221.294,214.532 221.465 C 214.816 221.666,214.801 221.686,214.452 221.573 C 214.176 221.483,214.081 221.527,214.185 221.696 C 214.278 221.848,214.683 221.903,215.149 221.827 C 215.795 221.722,215.953 221.775,215.956 222.098 C 215.959 222.431,215.997 222.442,216.176 222.158 C 216.347 221.888,216.465 221.877,216.737 222.103 C 216.927 222.260,217.268 222.318,217.494 222.231 C 217.736 222.138,217.992 222.210,218.116 222.406 C 218.279 222.664,218.327 222.668,218.330 222.426 C 218.332 222.255,218.442 222.182,218.575 222.264 C 218.708 222.347,218.746 222.529,218.659 222.670 C 218.550 222.846,218.849 222.888,219.607 222.802 C 220.266 222.728,220.714 222.773,220.714 222.914 C 220.714 223.044,220.925 223.096,221.182 223.029 C 221.439 222.961,221.777 223.061,221.934 223.250 C 222.091 223.439,222.359 223.539,222.531 223.474 C 222.702 223.408,222.908 223.462,222.990 223.593 C 223.086 223.749,223.255 223.735,223.474 223.554 C 223.673 223.389,223.810 223.373,223.810 223.515 C 223.810 223.646,224.024 223.810,224.286 223.879 C 224.548 223.947,224.762 223.916,224.762 223.810 C 224.762 223.703,224.976 223.672,225.238 223.741 C 225.500 223.809,225.714 223.973,225.714 224.105 C 225.714 224.236,225.883 224.204,226.090 224.033 C 226.401 223.774,226.503 223.780,226.685 224.063 C 226.852 224.323,226.950 224.336,227.092 224.116 C 227.200 223.949,227.510 223.888,227.826 223.971 C 228.165 224.059,228.270 224.178,228.103 224.281 C 227.954 224.373,228.454 224.436,229.214 224.421 C 230.229 224.401,230.717 224.505,231.054 224.813 C 231.306 225.044,231.567 225.180,231.632 225.114 C 231.697 225.049,231.547 224.846,231.297 224.663 C 230.875 224.354,230.890 224.340,231.506 224.458 C 231.987 224.550,232.131 224.688,232.027 224.958 C 231.919 225.239,232.013 225.218,232.411 224.868 C 232.823 224.505,232.908 224.487,232.800 224.784 C 232.693 225.081,232.789 225.140,233.237 225.054 C 233.554 224.993,233.987 225.089,234.200 225.266 C 234.622 225.616,235.281 225.697,235.485 225.425 C 235.556 225.331,235.902 225.404,236.255 225.587 C 236.617 225.775,236.955 225.825,237.031 225.703 C 237.107 225.579,237.368 225.612,237.637 225.779 C 238.024 226.018,238.151 226.006,238.337 225.714 C 238.541 225.393,238.674 225.543,238.600 226.012 C 238.553 226.309,238.998 226.212,239.147 225.893 C 239.252 225.666,239.318 225.663,239.420 225.879 C 239.494 226.036,239.710 226.104,239.899 226.031 C 240.089 225.959,240.377 225.993,240.539 226.108 C 240.891 226.358,241.442 226.363,241.829 226.121 C 241.983 226.024,242.174 226.049,242.253 226.176 C 242.332 226.304,242.545 226.351,242.727 226.281 C 242.909 226.211,243.272 226.268,243.534 226.408 C 243.882 226.595,244.034 226.588,244.103 226.382 C 244.163 226.203,244.385 226.290,244.717 226.622 C 245.004 226.908,245.238 227.022,245.238 226.875 C 245.238 226.524,246.694 226.805,246.949 227.206 C 247.052 227.368,247.137 227.389,247.139 227.254 C 247.141 227.119,247.417 226.986,247.751 226.958 C 248.161 226.924,248.304 226.998,248.188 227.185 C 248.074 227.369,248.147 227.412,248.406 227.313 C 248.619 227.231,248.861 227.271,248.942 227.403 C 249.037 227.556,249.225 227.530,249.465 227.333 C 249.761 227.088,249.860 227.086,249.940 227.321 C 249.995 227.485,250.144 227.619,250.272 227.619 C 250.400 227.619,250.442 227.518,250.365 227.393 C 250.281 227.258,250.631 227.217,251.239 227.290 C 251.797 227.357,252.334 227.539,252.432 227.694 C 252.566 227.904,252.613 227.905,252.615 227.700 C 252.617 227.548,252.807 227.459,253.036 227.503 C 253.265 227.547,253.593 227.591,253.764 227.601 C 253.935 227.611,254.010 227.726,253.929 227.856 C 253.832 228.013,253.988 228.015,254.391 227.862 C 254.861 227.684,255.000 227.705,255.000 227.959 C 255.000 228.346,256.914 228.361,257.202 227.976 C 257.315 227.826,257.462 227.864,257.601 228.080 C 257.780 228.358,257.889 228.365,258.183 228.121 C 258.482 227.873,258.617 227.905,258.958 228.303 C 259.185 228.568,259.485 228.711,259.626 228.620 C 260.004 228.376,260.952 228.397,260.952 228.649 C 260.952 228.769,261.104 228.742,261.290 228.587 C 261.557 228.366,261.681 228.397,261.878 228.737 C 262.016 228.973,262.132 229.056,262.136 228.921 C 262.145 228.606,263.333 228.498,263.333 228.812 C 263.333 228.942,263.554 229.048,263.824 229.048 C 264.152 229.048,264.255 228.950,264.135 228.750 C 264.017 228.553,264.094 228.565,264.365 228.784 C 264.590 228.966,264.841 229.048,264.924 228.965 C 265.007 228.882,265.240 228.947,265.440 229.109 C 265.732 229.345,265.770 229.345,265.627 229.107 C 265.506 228.906,265.612 228.810,265.952 228.810 C 266.230 228.810,266.404 228.895,266.340 228.999 C 266.192 229.238,267.166 229.225,267.543 228.983 C 267.698 228.883,267.892 228.911,267.975 229.046 C 268.058 229.180,268.387 229.242,268.706 229.184 C 269.025 229.126,269.286 229.179,269.286 229.301 C 269.286 229.628,270.329 229.572,270.702 229.226 C 270.960 228.986,270.987 228.991,270.838 229.252 C 270.699 229.497,270.777 229.536,271.161 229.414 C 271.446 229.324,271.667 229.357,271.667 229.491 C 271.667 229.646,271.936 229.651,272.440 229.506 C 273.003 229.344,273.279 229.365,273.452 229.582 C 273.656 229.837,274.367 229.947,274.762 229.783 C 275.356 229.537,276.671 229.624,276.196 229.878 C 275.736 230.124,275.861 230.159,277.120 230.141 C 278.304 230.123,278.553 230.052,278.454 229.762 C 278.360 229.485,278.401 229.493,278.637 229.795 C 278.876 230.100,279.314 230.175,280.662 230.140 C 281.607 230.115,282.381 230.194,282.381 230.315 C 282.381 230.436,282.531 230.410,282.715 230.257 C 282.971 230.044,283.075 230.051,283.161 230.288 C 283.251 230.534,283.337 230.536,283.589 230.298 C 283.763 230.134,284.017 230.002,284.155 230.004 C 284.292 230.006,284.247 230.107,284.053 230.230 C 283.811 230.383,284.144 230.459,285.125 230.474 C 285.907 230.487,286.708 230.506,286.905 230.518 C 287.101 230.529,287.651 230.461,288.127 230.367 C 288.674 230.258,289.052 230.291,289.153 230.455 C 289.242 230.598,289.549 230.704,289.835 230.691 C 290.321 230.668,290.316 230.654,289.762 230.476 C 289.208 230.299,289.203 230.284,289.688 230.262 C 289.975 230.249,290.276 230.345,290.357 230.476 C 290.568 230.818,291.428 230.770,291.432 230.417 C 291.435 230.209,291.489 230.199,291.611 230.383 C 291.840 230.729,304.563 230.704,304.818 230.357 C 304.926 230.210,304.994 230.232,304.996 230.417 C 305.001 230.782,307.753 230.837,307.976 230.476 C 308.057 230.345,308.305 230.246,308.526 230.255 C 308.854 230.268,308.841 230.309,308.452 230.476 C 307.993 230.673,307.995 230.681,308.498 230.698 C 308.785 230.707,309.081 230.615,309.156 230.493 C 309.309 230.246,310.220 230.290,310.665 230.565 C 310.823 230.662,311.050 230.682,311.169 230.608 C 311.288 230.535,311.820 230.457,312.350 230.437 C 312.929 230.414,313.254 230.303,313.165 230.159 C 313.075 230.013,313.181 229.982,313.435 230.080 C 314.295 230.409,315.067 230.539,314.939 230.332 C 314.867 230.215,315.175 230.098,315.624 230.073 C 316.196 230.041,316.392 230.112,316.280 230.311 C 316.169 230.509,316.218 230.505,316.441 230.298 C 316.824 229.942,317.232 229.901,317.024 230.238 C 316.943 230.369,316.984 230.476,317.115 230.476 C 317.246 230.476,317.416 230.374,317.494 230.248 C 317.571 230.123,317.781 230.077,317.960 230.146 C 318.139 230.214,318.357 230.154,318.445 230.012 C 318.533 229.870,318.701 229.814,318.819 229.887 C 319.379 230.233,320.732 230.151,320.604 229.779 C 320.519 229.534,320.598 229.564,320.833 229.867 C 321.031 230.123,321.190 230.197,321.190 230.031 C 321.190 229.868,321.290 229.795,321.412 229.871 C 321.534 229.946,321.704 229.895,321.789 229.756 C 321.875 229.618,322.164 229.574,322.431 229.659 C 322.698 229.744,322.857 229.717,322.784 229.599 C 322.712 229.481,322.853 229.369,323.098 229.351 C 323.384 229.329,323.500 229.434,323.420 229.640 C 323.341 229.848,323.447 229.941,323.719 229.901 C 323.951 229.867,324.180 229.721,324.229 229.576 C 324.277 229.431,324.470 229.371,324.658 229.444 C 324.846 229.516,325.000 229.464,325.000 229.328 C 325.000 229.167,325.248 229.152,325.714 229.286 C 326.107 229.398,326.429 229.409,326.429 229.309 C 326.429 229.209,326.585 229.127,326.775 229.127 C 326.966 229.127,327.067 229.216,326.999 229.325 C 326.932 229.435,326.984 229.524,327.115 229.524 C 327.246 229.524,327.413 229.427,327.486 229.308 C 327.560 229.189,327.845 229.151,328.120 229.223 C 328.412 229.300,328.709 229.216,328.834 229.022 C 329.015 228.742,329.084 228.746,329.286 229.048 C 329.446 229.288,329.582 229.321,329.702 229.149 C 329.934 228.818,330.790 228.494,330.594 228.812 C 330.514 228.942,330.562 229.048,330.700 229.048 C 330.839 229.048,330.952 228.957,330.952 228.845 C 330.952 228.734,331.397 228.687,331.941 228.742 C 332.584 228.806,333.006 228.731,333.149 228.527 C 333.319 228.287,333.397 228.282,333.488 228.506 C 333.577 228.724,333.751 228.703,334.184 228.419 C 334.502 228.211,334.762 228.137,334.762 228.255 C 334.762 228.373,334.979 228.469,335.244 228.469 C 335.543 228.469,335.681 228.351,335.606 228.158 C 335.512 227.912,335.592 227.903,335.986 228.113 C 336.342 228.304,336.439 228.305,336.324 228.119 C 336.104 227.763,336.496 227.787,336.892 228.155 C 337.152 228.396,337.176 228.388,337.022 228.117 C 336.876 227.861,336.950 227.813,337.335 227.914 C 337.613 227.987,337.955 227.907,338.097 227.736 C 338.370 227.407,338.739 227.395,339.226 227.699 C 339.509 227.876,339.621 227.737,339.546 227.304 C 339.527 227.196,339.649 227.193,339.816 227.297 C 340.378 227.648,340.952 227.625,340.952 227.252 C 340.952 226.962,341.049 226.940,341.429 227.143 C 341.767 227.324,341.905 227.324,341.905 227.143 C 341.905 226.962,342.043 226.962,342.381 227.143 C 342.722 227.326,342.857 227.324,342.857 227.137 C 342.857 226.994,342.955 226.937,343.075 227.011 C 343.195 227.085,343.334 227.021,343.385 226.869 C 343.436 226.716,343.820 226.601,344.239 226.613 C 344.676 226.626,345.002 226.515,345.004 226.353 C 345.006 226.160,345.062 226.152,345.182 226.327 C 345.392 226.633,346.546 226.636,346.825 226.331 C 346.940 226.206,346.904 226.183,346.743 226.275 C 346.588 226.364,346.403 226.342,346.332 226.227 C 346.261 226.112,346.441 226.036,346.732 226.059 C 347.024 226.081,347.369 226.029,347.500 225.944 C 347.981 225.630,348.595 225.483,348.451 225.717 C 348.371 225.846,348.419 225.952,348.557 225.952 C 348.696 225.952,348.810 225.843,348.810 225.710 C 348.810 225.576,349.077 225.515,349.405 225.575 C 349.732 225.634,350.000 225.576,350.000 225.446 C 350.000 225.316,350.100 225.272,350.222 225.347 C 350.344 225.422,350.511 225.375,350.593 225.241 C 350.695 225.077,350.892 225.078,351.205 225.246 C 351.509 225.408,351.667 225.411,351.667 225.254 C 351.667 225.122,351.832 225.078,352.034 225.156 C 352.267 225.245,352.375 225.178,352.331 224.970 C 352.284 224.747,352.472 224.657,352.922 224.688 C 353.372 224.719,353.532 224.644,353.423 224.450 C 353.300 224.232,353.333 224.231,353.569 224.449 C 353.805 224.667,354.001 224.648,354.437 224.362 C 354.747 224.159,355.000 224.072,355.000 224.168 C 355.000 224.265,355.144 224.225,355.320 224.079 C 355.495 223.933,355.707 223.882,355.790 223.965 C 355.873 224.048,356.104 223.980,356.304 223.814 C 356.503 223.649,356.667 223.593,356.667 223.690 C 356.667 223.788,356.801 223.761,356.964 223.631 C 357.128 223.501,357.458 223.426,357.697 223.465 C 357.984 223.511,358.089 223.423,358.007 223.208 C 357.925 222.996,358.002 222.928,358.226 223.014 C 358.416 223.087,358.571 223.028,358.571 222.883 C 358.571 222.738,358.745 222.619,358.958 222.619 C 359.290 222.619,359.299 222.678,359.021 223.036 C 358.719 223.426,358.729 223.428,359.171 223.067 C 359.430 222.856,359.976 222.686,360.384 222.690 C 360.791 222.695,361.451 222.466,361.849 222.183 C 362.247 221.899,362.751 221.667,362.967 221.667 C 363.214 221.667,363.298 221.555,363.193 221.369 C 363.064 221.140,363.095 221.136,363.327 221.350 C 363.649 221.648,364.364 221.509,364.165 221.188 C 364.100 221.083,364.261 221.053,364.523 221.121 C 364.794 221.192,365.000 221.129,365.000 220.976 C 365.000 220.806,365.222 220.761,365.595 220.855 C 366.053 220.969,366.190 220.912,366.190 220.605 C 366.190 220.324,366.322 220.248,366.633 220.346 C 367.271 220.549,367.853 220.266,367.687 219.834 C 367.570 219.528,367.630 219.513,368.054 219.740 C 368.468 219.961,368.642 219.930,369.005 219.566 C 369.249 219.322,369.794 219.053,370.215 218.969 C 370.636 218.885,371.142 218.654,371.340 218.456 C 371.539 218.257,371.914 218.095,372.174 218.095 C 372.469 218.095,372.584 217.992,372.479 217.823 C 372.363 217.636,372.501 217.587,372.919 217.666 C 373.354 217.749,373.494 217.694,373.409 217.472 C 373.329 217.265,373.449 217.192,373.769 217.254 C 374.035 217.305,374.306 217.195,374.378 217.007 C 374.450 216.820,374.700 216.668,374.933 216.670 C 375.294 216.673,375.304 216.708,375.000 216.905 C 374.519 217.216,374.913 217.206,375.499 216.893 C 375.755 216.755,375.894 216.527,375.807 216.386 C 375.714 216.235,375.785 216.176,375.979 216.244 C 376.161 216.307,376.440 216.133,376.599 215.858 C 376.758 215.583,376.892 215.497,376.896 215.669 C 376.901 215.840,377.014 215.913,377.147 215.831 C 377.280 215.749,377.334 215.593,377.267 215.485 C 377.200 215.377,377.311 215.224,377.514 215.147 C 377.725 215.066,377.820 215.106,377.736 215.241 C 377.656 215.370,377.764 215.476,377.976 215.476 C 378.210 215.476,378.294 215.366,378.189 215.198 C 378.075 215.013,378.144 214.968,378.394 215.064 C 378.611 215.147,378.826 215.062,378.902 214.864 C 378.975 214.674,379.131 214.547,379.250 214.581 C 379.368 214.615,379.790 214.356,380.187 214.006 C 380.584 213.655,380.972 213.432,381.049 213.510 C 381.127 213.587,381.190 213.529,381.190 213.380 C 381.190 213.232,381.337 213.166,381.516 213.235 C 381.710 213.309,381.894 213.161,381.970 212.870 C 382.060 212.527,382.220 212.425,382.501 212.533 C 382.767 212.636,383.084 212.476,383.443 212.058 C 383.741 211.712,384.112 211.429,384.268 211.429 C 384.424 211.429,384.499 211.343,384.434 211.238 C 384.369 211.133,384.535 210.911,384.802 210.744 C 385.070 210.577,385.217 210.556,385.130 210.697 C 384.861 211.132,385.194 210.979,385.740 210.417 C 386.026 210.122,386.178 210.026,386.078 210.202 C 385.930 210.462,385.992 210.472,386.400 210.253 C 386.678 210.105,386.905 209.927,386.905 209.859 C 386.905 209.790,386.815 209.789,386.706 209.856 C 386.597 209.924,386.508 209.833,386.508 209.655 C 386.508 209.477,386.655 209.388,386.835 209.457 C 387.029 209.531,387.134 209.449,387.093 209.255 C 387.055 209.076,387.170 208.959,387.348 208.997 C 387.527 209.035,387.829 208.874,388.021 208.640 C 388.228 208.386,388.302 208.359,388.204 208.571 C 388.062 208.880,388.406 208.524,389.538 207.192 C 389.692 207.012,390.003 206.949,390.293 207.041 C 390.681 207.164,390.755 207.116,390.639 206.813 C 390.558 206.602,390.599 206.429,390.732 206.429 C 390.864 206.429,391.209 206.199,391.498 205.917 C 391.787 205.636,391.863 205.496,391.667 205.606 C 391.363 205.776,391.357 205.747,391.625 205.417 C 391.798 205.203,392.084 205.084,392.261 205.152 C 392.622 205.290,393.195 204.402,392.975 204.045 C 392.897 203.919,392.974 203.869,393.148 203.936 C 393.342 204.011,393.574 203.764,393.751 203.294 C 393.910 202.875,394.109 202.601,394.194 202.686 C 394.432 202.925,395.238 202.407,395.238 202.015 C 395.238 201.824,395.372 201.665,395.536 201.663 C 395.765 201.660,395.762 201.614,395.524 201.463 C 395.282 201.309,395.304 201.196,395.630 200.931 C 395.990 200.639,396.020 200.642,395.861 200.952 C 395.753 201.165,395.816 201.143,396.018 200.897 C 396.204 200.669,396.444 200.562,396.550 200.658 C 396.656 200.755,396.662 200.694,396.564 200.523 C 396.451 200.328,396.624 200.007,397.029 199.659 C 397.498 199.256,397.585 199.070,397.348 198.976 C 397.170 198.905,397.283 198.839,397.599 198.828 C 397.916 198.818,398.104 198.739,398.017 198.652 C 397.931 198.566,398.074 198.345,398.335 198.163 C 398.596 197.980,398.810 197.676,398.810 197.486 C 398.810 197.297,398.938 197.143,399.095 197.143 C 399.306 197.143,399.311 197.073,399.114 196.876 C 398.811 196.573,398.983 195.884,399.311 196.087 C 399.428 196.159,399.524 195.938,399.524 195.595 C 399.524 195.242,399.627 195.035,399.761 195.118 C 399.918 195.215,399.998 162.345,399.999 97.632 L 400.001 0.000 200.001 0.000 L 0.000 0.000 0.000 111.667 " stroke="none" fill="#e4f4fc" fill-rule="evenodd"></path><path id="path1" d="M396.758 199.860 C 396.612 200.019,396.366 200.386,396.211 200.676 C 396.056 200.966,395.827 201.141,395.702 201.064 C 395.578 200.987,395.476 201.038,395.476 201.176 C 395.476 201.586,395.900 201.465,396.258 200.954 C 396.441 200.693,396.651 200.540,396.726 200.615 C 396.800 200.689,396.934 200.520,397.024 200.238 C 397.220 199.618,397.117 199.471,396.758 199.860 M393.637 203.585 C 393.550 203.917,393.385 204.027,393.123 203.928 C 392.830 203.816,392.804 203.848,393.015 204.060 C 393.167 204.214,393.395 204.275,393.522 204.197 C 393.770 204.044,394.081 203.095,393.884 203.095 C 393.819 203.095,393.707 203.316,393.637 203.585 M391.684 205.336 C 391.494 205.566,391.484 205.721,391.655 205.826 C 391.792 205.911,391.913 205.947,391.923 205.907 C 392.154 204.973,392.098 204.838,391.684 205.336 M80.357 205.640 C 84.468 205.811,88.334 205.818,88.334 205.655 C 88.334 205.557,86.164 205.497,83.512 205.523 C 80.860 205.550,79.440 205.602,80.357 205.640 M69.386 205.982 C 69.316 206.097,69.645 206.190,70.119 206.190 C 70.593 206.190,70.923 206.097,70.852 205.982 C 70.781 205.868,70.451 205.774,70.119 205.774 C 69.787 205.774,69.457 205.868,69.386 205.982 M72.143 205.952 L 71.071 206.119 72.202 206.155 C 72.824 206.174,73.333 206.083,73.333 205.952 C 73.333 205.821,73.307 205.730,73.274 205.750 C 73.241 205.770,72.732 205.861,72.143 205.952 M95.238 205.976 C 94.263 206.106,94.311 206.122,95.774 206.155 C 96.658 206.174,97.381 206.095,97.381 205.978 C 97.381 205.750,96.938 205.750,95.238 205.976 M97.619 205.985 C 97.619 206.098,97.887 206.190,98.214 206.190 C 98.542 206.190,98.810 206.149,98.810 206.099 C 98.810 206.049,98.542 205.957,98.214 205.894 C 97.887 205.832,97.619 205.873,97.619 205.985 M63.831 206.172 C 63.647 206.289,63.352 206.329,63.176 206.262 C 63.001 206.195,62.857 206.235,62.857 206.352 C 62.857 206.470,63.179 206.590,63.571 206.620 C 64.075 206.658,64.286 206.568,64.286 206.313 C 64.286 205.894,64.275 205.891,63.831 206.172 M103.936 206.179 C 103.831 206.349,103.497 206.398,103.073 206.305 C 102.692 206.221,102.381 206.253,102.381 206.375 C 102.381 206.497,103.086 206.617,103.948 206.641 C 105.040 206.671,105.466 206.604,105.352 206.421 C 105.263 206.276,105.022 206.223,104.816 206.301 C 104.611 206.380,104.367 206.322,104.275 206.173 C 104.150 205.971,104.063 205.972,103.936 206.179 M59.345 206.359 C 58.506 206.520,58.717 206.779,59.745 206.850 C 60.688 206.914,61.198 206.608,60.681 206.289 C 60.507 206.182,60.466 206.220,60.573 206.392 C 60.666 206.543,60.629 206.667,60.490 206.667 C 60.352 206.667,60.238 206.560,60.238 206.429 C 60.238 206.298,60.158 206.205,60.060 206.223 C 59.961 206.241,59.640 206.302,59.345 206.359 M64.673 206.380 C 64.525 206.620,65.613 206.610,65.853 206.369 C 65.951 206.271,65.752 206.190,65.411 206.190 C 65.069 206.190,64.737 206.276,64.673 206.380 M108.813 206.352 C 108.811 206.506,108.622 206.677,108.393 206.733 C 108.164 206.789,108.324 206.834,108.750 206.834 C 109.176 206.833,109.524 206.741,109.524 206.630 C 109.524 206.519,109.637 206.429,109.776 206.429 C 109.915 206.429,109.976 206.513,109.911 206.617 C 109.847 206.721,110.029 206.822,110.314 206.842 C 110.821 206.876,110.822 206.869,110.371 206.534 C 109.803 206.111,109.287 206.090,109.282 206.488 C 109.280 206.687,109.201 206.667,109.048 206.429 C 108.913 206.220,108.815 206.188,108.813 206.352 M55.132 206.926 C 55.288 207.178,57.004 207.140,57.412 206.876 C 57.620 206.741,57.244 206.678,56.378 206.702 C 55.629 206.723,55.069 206.824,55.132 206.926 M113.334 206.964 C 113.334 207.063,113.708 207.143,114.167 207.143 C 114.625 207.143,115.000 207.043,115.000 206.922 C 115.000 206.800,114.625 206.720,114.168 206.743 C 113.710 206.767,113.335 206.866,113.334 206.964 M53.293 207.197 C 53.444 207.349,53.670 207.349,53.942 207.197 C 54.293 207.001,54.257 206.964,53.709 206.964 C 53.285 206.964,53.141 207.045,53.293 207.197 M116.741 207.214 C 116.677 207.319,117.113 207.380,117.712 207.349 C 118.311 207.318,118.743 207.235,118.674 207.166 C 118.472 206.964,116.871 207.004,116.741 207.214 M389.608 207.099 C 389.324 207.283,388.730 208.333,388.909 208.333 C 389.162 208.333,390.197 207.145,390.033 207.044 C 389.937 206.985,389.745 207.009,389.608 207.099 M123.810 207.670 C 123.810 207.773,124.084 207.857,124.419 207.857 C 124.754 207.857,124.966 207.757,124.890 207.634 C 124.727 207.369,123.810 207.400,123.810 207.670 M45.000 207.832 C 44.504 207.970,44.473 208.024,44.814 208.155 C 45.039 208.242,45.287 208.208,45.366 208.081 C 45.445 207.954,45.625 207.921,45.768 208.009 C 45.922 208.104,45.957 208.058,45.856 207.894 C 45.763 207.743,45.666 207.630,45.641 207.643 C 45.616 207.656,45.327 207.741,45.000 207.832 M43.714 208.133 C 43.830 208.322,43.673 208.359,43.190 208.255 C 42.580 208.125,42.559 208.138,43.011 208.365 C 43.346 208.533,43.664 208.543,43.930 208.394 C 44.307 208.183,44.308 208.155,43.942 208.014 C 43.682 207.915,43.604 207.955,43.714 208.133 M127.381 208.086 C 127.381 208.180,127.883 208.275,128.496 208.298 C 129.109 208.321,129.544 208.275,129.464 208.194 C 129.251 207.982,127.381 207.885,127.381 208.086 M40.117 208.574 C 40.072 208.648,40.289 208.730,40.601 208.755 C 40.912 208.781,41.232 208.697,41.311 208.569 C 41.393 208.436,41.187 208.359,40.827 208.388 C 40.482 208.417,40.163 208.501,40.117 208.574 M387.942 208.695 C 387.865 208.893,387.661 209.027,387.489 208.992 C 387.316 208.957,387.151 209.036,387.123 209.167 C 387.094 209.298,386.910 209.522,386.714 209.666 C 386.426 209.876,386.417 209.965,386.667 210.119 C 386.856 210.236,386.920 210.218,386.831 210.073 C 386.749 209.941,386.955 209.688,387.288 209.510 C 387.841 209.214,388.535 208.333,388.215 208.333 C 388.141 208.333,388.018 208.496,387.942 208.695 M135.476 208.789 C 135.476 208.878,135.874 208.977,136.360 209.010 C 136.846 209.043,137.170 208.995,137.079 208.905 C 136.858 208.684,135.476 208.584,135.476 208.789 M138.954 209.088 C 139.021 209.197,139.302 209.286,139.578 209.286 C 139.854 209.286,140.006 209.212,139.916 209.122 C 139.678 208.885,138.809 208.854,138.954 209.088 M141.071 209.286 C 140.984 209.427,141.244 209.517,141.712 209.507 C 142.369 209.493,142.421 209.456,142.024 209.286 C 141.378 209.008,141.243 209.008,141.071 209.286 M143.750 209.464 C 143.137 209.603,143.243 209.889,143.929 209.945 C 144.256 209.972,144.524 209.895,144.524 209.773 C 144.524 209.466,144.241 209.353,143.750 209.464 M33.201 209.861 C 32.836 210.128,32.878 210.153,33.535 210.056 C 34.371 209.933,34.440 209.872,33.952 209.685 C 33.768 209.614,33.430 209.694,33.201 209.861 M144.898 209.735 C 144.826 209.851,145.007 210.010,145.300 210.089 C 146.097 210.302,146.475 210.267,146.307 209.996 C 146.225 209.863,146.065 209.811,145.952 209.881 C 145.840 209.951,145.680 209.899,145.598 209.766 C 145.413 209.468,145.072 209.453,144.898 209.735 M385.795 210.371 C 385.717 210.575,385.508 210.686,385.330 210.618 C 385.153 210.550,384.891 210.711,384.749 210.976 C 384.500 211.442,384.514 211.446,385.193 211.095 C 385.794 210.784,386.413 210.000,386.056 210.000 C 385.991 210.000,385.873 210.167,385.795 210.371 M28.508 210.409 C 28.146 210.464,27.911 210.608,27.986 210.730 C 28.203 211.081,28.983 210.989,29.134 210.595 C 29.209 210.399,29.247 210.254,29.219 210.274 C 29.190 210.293,28.870 210.354,28.508 210.409 M154.405 210.952 C 154.324 211.083,154.485 211.190,154.762 211.190 C 155.039 211.190,155.200 211.083,155.119 210.952 C 155.038 210.821,154.877 210.714,154.762 210.714 C 154.646 210.714,154.486 210.821,154.405 210.952 M25.577 211.458 C 25.513 211.561,25.304 211.586,25.111 211.512 C 24.919 211.438,24.762 211.496,24.762 211.641 C 24.762 211.972,25.397 211.988,25.598 211.663 C 25.680 211.530,25.840 211.478,25.952 211.548 C 26.065 211.617,26.214 211.583,26.283 211.472 C 26.351 211.361,26.247 211.270,26.050 211.270 C 25.854 211.270,25.641 211.354,25.577 211.458 M23.711 211.742 C 23.335 212.016,23.341 212.042,23.790 212.076 C 24.312 212.115,24.665 211.782,24.325 211.572 C 24.211 211.501,23.935 211.578,23.711 211.742 M383.929 211.667 C 384.010 211.798,383.909 211.905,383.705 211.905 C 383.500 211.905,383.333 212.016,383.333 212.151 C 383.333 212.318,383.487 212.316,383.810 212.143 C 384.316 211.872,384.455 211.429,384.034 211.429 C 383.895 211.429,383.848 211.536,383.929 211.667 M160.388 211.854 C 160.325 211.957,160.527 212.063,160.839 212.089 C 161.150 212.114,161.470 212.030,161.550 211.901 C 161.630 211.771,161.430 211.667,161.100 211.667 C 160.772 211.667,160.452 211.751,160.388 211.854 M162.058 212.198 C 162.124 212.305,162.542 212.369,162.986 212.339 C 163.430 212.309,163.734 212.226,163.663 212.155 C 163.451 211.943,161.926 211.984,162.058 212.198 M164.048 212.433 C 164.048 212.535,164.423 212.619,164.881 212.619 C 165.339 212.619,165.714 212.539,165.714 212.440 C 165.714 212.342,165.339 212.259,164.881 212.255 C 164.423 212.250,164.048 212.331,164.048 212.433 M382.019 212.871 C 381.924 213.170,381.728 213.317,381.526 213.239 C 381.342 213.168,381.190 213.220,381.190 213.355 C 381.190 213.489,381.083 213.533,380.952 213.452 C 380.821 213.371,380.714 213.466,380.714 213.662 C 380.714 213.961,380.806 213.972,381.274 213.729 C 382.067 213.318,382.662 212.674,382.400 212.512 C 382.277 212.436,382.106 212.598,382.019 212.871 M167.619 212.858 C 167.619 213.084,168.360 213.310,169.048 213.295 C 169.244 213.291,169.780 213.357,170.238 213.442 L 171.071 213.598 170.446 213.235 C 170.103 213.036,169.588 212.918,169.302 212.973 C 169.016 213.028,168.521 212.974,168.201 212.852 C 167.835 212.713,167.619 212.715,167.619 212.858 M19.535 213.083 C 19.345 213.203,19.104 213.249,18.999 213.185 C 18.895 213.120,18.810 213.181,18.810 213.319 C 18.810 213.669,19.112 213.634,19.657 213.222 C 20.167 212.836,20.081 212.738,19.535 213.083 M171.328 213.542 C 171.257 213.656,171.463 213.750,171.786 213.750 C 172.108 213.750,172.314 213.656,172.244 213.542 C 172.173 213.427,171.967 213.333,171.786 213.333 C 171.605 213.333,171.399 213.427,171.328 213.542 M178.450 214.528 C 178.368 214.661,178.201 214.708,178.079 214.633 C 177.957 214.557,177.857 214.609,177.857 214.748 C 177.857 214.887,178.071 215.000,178.333 215.000 C 178.598 215.000,178.810 214.841,178.810 214.643 C 178.810 214.229,178.664 214.182,178.450 214.528 M179.628 214.787 C 179.544 214.921,179.540 215.096,179.619 215.175 C 179.698 215.253,179.764 215.166,179.766 214.980 C 179.769 214.702,179.805 214.699,179.973 214.964 C 180.085 215.140,180.371 215.247,180.610 215.201 C 180.967 215.133,180.932 215.067,180.411 214.830 C 179.986 214.636,179.729 214.622,179.628 214.787 M13.443 215.016 C 13.356 215.156,13.350 215.334,13.429 215.413 C 13.507 215.491,13.571 215.419,13.571 215.252 C 13.571 215.081,13.726 215.008,13.929 215.086 C 14.125 215.161,14.286 215.119,14.286 214.993 C 14.286 214.681,13.639 214.699,13.443 215.016 M12.370 215.250 C 12.179 215.370,12.131 215.478,12.262 215.489 C 12.393 215.500,12.286 215.602,12.024 215.714 C 11.683 215.861,11.653 215.924,11.919 215.936 C 12.413 215.958,13.228 215.348,12.941 215.171 C 12.817 215.094,12.560 215.130,12.370 215.250 M182.272 215.222 C 182.142 215.433,182.428 215.515,184.341 215.817 C 184.699 215.873,185.040 215.842,185.099 215.747 C 185.157 215.652,184.918 215.552,184.567 215.525 C 183.699 215.457,182.901 215.293,182.635 215.129 C 182.513 215.054,182.350 215.096,182.272 215.222 M10.144 216.361 C 9.804 216.448,9.770 216.524,10.003 216.669 C 10.358 216.888,10.952 216.721,10.952 216.403 C 10.952 216.179,10.871 216.175,10.144 216.361 M189.200 216.356 C 188.932 216.624,189.037 216.905,189.405 216.905 C 189.601 216.905,189.762 216.804,189.762 216.681 C 189.762 216.380,189.390 216.165,189.200 216.356 M374.395 216.921 C 374.143 217.329,374.369 217.369,374.867 217.004 C 375.254 216.722,375.266 216.667,374.941 216.667 C 374.727 216.667,374.481 216.781,374.395 216.921 M7.153 217.768 C 6.088 218.524,6.083 218.530,6.588 218.488 C 6.823 218.468,7.254 218.202,7.544 217.895 C 7.852 217.569,8.190 217.411,8.358 217.515 C 8.540 217.628,8.583 217.592,8.475 217.418 C 8.248 217.050,8.115 217.085,7.153 217.768 M373.333 217.421 C 373.333 217.530,373.113 217.619,372.843 217.619 C 372.573 217.619,372.419 217.726,372.499 217.856 C 372.592 218.006,372.906 217.959,373.347 217.731 C 374.137 217.322,374.205 217.222,373.690 217.222 C 373.494 217.222,373.333 217.312,373.333 217.421 M194.643 217.619 C 194.562 217.750,194.716 217.857,194.986 217.857 C 195.256 217.857,195.476 217.750,195.476 217.619 C 195.476 217.488,195.322 217.381,195.133 217.381 C 194.944 217.381,194.724 217.488,194.643 217.619 M196.429 217.857 C 196.240 217.974,196.164 218.148,196.261 218.245 C 196.357 218.342,196.562 218.296,196.714 218.143 C 197.074 217.783,196.873 217.582,196.429 217.857 M197.917 218.015 C 197.504 218.181,197.543 218.492,197.976 218.492 C 198.173 218.492,198.333 218.349,198.333 218.175 C 198.333 218.000,198.307 217.866,198.274 217.876 C 198.241 217.886,198.080 217.949,197.917 218.015 M371.488 218.253 C 371.324 218.319,371.190 218.493,371.190 218.639 C 371.190 218.834,371.262 218.834,371.458 218.638 C 371.604 218.491,371.890 218.434,372.092 218.511 C 372.333 218.604,372.400 218.557,372.287 218.374 C 372.105 218.079,371.969 218.059,371.488 218.253 M198.636 218.463 C 198.737 218.571,199.005 218.683,199.231 218.710 C 199.458 218.737,200.018 218.839,200.476 218.937 C 200.935 219.036,201.227 219.027,201.126 218.918 C 201.025 218.809,200.757 218.698,200.531 218.671 C 200.304 218.644,199.744 218.542,199.286 218.444 C 198.827 218.345,198.535 218.354,198.636 218.463 M202.099 219.106 C 201.867 219.273,201.891 219.297,202.195 219.200 C 202.420 219.127,202.667 219.171,202.745 219.296 C 202.822 219.421,203.100 219.524,203.361 219.524 C 203.623 219.524,203.779 219.429,203.708 219.314 C 203.509 218.991,202.449 218.854,202.099 219.106 M369.405 219.286 C 369.231 219.567,369.464 219.567,370.119 219.286 C 370.578 219.088,370.577 219.080,370.074 219.064 C 369.787 219.055,369.486 219.155,369.405 219.286 M3.674 219.826 C 2.935 220.623,2.766 220.972,3.201 220.806 C 3.403 220.728,3.509 220.568,3.437 220.451 C 3.319 220.260,3.645 220.139,4.099 220.207 C 4.192 220.221,4.201 220.055,4.118 219.839 C 4.016 219.575,4.058 219.502,4.245 219.618 C 4.398 219.713,4.524 219.677,4.524 219.538 C 4.524 219.141,4.209 219.248,3.674 219.826 M204.897 219.515 C 204.611 219.617,204.535 219.741,204.697 219.841 C 204.840 219.929,205.129 219.936,205.339 219.855 C 205.549 219.775,205.897 219.855,206.113 220.033 C 206.446 220.308,206.489 220.306,206.396 220.023 C 206.248 219.576,205.467 219.312,204.897 219.515 M366.190 220.476 C 366.190 220.607,366.432 220.713,366.726 220.711 C 367.159 220.708,367.194 220.663,366.905 220.476 C 366.443 220.178,366.190 220.178,366.190 220.476 M1.468 221.701 C 1.047 222.112,0.767 222.513,0.845 222.591 C 0.924 222.670,1.093 222.548,1.220 222.319 C 1.348 222.091,1.625 221.905,1.837 221.905 C 2.049 221.905,2.152 221.835,2.067 221.750 C 1.982 221.664,2.098 221.454,2.325 221.281 C 2.552 221.109,2.625 220.964,2.486 220.960 C 2.347 220.956,1.889 221.289,1.468 221.701 M213.920 221.443 C 213.841 221.570,213.650 221.603,213.495 221.517 C 213.294 221.403,213.296 221.447,213.504 221.672 C 213.714 221.898,213.939 221.920,214.322 221.749 C 214.773 221.548,214.792 221.491,214.456 221.362 C 214.240 221.279,213.998 221.315,213.920 221.443 M362.934 221.614 C 362.369 221.702,361.643 222.381,362.114 222.381 C 362.261 222.381,362.381 222.297,362.381 222.195 C 362.381 222.092,362.671 221.985,363.025 221.955 C 363.380 221.926,363.758 221.813,363.866 221.705 C 364.071 221.501,363.820 221.476,362.934 221.614 M215.238 221.905 C 214.949 222.091,214.983 222.136,215.417 222.139 C 215.711 222.141,215.952 222.036,215.952 221.905 C 215.952 221.606,215.700 221.606,215.238 221.905 M358.810 222.857 C 358.810 222.988,358.649 223.095,358.452 223.095 C 358.256 223.095,358.095 223.185,358.095 223.294 C 358.095 223.662,358.743 223.495,359.017 223.056 C 359.187 222.784,359.199 222.619,359.050 222.619 C 358.918 222.619,358.810 222.726,358.810 222.857 M221.343 223.022 C 221.075 223.290,221.179 223.571,221.548 223.571 C 221.744 223.571,221.905 223.471,221.905 223.347 C 221.905 223.047,221.533 222.832,221.343 223.022 M356.997 223.615 C 356.928 223.726,356.780 223.760,356.667 223.690 C 356.554 223.621,356.394 223.673,356.312 223.806 C 356.229 223.940,356.381 224.048,356.653 224.048 C 356.922 224.048,357.143 223.944,357.143 223.817 C 357.143 223.690,357.304 223.648,357.500 223.723 C 357.696 223.799,357.857 223.760,357.857 223.637 C 357.857 223.358,357.167 223.340,356.997 223.615 M227.143 224.046 C 227.143 224.193,227.250 224.248,227.381 224.167 C 227.512 224.086,227.619 224.106,227.619 224.212 C 227.619 224.318,227.910 224.422,228.264 224.442 C 228.700 224.467,228.796 224.419,228.562 224.292 C 227.830 223.898,227.143 223.779,227.143 224.046 M229.357 224.623 C 229.468 224.963,230.714 225.106,230.714 224.778 C 230.714 224.638,230.634 224.515,230.536 224.504 C 230.437 224.493,230.113 224.457,229.815 224.424 C 229.510 224.391,229.309 224.477,229.357 224.623 M352.308 224.676 C 352.027 224.957,352.376 225.195,352.878 225.064 C 353.255 224.965,353.297 224.886,353.056 224.733 C 352.671 224.488,352.508 224.476,352.308 224.676 M232.616 225.034 C 232.980 225.423,233.571 225.525,233.571 225.198 C 233.571 225.089,233.473 225.000,233.353 225.000 C 233.233 225.000,232.941 224.926,232.706 224.836 C 232.331 224.692,232.320 224.717,232.616 225.034 M347.857 225.757 C 347.465 225.921,347.372 226.048,347.583 226.126 C 347.759 226.192,348.077 226.073,348.289 225.861 C 348.728 225.421,348.682 225.410,347.857 225.757 M348.810 225.729 C 348.810 226.000,349.449 226.028,349.612 225.764 C 349.676 225.660,349.522 225.559,349.269 225.540 C 349.016 225.521,348.810 225.606,348.810 225.729 M240.305 226.301 C 240.670 226.491,241.259 226.644,241.615 226.642 C 241.971 226.639,242.610 226.710,243.036 226.798 C 243.560 226.907,243.810 226.869,243.810 226.680 C 243.810 226.526,243.702 226.467,243.571 226.548 C 243.440 226.629,243.333 226.570,243.333 226.417 C 243.333 226.247,243.124 226.191,242.796 226.274 C 242.500 226.348,242.104 226.314,241.916 226.197 C 241.714 226.072,241.403 226.077,241.158 226.208 C 240.894 226.349,240.689 226.343,240.596 226.191 C 240.514 226.060,240.267 225.953,240.045 225.954 C 239.785 225.955,239.877 226.078,240.305 226.301 M343.750 226.607 C 343.521 226.659,343.333 226.801,343.333 226.922 C 343.333 227.210,344.217 227.209,344.395 226.921 C 344.573 226.633,344.275 226.488,343.750 226.607 M245.238 226.854 C 245.238 226.957,245.452 227.041,245.714 227.041 C 245.976 227.041,246.190 226.957,246.190 226.854 C 246.190 226.751,245.976 226.667,245.714 226.667 C 245.452 226.667,245.238 226.751,245.238 226.854 M247.143 227.195 C 247.143 227.451,247.664 227.422,248.095 227.142 C 248.369 226.964,248.299 226.921,247.798 226.959 C 247.437 226.986,247.143 227.092,247.143 227.195 M249.197 227.430 C 249.360 227.694,250.000 227.667,250.000 227.396 C 250.000 227.273,249.793 227.188,249.540 227.207 C 249.287 227.226,249.133 227.327,249.197 227.430 M250.357 227.334 C 250.687 227.673,252.381 227.913,252.381 227.620 C 252.381 227.492,252.140 227.404,251.845 227.425 C 251.551 227.446,251.042 227.379,250.714 227.276 C 250.308 227.149,250.195 227.167,250.357 227.334 M337.262 227.826 C 337.000 227.923,336.503 227.991,336.157 227.978 C 335.728 227.962,335.567 228.055,335.649 228.269 C 335.732 228.484,335.860 228.509,336.055 228.347 C 336.212 228.217,336.616 228.161,336.954 228.222 C 337.359 228.295,337.615 228.212,337.705 227.976 C 337.781 227.780,337.819 227.626,337.790 227.634 C 337.762 227.642,337.524 227.729,337.262 227.826 M254.167 228.095 C 254.248 228.226,254.475 228.333,254.671 228.333 C 254.867 228.333,254.962 228.226,254.881 228.095 C 254.800 227.964,254.573 227.857,254.377 227.857 C 254.180 227.857,254.086 227.964,254.167 228.095 M257.143 228.088 C 257.143 228.215,256.965 228.250,256.747 228.166 C 256.510 228.076,256.410 228.111,256.499 228.254 C 256.580 228.386,257.053 228.497,257.549 228.502 C 258.046 228.507,258.265 228.463,258.036 228.405 C 257.807 228.346,257.619 228.199,257.619 228.078 C 257.619 227.956,257.512 227.857,257.381 227.857 C 257.250 227.857,257.143 227.961,257.143 228.088 M334.149 228.447 C 333.897 228.638,333.798 228.796,333.929 228.798 C 334.282 228.804,334.887 228.379,334.738 228.230 C 334.666 228.158,334.402 228.256,334.149 228.447 M259.627 228.597 C 259.555 228.714,259.823 228.810,260.224 228.810 C 260.625 228.810,260.952 228.729,260.952 228.631 C 260.952 228.373,259.784 228.343,259.627 228.597 M262.143 228.860 C 262.143 228.963,262.417 229.048,262.752 229.048 C 263.087 229.048,263.299 228.947,263.224 228.825 C 263.060 228.560,262.143 228.590,262.143 228.860 M330.952 228.849 C 330.952 228.958,331.238 229.048,331.587 229.048 C 331.937 229.048,332.149 228.974,332.059 228.884 C 331.819 228.645,330.952 228.617,330.952 228.849 M264.430 229.088 C 264.497 229.197,264.778 229.286,265.054 229.286 C 265.330 229.286,265.482 229.212,265.392 229.122 C 265.155 228.885,264.285 228.854,264.430 229.088 M268.012 229.344 C 268.159 229.582,268.988 229.575,269.136 229.335 C 269.200 229.232,268.948 229.151,268.577 229.156 C 268.206 229.161,267.951 229.246,268.012 229.344 M273.189 229.483 C 273.307 229.674,273.142 229.712,272.631 229.610 C 272.166 229.516,271.905 229.561,271.905 229.732 C 271.905 230.054,273.247 230.094,273.442 229.778 C 273.518 229.656,273.454 229.479,273.300 229.384 C 273.128 229.278,273.085 229.315,273.189 229.483 M322.763 229.563 C 322.830 229.673,322.754 229.762,322.593 229.762 C 322.433 229.762,322.358 229.818,322.426 229.887 C 322.589 230.049,323.333 229.763,323.333 229.538 C 323.333 229.443,323.177 229.365,322.987 229.365 C 322.796 229.365,322.695 229.454,322.763 229.563 M275.893 229.688 C 275.664 229.748,275.476 229.900,275.476 230.026 C 275.476 230.158,275.703 230.137,276.012 229.976 C 276.905 229.512,276.872 229.432,275.893 229.688 M281.378 230.274 C 281.176 230.403,281.294 230.470,281.726 230.473 C 282.086 230.475,282.381 230.387,282.381 230.278 C 282.381 230.024,281.777 230.021,281.378 230.274 M315.238 230.290 C 315.238 230.561,316.136 230.518,316.309 230.240 C 316.393 230.103,316.199 230.024,315.846 230.054 C 315.512 230.081,315.238 230.188,315.238 230.290 M286.412 230.491 C 286.094 230.573,286.637 230.644,287.619 230.649 C 289.392 230.659,289.472 230.577,287.840 230.424 C 287.373 230.380,286.730 230.410,286.412 230.491 M309.643 230.496 C 308.938 230.656,308.940 230.658,309.807 230.686 C 310.291 230.702,310.741 230.625,310.809 230.516 C 310.954 230.281,310.619 230.275,309.643 230.496 " stroke="none" fill="#e4ecfc" fill-rule="evenodd"></path><path id="path2" d="M41.667 208.214 C 41.413 208.520,41.485 208.567,42.173 208.539 C 42.738 208.516,42.816 208.476,42.437 208.403 C 42.140 208.346,41.959 208.200,42.034 208.078 C 42.252 207.726,41.992 207.822,41.667 208.214 M25.882 211.270 C 25.815 211.444,25.905 211.587,26.084 211.587 C 26.262 211.587,26.358 211.507,26.298 211.409 C 26.237 211.311,26.322 211.177,26.487 211.111 C 26.677 211.034,26.644 210.983,26.395 210.971 C 26.179 210.961,25.949 211.095,25.882 211.270 M169.286 212.871 C 169.286 213.010,169.152 213.043,168.988 212.945 C 168.786 212.823,168.795 212.895,169.017 213.169 C 169.197 213.390,169.465 213.563,169.612 213.553 C 169.795 213.540,169.789 213.497,169.597 213.418 C 169.440 213.355,169.371 213.149,169.444 212.961 C 169.516 212.773,169.510 212.619,169.430 212.619 C 169.351 212.619,169.286 212.733,169.286 212.871 M243.965 226.539 C 243.895 226.722,243.985 226.837,244.176 226.809 C 244.690 226.733,244.821 226.502,244.435 226.354 C 244.243 226.281,244.032 226.364,243.965 226.539 M297.679 230.653 C 298.563 230.699,300.009 230.699,300.893 230.653 C 301.777 230.607,301.054 230.569,299.286 230.569 C 297.518 230.569,296.795 230.607,297.679 230.653 " stroke="none" fill="#e8f4fc" fill-rule="evenodd"></path><path id="path3" d="M41.667 208.214 C 41.413 208.520,41.485 208.567,42.173 208.539 C 42.738 208.516,42.816 208.476,42.437 208.403 C 42.140 208.346,41.959 208.200,42.034 208.078 C 42.252 207.726,41.992 207.822,41.667 208.214 M25.882 211.270 C 25.815 211.444,25.905 211.587,26.084 211.587 C 26.262 211.587,26.358 211.507,26.298 211.409 C 26.237 211.311,26.322 211.177,26.487 211.111 C 26.677 211.034,26.644 210.983,26.395 210.971 C 26.179 210.961,25.949 211.095,25.882 211.270 M169.286 212.871 C 169.286 213.010,169.152 213.043,168.988 212.945 C 168.786 212.823,168.795 212.895,169.017 213.169 C 169.197 213.390,169.465 213.563,169.612 213.553 C 169.795 213.540,169.789 213.497,169.597 213.418 C 169.440 213.355,169.371 213.149,169.444 212.961 C 169.516 212.773,169.510 212.619,169.430 212.619 C 169.351 212.619,169.286 212.733,169.286 212.871 M243.965 226.539 C 243.895 226.722,243.985 226.837,244.176 226.809 C 244.690 226.733,244.821 226.502,244.435 226.354 C 244.243 226.281,244.032 226.364,243.965 226.539 M297.679 230.653 C 298.563 230.699,300.009 230.699,300.893 230.653 C 301.777 230.607,301.054 230.569,299.286 230.569 C 297.518 230.569,296.795 230.607,297.679 230.653 " stroke="none" fill="#e8f4fc" fill-rule="evenodd"></path><path id="path4" d="M41.667 208.214 C 41.413 208.520,41.485 208.567,42.173 208.539 C 42.738 208.516,42.816 208.476,42.437 208.403 C 42.140 208.346,41.959 208.200,42.034 208.078 C 42.252 207.726,41.992 207.822,41.667 208.214 M25.882 211.270 C 25.815 211.444,25.905 211.587,26.084 211.587 C 26.262 211.587,26.358 211.507,26.298 211.409 C 26.237 211.311,26.322 211.177,26.487 211.111 C 26.677 211.034,26.644 210.983,26.395 210.971 C 26.179 210.961,25.949 211.095,25.882 211.270 M169.286 212.871 C 169.286 213.010,169.152 213.043,168.988 212.945 C 168.786 212.823,168.795 212.895,169.017 213.169 C 169.197 213.390,169.465 213.563,169.612 213.553 C 169.795 213.540,169.789 213.497,169.597 213.418 C 169.440 213.355,169.371 213.149,169.444 212.961 C 169.516 212.773,169.510 212.619,169.430 212.619 C 169.351 212.619,169.286 212.733,169.286 212.871 M243.965 226.539 C 243.895 226.722,243.985 226.837,244.176 226.809 C 244.690 226.733,244.821 226.502,244.435 226.354 C 244.243 226.281,244.032 226.364,243.965 226.539 M297.679 230.653 C 298.563 230.699,300.009 230.699,300.893 230.653 C 301.777 230.607,301.054 230.569,299.286 230.569 C 297.518 230.569,296.795 230.607,297.679 230.653 " stroke="none" fill="#e8f4fc" fill-rule="evenodd"></path></g></svg>