<svg width="118" height="32" viewBox="0 0 118 32" fill="none" xmlns="http://www.w3.org/2000/svg">
<g clip-path="url(#clip0_2434_37473)">
<path opacity="0.82" d="M21.3202 0.118583L15.1232 5.70554C15.9207 6.42978 16.3761 6.82207 16.8076 7.24023C18.5798 8.92896 19.6514 11.211 19.8126 13.64C19.9738 16.069 19.213 18.47 17.6791 20.3735C14.4281 24.4257 8.78677 25.2577 4.18478 22.3651C0.201623 19.8583 -1.17549 14.3813 1.09064 9.91516C3.2086 5.73356 6.76686 3.21167 11.0834 1.63603C14.3649 0.431125 17.7271 -0.299577 21.3202 0.118583Z" fill="#006CFF"/>
<path opacity="0.82" d="M5.22656 32.0005L11.5456 26.2971C10.7154 25.5276 10.2099 25.0836 9.73268 24.6115C8.04277 22.9338 7.02242 20.7087 6.85947 18.3458C6.69651 15.9829 7.40192 13.6413 8.84583 11.752C11.7134 7.97567 17.1521 6.80525 21.4425 9.04047C25.905 11.3662 27.7724 16.0328 26.0183 20.8028C25.5084 22.1823 24.8068 23.5898 23.8393 24.6977C19.026 30.2739 12.6351 32.0091 5.22656 32.0005Z" fill="#BDD9FF"/>
<path d="M46.6711 15.3778C45.7255 14.9174 44.7337 14.5561 43.7121 14.3001C42.908 14.0695 42.2325 13.869 41.6791 13.6966C41.2241 13.5717 40.7953 13.3673 40.4131 13.0931C40.2711 12.9821 40.1576 12.8396 40.0818 12.677C40.0061 12.5144 39.9703 12.3365 39.9773 12.1576C39.9638 11.9401 40.0105 11.7231 40.1122 11.5298C40.2139 11.3365 40.3669 11.1743 40.5547 11.0605C41.0543 10.795 41.6184 10.6712 42.1846 10.7027C42.7266 10.7013 43.2663 10.7738 43.7883 10.9182C44.2935 11.0558 44.788 11.2294 45.2678 11.4377C45.6535 11.6045 46.0302 11.7908 46.3965 11.9959C46.5948 12.0914 46.7736 12.2222 46.9239 12.3818L48.7302 9.0063C48.1942 8.70885 47.5877 8.4114 46.9108 8.11394C46.2065 7.80701 45.4776 7.55828 44.7318 7.37031C43.9408 7.17033 43.1274 7.07038 42.311 7.07285C41.1821 7.05931 40.0628 7.27958 39.0251 7.71949C38.059 8.12536 37.2283 8.79251 36.6282 9.64432C36.0312 10.5065 35.7327 11.5541 35.7327 12.787C35.7045 13.5586 35.8811 14.324 36.2447 15.0071C36.6271 15.6402 37.1732 16.161 37.8267 16.5159C38.6805 16.9862 39.5864 17.3572 40.5264 17.6217C41.3631 17.8703 42.1033 18.0923 42.7468 18.2877C43.2835 18.44 43.7966 18.6641 44.2721 18.9538C44.4496 19.0626 44.5951 19.2157 44.6941 19.3976C44.7932 19.5796 44.8422 19.784 44.8364 19.9905C44.8395 20.1818 44.7911 20.3705 44.6962 20.5372C44.6012 20.7039 44.4631 20.8425 44.296 20.9389C43.9358 21.166 43.3881 21.2788 42.6531 21.2773C41.9669 21.2771 41.2839 21.1858 40.6223 21.0058C40.0012 20.8404 39.3937 20.6285 38.805 20.3721C38.334 20.1706 37.8769 19.9388 37.4366 19.678C37.2006 19.552 36.981 19.3978 36.7829 19.2189L34.9766 22.7668C35.7006 23.2408 36.4743 23.6361 37.2841 23.9458C38.1315 24.2702 39.0066 24.5191 39.8989 24.6894C40.7789 24.8607 41.6734 24.948 42.5703 24.9503C43.406 24.9522 44.239 24.8567 45.0521 24.6657C45.817 24.4946 46.5437 24.1863 47.1962 23.7561C47.8237 23.3359 48.3364 22.7687 48.6888 22.105C49.0786 21.3287 49.268 20.4689 49.2401 19.6026C49.2401 18.5205 49.0186 17.6504 48.5755 16.9923C48.0926 16.3002 47.4364 15.744 46.6711 15.3778Z" fill="#454545"/>
<path d="M59.1807 21.1035C58.9415 21.3001 58.6704 21.4553 58.3789 21.5626C57.9818 21.7035 57.5575 21.7533 57.1381 21.7081C56.7187 21.6629 56.3151 21.524 55.958 21.3018C55.5161 21.0063 55.1576 20.6042 54.9165 20.1335C54.6547 19.5925 54.5177 19.0007 54.5154 18.4009C54.5132 17.8011 54.6457 17.2083 54.9034 16.6654C55.1458 16.2013 55.5101 15.8104 55.958 15.5338C56.4057 15.2588 56.9237 15.1167 57.4506 15.1242C57.9072 15.1198 58.3573 15.2311 58.758 15.4476C59.1546 15.665 59.4873 15.9807 59.7233 16.3636L63.6324 15.1975C63.1041 14.1676 62.291 13.3073 61.2878 12.7166C60.2433 12.0786 58.9686 11.7603 57.4637 11.7617C55.9587 11.7632 54.6884 12.0692 53.6527 12.68C52.6354 13.261 51.7983 14.1063 51.2318 15.1242C50.6733 16.1266 50.3838 17.2539 50.3907 18.3984C50.3858 19.2684 50.5477 20.1315 50.8679 20.9418C51.1825 21.7359 51.6561 22.4588 52.2603 23.0671C52.891 23.7017 53.6467 24.2013 54.4807 24.535C56.3194 25.2181 58.3406 25.2501 60.2005 24.6255C60.9692 24.3474 61.6791 23.9308 62.2945 23.3969C62.8662 22.9037 63.3309 22.3009 63.6607 21.6251L59.7385 20.4332C59.5994 20.691 59.4098 20.9189 59.1807 21.1035Z" fill="#454545"/>
<path d="M72.9817 11.6018C72.1682 11.626 71.3811 11.8936 70.7243 12.3692C69.9736 12.9041 69.3699 13.6161 68.9681 14.4406V11.9489H65.2812V24.8234H69.2906V17.0099C69.6847 16.3786 70.2863 15.9007 70.9945 15.6563C71.8356 15.3405 72.7294 15.1847 73.6289 15.1971V11.6255C73.5503 11.6079 73.4698 11.5999 73.3892 11.6018H72.9817Z" fill="#454545"/>
<path d="M81.0109 20.8344L77.9604 11.9518H73.8203L78.8319 24.8695C78.7316 25.3258 78.5803 25.7696 78.3809 26.1929C78.2534 26.4771 78.05 26.7216 77.7926 26.8999C77.5472 27.047 77.2645 27.1218 76.9776 27.1155C76.7118 27.1126 76.4468 27.0837 76.1867 27.0292C75.8947 26.971 75.5809 26.8934 75.2454 26.7943V30.1784C75.5782 30.3062 75.9226 30.4021 76.2738 30.465C76.6135 30.5233 76.9576 30.5521 77.3023 30.5513C78.0791 30.5595 78.8487 30.4037 79.5597 30.0943C80.2298 29.8005 80.8286 29.3684 81.316 28.8269C81.8046 28.2834 82.1754 27.6467 82.4055 26.956L87.4171 11.9453H83.6191L81.0109 20.8344Z" fill="#454545"/>
<path d="M101.231 13.7201C100.737 13.1207 100.123 12.629 99.4272 12.2759C98.7148 11.9227 97.9273 11.7431 97.1305 11.7522C96.2355 11.7311 95.3507 11.9445 94.5659 12.3708C93.8329 12.7899 93.23 13.3997 92.8227 14.1339V6.71484H88.8047V24.8207H92.291V22.6653C92.7074 23.4079 93.3236 24.0219 94.0713 24.4392C94.8782 24.8746 95.7867 25.0924 96.7056 25.0708C97.5336 25.0834 98.3546 24.9201 99.1133 24.5917C99.8719 24.2633 100.55 23.7777 101.103 23.1675C101.662 22.5519 102.1 21.8384 102.395 21.0638C102.709 20.2372 102.867 19.3603 102.859 18.4772C102.864 17.5834 102.717 16.6951 102.423 15.8497C102.157 15.0752 101.754 14.354 101.231 13.7201ZM98.5098 19.7554C98.3661 20.1378 98.1434 20.4865 97.8561 20.7792C97.5583 21.0783 97.2031 21.3155 96.8113 21.4769C96.4196 21.6383 95.9991 21.7206 95.5748 21.719C95.2977 21.7172 95.0226 21.6721 94.7598 21.5854C94.4878 21.499 94.2267 21.3819 93.9819 21.2362C93.7362 21.0872 93.5131 20.9043 93.3195 20.693C93.117 20.4736 92.9482 20.2259 92.8184 19.958V17.3176C92.9966 16.9072 93.2417 16.5285 93.5439 16.1967C93.8332 15.8761 94.1796 15.6109 94.5659 15.4143C94.9978 15.1988 95.4799 15.1008 95.9627 15.1304C96.4456 15.1599 96.9118 15.3159 97.3136 15.5824C97.762 15.8957 98.1203 16.3191 98.3529 16.811C98.6049 17.3294 98.7338 17.8978 98.7299 18.4729C98.7361 18.9122 98.6616 19.349 98.5098 19.7619V19.7554Z" fill="#454545"/>
<path d="M117.177 15.1121C116.615 14.1017 115.787 13.2613 114.78 12.6808C113.734 12.0629 112.467 11.7539 110.98 11.7539C109.492 11.7539 108.221 12.0664 107.167 12.6915C106.15 13.2796 105.314 14.1296 104.748 15.1509C104.181 16.1866 103.891 17.3486 103.907 18.5264C103.902 19.3783 104.062 20.2233 104.378 21.0159C104.69 21.8024 105.163 22.5165 105.768 23.1132C106.403 23.7343 107.158 24.2225 107.988 24.5487C108.939 24.9144 109.953 25.0931 110.973 25.0747C111.908 25.0859 112.837 24.9349 113.719 24.6285C114.508 24.3533 115.239 23.9368 115.876 23.3999C116.468 22.9036 116.95 22.2916 117.292 21.6022L113.882 20.6603C113.667 21.1558 113.281 21.5597 112.793 21.8005C112.275 22.0841 111.692 22.2325 111.1 22.2316C110.623 22.2328 110.152 22.1298 109.72 21.9298C109.293 21.7345 108.925 21.4303 108.655 21.0483C108.367 20.6256 108.198 20.1344 108.167 19.6257H117.898C117.913 19.464 117.935 19.2722 117.959 19.0523C117.985 18.8291 117.998 18.6045 117.998 18.3798C118.01 17.2392 117.727 16.1145 117.177 15.1121ZM108.082 17.1857C108.134 16.7027 108.297 16.2377 108.557 15.8256C108.801 15.4446 109.143 15.1345 109.548 14.9267C109.979 14.7155 110.453 14.6056 110.934 14.6056C111.415 14.6056 111.889 14.7155 112.32 14.9267C112.73 15.1317 113.076 15.4422 113.322 15.8256C113.582 16.238 113.745 16.7027 113.799 17.1857H108.082Z" fill="#454545"/>
</g>
<defs>
<clipPath id="clip0_2434_37473">
<rect width="118" height="32" fill="white"/>
</clipPath>
</defs>
</svg>
