<svg width="25" height="24" viewBox="0 0 25 24" fill="none" xmlns="http://www.w3.org/2000/svg">
<path d="M22.3921 8.24703L22.3672 8.07953L22.3412 8.08551C22.1641 7.25702 21.756 6.49563 21.1641 5.88942C20.5722 5.28322 19.8208 4.85698 18.9968 4.66003C18.1728 4.46307 17.3099 4.50346 16.5079 4.7765C15.7059 5.04955 14.9976 5.5441 14.4649 6.20293C13.9322 6.86175 13.597 7.65794 13.498 8.49935C13.399 9.34076 13.5402 10.193 13.9054 10.9575C14.2705 11.722 14.8447 12.3675 15.5614 12.8192C16.2781 13.271 17.1081 13.5106 17.9553 13.5103C18.1777 13.5103 18.391 13.4764 18.6034 13.4455C18.5346 13.6768 18.4638 13.9121 18.3502 14.1235C18.2365 14.4306 18.059 14.6968 17.8826 14.965C17.735 15.2551 17.4748 15.4515 17.2834 15.6998C17.083 15.941 16.8098 16.1016 16.5934 16.302C16.3811 16.5113 16.1029 16.616 15.8815 16.7636C15.6502 16.8962 15.4488 17.0428 15.2335 17.1125L14.6961 17.3339L14.2235 17.5303L14.7061 19.4635L15.3013 19.3199C15.4917 19.2721 15.724 19.2163 15.9882 19.1495C16.2584 19.0996 16.5466 18.963 16.8676 18.8384C17.1837 18.6958 17.5516 18.6011 17.8925 18.3728C18.2355 18.1554 18.6313 17.974 18.9803 17.6828C19.3183 17.3827 19.7261 17.1225 20.0272 16.7417C20.3562 16.3847 20.6812 16.0098 20.9335 15.5831C21.2256 15.1763 21.424 14.7297 21.6334 14.288C21.8228 13.8463 21.9753 13.3946 22.1 12.956C22.3363 12.0766 22.4419 11.2411 22.4828 10.5262C22.5167 9.81036 22.4968 9.21514 22.4549 8.78442C22.4409 8.60455 22.4199 8.42528 22.3921 8.24703V8.24703ZM11.4249 8.24703L11.3999 8.07953L11.374 8.08551C11.1968 7.25702 10.7887 6.49563 10.1969 5.88942C9.60501 5.28322 8.8536 4.85698 8.0296 4.66003C7.20559 4.46307 6.34265 4.50346 5.54064 4.7765C4.73862 5.04955 4.03031 5.5441 3.49765 6.20293C2.965 6.86175 2.62977 7.65794 2.53075 8.49935C2.43173 9.34076 2.57298 10.193 2.93814 10.9575C3.30331 11.722 3.87747 12.3675 4.59419 12.8192C5.3109 13.271 6.14089 13.5106 6.98811 13.5103C7.21044 13.5103 7.42381 13.4764 7.63617 13.4455C7.56738 13.6768 7.49659 13.9121 7.38293 14.1235C7.26927 14.4306 7.0918 14.6968 6.91533 14.965C6.76777 15.2551 6.50754 15.4515 6.31612 15.6998C6.11572 15.941 5.84253 16.1016 5.62618 16.302C5.41381 16.5113 5.13564 16.616 4.9143 16.7636C4.683 16.8962 4.4816 17.0428 4.26624 17.1125L3.72885 17.3339C3.42874 17.4565 3.25725 17.5283 3.25725 17.5283L3.73981 19.4615L4.33503 19.318C4.52547 19.2701 4.75777 19.2143 5.02198 19.1475C5.29218 19.0976 5.58031 18.961 5.90136 18.8364C6.21741 18.6938 6.58531 18.5991 6.92629 18.3708C7.26927 18.1534 7.66509 17.972 8.01404 17.6808C8.35203 17.3807 8.75982 17.1205 9.06092 16.7397C9.38993 16.3827 9.71496 16.0078 9.96721 15.5811C10.2593 15.1743 10.4577 14.7277 10.6671 14.286C10.8566 13.8443 11.0091 13.3927 11.1337 12.954C11.37 12.0746 11.4757 11.2391 11.5166 10.5242C11.5505 9.80836 11.5305 9.21314 11.4887 8.78243C11.4738 8.60326 11.4525 8.42468 11.4249 8.24703V8.24703Z" fill="#4F4F4F"/>
</svg>
