<svg width="25" height="24" viewBox="0 0 25 24" fill="none" xmlns="http://www.w3.org/2000/svg">
<path d="M2.6079 15.2398L2.63283 15.4073L2.65875 15.4013C2.83592 16.2298 3.24404 16.9912 3.8359 17.5974C4.42775 18.2036 5.17916 18.6298 6.00317 18.8268C6.82717 19.0237 7.69011 18.9834 8.49212 18.7103C9.29414 18.4373 10.0024 17.9427 10.5351 17.2839C11.0678 16.6251 11.403 15.8289 11.502 14.9875C11.601 14.1461 11.4598 13.2938 11.0946 12.5293C10.7295 11.7648 10.1553 11.1194 9.43858 10.6676C8.72186 10.2158 7.89187 9.97623 7.04465 9.97651C6.82232 9.97651 6.60895 10.0104 6.39659 10.0413C6.46538 9.81001 6.53617 9.57471 6.64983 9.36334C6.76349 9.05626 6.94096 8.79006 7.11743 8.52186C7.26499 8.23173 7.52522 8.03531 7.71664 7.78705C7.91705 7.54577 8.19023 7.38525 8.40658 7.18485C8.61895 6.97548 8.89712 6.87079 9.11846 6.72323C9.34977 6.59063 9.55116 6.44406 9.76652 6.37427L10.3039 6.15294L10.7765 5.95652L10.2939 4.0233L9.69872 4.16687C9.50829 4.21472 9.27599 4.27056 9.01178 4.33736C8.74158 4.38721 8.45344 4.5238 8.1324 4.64843C7.81635 4.791 7.44845 4.88572 7.10746 5.11404C6.76449 5.33139 6.36867 5.51285 6.01971 5.80398C5.68172 6.10408 5.27394 6.3643 4.97284 6.74517C4.64382 7.1021 4.3188 7.47698 4.06655 7.9037C3.77442 8.31049 3.57601 8.75716 3.36664 9.19884C3.17721 9.64052 3.02466 10.0922 2.90003 10.5309C2.66374 11.4102 2.55805 12.2457 2.51718 12.9606C2.48328 13.6765 2.50322 14.2717 2.54509 14.7024C2.5591 14.8823 2.58006 15.0615 2.6079 15.2398V15.2398ZM13.5751 15.2398L13.6001 15.4073L13.626 15.4013C13.8032 16.2298 14.2113 16.9912 14.8031 17.5974C15.395 18.2036 16.1464 18.6298 16.9704 18.8268C17.7944 19.0237 18.6573 18.9834 19.4594 18.7103C20.2614 18.4373 20.9697 17.9427 21.5023 17.2839C22.035 16.6251 22.3702 15.8289 22.4693 14.9875C22.5683 14.1461 22.427 13.2938 22.0619 12.5293C21.6967 11.7648 21.1225 11.1194 20.4058 10.6676C19.6891 10.2158 18.8591 9.97623 18.0119 9.97651C17.7896 9.97651 17.5762 10.0104 17.3638 10.0413C17.4326 9.81001 17.5034 9.57471 17.6171 9.36334C17.7307 9.05626 17.9082 8.79006 18.0847 8.52186C18.2322 8.23173 18.4925 8.03531 18.6839 7.78705C18.8843 7.54577 19.1575 7.38525 19.3738 7.18485C19.5862 6.97548 19.8644 6.87079 20.0857 6.72323C20.317 6.59063 20.5184 6.44406 20.7338 6.37427L21.2712 6.15294C21.5713 6.0303 21.7427 5.95851 21.7427 5.95851L21.2602 4.02529L20.665 4.16886C20.4745 4.21672 20.2422 4.27255 19.978 4.33935C19.7078 4.3892 19.4197 4.5258 19.0986 4.65042C18.7826 4.793 18.4147 4.88771 18.0737 5.11603C17.7307 5.33338 17.3349 5.51484 16.986 5.80597C16.648 6.10607 16.2402 6.3663 15.9391 6.74716C15.6101 7.10409 15.285 7.47897 15.0328 7.9057C14.7407 8.31248 14.5423 8.75915 14.3329 9.20083C14.1434 9.64251 13.9909 10.0942 13.8663 10.5329C13.63 11.4122 13.5243 12.2477 13.4834 12.9626C13.4495 13.6785 13.4695 14.2737 13.5113 14.7044C13.5262 14.8836 13.5475 15.0621 13.5751 15.2398V15.2398Z" fill="#4F4F4F"/>
</svg>
