<svg width="13" height="13" viewBox="0 0 13 13" fill="none" xmlns="http://www.w3.org/2000/svg">
<path d="M7.59153 1.64355C7.59153 1.27855 7.29564 0.982661 6.93065 0.982661C6.56565 0.982661 6.26976 1.27855 6.26976 1.64355H7.59153ZM6.26976 12.2177C6.26976 12.5827 6.56565 12.8786 6.93065 12.8786C7.29564 12.8786 7.59153 12.5827 7.59153 12.2177H6.26976ZM12.2177 7.59152C12.5827 7.59152 12.8786 7.29564 12.8786 6.93064C12.8786 6.56564 12.5827 6.26975 12.2177 6.26975V7.59152ZM1.64355 6.26975C1.27856 6.26975 0.982668 6.56564 0.982668 6.93064C0.982668 7.29563 1.27856 7.59152 1.64355 7.59152L1.64355 6.26975ZM6.26976 1.64355V12.2177H7.59153V1.64355H6.26976ZM12.2177 6.26975L1.64355 6.26975L1.64355 7.59152L12.2177 7.59152V6.26975Z" fill="#006CFF"/>
</svg>
