<svg width="301" height="200" viewBox="0 0 301 200" fill="none" xmlns="http://www.w3.org/2000/svg">
<g clip-path="url(#clip0_1758_29163)">
<path d="M282.07 187.203H268.221V190.774H282.07V187.203Z" stroke="#120F0F" stroke-width="5" stroke-linejoin="round"/>
<path d="M268.221 197.926L272.436 194.265L274.714 196.14L277.499 193.75L279.05 195.05" stroke="#120F0F" stroke-width="5" stroke-linecap="round" stroke-linejoin="round"/>
<path d="M282.07 190.527V198.266M268.221 190.527V194.694M271.342 198.512H282.07M272.722 188.988H279.992M270.298 188.987H270.644" stroke="#120F0F" stroke-width="5" stroke-linecap="round"/>
</g>
<g clip-path="url(#clip1_1758_29163)">
<path d="M29.5336 195.238L30.6623 194.268C28.7442 192.47 28.7442 189.768 30.6623 187.875L29.5336 186.905C26.8331 189.22 26.8262 192.827 29.5336 195.238ZM32.9889 192.232C32.7053 191.895 32.5526 191.49 32.5526 191.074C32.5526 190.659 32.7053 190.253 32.9889 189.917L31.8256 188.911C30.4269 190.113 30.4269 191.929 31.8256 193.238L32.9889 192.232ZM23.3501 193.452C24.8804 193.452 26.1199 192.387 26.1199 191.071C26.1199 189.756 24.8804 188.69 23.3501 188.69C21.8198 188.69 20.5804 189.756 20.5804 191.071C20.5804 192.387 21.8198 193.452 23.3501 193.452ZM27.7748 194.976C26.6115 194.464 25.102 194.048 23.3501 194.048C21.5982 194.048 20.0887 194.464 18.9254 194.976C18.5876 195.126 18.3045 195.353 18.1077 195.632C17.9109 195.912 17.8081 196.233 17.8106 196.56V198.214H28.8896V196.56C28.8896 195.893 28.4673 195.28 27.7748 194.976Z" fill="#120F0F"/>
</g>
<path d="M8.11776 197.619H5.00178C3.95158 197.619 3.05441 197.307 2.31027 196.682C1.56566 196.057 1.19336 195.293 1.19336 194.39C1.19336 193.616 1.46457 192.927 2.00698 192.321C2.54939 191.716 3.25914 191.329 4.13623 191.161C4.42475 190.248 5.00178 189.509 5.86733 188.943C6.73288 188.378 7.71384 188.095 8.81021 188.095C10.1605 188.095 11.3058 188.499 12.2461 189.308C13.1869 190.116 13.6573 191.101 13.6573 192.262C14.4536 192.341 15.1144 192.636 15.6397 193.147C16.1646 193.658 16.4271 194.256 16.4271 194.94C16.4271 195.685 16.1242 196.317 15.5186 196.838C14.9125 197.359 14.1766 197.619 13.3111 197.619H9.50265V193.363L10.6106 194.286L11.58 193.452L8.81021 191.071L6.04044 193.452L7.00986 194.286L8.11776 193.363V197.619Z" fill="#120F0F"/>
<path d="M300.5 168.864H0.5V168.993H300.5V168.864Z" fill="#EBEBEB"/>
<path d="M258.326 172.377H199.766V172.506H258.326V172.377Z" fill="#EBEBEB"/>
<path d="M201.9 175.358H173.898V175.487H201.9V175.358Z" fill="#EBEBEB"/>
<path d="M270.44 177.164H258.926V177.293H270.44V177.164Z" fill="#EBEBEB"/>
<path d="M131.901 175.42H76.3828V175.549H131.901V175.42Z" fill="#EBEBEB"/>
<path d="M71.0416 175.42H59.1016V175.549H71.0416V175.42Z" fill="#EBEBEB"/>
<path d="M54.8879 173.243H35.1719V173.372H54.8879V173.243Z" fill="#EBEBEB"/>
<path d="M142.7 145.861H26.8458C25.9382 145.86 25.0683 145.549 24.4271 144.996C23.7859 144.444 23.4258 143.696 23.4258 142.916V2.91928C23.4337 2.14357 23.7973 1.40186 24.4376 0.855266C25.078 0.308669 25.9434 0.00132883 26.8458 0H142.7C143.608 0 144.48 0.310283 145.122 0.862591C145.765 1.4149 146.126 2.16399 146.126 2.94507V142.916C146.126 143.697 145.765 144.446 145.122 144.998C144.48 145.551 143.608 145.861 142.7 145.861ZM26.8458 0.103155C25.978 0.104521 25.1462 0.401822 24.5332 0.9298C23.9201 1.45778 23.5758 2.17329 23.5758 2.91928V142.916C23.5758 143.662 23.9201 144.377 24.5332 144.905C25.1462 145.433 25.978 145.731 26.8458 145.732H142.7C143.568 145.731 144.4 145.433 145.015 144.906C145.629 144.378 145.974 143.662 145.976 142.916V2.91928C145.974 2.17282 145.629 1.45732 145.015 0.929485C144.4 0.401654 143.568 0.104519 142.7 0.103155H26.8458Z" fill="#EBEBEB"/>
<path d="M272.487 145.861H156.627C155.719 145.86 154.849 145.549 154.206 144.997C153.564 144.445 153.203 143.697 153.201 142.916V2.91928C153.211 2.1431 153.576 1.4014 154.217 0.854943C154.858 0.308489 155.724 0.00131434 156.627 0H272.487C273.389 0.00268434 274.252 0.310624 274.891 0.857076C275.53 1.40353 275.893 2.14446 275.901 2.91928V142.916C275.901 143.695 275.542 144.443 274.902 144.995C274.262 145.547 273.394 145.858 272.487 145.861ZM156.627 0.103155C155.759 0.104519 154.926 0.401654 154.312 0.929485C153.698 1.45732 153.353 2.17282 153.351 2.91928V142.916C153.353 143.662 153.698 144.378 154.312 144.906C154.926 145.433 155.759 145.731 156.627 145.732H272.487C273.356 145.731 274.188 145.433 274.802 144.906C275.416 144.378 275.762 143.662 275.763 142.916V2.91928C275.762 2.17282 275.416 1.45732 274.802 0.929485C274.188 0.401654 273.356 0.104519 272.487 0.103155H156.627Z" fill="#EBEBEB"/>
<path d="M32.6243 104.532L103.652 104.532V100.576L32.6243 100.576V104.532Z" fill="#EBEBEB"/>
<path d="M34.028 168.864H98L98 104.532H34.028L34.028 168.864Z" fill="#EBEBEB"/>
<path d="M99.584 104.532H98V168.865H99.584V104.532Z" fill="#F0F0F0"/>
<path d="M97.9995 104.532H34.0215V107.281L97.9995 105.904V104.532Z" fill="#E6E6E6"/>
<path d="M157.227 168.864H221.199V104.532H157.227V168.864Z" fill="#EBEBEB"/>
<path d="M222.783 104.532H221.199V168.865H222.783V104.532Z" fill="#F0F0F0"/>
<path d="M221.199 104.532H157.227V107.281L221.199 105.904V104.532Z" fill="#E6E6E6"/>
<path d="M227.918 100.576H103.652V104.532H227.918V100.576Z" fill="#F5F5F5"/>
<path d="M87.6328 91.1171H150.705C151.326 91.1291 151.943 91.0236 152.511 90.808C153.079 90.5923 153.586 90.2718 153.994 89.8692C154.402 89.4666 154.702 88.9918 154.873 88.4783C155.044 87.9648 155.082 87.4253 154.983 86.898L150.111 54.0793C149.911 52.9298 149.248 51.8772 148.237 51.1058C147.225 50.3345 145.93 49.8936 144.579 49.8603H81.5008C80.8795 49.8483 80.2627 49.9539 79.6941 50.1695C79.1255 50.3851 78.6189 50.7055 78.2103 51.108C77.8016 51.5105 77.5008 51.9852 77.3291 52.4987C77.1574 53.0121 77.1191 53.5517 77.2168 54.0793L82.1008 86.898C82.3014 88.0471 82.9652 89.0992 83.9764 89.8703C84.9875 90.6415 86.2817 91.0828 87.6328 91.1171Z" fill="#E0E0E0"/>
<path d="M108.924 73.9258H122.994L118.23 100.576H104.16L108.924 73.9258Z" fill="#E0E0E0"/>
<path d="M88.4834 91.1171H151.549C152.171 91.1299 152.788 91.025 153.357 90.8097C153.927 90.5944 154.434 90.274 154.842 89.8713C155.251 89.4686 155.552 88.9934 155.723 88.4796C155.895 87.9657 155.932 87.4258 155.833 86.898L150.961 54.0793C150.761 52.9294 150.096 51.8767 149.084 51.1054C148.071 50.3341 146.776 49.8934 145.423 49.8603H82.3514C81.7302 49.8482 81.1136 49.9537 80.5452 50.1694C79.9768 50.385 79.4705 50.7055 79.0623 51.1081C78.6541 51.5107 78.3539 51.9856 78.183 52.4991C78.012 53.0125 77.9746 53.552 78.0733 54.0793L82.9454 86.898C83.1461 88.048 83.8108 89.1007 84.8232 89.872C85.8356 90.6432 87.1312 91.084 88.4834 91.1171Z" fill="#E6E6E6"/>
<path d="M113.172 49.8599H122.37L138.924 82.1473H129.72L113.172 49.8599Z" fill="#F5F5F5"/>
<path d="M106.898 49.8599H110.582L127.13 82.1473H123.446L106.898 49.8599Z" fill="#F5F5F5"/>
<path d="M155.126 82.1475L155.834 86.8977C155.932 87.4253 155.894 87.9649 155.722 88.4784C155.55 88.9918 155.249 89.4666 154.841 89.8691C154.432 90.2716 153.925 90.5919 153.357 90.8075C152.788 91.0231 152.171 91.1287 151.55 91.1168H88.4841C87.1319 91.0837 85.8363 90.6429 84.824 89.8717C83.8116 89.1004 83.1469 88.0477 82.9461 86.8977L82.2441 82.1475H155.126Z" fill="#F0F0F0"/>
<path d="M63.5855 91.8442C62.916 89.8096 62.7827 87.6723 63.1955 85.5878C63.561 83.4822 64.3294 81.4432 65.4695 79.5533C65.7335 79.0736 66.0695 78.6352 66.3875 78.171L66.8735 77.4953C67.0475 77.2735 67.2335 77.0621 67.4195 76.8506C67.7975 76.4328 68.1635 76.0099 68.5475 75.5973C68.9315 75.1847 69.3935 74.8288 69.8195 74.4523L70.4675 73.8901C70.6895 73.7147 70.9295 73.5496 71.1695 73.3743C71.6375 73.039 72.1175 72.7141 72.5975 72.3943C73.5952 71.8027 74.6375 71.2685 75.7175 70.7954C75.0035 71.6568 74.1875 72.3892 73.4615 73.1834C73.1075 73.5909 72.7535 73.9881 72.3875 74.3749C72.2135 74.576 72.0215 74.7566 71.8475 74.9577L71.3555 75.5715C71.0255 75.9738 70.6895 76.3761 70.3475 76.7681C70.0055 77.1601 69.7475 77.6036 69.4415 78.0162C69.2915 78.2226 69.1235 78.4237 68.9795 78.63L68.5715 79.2747C68.3015 79.7028 67.9715 80.1103 67.7555 80.5539C66.7111 82.2895 65.8439 84.0998 65.1635 85.9643C64.441 87.8814 63.913 89.8487 63.5855 91.8442Z" fill="#E6E6E6"/>
<path d="M50.9654 90.3377C50.6588 88.3433 50.157 86.3746 49.4654 84.4527C48.8075 82.5821 47.9644 80.7634 46.9454 79.0165C46.7174 78.5729 46.4054 78.1603 46.1474 77.7322L45.7454 77.0823C45.6074 76.8709 45.4394 76.6749 45.2954 76.4634C44.9954 76.0456 44.6954 75.633 44.4014 75.2101C44.1074 74.7871 43.7354 74.4106 43.4114 73.998L42.9254 73.3842C42.7574 73.1779 42.5654 72.9922 42.3914 72.7962C42.0374 72.4042 41.6834 72.0019 41.3354 71.5945C40.6214 70.7899 39.8174 70.0472 39.1094 69.1807C40.1854 69.6644 41.2218 70.2106 42.2114 70.8157C42.6854 71.1354 43.1594 71.4655 43.6274 71.806C43.8614 71.971 44.1014 72.136 44.3234 72.3217L44.9594 72.8839C45.3874 73.2656 45.8074 73.6524 46.2194 74.0444C46.5974 74.457 46.9574 74.8851 47.3294 75.3081C47.5094 75.5247 47.6954 75.7362 47.8634 75.9579L48.3434 76.6388C48.6434 77.1029 48.9854 77.5465 49.2434 78.0313C50.3544 79.9275 51.0944 81.9681 51.4334 84.0711C51.8232 86.1638 51.6633 88.305 50.9654 90.3377Z" fill="#E6E6E6"/>
<path d="M51.157 91.2923C51.223 88.961 51.157 86.7071 50.983 84.4738C50.7954 82.2561 50.4204 80.0531 49.861 77.8822C49.633 76.7939 49.225 75.752 48.901 74.6792C48.697 74.1634 48.475 73.6477 48.301 73.1319C48.0993 72.6064 47.867 72.09 47.605 71.5846C46.699 69.4854 45.379 67.5564 44.125 65.4727C46.2581 66.9573 48.0524 68.769 49.417 70.8161L49.945 71.5794C50.119 71.8373 50.239 72.0952 50.389 72.384C50.683 72.8998 50.989 73.4672 51.229 74.0139C51.694 75.1092 52.0768 76.229 52.375 77.3664C52.963 79.682 53.165 82.0577 52.975 84.4222C52.835 86.7853 52.2199 89.1097 51.157 91.2923Z" fill="#E6E6E6"/>
<path d="M62.5519 92.6641C61.1486 90.5303 60.0353 88.265 59.2339 85.9126C58.4125 83.5697 57.8105 81.174 57.4339 78.7485C57.2239 77.5416 57.1219 76.3192 57.0079 75.0968C56.8939 73.8744 56.8819 72.652 56.9599 71.4245C57.0212 68.9729 57.4036 66.5352 58.0999 64.1572C58.4779 66.602 58.6399 68.9849 58.9879 71.3781C59.1079 72.5643 59.3059 73.7455 59.4439 74.9266L59.7139 76.6957C59.7859 77.2888 59.8819 77.8768 59.9839 78.4648C60.3559 80.8202 60.7679 83.1755 61.2199 85.5309L62.5519 92.6641Z" fill="#E6E6E6"/>
<path d="M61.9884 92.1951C60.3078 90.2124 58.8985 88.0698 57.7884 85.8098C56.652 83.5676 55.7309 81.2492 55.0344 78.8778C54.6564 77.6967 54.3924 76.4898 54.1224 75.2674C53.8524 74.045 53.6724 72.8536 53.5884 71.626C53.3213 69.1855 53.3756 66.7269 53.7504 64.2969C54.4464 66.6849 54.9504 69.0368 55.5504 71.363C55.8324 72.5286 56.1864 73.684 56.4804 74.8445L56.9844 76.5775C57.1344 77.1551 57.3084 77.7328 57.4884 78.3053C58.1664 80.6108 58.8984 82.906 59.6544 85.2064L61.9884 92.1951Z" fill="#E6E6E6"/>
<path d="M60.8787 91.6738C58.9904 89.8373 57.3556 87.8193 56.0067 85.6599C54.6253 83.5112 53.4513 81.2686 52.4967 78.9548C51.9927 77.8098 51.6027 76.6287 51.2007 75.4579C50.7987 74.2871 50.4867 73.0853 50.2647 71.8733C49.7303 69.464 49.5149 67.0105 49.6227 64.5596C50.5767 66.8806 51.3147 69.2015 52.2207 71.4503C52.6287 72.5902 53.1087 73.7094 53.5287 74.839L54.2187 76.5255C54.4287 77.0877 54.6687 77.6448 54.9147 78.2018C55.8387 80.4454 56.8167 82.6736 57.8307 84.9069L60.8787 91.6738Z" fill="#E6E6E6"/>
<path d="M63.9728 91.0546C62.8763 89.1617 62.284 87.0827 62.2388 84.9685C62.1451 82.8413 62.4593 80.7154 63.1688 78.676C63.3248 78.1603 63.5768 77.6703 63.7688 77.17L64.0988 76.4273C64.2248 76.1848 64.3628 75.9476 64.5008 75.7103C64.7768 75.2358 65.0468 74.7613 65.3348 74.2971C65.6228 73.8329 66.0008 73.4048 66.3368 72.9664L66.8528 72.3114C67.0328 72.0999 67.2368 71.9039 67.4528 71.7028C67.8488 71.3005 68.2448 70.9033 68.6528 70.5113C69.5035 69.7696 70.4137 69.0802 71.3768 68.4482C70.8548 69.4076 70.2128 70.2586 69.6728 71.1561C69.4088 71.6099 69.1448 72.0587 68.8748 72.4971C68.7428 72.7188 68.5928 72.9303 68.4668 73.1573L68.1188 73.8381C67.8788 74.2868 67.6388 74.7355 67.3868 75.1739C67.1348 75.6123 66.9728 76.092 66.7868 76.5459C66.6848 76.7728 66.5588 76.9946 66.4688 77.2216L66.2048 77.9179C66.0308 78.3821 65.8088 78.8359 65.6768 79.3053C65.0269 81.1779 64.5652 83.095 64.2968 85.0355C63.9888 87.0302 63.8804 89.044 63.9728 91.0546Z" fill="#E6E6E6"/>
<path d="M63.9741 91.9936C62.4817 90.0218 61.3996 87.842 60.7761 85.5516C60.1172 83.2499 59.8424 80.8794 59.9601 78.5112C60.0187 77.3243 60.1711 76.1422 60.4161 74.973C60.5721 74.3902 60.7341 73.8125 60.9141 73.24C61.0101 72.9564 61.0701 72.6624 61.1901 72.3838L61.5561 71.5483C62.4849 69.3322 63.8824 67.2828 65.6781 65.5034C64.8014 67.6407 64.0741 69.8212 63.5001 72.0331C63.3424 72.5718 63.2202 73.1176 63.1341 73.6681C63.0441 74.2148 62.9241 74.7564 62.8281 75.3031C62.7321 76.4069 62.5401 77.4952 62.5341 78.6041C62.4276 80.822 62.5038 83.0437 62.7621 85.2524C63.0201 87.4805 63.4341 89.7087 63.9741 91.9936Z" fill="#E6E6E6"/>
<path d="M59.8704 89.0431L52.6284 78.4336L51.7344 88.7697L59.8704 89.0431Z" fill="#E6E6E6"/>
<path d="M71.7868 86.1855H43.9648L47.6068 100.576H68.1448L71.7868 86.1855Z" fill="#F5F5F5"/>
<path d="M54.4048 86.1855H43.9648L47.6068 100.576H53.0908L54.4048 86.1855Z" fill="#EBEBEB"/>
<path d="M250.54 119.03H206.302C203.938 101.061 208.282 81.7448 219.118 63.6979C219.403 63.2245 219.833 62.8271 220.362 62.5489C220.89 62.2707 221.498 62.1222 222.118 62.1196H259.54C260.051 62.1188 260.553 62.2328 260.997 62.4505C261.441 62.6682 261.81 62.982 262.069 63.3606C262.328 63.7392 262.468 64.1695 262.473 64.6087C262.479 65.0479 262.351 65.4807 262.102 65.8642C252.184 83.2818 248.266 101.777 250.54 119.03Z" fill="#E0E0E0"/>
<path d="M240.043 114.3H191.299C189.841 114.303 188.443 114.802 187.412 115.689C186.381 116.575 185.8 117.776 185.797 119.03H245.557C245.554 117.775 244.971 116.572 243.938 115.685C242.904 114.798 241.503 114.3 240.043 114.3Z" fill="#E0E0E0"/>
<path d="M218.379 168.865H215.667L208.965 119.031H211.677L218.379 168.865Z" fill="#E0E0E0"/>
<path d="M257.242 168.865H254.53L247.828 119.031H250.54L257.242 168.865Z" fill="#E0E0E0"/>
<path d="M221.99 168.865H224.708L231.41 119.031H228.692L221.99 168.865Z" fill="#E0E0E0"/>
<path d="M183.133 168.865H185.845L192.547 119.031H189.835L183.133 168.865Z" fill="#E0E0E0"/>
<path d="M255.367 6.875H51.0547V39.1986H255.367V6.875Z" fill="#F5F5F5"/>
<path d="M49.5127 39.1987H51.0547L51.0547 6.87518H49.5127L49.5127 39.1987Z" fill="#EBEBEB"/>
<path d="M243.237 26.134C183.369 34.799 123.501 17.469 63.6328 26.134V19.9447C123.501 11.2797 183.369 28.6097 243.237 19.9447V26.134Z" fill="#EBEBEB"/>
<path d="M300.5 168.864H0.5V168.993H300.5V168.864Z" fill="#EBEBEB"/>
<path d="M258.326 172.377H199.766V172.506H258.326V172.377Z" fill="#EBEBEB"/>
<path d="M201.9 175.358H173.898V175.487H201.9V175.358Z" fill="#EBEBEB"/>
<path d="M270.44 177.164H258.926V177.293H270.44V177.164Z" fill="#EBEBEB"/>
<path d="M131.901 175.42H76.3828V175.549H131.901V175.42Z" fill="#EBEBEB"/>
<path d="M71.0416 175.42H59.1016V175.549H71.0416V175.42Z" fill="#EBEBEB"/>
<path d="M54.8879 173.243H35.1719V173.372H54.8879V173.243Z" fill="#EBEBEB"/>
<path d="M142.7 145.861H26.8458C25.9382 145.86 25.0683 145.549 24.4271 144.996C23.7859 144.444 23.4258 143.696 23.4258 142.916V2.91928C23.4337 2.14357 23.7973 1.40186 24.4376 0.855266C25.078 0.308669 25.9434 0.00132883 26.8458 0H142.7C143.608 0 144.48 0.310283 145.122 0.862591C145.765 1.4149 146.126 2.16399 146.126 2.94507V142.916C146.126 143.697 145.765 144.446 145.122 144.998C144.48 145.551 143.608 145.861 142.7 145.861ZM26.8458 0.103155C25.978 0.104521 25.1462 0.401822 24.5332 0.9298C23.9201 1.45778 23.5758 2.17329 23.5758 2.91928V142.916C23.5758 143.662 23.9201 144.377 24.5332 144.905C25.1462 145.433 25.978 145.731 26.8458 145.732H142.7C143.568 145.731 144.4 145.433 145.015 144.906C145.629 144.378 145.974 143.662 145.976 142.916V2.91928C145.974 2.17282 145.629 1.45732 145.015 0.929485C144.4 0.401654 143.568 0.104519 142.7 0.103155H26.8458Z" fill="#EBEBEB"/>
<path d="M272.487 145.861H156.627C155.719 145.86 154.849 145.549 154.206 144.997C153.564 144.445 153.203 143.697 153.201 142.916V2.91928C153.211 2.1431 153.576 1.4014 154.217 0.854943C154.858 0.308489 155.724 0.00131434 156.627 0H272.487C273.389 0.00268434 274.252 0.310624 274.891 0.857076C275.53 1.40353 275.893 2.14446 275.901 2.91928V142.916C275.901 143.695 275.542 144.443 274.902 144.995C274.262 145.547 273.394 145.858 272.487 145.861ZM156.627 0.103155C155.759 0.104519 154.926 0.401654 154.312 0.929485C153.698 1.45732 153.353 2.17282 153.351 2.91928V142.916C153.353 143.662 153.698 144.378 154.312 144.906C154.926 145.433 155.759 145.731 156.627 145.732H272.487C273.356 145.731 274.188 145.433 274.802 144.906C275.416 144.378 275.762 143.662 275.763 142.916V2.91928C275.762 2.17282 275.416 1.45732 274.802 0.929485C274.188 0.401654 273.356 0.104519 272.487 0.103155H156.627Z" fill="#EBEBEB"/>
<path d="M32.6243 104.532L103.652 104.532V100.576L32.6243 100.576V104.532Z" fill="#EBEBEB"/>
<path d="M34.028 168.864H98L98 104.532H34.028L34.028 168.864Z" fill="#EBEBEB"/>
<path d="M99.584 104.532H98V168.865H99.584V104.532Z" fill="#F0F0F0"/>
<path d="M97.9995 104.532H34.0215V107.281L97.9995 105.904V104.532Z" fill="#E6E6E6"/>
<path d="M157.227 168.864H221.199V104.532H157.227V168.864Z" fill="#EBEBEB"/>
<path d="M222.783 104.532H221.199V168.865H222.783V104.532Z" fill="#F0F0F0"/>
<path d="M221.199 104.532H157.227V107.281L221.199 105.904V104.532Z" fill="#E6E6E6"/>
<path d="M227.918 100.576H103.652V104.532H227.918V100.576Z" fill="#F5F5F5"/>
<path d="M87.6328 91.1171H150.705C151.326 91.1291 151.943 91.0236 152.511 90.808C153.079 90.5923 153.586 90.2718 153.994 89.8692C154.402 89.4666 154.702 88.9918 154.873 88.4783C155.044 87.9648 155.082 87.4253 154.983 86.898L150.111 54.0793C149.911 52.9298 149.248 51.8772 148.237 51.1058C147.225 50.3345 145.93 49.8936 144.579 49.8603H81.5008C80.8795 49.8483 80.2627 49.9539 79.6941 50.1695C79.1255 50.3851 78.6189 50.7055 78.2103 51.108C77.8016 51.5105 77.5008 51.9852 77.3291 52.4987C77.1574 53.0121 77.1191 53.5517 77.2168 54.0793L82.1008 86.898C82.3014 88.0471 82.9652 89.0992 83.9764 89.8703C84.9875 90.6415 86.2817 91.0828 87.6328 91.1171Z" fill="#E0E0E0"/>
<path d="M108.924 73.9258H122.994L118.23 100.576H104.16L108.924 73.9258Z" fill="#E0E0E0"/>
<path d="M88.4834 91.1171H151.549C152.171 91.1299 152.788 91.025 153.357 90.8097C153.927 90.5944 154.434 90.274 154.842 89.8713C155.251 89.4686 155.552 88.9934 155.723 88.4796C155.895 87.9657 155.932 87.4258 155.833 86.898L150.961 54.0793C150.761 52.9294 150.096 51.8767 149.084 51.1054C148.071 50.3341 146.776 49.8934 145.423 49.8603H82.3514C81.7302 49.8482 81.1136 49.9537 80.5452 50.1694C79.9768 50.385 79.4705 50.7055 79.0623 51.1081C78.6541 51.5107 78.3539 51.9856 78.183 52.4991C78.012 53.0125 77.9746 53.552 78.0733 54.0793L82.9454 86.898C83.1461 88.048 83.8108 89.1007 84.8232 89.872C85.8356 90.6432 87.1312 91.084 88.4834 91.1171Z" fill="#E6E6E6"/>
<path d="M113.172 49.8599H122.37L138.924 82.1473H129.72L113.172 49.8599Z" fill="#F5F5F5"/>
<path d="M106.898 49.8599H110.582L127.13 82.1473H123.446L106.898 49.8599Z" fill="#F5F5F5"/>
<path d="M155.126 82.1475L155.834 86.8977C155.932 87.4253 155.894 87.9649 155.722 88.4784C155.55 88.9918 155.249 89.4666 154.841 89.8691C154.432 90.2716 153.925 90.5919 153.357 90.8075C152.788 91.0231 152.171 91.1287 151.55 91.1168H88.4841C87.1319 91.0837 85.8363 90.6429 84.824 89.8717C83.8116 89.1004 83.1469 88.0477 82.9461 86.8977L82.2441 82.1475H155.126Z" fill="#F0F0F0"/>
<path d="M63.5855 91.8442C62.916 89.8096 62.7827 87.6723 63.1955 85.5878C63.561 83.4822 64.3294 81.4432 65.4695 79.5533C65.7335 79.0736 66.0695 78.6352 66.3875 78.171L66.8735 77.4953C67.0475 77.2735 67.2335 77.0621 67.4195 76.8506C67.7975 76.4328 68.1635 76.0099 68.5475 75.5973C68.9315 75.1847 69.3935 74.8288 69.8195 74.4523L70.4675 73.8901C70.6895 73.7147 70.9295 73.5496 71.1695 73.3743C71.6375 73.039 72.1175 72.7141 72.5975 72.3943C73.5952 71.8027 74.6375 71.2685 75.7175 70.7954C75.0035 71.6568 74.1875 72.3892 73.4615 73.1834C73.1075 73.5909 72.7535 73.9881 72.3875 74.3749C72.2135 74.576 72.0215 74.7566 71.8475 74.9577L71.3555 75.5715C71.0255 75.9738 70.6895 76.3761 70.3475 76.7681C70.0055 77.1601 69.7475 77.6036 69.4415 78.0162C69.2915 78.2226 69.1235 78.4237 68.9795 78.63L68.5715 79.2747C68.3015 79.7028 67.9715 80.1103 67.7555 80.5539C66.7111 82.2895 65.8439 84.0998 65.1635 85.9643C64.441 87.8814 63.913 89.8487 63.5855 91.8442Z" fill="#E6E6E6"/>
<path d="M50.9654 90.3377C50.6588 88.3433 50.157 86.3746 49.4654 84.4527C48.8075 82.5821 47.9644 80.7634 46.9454 79.0165C46.7174 78.5729 46.4054 78.1603 46.1474 77.7322L45.7454 77.0823C45.6074 76.8709 45.4394 76.6749 45.2954 76.4634C44.9954 76.0456 44.6954 75.633 44.4014 75.2101C44.1074 74.7871 43.7354 74.4106 43.4114 73.998L42.9254 73.3842C42.7574 73.1779 42.5654 72.9922 42.3914 72.7962C42.0374 72.4042 41.6834 72.0019 41.3354 71.5945C40.6214 70.7899 39.8174 70.0472 39.1094 69.1807C40.1854 69.6644 41.2218 70.2106 42.2114 70.8157C42.6854 71.1354 43.1594 71.4655 43.6274 71.806C43.8614 71.971 44.1014 72.136 44.3234 72.3217L44.9594 72.8839C45.3874 73.2656 45.8074 73.6524 46.2194 74.0444C46.5974 74.457 46.9574 74.8851 47.3294 75.3081C47.5094 75.5247 47.6954 75.7362 47.8634 75.9579L48.3434 76.6388C48.6434 77.1029 48.9854 77.5465 49.2434 78.0313C50.3544 79.9275 51.0944 81.9681 51.4334 84.0711C51.8232 86.1638 51.6633 88.305 50.9654 90.3377Z" fill="#E6E6E6"/>
<path d="M51.157 91.2923C51.223 88.961 51.157 86.7071 50.983 84.4738C50.7954 82.2561 50.4204 80.0531 49.861 77.8822C49.633 76.7939 49.225 75.752 48.901 74.6792C48.697 74.1634 48.475 73.6477 48.301 73.1319C48.0993 72.6064 47.867 72.09 47.605 71.5846C46.699 69.4854 45.379 67.5564 44.125 65.4727C46.2581 66.9573 48.0524 68.769 49.417 70.8161L49.945 71.5794C50.119 71.8373 50.239 72.0952 50.389 72.384C50.683 72.8998 50.989 73.4672 51.229 74.0139C51.694 75.1092 52.0768 76.229 52.375 77.3664C52.963 79.682 53.165 82.0577 52.975 84.4222C52.835 86.7853 52.2199 89.1097 51.157 91.2923Z" fill="#E6E6E6"/>
<path d="M62.5519 92.6641C61.1486 90.5303 60.0353 88.265 59.2339 85.9126C58.4125 83.5697 57.8105 81.174 57.4339 78.7485C57.2239 77.5416 57.1219 76.3192 57.0079 75.0968C56.8939 73.8744 56.8819 72.652 56.9599 71.4245C57.0212 68.9729 57.4036 66.5352 58.0999 64.1572C58.4779 66.602 58.6399 68.9849 58.9879 71.3781C59.1079 72.5643 59.3059 73.7455 59.4439 74.9266L59.7139 76.6957C59.7859 77.2888 59.8819 77.8768 59.9839 78.4648C60.3559 80.8202 60.7679 83.1755 61.2199 85.5309L62.5519 92.6641Z" fill="#E6E6E6"/>
<path d="M61.9884 92.1951C60.3078 90.2124 58.8985 88.0698 57.7884 85.8098C56.652 83.5676 55.7309 81.2492 55.0344 78.8778C54.6564 77.6967 54.3924 76.4898 54.1224 75.2674C53.8524 74.045 53.6724 72.8536 53.5884 71.626C53.3213 69.1855 53.3756 66.7269 53.7504 64.2969C54.4464 66.6849 54.9504 69.0368 55.5504 71.363C55.8324 72.5286 56.1864 73.684 56.4804 74.8445L56.9844 76.5775C57.1344 77.1551 57.3084 77.7328 57.4884 78.3053C58.1664 80.6108 58.8984 82.906 59.6544 85.2064L61.9884 92.1951Z" fill="#E6E6E6"/>
<path d="M60.8787 91.6738C58.9904 89.8373 57.3556 87.8193 56.0067 85.6599C54.6253 83.5112 53.4513 81.2686 52.4967 78.9548C51.9927 77.8098 51.6027 76.6287 51.2007 75.4579C50.7987 74.2871 50.4867 73.0853 50.2647 71.8733C49.7303 69.464 49.5149 67.0105 49.6227 64.5596C50.5767 66.8806 51.3147 69.2015 52.2207 71.4503C52.6287 72.5902 53.1087 73.7094 53.5287 74.839L54.2187 76.5255C54.4287 77.0877 54.6687 77.6448 54.9147 78.2018C55.8387 80.4454 56.8167 82.6736 57.8307 84.9069L60.8787 91.6738Z" fill="#E6E6E6"/>
<path d="M63.9728 91.0546C62.8763 89.1617 62.284 87.0827 62.2388 84.9685C62.1451 82.8413 62.4593 80.7154 63.1688 78.676C63.3248 78.1603 63.5768 77.6703 63.7688 77.17L64.0988 76.4273C64.2248 76.1848 64.3628 75.9476 64.5008 75.7103C64.7768 75.2358 65.0468 74.7613 65.3348 74.2971C65.6228 73.8329 66.0008 73.4048 66.3368 72.9664L66.8528 72.3114C67.0328 72.0999 67.2368 71.9039 67.4528 71.7028C67.8488 71.3005 68.2448 70.9033 68.6528 70.5113C69.5035 69.7696 70.4137 69.0802 71.3768 68.4482C70.8548 69.4076 70.2128 70.2586 69.6728 71.1561C69.4088 71.6099 69.1448 72.0587 68.8748 72.4971C68.7428 72.7188 68.5928 72.9303 68.4668 73.1573L68.1188 73.8381C67.8788 74.2868 67.6388 74.7355 67.3868 75.1739C67.1348 75.6123 66.9728 76.092 66.7868 76.5459C66.6848 76.7728 66.5588 76.9946 66.4688 77.2216L66.2048 77.9179C66.0308 78.3821 65.8088 78.8359 65.6768 79.3053C65.0269 81.1779 64.5652 83.095 64.2968 85.0355C63.9888 87.0302 63.8804 89.044 63.9728 91.0546Z" fill="#E6E6E6"/>
<path d="M63.9741 91.9936C62.4817 90.0218 61.3996 87.842 60.7761 85.5516C60.1172 83.2499 59.8424 80.8794 59.9601 78.5112C60.0187 77.3243 60.1711 76.1422 60.4161 74.973C60.5721 74.3902 60.7341 73.8125 60.9141 73.24C61.0101 72.9564 61.0701 72.6624 61.1901 72.3838L61.5561 71.5483C62.4849 69.3322 63.8824 67.2828 65.6781 65.5034C64.8014 67.6407 64.0741 69.8212 63.5001 72.0331C63.3424 72.5718 63.2202 73.1176 63.1341 73.6681C63.0441 74.2148 62.9241 74.7564 62.8281 75.3031C62.7321 76.4069 62.5401 77.4952 62.5341 78.6041C62.4276 80.822 62.5038 83.0437 62.7621 85.2524C63.0201 87.4805 63.4341 89.7087 63.9741 91.9936Z" fill="#E6E6E6"/>
<path d="M59.8704 89.0431L52.6284 78.4336L51.7344 88.7697L59.8704 89.0431Z" fill="#E6E6E6"/>
<path d="M71.7868 86.1855H43.9648L47.6068 100.576H68.1448L71.7868 86.1855Z" fill="#F5F5F5"/>
<path d="M54.4048 86.1855H43.9648L47.6068 100.576H53.0908L54.4048 86.1855Z" fill="#EBEBEB"/>
<path d="M250.54 119.03H206.302C203.938 101.061 208.282 81.7448 219.118 63.6979C219.403 63.2245 219.833 62.8271 220.362 62.5489C220.89 62.2707 221.498 62.1222 222.118 62.1196H259.54C260.051 62.1188 260.553 62.2328 260.997 62.4505C261.441 62.6682 261.81 62.982 262.069 63.3606C262.328 63.7392 262.468 64.1695 262.473 64.6087C262.479 65.0479 262.351 65.4807 262.102 65.8642C252.184 83.2818 248.266 101.777 250.54 119.03Z" fill="#E0E0E0"/>
<path d="M240.043 114.3H191.299C189.841 114.303 188.443 114.802 187.412 115.689C186.381 116.575 185.8 117.776 185.797 119.03H245.557C245.554 117.775 244.971 116.572 243.938 115.685C242.904 114.798 241.503 114.3 240.043 114.3Z" fill="#E0E0E0"/>
<path d="M218.379 168.865H215.667L208.965 119.031H211.677L218.379 168.865Z" fill="#E0E0E0"/>
<path d="M257.242 168.865H254.53L247.828 119.031H250.54L257.242 168.865Z" fill="#E0E0E0"/>
<path d="M221.99 168.865H224.708L231.41 119.031H228.692L221.99 168.865Z" fill="#E0E0E0"/>
<path d="M183.133 168.865H185.845L192.547 119.031H189.835L183.133 168.865Z" fill="#E0E0E0"/>
<path d="M255.367 6.875H51.0547V39.1986H255.367V6.875Z" fill="#F5F5F5"/>
<path d="M49.5127 39.1987H51.0547L51.0547 6.87518H49.5127L49.5127 39.1987Z" fill="#EBEBEB"/>
<path d="M243.237 26.134C183.369 34.799 123.501 17.469 63.6328 26.134V19.9447C123.501 11.2797 183.369 28.6097 243.237 19.9447V26.134Z" fill="#EBEBEB"/>
<path d="M150.502 192.157C214.751 192.157 266.836 189.543 266.836 186.318C266.836 183.093 214.751 180.479 150.502 180.479C86.2525 180.479 34.168 183.093 34.168 186.318C34.168 189.543 86.2525 192.157 150.502 192.157Z" fill="#F5F5F5"/>
<path d="M227.301 23.1479H244.779C248.259 23.1479 251.085 26.6501 249.063 30.1522H179.763C182.163 26.026 177.873 23.1479 175.473 23.1479H227.301Z" fill="#0095E8"/>
<path d="M172.246 23.1479H243.346C233.608 23.1479 224.926 29.9304 223.942 38.2962L211.342 145.665C210.358 154.031 201.676 160.813 191.938 160.813H156.1C146.368 160.813 139.3 154.031 140.254 145.665L152.854 38.2962C153.826 29.9149 162.502 23.1479 172.246 23.1479Z" fill="#0095E8"/>
<path opacity="0.7" d="M172.246 23.1479H243.346C233.608 23.1479 224.926 29.9304 223.942 38.2962L211.342 145.665C210.358 154.031 201.676 160.813 191.938 160.813H156.1C146.368 160.813 139.3 154.031 140.254 145.665L152.854 38.2962C153.826 29.9149 162.502 23.1479 172.246 23.1479Z" fill="white"/>
<path d="M176.102 145.664C176.196 145.038 176.131 144.401 175.912 143.797C175.693 143.194 175.325 142.639 174.833 142.169C174.342 141.699 173.738 141.325 173.064 141.074C172.389 140.823 171.659 140.7 170.924 140.713H99.8242C100.56 140.699 101.29 140.822 101.965 141.072C102.641 141.323 103.245 141.697 103.737 142.167C104.229 142.637 104.598 143.193 104.817 143.796C105.036 144.4 105.102 145.037 105.008 145.664C104.024 154.03 111.122 160.813 120.854 160.813H191.948C182.216 160.813 175.1 154.03 176.102 145.664Z" fill="#0095E8"/>
<path d="M103.574 140.708H86.0964C84.56 140.714 83.0869 141.235 81.9916 142.161C80.8963 143.087 80.2657 144.345 80.2344 145.665H165.062C165.094 144.345 165.724 143.087 166.82 142.161C167.915 141.235 169.388 140.714 170.924 140.708H103.574Z" fill="#0095E8"/>
<path opacity="0.6" d="M103.574 140.708H86.0964C84.56 140.714 83.0869 141.235 81.9916 142.161C80.8963 143.087 80.2657 144.345 80.2344 145.665H165.062C165.094 144.345 165.724 143.087 166.82 142.161C167.915 141.235 169.388 140.714 170.924 140.708H103.574Z" fill="white"/>
<g opacity="0.5">
<path d="M164.343 75.7826H158.979L159.525 71.1768H164.883L164.343 75.7826Z" fill="white"/>
<path d="M173.194 75.7826H167.836L168.376 71.1768H173.734L173.194 75.7826Z" fill="white"/>
<path d="M182.048 75.7826H176.684L177.224 71.1768H182.588L182.048 75.7826Z" fill="white"/>
<path d="M190.897 75.7826H185.533L186.079 71.1768H191.437L190.897 75.7826Z" fill="white"/>
<path d="M199.749 75.7826H194.391L194.931 71.1768H200.289L199.749 75.7826Z" fill="white"/>
<path d="M208.604 75.7826H203.24L203.78 71.1768H209.144L208.604 75.7826Z" fill="white"/>
<path d="M163.448 83.3952H158.09L158.63 78.7842H163.988L163.448 83.3952Z" fill="white"/>
<path d="M172.305 83.3952H166.941L167.481 78.7842H172.845L172.305 83.3952Z" fill="white"/>
<path d="M181.153 83.3952H175.789L176.335 78.7842H181.693L181.153 83.3952Z" fill="white"/>
<path d="M190.003 83.3952H184.645L185.185 78.7842H190.543L190.003 83.3952Z" fill="white"/>
<path d="M198.86 83.3952H193.496L194.036 78.7842H199.4L198.86 83.3952Z" fill="white"/>
<path d="M207.712 83.3952H202.348L202.888 78.7842H208.252L207.712 83.3952Z" fill="white"/>
<path d="M162.559 91.0026H157.195L157.735 86.3916H163.099L162.559 91.0026Z" fill="white"/>
<path d="M171.409 91.0026H166.045L166.585 86.3916H171.949L171.409 91.0026Z" fill="white"/>
<path d="M180.26 91.0026H174.902L175.442 86.3916H180.8L180.26 91.0026Z" fill="white"/>
<path d="M189.116 91.0026H183.752L184.292 86.3916H189.656L189.116 91.0026Z" fill="white"/>
<path d="M197.966 91.0026H192.602L193.142 86.3916H198.506L197.966 91.0026Z" fill="white"/>
<path d="M206.817 91.0026H201.459L201.999 86.3916H207.357L206.817 91.0026Z" fill="white"/>
<path d="M161.665 98.6107H156.301L156.841 94.0049H162.205L161.665 98.6107Z" fill="white"/>
<path d="M170.514 98.6107H165.156L165.696 94.0049H171.054L170.514 98.6107Z" fill="white"/>
<path d="M179.366 98.6107H174.008L174.548 94.0049H179.906L179.366 98.6107Z" fill="white"/>
<path d="M188.223 98.6107H182.859L183.399 94.0049H188.763L188.223 98.6107Z" fill="white"/>
<path d="M197.073 98.6107H191.715L192.255 94.0049H197.613L197.073 98.6107Z" fill="white"/>
<path d="M205.92 98.6107H200.562L201.102 94.0049H206.46L205.92 98.6107Z" fill="white"/>
<path d="M160.772 106.223H155.414L155.954 101.612H161.312L160.772 106.223Z" fill="white"/>
<path d="M169.622 106.223H164.264L164.804 101.612H170.162L169.622 106.223Z" fill="white"/>
<path d="M178.477 106.223H173.113L173.653 101.612H179.017L178.477 106.223Z" fill="white"/>
<path d="M187.329 106.223H181.965L182.511 101.612H187.869L187.329 106.223Z" fill="white"/>
<path d="M196.178 106.223H190.82L191.36 101.612H196.718L196.178 106.223Z" fill="white"/>
<path d="M205.032 106.223H199.668L200.208 101.612H205.572L205.032 106.223Z" fill="white"/>
<path d="M159.878 113.831H154.52L155.06 109.22H160.418L159.878 113.831Z" fill="white"/>
<path d="M168.735 113.831H163.371L163.911 109.22H169.275L168.735 113.831Z" fill="white"/>
<path d="M177.585 113.831H172.221L172.767 109.22H178.125L177.585 113.831Z" fill="white"/>
<path d="M186.436 113.831H181.078L181.618 109.22H186.976L186.436 113.831Z" fill="white"/>
<path d="M195.29 113.831H189.926L190.466 109.22H195.83L195.29 113.831Z" fill="white"/>
<path d="M204.139 113.831H198.775L199.321 109.22H204.679L204.139 113.831Z" fill="white"/>
</g>
<path d="M162.656 109.22C162.585 109.742 162.297 110.225 161.845 110.578C161.393 110.932 160.807 111.133 160.196 111.144C159.911 111.149 159.627 111.101 159.365 111.004C159.103 110.906 158.869 110.761 158.678 110.578C158.488 110.396 158.345 110.18 158.26 109.945C158.175 109.711 158.15 109.464 158.186 109.22C158.256 108.699 158.544 108.216 158.996 107.863C159.449 107.51 160.035 107.311 160.646 107.302C160.931 107.296 161.214 107.343 161.476 107.44C161.738 107.538 161.973 107.682 162.164 107.864C162.354 108.047 162.497 108.262 162.582 108.496C162.667 108.73 162.692 108.977 162.656 109.22Z" fill="#0095E8"/>
<path d="M174.188 86.3918C174.116 86.9141 173.826 87.3965 173.373 87.75C172.92 88.1035 172.334 88.3044 171.722 88.3156C171.435 88.3221 171.151 88.2752 170.887 88.1781C170.624 88.0811 170.388 87.9362 170.196 87.7535C170.004 87.5707 169.86 87.3544 169.774 87.1193C169.689 86.8843 169.663 86.6361 169.7 86.3918C169.773 85.8703 170.063 85.3892 170.516 85.0368C170.969 84.6843 171.555 84.4842 172.166 84.4731C172.451 84.4676 172.735 84.515 172.997 84.612C173.26 84.709 173.495 84.8534 173.687 85.0354C173.878 85.2174 174.022 85.4327 174.109 85.6667C174.195 85.9007 174.222 86.148 174.188 86.3918Z" fill="#0095E8"/>
<path d="M191 94.0047C190.928 94.5271 190.638 95.0094 190.185 95.3629C189.732 95.7164 189.146 95.9173 188.534 95.9286C188.248 95.9335 187.965 95.8855 187.703 95.7878C187.441 95.6901 187.207 95.545 187.016 95.3625C186.825 95.1799 186.683 94.9641 186.598 94.7298C186.513 94.4955 186.488 94.2482 186.524 94.0047C186.596 93.4832 186.884 93.0016 187.336 92.6482C187.788 92.2948 188.373 92.0934 188.984 92.0809C189.27 92.0761 189.553 92.1241 189.815 92.2217C190.077 92.3194 190.312 92.4644 190.503 92.6469C190.694 92.8293 190.838 93.045 190.924 93.2793C191.009 93.5136 191.035 93.761 191 94.0047Z" fill="#0095E8"/>
<path d="M210.5 78.784C210.428 79.3064 210.138 79.7887 209.685 80.1423C209.232 80.4958 208.646 80.6966 208.034 80.7079C207.748 80.7128 207.465 80.6648 207.203 80.5671C206.941 80.4694 206.707 80.3244 206.516 80.1418C206.325 79.9592 206.183 79.7434 206.098 79.5091C206.013 79.2748 205.988 79.0275 206.024 78.784C206.096 78.2617 206.385 77.7794 206.839 77.4258C207.292 77.0723 207.878 76.8715 208.49 76.8602C208.775 76.8553 209.059 76.9033 209.321 77.001C209.582 77.0986 209.817 77.2437 210.008 77.4263C210.198 77.6089 210.341 77.8247 210.426 78.059C210.511 78.2933 210.536 78.5406 210.5 78.784Z" fill="#0095E8"/>
<path d="M160.419 109.788C160.31 109.788 160.203 109.765 160.107 109.72C160.011 109.676 159.93 109.611 159.87 109.533C159.811 109.455 159.775 109.365 159.766 109.271C159.757 109.178 159.775 109.084 159.819 108.998L171.351 86.1703C171.387 86.0985 171.439 86.0338 171.505 85.9805C171.571 85.9272 171.65 85.8864 171.735 85.8608C171.821 85.8359 171.911 85.8263 172.001 85.8325C172.09 85.8387 172.178 85.8606 172.257 85.8969L188.661 93.3189L207.807 78.3615C207.937 78.2612 208.108 78.2093 208.282 78.2171C208.457 78.2248 208.62 78.2916 208.737 78.4027C208.795 78.4576 208.839 78.5216 208.868 78.5913C208.897 78.6609 208.909 78.7347 208.905 78.8084C208.9 78.8822 208.879 78.9545 208.842 79.0212C208.805 79.0878 208.753 79.1476 208.689 79.197L189.201 94.4227C189.102 94.5009 188.977 94.5505 188.844 94.5644C188.71 94.5782 188.575 94.5557 188.457 94.5L172.257 87.176L161.025 109.447C160.974 109.549 160.889 109.635 160.781 109.695C160.674 109.756 160.548 109.788 160.419 109.788Z" fill="#0095E8"/>
<path opacity="0.5" d="M157.963 130.15H152.605L152.875 127.845H158.233L157.963 130.15Z" fill="#0095E8"/>
<path opacity="0.6" d="M166.821 130.15H161.457L162.387 122.212H167.751L166.821 130.15Z" fill="#0095E8"/>
<path opacity="0.7" d="M175.669 130.15H170.305L170.851 125.539H176.209L175.669 130.15Z" fill="#0095E8"/>
<path opacity="0.8" d="M184.518 130.15H179.16L179.868 124.09H185.232L184.518 130.15Z" fill="#0095E8"/>
<path opacity="0.9" d="M193.376 130.15H188.012L188.444 126.473H193.808L193.376 130.15Z" fill="#0095E8"/>
<path d="M202.227 130.15H196.863L197.139 127.845H202.497L202.227 130.15Z" fill="#0095E8"/>
<path opacity="0.5" d="M208.543 63.1358H162.007C161.81 63.1394 161.614 63.1064 161.434 63.0392C161.253 62.972 161.092 62.872 160.96 62.7462C160.828 62.6203 160.73 62.4716 160.671 62.3101C160.613 62.1485 160.595 61.978 160.621 61.8102L162.739 43.7066C162.788 43.3466 162.987 43.0141 163.299 42.7705C163.611 42.5268 164.015 42.3885 164.437 42.381H210.979C211.175 42.3783 211.37 42.4118 211.55 42.4793C211.73 42.5468 211.891 42.6468 212.023 42.7724C212.154 42.8981 212.253 43.0465 212.312 43.2076C212.371 43.3687 212.389 43.5389 212.365 43.7066L210.241 61.8102C210.191 62.1702 209.992 62.5026 209.68 62.7463C209.368 62.9899 208.964 63.1283 208.543 63.1358Z" fill="white"/>
<path d="M176.629 52.7583L180.481 45.6406C182.118 46.1752 183.499 47.168 184.4 48.4592C185.301 49.7503 185.671 51.2647 185.449 52.7583C185.19 54.5869 184.259 56.2967 182.791 57.639C181.323 58.9812 179.396 59.886 177.289 60.2216L176.629 52.7583Z" fill="#0095E8"/>
<path d="M176.63 52.7579L177.29 60.2212C176.779 60.2973 176.261 60.3352 175.742 60.3346C174.619 60.3499 173.505 60.158 172.475 59.772C171.446 59.386 170.524 58.8147 169.773 58.0967C169.022 57.3787 168.459 56.5307 168.121 55.6097C167.784 54.6888 167.68 53.7163 167.816 52.7579C168.107 50.7073 169.244 48.8146 171.022 47.4241C172.799 46.0335 175.098 45.2377 177.5 45.1812C178.51 45.1784 179.513 45.3339 180.458 45.6402L176.63 52.7579Z" fill="white"/>
<path d="M197.583 50.917H200.925L199.821 60.3247H196.479L197.583 50.917Z" fill="white"/>
<path d="M202.676 55.9199H206.018L205.502 60.3246H202.16L202.676 55.9199Z" fill="white"/>
<path d="M202.676 55.9201H206.018L206.336 53.2329H202.994L202.676 55.9201Z" fill="#0095E8"/>
<path d="M197.582 50.9166H200.924L201.596 45.1812H198.254L197.582 50.9166Z" fill="#0095E8"/>
<path d="M191.701 52.6294H195.043L194.143 60.3248H190.801L191.701 52.6294Z" fill="white"/>
<path d="M191.703 52.6295H195.045L195.459 49.1016H192.117L191.703 52.6295Z" fill="#0095E8"/>
<path d="M81.0788 53.9239C80.8148 54.3004 80.4788 54.775 80.2208 55.2082C79.9628 55.6415 79.6208 56.1108 79.3748 56.5647C78.8348 57.4828 78.2888 58.3957 77.7908 59.3344C76.7879 61.1765 75.9221 63.0715 75.1988 65.0079L74.9468 65.73L74.8268 66.0962L74.7908 66.1839C74.7525 66.4137 74.7835 66.6481 74.8808 66.8647C75.225 67.7257 75.6841 68.5495 76.2488 69.3198C77.5232 71.0775 78.9093 72.7735 80.4008 74.4002L78.4988 76.128C76.3755 74.7784 74.4424 73.2205 72.7388 71.486C71.7812 70.5371 70.9853 69.476 70.3748 68.3347C69.9599 67.5608 69.7548 66.716 69.7748 65.8641C69.7842 65.7258 69.8022 65.5881 69.8288 65.4515L69.8708 65.2349V65.1317L69.9728 64.7088L70.1828 63.8629C70.8042 61.65 71.6371 59.485 72.6728 57.3899C73.1888 56.3584 73.7348 55.3268 74.3468 54.3262C74.6468 53.8105 74.9468 53.3256 75.2828 52.8305C75.6188 52.3353 75.9368 51.866 76.3388 51.3296L81.0788 53.9239Z" fill="#FF8B7B"/>
<path d="M79.0282 73.4722L83.5402 73.6321L81.7402 76.9588C81.7402 76.9588 78.5302 76.8041 77.3242 75.133L79.0282 73.4722Z" fill="#FF8B7B"/>
<path d="M84.6547 75.1276L83.5387 78.1088L81.7207 76.9637L83.5387 73.6318L84.6547 75.1276Z" fill="#FF8B7B"/>
<path d="M88.398 181.79C87.9083 181.778 87.4214 181.721 86.946 181.619C86.9212 181.614 86.8986 181.603 86.8806 181.588C86.8626 181.572 86.8499 181.553 86.844 181.532C86.8394 181.51 86.842 181.488 86.8516 181.468C86.8612 181.448 86.8773 181.431 86.898 181.418C87.084 181.31 88.74 180.387 89.382 180.634C89.454 180.663 89.5161 180.706 89.5624 180.762C89.6087 180.817 89.6375 180.881 89.646 180.949C89.6749 181.054 89.6712 181.165 89.6355 181.269C89.5997 181.373 89.533 181.467 89.442 181.542C89.1398 181.73 88.7693 181.817 88.398 181.79ZM87.312 181.46C88.272 181.625 88.986 181.594 89.262 181.377C89.3226 181.327 89.3664 181.263 89.3885 181.193C89.4107 181.123 89.4105 181.05 89.388 180.98C89.3859 180.95 89.3749 180.921 89.3559 180.896C89.337 180.87 89.3109 180.85 89.28 180.835C88.938 180.706 87.984 181.104 87.312 181.46Z" fill="#0095E8"/>
<path d="M86.9758 181.619C86.9542 181.625 86.9313 181.625 86.9098 181.619C86.8901 181.609 86.8738 181.595 86.8623 181.577C86.8507 181.56 86.8444 181.541 86.8438 181.521C86.8438 181.464 86.8438 180.103 87.4438 179.649C87.5165 179.591 87.6031 179.548 87.6975 179.522C87.7918 179.496 87.8916 179.489 87.9898 179.499C88.0939 179.502 88.1942 179.534 88.2746 179.591C88.3551 179.648 88.4111 179.727 88.4337 179.814C88.5657 180.33 87.5817 181.361 87.0657 181.619C87.0367 181.628 87.0048 181.628 86.9758 181.619ZM87.8817 179.711C87.7757 179.71 87.6732 179.743 87.5938 179.804C87.2398 180.077 87.1318 180.835 87.1078 181.294C87.6238 180.933 88.2357 180.17 88.1517 179.845C88.1517 179.793 88.1037 179.726 87.9357 179.711H87.8817Z" fill="#0095E8"/>
<path d="M129 179.685C128.977 179.686 128.955 179.683 128.934 179.675C128.913 179.666 128.894 179.654 128.88 179.639C128.864 179.62 128.855 179.598 128.855 179.574C128.855 179.551 128.864 179.529 128.88 179.51C129.048 179.324 130.524 177.731 131.322 177.684H131.376C131.448 177.686 131.518 177.704 131.58 177.735C131.642 177.767 131.694 177.811 131.73 177.865C131.794 177.947 131.833 178.041 131.842 178.14C131.852 178.238 131.832 178.337 131.784 178.427C131.472 179.056 129.918 179.458 129.018 179.68L129 179.685ZM131.334 177.906C130.896 177.932 129.972 178.731 129.342 179.381C130.542 179.077 131.37 178.7 131.55 178.349C131.58 178.29 131.592 178.224 131.585 178.159C131.577 178.094 131.551 178.032 131.508 177.978C131.494 177.956 131.473 177.938 131.447 177.926C131.422 177.913 131.393 177.906 131.364 177.906H131.334Z" fill="#0095E8"/>
<path d="M128.999 179.685C128.976 179.683 128.955 179.675 128.937 179.664C128.919 179.652 128.905 179.636 128.897 179.618C128.897 179.572 128.351 178.411 128.735 177.72C128.79 177.618 128.87 177.526 128.968 177.451C129.066 177.376 129.18 177.318 129.305 177.282C129.653 177.173 129.833 177.282 129.905 177.374C130.271 177.803 129.587 179.18 129.107 179.649C129.093 179.662 129.076 179.672 129.057 179.678C129.039 179.684 129.019 179.687 128.999 179.685ZM129.497 177.426C129.443 177.431 129.391 177.442 129.341 177.457C129.249 177.484 129.164 177.527 129.092 177.583C129.02 177.639 128.962 177.706 128.921 177.782C128.755 178.292 128.787 178.835 129.011 179.329C129.455 178.777 129.863 177.746 129.647 177.488C129.631 177.466 129.608 177.449 129.582 177.438C129.555 177.427 129.526 177.423 129.497 177.426Z" fill="#0095E8"/>
<path d="M88.2076 34.9331C88.8076 37.7389 90.2236 43.8715 87.9316 45.6973C87.9316 45.6973 88.8016 48.5547 94.8616 48.6579C101.528 48.7662 98.0656 45.8727 98.0656 45.8727C94.4356 45.0629 94.5436 42.7522 95.1916 40.586L88.2076 34.9331Z" fill="#FF8B7B"/>
<path d="M86.2968 47.1212L85.1328 42.1749C86.8043 42.5942 88.529 42.8367 90.2688 42.897C92.6028 42.897 97.6608 42.7371 100.175 41.9893C100.871 42.8351 104.519 45.0839 104.519 45.0839L102.887 47.4513L86.2968 47.1212Z" fill="#0095E8"/>
<path opacity="0.8" d="M86.2968 47.1212L85.1328 42.1749C86.8043 42.5942 88.529 42.8367 90.2688 42.897C92.6028 42.897 97.6608 42.7371 100.175 41.9893C100.871 42.8351 104.519 45.0839 104.519 45.0839L102.887 47.4513L86.2968 47.1212Z" fill="white"/>
<path d="M101.217 29.5436C101.176 29.5385 101.137 29.5262 101.103 29.5075C101.045 29.4748 101.005 29.4242 100.99 29.3664C100.976 29.3086 100.988 29.2482 101.025 29.1981C101.241 28.8986 101.539 28.6484 101.892 28.4688C102.245 28.2892 102.643 28.1855 103.053 28.1665C103.122 28.1665 103.188 28.1897 103.237 28.2311C103.286 28.2726 103.315 28.329 103.317 28.3883C103.317 28.4476 103.29 28.5045 103.241 28.547C103.193 28.5894 103.127 28.6139 103.059 28.6152C102.734 28.6339 102.419 28.7195 102.142 28.865C101.864 29.0105 101.631 29.2114 101.463 29.4508C101.436 29.4846 101.399 29.5113 101.355 29.5277C101.312 29.5442 101.264 29.5497 101.217 29.5436Z" fill="#263238"/>
<path d="M102.887 32.1792C103.297 33.0492 103.844 33.8666 104.513 34.6085C104.288 34.7474 104.031 34.8425 103.76 34.887C103.488 34.9316 103.209 34.9245 102.941 34.8664L102.887 32.1792Z" fill="#FF5652"/>
<path d="M102.498 31.5237C102.498 31.9053 102.744 32.2148 103.032 32.2148C103.32 32.2148 103.554 31.9053 103.542 31.5237C103.53 31.142 103.296 30.8325 103.008 30.8325C102.72 30.8325 102.498 31.142 102.498 31.5237Z" fill="#263238"/>
<path d="M102.859 30.8539L103.921 30.5908C103.921 30.5908 103.387 31.3077 102.859 30.8539Z" fill="#263238"/>
<path d="M123.756 182.661L129.078 181.088L125.322 170.912L120.006 172.49L123.756 182.661Z" fill="#FF8B7B"/>
<path d="M80.5865 181.512H86.0765L85.4705 170.577H79.9805L80.5865 181.512Z" fill="#FF8B7B"/>
<path d="M86.5071 180.964H80.3331C80.2282 180.963 80.1265 180.995 80.047 181.054C79.9675 181.113 79.9157 181.195 79.9011 181.284L79.2651 185.483C79.2543 185.589 79.2694 185.697 79.3094 185.798C79.3494 185.899 79.4134 185.993 79.4974 186.072C79.5815 186.151 79.6837 186.214 79.7976 186.257C79.9115 186.3 80.0346 186.323 80.1591 186.323C82.3131 186.292 83.3451 186.184 86.0571 186.184C87.7311 186.184 90.1671 186.328 92.4771 186.328C94.7871 186.328 94.8771 184.374 93.9111 184.193C89.5911 183.399 88.8951 182.3 87.4251 181.253C87.1664 181.07 86.8425 180.968 86.5071 180.964Z" fill="#263238"/>
<path d="M128.382 179.232L122.676 181.553C122.577 181.587 122.496 181.653 122.451 181.736C122.405 181.819 122.398 181.914 122.43 182.001L123.9 185.942C123.946 186.041 124.016 186.132 124.105 186.207C124.194 186.282 124.301 186.34 124.418 186.378C124.534 186.416 124.659 186.432 124.784 186.426C124.908 186.421 125.03 186.393 125.142 186.344C127.116 185.514 128.022 185.029 130.542 184.018C132.084 183.394 135.342 182.233 137.49 181.372C139.638 180.511 138.744 178.747 137.766 178.948C133.386 179.861 131.262 179.531 129.366 179.154C129.037 179.086 128.691 179.113 128.382 179.232Z" fill="#263238"/>
<path opacity="0.2" d="M125.322 170.917L127.338 176.364L121.938 177.736L120 172.491L125.322 170.917Z" fill="black"/>
<path opacity="0.2" d="M79.9805 170.582H85.4705L85.7825 176.214H80.2925L79.9805 170.582Z" fill="black"/>
<path d="M78.4445 46.6104C76.1585 47.0024 73.6445 54.0118 73.6445 54.0118L80.0645 60.0102C80.0645 60.0102 85.4645 53.4805 84.3905 51.0254C83.2985 48.4827 81.1445 46.1514 78.4445 46.6104Z" fill="#0095E8"/>
<path opacity="0.2" d="M78.4445 46.6104C76.1585 47.0024 73.6445 54.0118 73.6445 54.0118L80.0645 60.0102C80.0645 60.0102 85.4645 53.4805 84.3905 51.0254C83.2985 48.4827 81.1445 46.1514 78.4445 46.6104Z" fill="black"/>
<path opacity="0.4" d="M82.0338 51.1599C83.1918 50.2728 83.9718 50.5564 84.4998 51.2837C85.0098 53.388 81.8718 57.7205 80.6058 59.3607C80.0418 57.3698 79.4058 53.1766 82.0338 51.1599Z" fill="black"/>
<path d="M107.785 48.2405C108.193 50.3036 108.283 56.5909 104.533 75.6591L82.2073 75.3032C82.6393 67.5098 82.6813 62.7028 78.4453 46.6313C81.5774 46.1296 84.7477 45.8245 87.9313 45.7184C91.3099 45.5715 94.6963 45.6301 98.0653 45.8938C101.311 46.1981 104.875 46.8067 106.465 47.0955C106.793 47.1513 107.094 47.2902 107.329 47.4942C107.565 47.6983 107.723 47.9582 107.785 48.2405Z" fill="#0095E8"/>
<path opacity="0.2" d="M107.785 48.2405C108.193 50.3036 108.283 56.5909 104.533 75.6591L82.2073 75.3032C82.6393 67.5098 82.6813 62.7028 78.4453 46.6313C81.5774 46.1296 84.7477 45.8245 87.9313 45.7184C91.3099 45.5715 94.6963 45.6301 98.0653 45.8938C101.311 46.1981 104.875 46.8067 106.465 47.0955C106.793 47.1513 107.094 47.2902 107.329 47.4942C107.565 47.6983 107.723 47.9582 107.785 48.2405Z" fill="black"/>
<path d="M87.572 30.2604C87.998 34.9385 88.064 36.9242 90.854 39.3174C95.054 42.9278 101.654 41.5249 102.854 36.852C103.94 32.6433 103.058 25.701 97.7 23.8493C96.5313 23.4292 95.256 23.2765 93.9984 23.4061C92.7407 23.5357 91.5435 23.9432 90.5235 24.5889C89.5035 25.2345 88.6955 26.0963 88.1783 27.0903C87.661 28.0842 87.4521 29.1764 87.572 30.2604Z" fill="#FF8B7B"/>
<path d="M89.0086 21.6629C83.1046 22.0394 81.7366 28.0017 84.0346 31.8081C80.3746 36.5945 80.8186 38.3224 81.9886 39.4365C83.9986 41.3654 94.3426 43.6864 100.535 39.6789C103.301 37.8891 98.1766 31.5245 98.1766 31.5245C98.1766 31.5245 101.159 20.8737 89.0086 21.6629Z" fill="#263238"/>
<path d="M82.5568 39.627C80.8828 39.627 80.2888 38.9153 80.0968 38.286C79.4968 36.2229 82.4968 32.2205 85.4968 31.1116C85.5741 31.0912 85.6574 31.0959 85.7309 31.1249C85.8045 31.1538 85.8631 31.2049 85.8956 31.2686C85.9282 31.3322 85.9325 31.4039 85.9076 31.47C85.8827 31.5362 85.8305 31.5922 85.7608 31.6274C83.1028 32.6125 80.1928 36.3828 80.7388 38.1416C80.9608 38.8637 81.7768 39.1732 83.1388 39.0287C83.2254 39.0215 83.3119 39.044 83.3793 39.0914C83.4467 39.1387 83.4897 39.207 83.4988 39.2815C83.5038 39.3181 83.5002 39.3552 83.4884 39.3906C83.4766 39.4261 83.4568 39.4591 83.43 39.4879C83.4032 39.5167 83.37 39.5406 83.3324 39.5583C83.2947 39.576 83.2534 39.5871 83.2108 39.5909C82.9888 39.6116 82.7608 39.627 82.5568 39.627Z" fill="#263238"/>
<path d="M91.464 33.6387L84.966 33.8244C84.71 33.8321 84.4548 33.7951 84.2159 33.7156C83.977 33.6362 83.7593 33.516 83.5759 33.3622C83.3926 33.2084 83.2474 33.0243 83.1491 32.821C83.0508 32.6176 83.0014 32.3993 83.004 32.1791C83.0065 31.727 83.2108 31.293 83.5748 30.9666C83.9388 30.6403 84.4347 30.4466 84.96 30.4254L91.458 30.2398C91.714 30.2321 91.9692 30.2691 92.2081 30.3485C92.447 30.428 92.6647 30.5482 92.8481 30.702C93.0314 30.8557 93.1766 31.0398 93.2749 31.2432C93.3732 31.4465 93.4226 31.6649 93.42 31.8851C93.4175 32.3372 93.2132 32.7712 92.8492 33.0975C92.4852 33.4238 91.9894 33.6176 91.464 33.6387Z" fill="#0095E8"/>
<path d="M89.7422 23.3646C91.9562 20.404 97.7522 19.5117 101.418 21.3685C105.708 23.5399 105.618 27.8982 98.3762 30.3378C90.4982 33.0095 89.7422 23.3646 89.7422 23.3646Z" fill="#263238"/>
<path d="M99.6008 30.2861C100.479 30.9368 101.093 31.8113 101.353 32.7825C101.677 34.0152 100.753 33.8501 99.6908 33.3447C98.7308 32.8908 97.2308 31.9934 97.2908 30.967C97.3508 29.9406 98.6588 29.5898 99.6008 30.2861Z" fill="#FF8B7B"/>
<path d="M98.6371 75.5561C98.6371 75.5561 95.2351 107.874 91.8031 126.066C89.0311 140.755 86.6851 175.126 86.6851 175.126H79.1971C79.1971 175.126 76.7551 141.601 78.2071 127.025C81.8911 90.2041 74.2531 87.0682 82.2091 75.2827L98.6371 75.5561Z" fill="#263238"/>
<path opacity="0.4" d="M91.0215 86.3608C92.9715 88.8262 95.5755 91.6682 96.4215 94.67C95.7495 100.122 94.9635 106.151 94.1115 111.948C92.0475 107.074 88.5195 97.3314 91.0215 86.3608Z" fill="black"/>
<path d="M104.533 75.6586C104.533 75.6586 111.835 111.03 114.901 125.204C118.087 139.94 127.129 172.743 127.129 172.743L119.659 176.044C119.659 176.044 104.209 136.432 102.367 129C97.4951 113.47 83.5391 75.3027 83.5391 75.3027L104.533 75.6586Z" fill="#263238"/>
<path d="M128.678 174.12L119.6 177.23L117.836 174.512L127.55 171.175L128.678 174.12Z" fill="#0095E8"/>
<path d="M87.7071 175.255H78.1731L77.6211 172.377L87.7131 172.083L87.7071 175.255Z" fill="#0095E8"/>
<path d="M81.8817 74.1524L80.8617 75.8493C80.7837 75.9783 80.9697 76.1175 81.2277 76.1227L104.628 76.5198C104.832 76.5198 105 76.4373 105.012 76.329L105.222 74.6218C105.222 74.5032 105.066 74.4 104.844 74.3949L82.2417 74.0132C82.1727 74.0068 82.103 74.0163 82.0397 74.0408C81.9764 74.0652 81.9219 74.1038 81.8817 74.1524Z" fill="#0095E8"/>
<path d="M84.9066 76.3704H84.3066C84.1866 76.3704 84.0906 76.3137 84.1026 76.2518L84.4026 74.0288C84.4026 73.9617 84.5166 73.9102 84.6366 73.9102H85.2366C85.3566 73.9102 85.4466 73.9669 85.4406 74.0339L85.1406 76.2569C85.1286 76.3343 85.0266 76.3756 84.9066 76.3704Z" fill="#263238"/>
<path d="M99.5764 76.618H98.9764C98.8564 76.618 98.7664 76.5612 98.7784 76.4993L99.0724 74.2763C99.0724 74.2093 99.1864 74.1577 99.3124 74.1577H99.9124C100.038 74.1577 100.128 74.2145 100.116 74.2815L99.8164 76.5045C99.8044 76.5715 99.6964 76.6231 99.5764 76.618Z" fill="#263238"/>
<path d="M110.618 50.6592C111.296 51.6443 112.016 52.7223 112.754 53.7074C113.492 54.6925 114.224 55.7344 114.998 56.7144C115.772 57.6943 116.57 58.664 117.398 59.5975C118.226 60.5311 119.066 61.4131 119.948 62.2228C120.668 62.8211 121.557 63.2477 122.528 63.4607C123.75 63.7566 125.005 63.9433 126.272 64.0177C129.001 64.1781 131.74 64.1401 134.462 63.9043L135.062 66.2356C132.188 67.0391 129.205 67.5159 126.188 67.6539C124.581 67.7289 122.97 67.6406 121.388 67.3909C120.519 67.244 119.671 67.021 118.856 66.7255C117.946 66.3905 117.109 65.9268 116.378 65.3536C114.168 63.5617 112.175 61.5812 110.432 59.4428C108.688 57.3803 107.101 55.2233 105.68 52.9853L110.618 50.6592Z" fill="#FF8B7B"/>
<path d="M107.421 47.209C112.749 47.9363 114.951 54.4711 114.951 54.4711L108.549 59.7733C108.549 59.7733 101.301 54.0534 101.301 50.412C101.301 47.7042 104.517 46.8119 107.421 47.209Z" fill="#0095E8"/>
<path opacity="0.2" d="M107.421 47.209C112.749 47.9363 114.951 54.4711 114.951 54.4711L108.549 59.7733C108.549 59.7733 101.301 54.0534 101.301 50.412C101.301 47.7042 104.517 46.8119 107.421 47.209Z" fill="black"/>
<path d="M140.771 60.9335C140.699 61.7536 140.573 62.5633 140.435 63.3679C140.297 64.1725 140.129 64.972 139.955 65.7663C139.781 66.5606 139.583 67.3549 139.355 68.144C139.127 68.9331 139.169 69.7738 138.155 70.367C137.994 70.4445 137.807 70.4743 137.624 70.452C137.441 70.4296 137.272 70.3563 137.141 70.2432C137.09 70.1982 137.046 70.148 137.009 70.0936C136.409 69.1137 136.931 68.3967 137.099 67.6024C137.267 66.8082 137.573 66.0551 137.831 65.2608C138.089 64.4665 138.365 63.7135 138.659 62.945C138.953 62.1765 139.259 61.3977 139.625 60.6601C139.703 60.5577 139.82 60.4823 139.957 60.4473C140.093 60.4124 140.239 60.4201 140.369 60.4693C140.483 60.5032 140.582 60.5656 140.653 60.6483C140.725 60.7311 140.766 60.8304 140.771 60.9335Z" fill="#263238"/>
<path d="M140.853 61.8052L139.053 61.5525C138.783 61.5113 138.651 61.2276 138.753 60.9181C138.855 60.6087 139.161 60.4023 139.431 60.4023L141.231 60.6602C141.501 60.6963 141.633 60.98 141.531 61.2946C141.429 61.6247 141.123 61.8465 140.853 61.8052Z" fill="#263238"/>
<path d="M143.851 49.5658C141.115 48.885 137.947 50.8707 136.783 54.0067C135.619 57.1426 136.891 60.2372 139.627 60.918C142.363 61.5988 145.531 59.608 146.701 56.4772C147.871 53.3465 146.593 50.2467 143.851 49.5658ZM139.963 60.0206C137.653 59.4481 136.585 56.8434 137.563 54.2026C138.541 51.5619 141.211 49.8908 143.515 50.4633C145.819 51.0358 146.899 53.6404 145.915 56.2812C144.931 58.922 142.267 60.5931 139.963 60.0206Z" fill="#0095E8"/>
<path opacity="0.1" d="M140.597 60.3457C138.437 59.83 137.429 57.3646 138.347 54.894C139.265 52.4235 141.767 50.8452 143.933 51.3868C146.099 51.9283 147.101 54.3679 146.177 56.8385C145.253 59.309 142.757 60.8615 140.597 60.3457Z" fill="#0095E8"/>
<path d="M132.733 66.4057L138.613 67.3495L139.213 63.1099C139.213 63.1099 134.377 63.3523 132.715 64.6572L132.733 66.4057Z" fill="#FF8B7B"/>
<path d="M140.087 67.3395L141.125 64.5234C141.164 64.4292 141.163 64.3264 141.124 64.2324C141.085 64.1384 141.009 64.059 140.909 64.0076L139.229 63.0947L138.629 67.3344L139.439 67.6026C139.565 67.6408 139.704 67.6346 139.826 67.5854C139.947 67.5362 140.041 67.4478 140.087 67.3395Z" fill="#FF8B7B"/>
<defs>
<clipPath id="clip0_1758_29163">
<rect width="16.6186" height="14.2857" fill="white" transform="translate(266.836 185.714)"/>
</clipPath>
<clipPath id="clip1_1758_29163">
<rect width="16.6186" height="14.2857" fill="white" transform="translate(17.1172 185.714)"/>
</clipPath>
</defs>
</svg>
