<svg width="297" height="221" viewBox="0 0 297 221" fill="none" xmlns="http://www.w3.org/2000/svg">
<path d="M17.9579 101.059L19.1913 118.979C19.2129 119.286 19.3815 119.574 19.6627 119.786C19.944 119.998 20.3168 120.117 20.7053 120.119L61.4783 120.357C61.6793 120.358 61.8788 120.328 62.0651 120.268C62.2515 120.209 62.4211 120.12 62.5642 120.009C62.7073 119.897 62.821 119.764 62.899 119.617C62.9769 119.471 63.0175 119.313 63.0183 119.154L63.1489 105.219C63.1506 105.059 63.1124 104.901 63.0364 104.753C62.9604 104.606 62.8482 104.471 62.7062 104.358C62.5643 104.245 62.3954 104.155 62.2092 104.094C62.0231 104.032 61.8235 104.001 61.6218 104.001H36.5433C36.3429 104.001 36.1445 103.969 35.9596 103.908C35.7747 103.847 35.6071 103.757 35.4666 103.644L31.14 100.228C30.8568 100.002 30.472 99.8736 30.0697 99.8716L19.498 99.8096C19.2919 99.8081 19.0876 99.8397 18.8973 99.9023C18.707 99.9649 18.5347 100.057 18.3908 100.174C18.2469 100.291 18.1344 100.429 18.06 100.581C17.9856 100.733 17.9509 100.896 17.9579 101.059Z" fill="#EBEBEB"/>
<path d="M63.185 101.884L18.6348 101.625L18.4396 122.678L62.9898 122.936L63.185 101.884Z" fill="#F5F5F5"/>
<path d="M15.0707 103.495L18.2683 125.472C18.2969 125.66 18.4115 125.834 18.5905 125.96C18.7695 126.087 19.0007 126.157 19.2407 126.158L62.6566 126.411C62.9048 126.414 63.1451 126.342 63.3283 126.21C63.5115 126.078 63.6237 125.895 63.642 125.699L66.0304 103.758C66.0421 103.651 66.0257 103.544 65.9823 103.442C65.9389 103.34 65.8693 103.247 65.778 103.167C65.6867 103.088 65.5756 103.024 65.4518 102.98C65.3279 102.936 65.1938 102.913 65.0581 102.912L16.0496 102.628C15.9108 102.628 15.7737 102.651 15.647 102.696C15.5204 102.741 15.4072 102.806 15.3148 102.888C15.2224 102.97 15.1529 103.066 15.1108 103.171C15.0688 103.276 15.0551 103.386 15.0707 103.495Z" fill="#EBEBEB"/>
<path d="M203.075 104.156L204.139 119.588C204.156 119.853 204.3 120.102 204.543 120.285C204.786 120.467 205.109 120.569 205.444 120.569L240.553 120.775C240.899 120.775 241.231 120.666 241.475 120.473C241.72 120.279 241.858 120.017 241.858 119.743L241.969 107.733C241.969 107.459 241.831 107.196 241.586 107.003C241.342 106.809 241.01 106.7 240.663 106.7H219.076C218.903 106.701 218.731 106.675 218.571 106.622C218.411 106.57 218.265 106.493 218.143 106.396L214.43 103.413C214.186 103.219 213.855 103.109 213.51 103.108L204.406 103.056C204.225 103.053 204.046 103.08 203.878 103.135C203.711 103.189 203.56 103.271 203.435 103.374C203.31 103.478 203.213 103.601 203.151 103.735C203.089 103.87 203.063 104.013 203.075 104.156Z" fill="#EBEBEB"/>
<path d="M242.014 104.866L203.656 104.644L203.488 122.775L241.846 122.998L242.014 104.866Z" fill="#F5F5F5"/>
<path d="M200.588 106.251L203.335 125.173C203.358 125.336 203.455 125.486 203.609 125.596C203.763 125.705 203.963 125.766 204.17 125.766L241.556 125.983C241.77 125.984 241.975 125.921 242.132 125.807C242.289 125.693 242.387 125.537 242.405 125.369L244.46 106.478C244.471 106.386 244.458 106.294 244.421 106.206C244.384 106.118 244.324 106.037 244.246 105.969C244.167 105.9 244.071 105.846 243.964 105.808C243.858 105.771 243.742 105.751 243.625 105.751L201.43 105.503C201.31 105.503 201.192 105.523 201.083 105.562C200.974 105.601 200.876 105.657 200.797 105.728C200.717 105.799 200.657 105.882 200.621 105.972C200.585 106.062 200.574 106.157 200.588 106.251Z" fill="#EBEBEB"/>
<path d="M273.176 3.02979H210.783V84.7129H273.176V3.02979Z" fill="#E0E0E0"/>
<path d="M271.102 3.02979H208.709V84.7129H271.102V3.02979Z" fill="#EBEBEB"/>
<path d="M268.446 4.68652H211.365V83.0561H268.446V4.68652Z" fill="white"/>
<path d="M257.324 14.8696H222.229V72.8726H257.324V14.8696Z" fill="#EBEBEB"/>
<path d="M222.262 52.3515C222.184 46.9321 228.344 41.6417 235.125 40.883C238.388 40.5269 241.801 41.0327 244.822 40.0521C250.219 38.3024 251.935 32.6352 257.365 30.9526L257.613 72.8729H222.262V52.3515Z" fill="#E0E0E0"/>
<path d="M269.567 107.681C269.567 107.681 264.399 107.387 264.875 116.558C265.351 125.73 266.532 130.607 266.532 130.607C266.532 130.607 266.382 132.641 264.392 132.244C262.402 131.846 258.656 129.864 256.809 131.345C254.962 132.827 255.569 135.232 258.114 138.004C260.659 140.775 265.945 147.005 266.428 147.573C266.911 148.14 267.081 149.167 265.671 149.064C264.262 148.961 254.734 146.411 253.474 150.06C252.215 153.709 260.907 160.507 261.84 161.26C262.774 162.014 262.819 162.499 262.441 162.959C262.062 163.418 258.963 162.319 256.215 161.679C253.468 161.039 250.146 160.682 249.637 162.835C249.128 164.987 252.965 171.284 267.303 177.906L274.2 180.631L280.726 177.338C294.156 169.596 297.164 163.046 296.388 160.946C295.611 158.845 292.348 159.464 289.692 160.316C287.036 161.168 284.1 162.504 283.663 162.076C283.225 161.648 283.219 161.173 284.048 160.342C284.876 159.511 292.668 152.084 290.952 148.538C289.236 144.992 280.087 148.3 278.69 148.512C277.293 148.724 277.385 147.671 277.75 147.082C278.116 146.494 282.632 139.856 284.811 136.904C286.991 133.952 287.376 131.552 285.268 130.194C283.16 128.837 279.767 131.134 277.835 131.686C275.903 132.238 275.499 130.231 275.499 130.231C275.499 130.231 276.06 125.281 275.375 116.12C274.69 106.958 269.456 107.696 269.456 107.696" fill="#EBEBEB"/>
<path d="M269.977 115.893C269.977 115.893 269.977 115.96 269.977 116.084C269.977 116.207 269.977 116.409 270.036 116.646C270.075 117.162 270.14 117.88 270.219 118.814C270.375 120.693 270.577 123.418 270.812 126.783C271.289 133.493 271.843 142.783 272.405 153.08C272.966 163.377 273.501 172.657 273.925 179.403C274.141 182.763 274.317 185.483 274.434 187.372C274.493 188.306 274.539 189.034 274.571 189.54C274.571 189.782 274.571 189.968 274.604 190.102V190.298C274.604 190.298 274.604 190.231 274.571 190.102C274.539 189.973 274.571 189.782 274.519 189.54C274.473 189.023 274.415 188.311 274.336 187.377C274.173 185.498 273.971 182.773 273.736 179.408C273.266 172.698 272.711 163.408 272.144 153.085C271.576 142.762 271.054 133.513 270.63 126.762C270.414 123.402 270.238 120.682 270.114 118.793C270.055 117.859 270.01 117.131 269.977 116.625C269.977 116.383 269.977 116.197 269.977 116.063C269.974 116.006 269.974 115.949 269.977 115.893Z" fill="#E0E0E0"/>
<path d="M261.904 134.277C262.061 134.359 262.205 134.454 262.335 134.561C262.596 134.752 262.988 135.036 263.425 135.392C264.338 136.104 265.559 137.116 266.883 138.252L270.257 141.173L271.288 142.05C271.424 142.153 271.544 142.267 271.647 142.391C271.49 142.312 271.345 142.218 271.217 142.112C270.949 141.921 270.564 141.632 270.127 141.276C269.22 140.554 268.012 139.532 266.694 138.396L263.294 135.495L262.263 134.618C262.126 134.517 262.005 134.402 261.904 134.277Z" fill="#E0E0E0"/>
<path d="M272.335 142.21C272.283 142.169 274.802 140.078 277.967 137.565C281.131 135.051 283.735 133.002 283.787 133.044C283.84 133.085 281.314 135.175 278.156 137.689C274.997 140.202 272.387 142.251 272.335 142.21Z" fill="#E0E0E0"/>
<path d="M272.301 158.019C272.448 157.923 272.61 157.841 272.784 157.777L274.135 157.178C275.27 156.662 276.836 155.97 278.533 155.144C280.23 154.319 281.737 153.539 282.827 152.961L284.132 152.285C284.283 152.193 284.448 152.115 284.621 152.053C284.495 152.165 284.35 152.264 284.191 152.347C283.904 152.528 283.479 152.78 282.951 153.085C281.894 153.689 280.399 154.499 278.696 155.32C276.993 156.141 275.401 156.832 274.239 157.307C273.658 157.544 273.182 157.73 272.849 157.849C272.674 157.92 272.49 157.977 272.301 158.019Z" fill="#E0E0E0"/>
<path d="M260.875 152.486C261.044 152.526 261.205 152.585 261.351 152.662C261.652 152.791 262.082 152.977 262.604 153.214C263.655 153.684 265.097 154.35 266.676 155.093C268.256 155.836 269.691 156.522 270.716 157.028L271.923 157.632C272.075 157.703 272.217 157.786 272.347 157.88C272.179 157.84 272.018 157.78 271.871 157.704C271.571 157.581 271.147 157.39 270.618 157.152C269.567 156.682 268.125 156.017 266.546 155.273C264.967 154.53 263.538 153.844 262.506 153.338L261.299 152.734C261.147 152.664 261.005 152.581 260.875 152.486Z" fill="#E0E0E0"/>
<path d="M258.611 166.438C258.822 166.501 259.025 166.579 259.218 166.67L260.824 167.372C262.174 167.97 264.028 168.812 266.044 169.751C268.061 170.69 269.927 171.552 271.265 172.182L272.824 172.941C273.022 173.025 273.208 173.126 273.379 173.24C273.166 173.182 272.962 173.104 272.772 173.008L271.206 172.311C269.862 171.712 268.002 170.871 265.985 169.932C263.969 168.992 262.07 168.12 260.765 167.501L259.199 166.742C258.99 166.657 258.793 166.555 258.611 166.438Z" fill="#E0E0E0"/>
<path d="M273.096 173.003C273.28 172.878 273.481 172.771 273.696 172.683L275.373 171.877C276.789 171.196 278.74 170.246 280.855 169.152C282.969 168.058 284.862 167.041 286.219 166.288L287.831 165.405C288.019 165.287 288.223 165.185 288.438 165.101C288.27 165.237 288.086 165.362 287.89 165.472C287.531 165.699 286.996 166.019 286.33 166.412C284.992 167.191 283.119 168.239 280.998 169.328C278.878 170.417 276.907 171.351 275.465 172.001C274.747 172.326 274.159 172.585 273.748 172.755C273.54 172.852 273.322 172.934 273.096 173.003Z" fill="#E0E0E0"/>
<path d="M283.466 182.417H264.385L270.61 219.702H277.234L283.466 182.417Z" fill="#E0E0E0"/>
<path d="M265.369 187C265.393 187.048 265.429 187.092 265.474 187.129C265.595 187.246 265.752 187.337 265.93 187.392C266.26 187.486 266.613 187.519 266.961 187.488C267.309 187.458 267.644 187.365 267.94 187.217C268.71 186.881 269.382 186.221 270.414 185.926C271.559 185.636 272.795 185.656 273.924 185.983C275.073 186.295 276.168 186.716 277.187 187.237C278.04 187.659 278.927 188.034 279.843 188.363C280.467 188.582 281.126 188.733 281.801 188.812C281.985 188.832 282.17 188.842 282.356 188.843C282.48 188.843 282.551 188.843 282.551 188.843C281.648 188.733 280.77 188.523 279.941 188.218C279.044 187.871 278.172 187.483 277.331 187.057C276.298 186.514 275.182 186.079 274.009 185.761C272.816 185.421 271.512 185.41 270.309 185.73C269.799 185.895 269.328 186.125 268.913 186.412C268.568 186.653 268.204 186.877 267.823 187.083C267.555 187.229 267.25 187.328 266.929 187.372C266.608 187.417 266.278 187.406 265.963 187.341C265.741 187.256 265.54 187.141 265.369 187Z" fill="#F5F5F5"/>
<path d="M266.068 193.864C266.068 193.864 266.218 193.71 266.518 193.467C266.948 193.128 267.467 192.867 268.038 192.703C268.887 192.456 269.791 192.347 270.694 192.383C271.81 192.451 272.919 192.572 274.016 192.744C275.136 192.915 276.282 192.951 277.416 192.853C278.341 192.761 279.244 192.557 280.091 192.249C280.659 192.044 281.197 191.791 281.697 191.495C281.891 191.396 282.063 191.272 282.206 191.129C281.506 191.497 280.768 191.818 280 192.089C279.166 192.365 278.288 192.548 277.39 192.631C276.28 192.711 275.162 192.668 274.068 192.502C272.959 192.327 271.836 192.211 270.707 192.156C269.77 192.133 268.837 192.263 267.967 192.538C267.377 192.725 266.851 193.021 266.433 193.4C266.325 193.505 266.229 193.617 266.146 193.735C266.081 193.818 266.061 193.859 266.068 193.864Z" fill="#F5F5F5"/>
<path d="M281.302 197.54C281.149 197.44 280.971 197.366 280.78 197.323C280.271 197.172 279.737 197.081 279.194 197.054C278.396 197.013 277.593 197.049 276.806 197.163C275.918 197.276 274.966 197.467 273.961 197.638C273.03 197.811 272.078 197.896 271.122 197.891C270.345 197.875 269.579 197.743 268.864 197.504C268.211 197.267 267.628 196.924 267.154 196.497C267.225 196.646 267.334 196.781 267.474 196.894C267.839 197.217 268.283 197.479 268.779 197.664C269.511 197.938 270.306 198.093 271.115 198.118C272.097 198.137 273.077 198.057 274.032 197.88C275.044 197.71 275.99 197.509 276.858 197.364C277.626 197.249 278.406 197.195 279.188 197.204C279.908 197.243 280.619 197.356 281.302 197.54Z" fill="#F5F5F5"/>
<path d="M267.752 202.701C268.337 202.505 268.983 202.454 269.605 202.556C270.285 202.684 270.942 202.877 271.563 203.129C272.355 203.428 273.208 203.613 274.082 203.676C275.678 203.788 277.278 203.495 278.65 202.84C279.06 202.644 279.441 202.412 279.785 202.149C279.917 202.055 280.032 201.948 280.125 201.829C279.608 202.142 279.07 202.434 278.513 202.701C277.162 203.286 275.623 203.542 274.088 203.439C272.281 203.356 270.897 202.505 269.644 202.407C269.161 202.34 268.664 202.374 268.202 202.505C268.034 202.539 267.879 202.607 267.752 202.701Z" fill="#F5F5F5"/>
<path d="M268.816 209.87C269.364 209.881 269.908 209.796 270.409 209.622C271.368 209.364 272.556 208.786 273.939 208.347C274.586 208.142 275.273 208.029 275.969 208.012C276.533 208.012 277.091 208.113 277.6 208.306C278.061 208.505 278.464 208.78 278.781 209.111C278.756 208.995 278.693 208.887 278.599 208.796C278.368 208.531 278.062 208.312 277.705 208.156C277.175 207.922 276.581 207.794 275.975 207.785C275.239 207.786 274.51 207.9 273.828 208.12C272.393 208.574 271.218 209.152 270.33 209.457C269.443 209.761 268.81 209.829 268.816 209.87Z" fill="#F5F5F5"/>
<path d="M269.756 213.199C270.137 213.348 270.544 213.452 270.963 213.508C272.953 213.887 275 214.046 277.045 213.983C277.47 213.99 277.894 213.95 278.305 213.865C278.305 213.787 276.347 213.865 274.011 213.668C271.674 213.472 269.775 213.126 269.756 213.199Z" fill="#F5F5F5"/>
<path d="M70.5503 11.9692H8.18359V83.4639H70.5503V11.9692Z" fill="#E0E0E0"/>
<path d="M59.6708 19.7109H12.8027V75.7165H59.6708V19.7109Z" fill="white"/>
<path d="M67.6014 11.9692C67.2828 12.4207 66.9114 12.8475 66.492 13.2441C65.7676 14.0131 64.7365 15.0557 63.5684 16.1809C62.4003 17.3061 61.2975 18.3073 60.4817 19.0144C60.07 19.4175 59.6111 19.7891 59.1113 20.1241C59.4615 19.6866 59.8588 19.2739 60.299 18.8906L63.3009 16.0106C64.4429 14.9215 65.4674 13.946 66.3027 13.1305C66.6931 12.715 67.1275 12.3264 67.6014 11.9692Z" fill="#E0E0E0"/>
<path d="M59.9141 75.541C62.2427 78.4707 64.9836 81.1822 68.0843 83.6236L59.9141 75.541Z" fill="white"/>
<path d="M68.0843 83.6237C67.5666 83.3192 67.0898 82.9733 66.6617 82.5915C64.4892 80.8372 62.5456 78.9144 60.8603 76.8521C60.486 76.4397 60.1687 75.9967 59.9141 75.5308C60.3399 75.9183 60.7282 76.3306 61.0756 76.7643C61.7282 77.5282 62.7267 78.5708 63.8556 79.6856C64.9846 80.8005 66.0613 81.7502 66.851 82.4727C67.2979 82.8315 67.7102 83.2162 68.0843 83.6237Z" fill="#E0E0E0"/>
<path d="M5.04492 83.4069L13.2152 75.4326L5.04492 83.4069Z" fill="white"/>
<path d="M13.2138 75.4326C12.0009 76.844 10.6939 78.2034 9.29834 79.5049C7.98087 80.8648 6.57143 82.1673 5.07617 83.4069C6.29428 82.0004 7.60335 80.6446 8.99816 79.3449C10.3186 77.9851 11.7257 76.6794 13.2138 75.4326Z" fill="#E0E0E0"/>
<path d="M5.05664 11.9692C6.46251 13.1602 7.78487 14.4111 9.01778 15.7164C10.3447 16.9652 11.5801 18.2732 12.7179 19.6338C11.3103 18.435 9.98793 17.1755 8.75675 15.8609C7.43412 14.6183 6.19888 13.3191 5.05664 11.9692Z" fill="#E0E0E0"/>
<path d="M45.0734 31.0815H29.3789V66.3231H45.0734V31.0815Z" fill="#E0E0E0"/>
<path d="M148.71 0.0102539H99.6953V40.4234H148.71V0.0102539Z" fill="#E0E0E0"/>
<path d="M145.388 0.0102539H96.373V40.4234H145.388V0.0102539Z" fill="#FAFAFA"/>
<path d="M145.407 40.439H96.3594V0H145.407V40.439ZM96.392 40.4132H145.374V0.0258062H96.392V40.4132Z" fill="#E0E0E0"/>
<path d="M138.804 5.44531H102.965V34.9939H138.804V5.44531Z" fill="white"/>
<path d="M102.965 35.1899C102.71 35.4852 102.415 35.757 102.084 36.0003C101.509 36.4803 100.707 37.1254 99.7996 37.8274C98.8925 38.5293 98.0703 39.159 97.4634 39.6029C97.1535 39.8622 96.8051 40.091 96.4258 40.2842C96.6771 39.987 96.9729 39.7149 97.3068 39.4738C97.8745 38.999 98.6837 38.3487 99.5908 37.6467C100.498 36.9448 101.32 36.3151 101.934 35.8661C102.243 35.6095 102.589 35.3826 102.965 35.1899Z" fill="#E0E0E0"/>
<path d="M138.805 35.1177C139.179 35.3195 139.525 35.5532 139.836 35.8145C140.436 36.2687 141.252 36.9035 142.146 37.6158C143.04 38.328 143.823 38.9887 144.384 39.4687C144.712 39.7137 145.001 39.9893 145.246 40.2893C144.87 40.0905 144.526 39.8566 144.221 39.5925C143.621 39.1384 142.798 38.5035 141.911 37.7861C141.023 37.0687 140.227 36.4183 139.666 35.9332C139.339 35.6896 139.05 35.4158 138.805 35.1177Z" fill="#E0E0E0"/>
<path d="M138.732 5.53842C138.988 5.24244 139.286 4.97056 139.62 4.7281C140.188 4.24809 140.99 3.60293 141.897 2.90099C142.805 2.19905 143.627 1.56937 144.234 1.12549C144.538 0.861334 144.882 0.627366 145.258 0.428711C145.007 0.725897 144.711 0.997978 144.377 1.23904C143.809 1.71904 143 2.36421 142.093 3.07131C141.186 3.77841 140.364 4.40293 139.75 4.84681C139.447 5.10816 139.105 5.3403 138.732 5.53842Z" fill="#E0E0E0"/>
<path d="M102.841 5.59499C102.463 5.39725 102.116 5.16321 101.81 4.89821C101.21 4.44401 100.394 3.80917 99.5067 3.09691C98.6191 2.38464 97.823 1.72916 97.2618 1.24399C96.9339 0.998923 96.6446 0.723369 96.4004 0.42334C96.7761 0.622116 97.1201 0.85607 97.4249 1.12012C98.0253 1.57431 98.8476 2.20916 99.7351 2.92658C100.623 3.64401 101.419 4.29949 101.986 4.7795C102.311 5.02389 102.598 5.2976 102.841 5.59499Z" fill="#E0E0E0"/>
<path d="M138.732 34.9936C138.732 34.9936 138.732 34.942 138.732 34.8491C138.732 34.7562 138.732 34.6117 138.732 34.4362C138.732 34.0646 138.732 33.5329 138.732 32.8413C138.732 31.4426 138.732 29.4039 138.732 26.8181C138.732 21.6567 138.686 14.2709 138.66 5.44501L138.732 5.53792H102.996L103.153 5.41404C103.153 16.2528 103.153 26.4052 103.153 34.9626L103.016 34.8542L128.897 34.911L136.121 34.9575H138.04H138.536H138.079H136.18H128.943L102.977 35.0142H102.84V34.9059C102.84 26.3484 102.84 16.2012 102.84 5.35727V5.2334H103.003H138.738H138.875V5.34179C138.875 14.1986 138.823 21.5948 138.803 26.7871C138.803 29.3678 138.803 31.391 138.771 32.7845C138.771 33.4658 138.771 33.9923 138.771 34.3588C138.771 34.5291 138.771 34.6581 138.771 34.7562C138.767 34.8361 138.754 34.9156 138.732 34.9936Z" fill="#E0E0E0"/>
<path d="M126.866 15.4893H114.904V24.95H126.866V15.4893Z" fill="#EBEBEB"/>
<path d="M74.0893 163.423L75.3161 181.245C75.3361 181.552 75.5033 181.84 75.7835 182.052C76.0637 182.264 76.4358 182.384 76.8236 182.386L117.368 182.618C117.568 182.619 117.766 182.59 117.951 182.531C118.136 182.471 118.305 182.384 118.447 182.273C118.59 182.162 118.703 182.031 118.781 181.885C118.859 181.74 118.9 181.584 118.902 181.426L119.032 167.552C119.033 167.394 118.994 167.236 118.919 167.09C118.843 166.943 118.731 166.809 118.59 166.697C118.448 166.584 118.281 166.495 118.096 166.433C117.911 166.372 117.712 166.34 117.512 166.339H92.5703C92.371 166.339 92.1738 166.307 91.99 166.246C91.8063 166.185 91.6398 166.096 91.5 165.983L87.193 162.582C86.9093 162.36 86.528 162.235 86.1293 162.231L75.6163 162.169C75.4105 162.168 75.2066 162.2 75.0169 162.264C74.8273 162.327 74.6559 162.42 74.5131 162.537C74.3704 162.655 74.2592 162.794 74.1863 162.946C74.1135 163.098 74.0805 163.261 74.0893 163.423Z" fill="#EBEBEB"/>
<path d="M119.056 164.245L74.7539 163.988L74.5598 184.927L118.862 185.184L119.056 164.245Z" fill="#F5F5F5"/>
<path d="M71.2173 165.844L74.3953 187.702C74.4225 187.89 74.536 188.063 74.7141 188.188C74.8922 188.314 75.1225 188.383 75.3611 188.383L118.536 188.636C118.782 188.637 119.02 188.565 119.202 188.434C119.384 188.303 119.498 188.123 119.521 187.929L121.896 166.107C121.907 166.001 121.89 165.893 121.846 165.792C121.802 165.691 121.733 165.598 121.641 165.519C121.55 165.44 121.439 165.377 121.316 165.334C121.193 165.29 121.059 165.267 120.924 165.266L72.17 164.982C72.0338 164.984 71.8996 165.009 71.7762 165.054C71.6527 165.1 71.5425 165.165 71.4529 165.246C71.3632 165.328 71.2959 165.423 71.2553 165.525C71.2148 165.628 71.2018 165.737 71.2173 165.844Z" fill="#EBEBEB"/>
<path d="M144.534 173.462L145.76 191.346C145.78 191.652 145.948 191.941 146.228 192.153C146.508 192.365 146.88 192.484 147.268 192.486L187.904 192.724C188.104 192.725 188.303 192.695 188.489 192.636C188.675 192.576 188.844 192.489 188.987 192.377C189.13 192.266 189.244 192.134 189.323 191.988C189.401 191.842 189.442 191.685 189.444 191.526L189.574 177.622C189.575 177.463 189.536 177.305 189.46 177.158C189.384 177.011 189.271 176.877 189.129 176.765C188.988 176.652 188.819 176.562 188.633 176.501C188.448 176.44 188.248 176.409 188.047 176.409H163.054C162.854 176.41 162.656 176.379 162.471 176.319C162.286 176.258 162.118 176.17 161.977 176.058L157.67 172.646C157.385 172.424 157.001 172.298 156.6 172.295L146.067 172.233C145.864 172.232 145.662 172.263 145.474 172.324C145.285 172.386 145.115 172.476 144.972 172.591C144.829 172.706 144.716 172.842 144.641 172.991C144.566 173.141 144.529 173.301 144.534 173.462Z" fill="#EBEBEB"/>
<path d="M189.595 174.29L145.195 174.033L145.001 195.018L189.401 195.276L189.595 174.29Z" fill="#F5F5F5"/>
<path d="M141.648 175.887L144.839 197.792C144.866 197.98 144.98 198.154 145.158 198.28C145.335 198.407 145.566 198.477 145.805 198.479L189.077 198.731C189.324 198.731 189.562 198.658 189.744 198.526C189.926 198.394 190.04 198.214 190.063 198.019L192.445 176.151C192.455 176.044 192.438 175.937 192.395 175.836C192.351 175.735 192.281 175.642 192.19 175.563C192.099 175.484 191.988 175.421 191.864 175.377C191.741 175.334 191.608 175.31 191.472 175.309L142.647 175.026C142.507 175.023 142.368 175.045 142.24 175.088C142.111 175.132 141.996 175.197 141.901 175.278C141.807 175.36 141.736 175.456 141.692 175.561C141.648 175.666 141.633 175.778 141.648 175.887Z" fill="#EBEBEB"/>
<path d="M284.788 220.125C284.788 220.203 221.143 220.26 142.651 220.26C64.1588 220.26 0.5 220.203 0.5 220.125C0.5 220.048 64.1327 219.991 142.651 219.991C221.169 219.991 284.788 220.053 284.788 220.125Z" fill="#263238"/>
<path d="M273.119 56.0416C270.926 53.848 270.88 49.848 270.952 48.7796C271.122 46.3486 264.27 32.1601 247.29 38.0182C241.201 38.0182 241.103 42.7718 239.948 43.7267C238.793 44.6815 237.508 45.6776 237.201 46.9783C236.666 49.2854 239.433 51.5254 238.728 53.8016C238.467 54.6532 237.742 55.3809 237.233 56.1603C236.685 56.8571 236.255 57.9926 236.489 58.6222C236.784 59.2369 237.172 59.821 237.645 60.3616C238.123 60.9074 238.342 61.5689 238.265 62.23C237.997 63.3965 236.307 64.0468 235.824 65.1771C235.341 66.3075 236.255 67.4326 237.057 68.4081C237.86 69.3836 238.63 70.6172 237.984 71.6649C237.556 72.1845 237.025 72.6464 236.411 73.0327C235.585 73.7129 235.03 74.5706 234.817 75.4986C234.603 76.4267 234.74 77.3839 235.21 78.2508L244.999 76.7024C245.434 73.0241 245.869 69.3423 246.304 65.6571C249.163 66.2197 252.288 64.7745 253.646 64.501L255.31 63.7887C258.951 64.3049 262.88 64.1139 266.071 62.6429C269.262 61.1719 273.993 63.0558 273.373 60.1706C273.027 58.7874 274.235 57.1513 273.119 56.0416Z" fill="#263238"/>
<path d="M261.985 42.6169L248.692 39.5201C244.411 39.0039 241.344 43.133 240.894 46.5188C240.398 50.3021 239.987 54.9369 240.411 57.7808C241.259 63.5099 246.734 64.408 246.734 64.408C246.734 64.408 245.775 72.5164 245.69 74.5448L262.063 67.897L264.132 44.7175C264.17 44.2186 263.971 43.7265 263.574 43.3378C263.177 42.9491 262.61 42.6919 261.985 42.6169Z" fill="#FFD3C1"/>
<path d="M241.722 51.1695C241.709 51.3592 241.791 51.5453 241.95 51.6881C242.108 51.8308 242.331 51.9188 242.57 51.9334C242.687 51.9449 242.806 51.9377 242.919 51.9123C243.032 51.887 243.138 51.8439 243.23 51.7857C243.322 51.7274 243.398 51.6553 243.454 51.5734C243.51 51.4915 243.544 51.4015 243.556 51.3089C243.568 51.1192 243.487 50.9331 243.328 50.7903C243.17 50.6476 242.947 50.5596 242.707 50.545C242.59 50.5328 242.472 50.5394 242.358 50.5645C242.244 50.5896 242.138 50.6326 242.046 50.691C241.954 50.7493 241.878 50.8218 241.822 50.904C241.767 50.9863 241.732 51.0766 241.722 51.1695Z" fill="#263238"/>
<path d="M241.225 49.5027C241.847 49.5387 242.465 49.6007 243.078 49.6885C243.669 49.8778 244.246 50.0915 244.808 50.3285C244.873 50.3285 244.808 50.1582 244.534 49.9517C244.144 49.6747 243.68 49.4717 243.176 49.3582C242.688 49.24 242.171 49.2169 241.669 49.2911C241.323 49.3582 241.179 49.4562 241.225 49.5027Z" fill="#263238"/>
<path d="M250.925 51.7632C250.914 51.9535 250.997 52.1395 251.157 52.2821C251.316 52.4247 251.54 52.5126 251.78 52.5271C251.897 52.5378 252.016 52.53 252.129 52.504C252.242 52.478 252.348 52.4345 252.439 52.3758C252.531 52.3172 252.607 52.2447 252.663 52.1626C252.719 52.0804 252.754 51.9903 252.765 51.8974C252.774 51.7076 252.691 51.5222 252.531 51.3799C252.372 51.2376 252.15 51.1494 251.91 51.1336C251.793 51.1228 251.674 51.1307 251.561 51.1567C251.448 51.1826 251.342 51.2262 251.25 51.2848C251.159 51.3435 251.083 51.416 251.027 51.4981C250.971 51.5803 250.936 51.6704 250.925 51.7632Z" fill="#263238"/>
<path d="M251.096 50.5349C251.24 50.5866 251.951 50.2098 253.054 50.0859C254.157 49.962 255.044 50.153 255.149 50.0859C255.253 50.0188 255.044 49.9362 254.659 49.8485C254.106 49.7315 253.528 49.7069 252.963 49.7762C252.411 49.8295 251.882 49.9813 251.416 50.2201C251.109 50.375 251.024 50.5091 251.096 50.5349Z" fill="#263238"/>
<path d="M247.66 55.6598C247.145 55.5108 246.608 55.4154 246.061 55.3759C245.807 55.3501 245.572 55.2985 245.539 55.1643C245.527 54.9539 245.6 54.746 245.748 54.5708C246.009 54.0908 246.29 53.5901 246.577 53.0637C247.725 50.9269 248.574 49.1617 248.463 49.1256C248.352 49.0894 247.334 50.7978 246.179 52.9346C245.905 53.4508 245.637 53.9669 245.383 54.4469C245.212 54.6846 245.151 54.9623 245.213 55.2314C245.247 55.3022 245.3 55.3661 245.369 55.4187C245.438 55.4713 245.521 55.5114 245.611 55.5359C245.751 55.5714 245.895 55.5922 246.042 55.5979C246.576 55.6708 247.119 55.6916 247.66 55.6598Z" fill="#263238"/>
<path d="M246.736 64.3774C250.082 64.5759 253.43 64.0041 256.375 62.731C256.29 62.731 253.425 66.6897 246.586 65.8845L246.736 64.3774Z" fill="#F4AF9B"/>
<path d="M247.988 57.5642C248.187 57.3822 248.441 57.2431 248.727 57.1601C249.012 57.077 249.319 57.0527 249.62 57.0893C249.838 57.1123 250.048 57.1699 250.238 57.2586C250.427 57.3472 250.592 57.4652 250.723 57.6055C250.848 57.7398 250.919 57.9014 250.925 58.0685C250.931 58.2356 250.872 58.4001 250.755 58.5397C250.589 58.6735 250.377 58.7658 250.145 58.8053C249.913 58.8447 249.671 58.8295 249.45 58.7616C248.988 58.6138 248.567 58.3965 248.21 58.1216C248.101 58.0561 248.01 57.9736 247.943 57.879C247.906 57.8363 247.887 57.786 247.887 57.7345C247.887 57.683 247.906 57.6327 247.943 57.59" fill="#F4AF9B"/>
<path d="M250.557 56.2945C250.394 56.2945 250.348 57.1358 249.395 57.7087C248.443 58.2816 247.301 58.1526 247.288 58.2713C247.275 58.39 247.536 58.4468 248.018 58.4726C248.648 58.4983 249.269 58.3485 249.774 58.0494C250.258 57.7604 250.582 57.3354 250.681 56.8623C250.74 56.5061 250.629 56.2894 250.557 56.2945Z" fill="#263238"/>
<path d="M251.216 47.7425C251.307 47.9541 252.299 47.887 253.461 48.0367C254.622 48.1864 255.549 48.4651 255.712 48.2793C255.784 48.1864 255.634 47.9851 255.262 47.7631C254.768 47.494 254.202 47.3174 253.608 47.2467C253.015 47.1761 252.409 47.2132 251.836 47.3554C251.405 47.4741 251.183 47.6393 251.216 47.7425Z" fill="#263238"/>
<path d="M242.296 47.2313C242.459 47.4171 243.151 47.2313 243.973 47.2726C244.795 47.3139 245.487 47.4378 245.657 47.2726C245.735 47.1848 245.657 47.0042 245.337 46.8236C244.935 46.6116 244.463 46.4985 243.98 46.4985C243.496 46.4985 243.024 46.6116 242.622 46.8236C242.328 46.9629 242.218 47.1436 242.296 47.2313Z" fill="#263238"/>
<path d="M247.127 38.7617C252.481 39.4282 257.715 40.5996 262.717 42.2508C263.879 42.6379 265.092 43.0869 265.745 43.9334C266.398 44.7798 266.345 45.9566 266.234 47.0302L264.57 62.3128L263.879 62.2819C261.921 62.5399 261.751 61.7348 260.322 60.6044C259.616 60.0313 259.088 59.3361 258.78 58.5738C258.472 57.8115 258.392 57.003 258.547 56.2122C258.834 54.8238 259.852 53.4302 259.304 52.0831C258.58 50.3076 255.506 49.6779 254.769 47.9076C254.344 46.8753 254.827 45.7089 254.331 44.6972C253.835 43.6856 252.654 43.1488 251.46 42.7875C250.266 42.4263 248.98 42.1269 247.995 41.4714C247.009 40.8159 246.403 39.603 247.127 38.7617Z" fill="#263238"/>
<path d="M203.508 28.5215H150.832C148.688 28.5215 146.949 29.8964 146.949 31.5925V65.0792C146.949 66.7752 148.688 68.1501 150.832 68.1501H203.508C205.652 68.1501 207.391 66.7752 207.391 65.0792V31.5925C207.391 29.8964 205.652 28.5215 203.508 28.5215Z" fill="#263238"/>
<path d="M177.171 54.4575C181.982 54.4575 185.883 51.3726 185.883 47.5671C185.883 43.7617 181.982 40.6768 177.171 40.6768C172.359 40.6768 168.459 43.7617 168.459 47.5671C168.459 51.3726 172.359 54.4575 177.171 54.4575Z" fill="#0095E8"/>
<path d="M175.075 49.5847V45.5176C175.075 45.4727 175.09 45.4286 175.118 45.3896C175.146 45.3505 175.186 45.318 175.235 45.295C175.284 45.2721 175.339 45.2596 175.396 45.2588C175.452 45.258 175.508 45.2689 175.558 45.2905L180.126 47.355C180.176 47.3782 180.218 47.4114 180.247 47.4512C180.276 47.4911 180.291 47.5362 180.291 47.5821C180.291 47.628 180.276 47.6731 180.247 47.713C180.218 47.7528 180.176 47.786 180.126 47.8092L175.558 49.8221C175.508 49.846 175.45 49.8584 175.391 49.858C175.333 49.8576 175.275 49.8444 175.225 49.8199C175.175 49.7953 175.135 49.7604 175.108 49.7189C175.082 49.6774 175.071 49.631 175.075 49.5847Z" fill="white"/>
<path d="M231.835 201.431L233.349 212.915C233.349 212.915 219.096 217.983 219.109 220.14L247.366 218.633L245.943 200.636L231.835 201.431Z" fill="#455A64"/>
<g opacity="0.3">
<path d="M231.835 201.431L233.349 212.915C233.349 212.915 219.096 217.983 219.109 220.14L247.366 218.633L245.943 200.636L231.835 201.431Z" fill="black"/>
</g>
<g opacity="0.6">
<path d="M241.995 211.475C242.272 211.525 242.515 211.655 242.679 211.839C242.843 212.022 242.915 212.247 242.882 212.471C242.828 212.692 242.669 212.889 242.437 213.021C242.205 213.152 241.919 213.208 241.636 213.178C241.342 213.123 241.085 212.983 240.912 212.787C240.74 212.591 240.666 212.352 240.703 212.115C240.789 211.889 240.983 211.698 241.243 211.583C241.504 211.467 241.81 211.436 242.099 211.495" fill="white"/>
</g>
<g opacity="0.6">
<path d="M247.361 218.618L247.133 216.807L220.123 218.933C220.123 218.933 218.902 219.449 219.105 220.125L247.361 218.618Z" fill="white"/>
</g>
<path d="M232.874 212.827C232.874 212.936 233.586 212.946 234.291 213.261C234.995 213.576 235.4 214.015 235.524 213.968C235.648 213.922 235.387 213.297 234.519 212.936C233.651 212.575 232.835 212.729 232.874 212.827Z" fill="#263238"/>
<path d="M229.996 213.952C229.996 214.061 230.583 214.215 231.092 214.649C231.601 215.082 231.745 215.568 231.915 215.557C232.084 215.547 232.084 214.922 231.438 214.391C230.792 213.859 229.99 213.849 229.996 213.952Z" fill="#263238"/>
<path d="M228.548 216.848C228.679 216.848 228.822 216.332 228.418 215.733C228.013 215.135 227.348 214.949 227.295 215.042C227.243 215.135 227.674 215.434 227.994 215.914C228.313 216.394 228.411 216.848 228.548 216.848Z" fill="#263238"/>
<path d="M232.899 210.179C232.965 210.272 233.585 210.092 234.368 210.092C235.151 210.092 235.777 210.252 235.836 210.154C235.895 210.056 235.288 209.699 234.361 209.71C233.434 209.72 232.821 210.097 232.899 210.179Z" fill="#263238"/>
<path d="M232.646 207.862C233.119 207.937 233.609 207.908 234.063 207.78C234.567 207.681 235.053 207.534 235.511 207.341C235.783 207.228 236.045 207.1 236.294 206.959C236.448 206.881 236.585 206.783 236.699 206.67C236.782 206.587 236.827 206.484 236.827 206.378C236.827 206.272 236.782 206.17 236.699 206.087C236.624 206.015 236.529 205.957 236.422 205.92C236.314 205.882 236.197 205.865 236.079 205.87C235.898 205.877 235.72 205.907 235.55 205.958C235.254 206.033 234.965 206.127 234.689 206.242C234.227 206.438 233.807 206.691 233.443 206.99C232.829 207.506 232.64 207.924 232.692 207.945C232.744 207.965 233.045 207.62 233.678 207.186C234.046 206.935 234.454 206.724 234.891 206.556C235.149 206.46 235.415 206.379 235.687 206.314C235.981 206.236 236.236 206.221 236.34 206.314C236.444 206.407 236.379 206.371 236.34 206.443C236.253 206.522 236.154 206.593 236.046 206.654C235.805 206.794 235.563 206.918 235.322 207.031C234.907 207.225 234.47 207.387 234.017 207.516C233.55 207.606 233.092 207.721 232.646 207.862Z" fill="#263238"/>
<path d="M232.84 208.006C233.079 207.671 233.177 207.284 233.121 206.902C233.109 206.487 233.007 206.077 232.82 205.689C232.712 205.458 232.572 205.236 232.403 205.028C232.314 204.884 232.18 204.761 232.013 204.671C231.846 204.58 231.652 204.526 231.45 204.512C231.325 204.52 231.205 204.557 231.106 204.617C231.006 204.678 230.931 204.759 230.889 204.853C230.831 204.988 230.794 205.129 230.778 205.271C230.709 205.953 230.986 206.629 231.548 207.15C232.148 207.702 232.736 207.8 232.742 207.764C232.749 207.728 232.285 207.521 231.815 206.984C231.542 206.676 231.357 206.323 231.274 205.952C231.238 205.738 231.238 205.521 231.274 205.307C231.274 205.064 231.391 204.868 231.509 204.884C231.626 204.899 231.9 205.044 232.037 205.224C232.19 205.412 232.323 205.608 232.435 205.813C232.627 206.165 232.752 206.537 232.807 206.917C232.873 207.573 232.762 207.991 232.84 208.006Z" fill="#263238"/>
<path d="M229.383 117.384C229.383 117.384 216.867 162.329 216.481 166.344C216.096 170.36 232 205.002 232 205.002L245.704 202.938C245.704 202.938 244.836 151.774 244.399 150.772C243.961 149.771 247.89 124.62 247.89 124.62L229.383 117.384Z" fill="#263238"/>
<path d="M238.127 201.968L238.277 213.509C238.277 213.509 223.489 217.509 223.268 219.645L251.576 219.878L252.275 202.221L238.127 201.968Z" fill="#455A64"/>
<g opacity="0.6">
<path d="M247.053 212.719C247.317 212.789 247.54 212.932 247.682 213.121C247.823 213.311 247.873 213.535 247.823 213.751C247.742 213.964 247.563 214.145 247.321 214.258C247.079 214.371 246.792 214.407 246.517 214.36C246.232 214.284 245.991 214.127 245.843 213.92C245.695 213.712 245.649 213.468 245.715 213.235C245.826 213.016 246.04 212.839 246.313 212.742C246.586 212.646 246.896 212.638 247.177 212.719" fill="white"/>
</g>
<g opacity="0.6">
<path d="M251.565 219.877V218.401L224.424 218.53C224.424 218.53 223.152 218.938 223.269 219.645L251.565 219.877Z" fill="white"/>
</g>
<path d="M237.819 213.39C237.819 213.498 238.511 213.56 239.183 213.906C239.855 214.252 240.194 214.737 240.325 214.696C240.455 214.654 240.266 214.02 239.45 213.591C238.635 213.163 237.793 213.287 237.819 213.39Z" fill="#263238"/>
<path d="M234.82 214.298C234.787 214.406 235.381 214.603 235.831 215.072C236.281 215.542 236.412 216.037 236.549 216.037C236.686 216.037 236.79 215.418 236.216 214.84C235.642 214.262 234.826 214.195 234.82 214.298Z" fill="#263238"/>
<path d="M233.045 217.075C233.169 217.075 233.378 216.559 233.045 215.955C232.712 215.351 232.072 215.098 232.007 215.186C231.942 215.274 232.334 215.604 232.601 216.105C232.869 216.605 232.908 217.065 233.045 217.075Z" fill="#263238"/>
<path d="M238.161 210.752C238.213 210.855 238.852 210.716 239.629 210.752C240.406 210.788 241.012 211.021 241.091 210.928C241.169 210.835 240.595 210.411 239.675 210.375C238.755 210.339 238.095 210.664 238.161 210.752Z" fill="#263238"/>
<g opacity="0.3">
<path d="M238.158 204.254L238.178 206.309L252.097 206.489L252.176 204.636L238.158 204.254Z" fill="black"/>
</g>
<path d="M238.18 208.424C238.643 208.527 239.133 208.527 239.596 208.424C240.111 208.363 240.615 208.252 241.097 208.094C241.38 208.001 241.655 207.893 241.919 207.769C242.081 207.703 242.228 207.618 242.356 207.516C242.449 207.439 242.507 207.341 242.523 207.236C242.538 207.13 242.509 207.024 242.441 206.933C242.374 206.855 242.284 206.792 242.18 206.747C242.075 206.702 241.959 206.677 241.841 206.675C241.66 206.667 241.48 206.683 241.306 206.721C241.001 206.772 240.704 206.846 240.418 206.943C239.943 207.104 239.502 207.324 239.113 207.593C238.46 208.063 238.206 208.466 238.251 208.486C238.297 208.507 238.643 208.187 239.322 207.805C239.727 207.589 240.165 207.415 240.627 207.289C240.894 207.209 241.169 207.146 241.449 207.103C241.749 207.051 242.004 207.051 242.102 207.16C242.2 207.268 242.134 207.217 242.069 207.284C241.975 207.358 241.867 207.42 241.749 207.469C241.503 207.59 241.248 207.698 240.986 207.795C240.542 207.959 240.078 208.088 239.602 208.182C239.121 208.234 238.645 208.315 238.18 208.424Z" fill="#263238"/>
<path d="M238.356 208.584C238.632 208.27 238.776 207.894 238.767 207.511C238.803 207.096 238.75 206.679 238.611 206.277C238.529 206.04 238.415 205.809 238.271 205.591C238.2 205.44 238.081 205.307 237.926 205.204C237.77 205.101 237.583 205.032 237.384 205.002C237.257 205.002 237.133 205.03 237.026 205.084C236.92 205.138 236.835 205.216 236.783 205.307C236.705 205.436 236.652 205.573 236.627 205.715C236.575 205.964 236.575 206.219 236.627 206.468C236.691 206.89 236.886 207.292 237.195 207.64C237.73 208.228 238.304 208.373 238.31 208.337C238.317 208.301 237.886 208.063 237.482 207.495C237.247 207.169 237.105 206.806 237.064 206.432C237.043 206.216 237.06 205.999 237.116 205.787C237.168 205.55 237.286 205.359 237.397 205.384C237.508 205.41 237.769 205.57 237.88 205.761C238.011 205.958 238.123 206.164 238.213 206.375C238.357 206.74 238.439 207.119 238.454 207.501C238.441 208.161 238.284 208.564 238.356 208.584Z" fill="#263238"/>
<path d="M261.196 116.692L229.383 117.384L233.951 162.153L236.783 205.307L253.287 205.761C254.129 197.431 254.187 167.996 254.187 167.996L257.496 150.22C258.266 145.425 260.7 140.388 261.875 136.083C262.56 133.56 263.565 130.282 263.78 129.209C264.439 126.045 261.196 116.692 261.196 116.692Z" fill="#263238"/>
<path d="M231.237 127.686C231.244 127.753 231.244 127.82 231.237 127.887C231.237 128.032 231.237 128.228 231.237 128.476C231.237 128.992 231.171 129.766 231.126 130.736C231.08 131.707 231.008 132.92 230.956 134.313C230.904 135.707 230.812 137.296 230.773 139.051C230.649 142.561 230.584 146.742 230.61 151.387C230.636 156.032 230.793 161.131 231.126 166.484C231.458 171.836 231.98 176.93 232.568 181.55C232.888 183.857 233.168 186.05 233.521 188.099C233.69 189.132 233.834 190.112 234.003 191.062C234.173 192.012 234.349 192.92 234.512 193.787C234.813 195.526 235.165 197.09 235.446 198.468C235.726 199.847 235.994 201.049 236.229 201.994L236.731 204.218C236.783 204.466 236.829 204.657 236.855 204.796C236.862 204.863 236.862 204.931 236.855 204.998C236.827 204.934 236.805 204.868 236.79 204.801C236.757 204.662 236.705 204.471 236.64 204.228C236.503 203.712 236.314 202.964 236.072 202.009C235.831 201.054 235.531 199.867 235.237 198.489C234.943 197.111 234.584 195.552 234.251 193.813C234.082 192.946 233.906 192.037 233.723 191.088C233.547 190.138 233.397 189.147 233.22 188.125C232.855 186.061 232.568 183.883 232.235 181.57C231.635 176.951 231.113 171.857 230.767 166.499C230.421 161.142 230.303 156.032 230.277 151.387C230.251 146.742 230.362 142.556 230.512 139.046C230.564 137.291 230.669 135.702 230.741 134.308C230.812 132.914 230.891 131.727 230.962 130.731C231.034 129.735 231.099 129.002 231.139 128.471C231.139 128.223 231.178 128.032 231.191 127.887C231.199 127.819 231.214 127.752 231.237 127.686Z" fill="#455A64"/>
<path d="M213.126 67.8146L204.982 60.9346L198.561 64.4907L204.982 72.0056L213.126 67.8146Z" fill="#FFD3C1"/>
<path d="M264.634 70.3539L264.243 65.9926L245.846 65.7861L245.69 71.2623C245.69 71.2623 236.658 79.0043 233.376 87.6495C227.868 102.215 225.871 120.754 225.871 120.754H263.518C263.127 115.624 260.451 104.145 260.451 104.145L268.817 84.403C270.899 77.3062 264.634 70.3539 264.634 70.3539Z" fill="#0095E8"/>
<path d="M219.084 90.065C219.084 90.065 219.188 90.1475 219.397 90.2869C219.697 90.5024 220.018 90.6991 220.356 90.8753C221.594 91.5347 223.004 91.9636 224.481 92.1295C225.499 92.2443 226.533 92.2356 227.548 92.1037C228.638 92.0056 229.806 91.8869 231.033 91.7579C233.493 91.4946 236.188 91.1643 239.007 90.7875L253.429 88.7901L257.808 88.2224L259.002 88.0727L259.413 88.0107L258.996 88.052L257.801 88.1811C256.764 88.2946 255.263 88.4753 253.41 88.6972C249.709 89.1669 244.619 89.9101 238.981 90.6688C236.162 91.0456 233.473 91.3759 231.02 91.6443C229.793 91.7734 228.625 91.8972 227.528 92.0005C225.045 92.3303 222.495 91.9123 220.383 90.8288C220.048 90.6538 219.725 90.4643 219.417 90.2611C219.201 90.132 219.084 90.065 219.084 90.065Z" fill="#263238"/>
<path d="M265.795 83.0305C265.815 82.9927 265.829 82.9527 265.834 82.9118C265.834 82.8086 265.893 82.695 265.925 82.5763C265.997 82.2821 266.089 81.8589 266.186 81.3273C266.471 79.9478 266.425 78.5382 266.049 77.1724C265.629 75.7956 264.587 74.5878 263.119 73.7762C262.673 73.5422 262.182 73.3678 261.664 73.2601C261.476 73.2173 261.284 73.188 261.09 73.1724C261.788 73.3046 262.451 73.5335 263.048 73.8485C264.47 74.6636 265.479 75.8531 265.893 77.2034C266.265 78.5602 266.323 79.9593 266.062 81.3324C265.984 81.8486 265.906 82.2873 265.847 82.5815C265.847 82.7053 265.828 82.8189 265.788 82.9221C265.785 82.9583 265.787 82.9947 265.795 83.0305Z" fill="#263238"/>
<path d="M226.636 86.5709C226.646 86.4627 226.646 86.354 226.636 86.2457L226.531 85.358C226.43 84.3847 226.393 83.4079 226.42 82.4315C226.455 81.4544 226.553 80.4794 226.714 79.5102C226.773 79.1954 226.825 78.9063 226.877 78.6328C226.903 78.5255 226.918 78.4168 226.923 78.3076C226.879 78.4106 226.844 78.5158 226.818 78.6225C226.76 78.8289 226.688 79.1386 226.616 79.4999C226.227 81.4409 226.163 83.4141 226.427 85.3683C226.479 85.7399 226.531 86.0444 226.577 86.2509C226.583 86.3588 226.603 86.4661 226.636 86.5709Z" fill="#263238"/>
<path d="M245.905 71.1803C246.366 70.1679 247.046 69.2266 247.915 68.3984C249.22 66.9893 250.655 65.5132 252.711 64.8474C254.108 64.3984 257.716 64.6461 258.682 63.7274C261.684 60.8474 257.286 59.0822 258.878 55.1028C260.633 50.7725 259.726 51.4383 259.863 48.0266L266.526 45.7505C267.577 46.3698 270.487 48.6047 270.167 49.6112C269.857 50.7127 269.945 51.861 270.422 52.9247C271.446 55.4693 274.99 56.966 276.661 59.2835C278.331 61.6009 276.439 64.8009 276.393 67.5416C276.347 70.2823 277.652 73.5597 281.026 74.1533C279.75 76.1711 277.674 77.8027 275.114 78.7985L273 76.5223C273.169 77.5624 272.869 78.6164 272.153 79.4989C271.436 80.3815 270.35 81.0363 269.084 81.3481C268.373 78.9481 267.629 76.481 265.789 74.4887C263.948 72.4965 260.757 71.0874 257.749 71.7274C255.732 72.1507 254.179 73.3791 252.378 74.21C250.577 75.041 248.032 75.3971 246.596 74.21C246.16 73.7951 245.868 73.298 245.747 72.7672C245.625 72.2363 245.68 71.6896 245.905 71.1803Z" fill="#263238"/>
<g opacity="0.3">
<path d="M233.35 91.4122C242.029 90.1631 253.579 88.6663 262.259 87.4121C262.579 87.3398 262.918 87.3398 263.238 87.4121C263.509 87.5301 263.711 87.7273 263.801 87.9616C263.892 88.1959 263.863 88.4487 263.721 88.6663C263.412 89.0946 262.936 89.4316 262.363 89.6263C259.511 90.8031 256.177 90.9012 252.966 90.9683L233.35 91.407V91.4122Z" fill="black"/>
</g>
<path d="M227.039 92.0985C229.741 92.1398 260.803 87.6494 260.803 87.6494L227.039 92.0985Z" fill="#0095E8"/>
<path d="M260.278 72.3104C262.555 72.5324 264.037 72.8266 266.699 75.0976C267.007 75.3652 267.272 75.6616 267.489 75.9801C270.451 80.1092 268.311 85.7867 262.634 87.3609L257.139 88.2538L227.042 92.099C227.042 92.099 220.634 93.2345 215.126 86.4783C213.11 83.9957 199.203 67.593 199.203 67.593L208.339 62.7568L226.755 78.3389L260.278 72.3104Z" fill="#0095E8"/>
<path d="M219.084 90.065C219.084 90.065 219.188 90.1475 219.397 90.2869C219.697 90.5024 220.018 90.6991 220.356 90.8753C221.594 91.5347 223.004 91.9636 224.481 92.1295C225.499 92.2443 226.533 92.2356 227.548 92.1037C228.638 92.0056 229.806 91.8869 231.033 91.7579C233.493 91.4946 236.188 91.1643 239.007 90.7875L253.429 88.7901L257.808 88.2224L259.002 88.0727L259.413 88.0107L258.996 88.052L257.801 88.1811C256.764 88.2946 255.263 88.4753 253.41 88.6972C249.709 89.1669 244.619 89.9101 238.981 90.6688C236.162 91.0456 233.473 91.3759 231.02 91.6443C229.793 91.7734 228.625 91.8972 227.528 92.0005C225.045 92.3303 222.495 91.9123 220.383 90.8288C220.048 90.6538 219.725 90.4643 219.417 90.2611C219.201 90.132 219.084 90.065 219.084 90.065Z" fill="#263238"/>
<path d="M265.795 83.0305C265.815 82.9927 265.829 82.9527 265.834 82.9118C265.834 82.8086 265.893 82.695 265.925 82.5763C265.997 82.2821 266.089 81.8589 266.186 81.3273C266.471 79.9478 266.425 78.5382 266.049 77.1724C265.629 75.7956 264.587 74.5878 263.119 73.7762C262.673 73.5422 262.182 73.3678 261.664 73.2601C261.476 73.2173 261.284 73.188 261.09 73.1724C261.788 73.3046 262.451 73.5335 263.048 73.8485C264.47 74.6636 265.479 75.8531 265.893 77.2034C266.265 78.5602 266.323 79.9593 266.062 81.3324C265.984 81.8486 265.906 82.2873 265.847 82.5815C265.847 82.7053 265.828 82.8189 265.788 82.9221C265.785 82.9583 265.787 82.9947 265.795 83.0305Z" fill="#263238"/>
<path d="M226.636 86.5709C226.646 86.4627 226.646 86.354 226.636 86.2457L226.531 85.358C226.43 84.3847 226.393 83.4079 226.42 82.4315C226.455 81.4544 226.553 80.4794 226.714 79.5102C226.773 79.1954 226.825 78.9063 226.877 78.6328C226.903 78.5255 226.918 78.4168 226.923 78.3076C226.879 78.4106 226.844 78.5158 226.818 78.6225C226.76 78.8289 226.688 79.1386 226.616 79.4999C226.227 81.4409 226.163 83.4141 226.427 85.3683C226.479 85.7399 226.531 86.0444 226.577 86.2509C226.583 86.3588 226.603 86.4661 226.636 86.5709Z" fill="#263238"/>
<path d="M204.942 55.6031C204.76 54.6225 204.703 53.63 204.772 52.6405C204.779 52.5902 204.771 52.5394 204.749 52.4919C204.727 52.4444 204.692 52.4015 204.646 52.3662C204.6 52.331 204.545 52.3044 204.484 52.2884C204.423 52.2725 204.359 52.2675 204.296 52.274C203.903 52.3147 203.535 52.4462 203.236 52.6518C202.938 52.8575 202.723 53.1283 202.619 53.4302C202.417 53.9706 202.353 54.5371 202.429 55.0973C202.429 56.016 202.429 56.7437 202.429 56.7437C202.429 56.7437 196.634 51.2572 195.46 51.0095C195.362 50.9721 195.256 50.9504 195.148 50.9458C195.04 50.9411 194.932 50.9536 194.83 50.9824C194.727 51.0112 194.634 51.0559 194.554 51.1137C194.474 51.1715 194.409 51.2414 194.364 51.3192C194.148 51.5927 194.579 52.2327 194.579 52.2327L197.842 55.9282C197.842 55.9282 192.902 51.3347 192.008 51.345C191.114 51.3553 190.703 51.8611 191.283 52.7127C191.708 53.3372 196.021 57.3579 196.021 57.3579C196.021 57.3579 191.407 53.8379 190.487 53.8637C189.567 53.8895 189.724 54.6637 190.207 54.9837C190.69 55.3037 194.122 58.447 194.122 58.447C194.122 58.447 190.787 56.2173 190.115 56.3824C189.443 56.5476 189.73 57.1463 190.083 57.6263C190.435 58.1063 198.801 64.718 198.801 64.718L206.058 61.838C206.246 61.0327 206.208 60.2045 205.947 59.4121C205.508 58.1609 205.173 56.8885 204.942 55.6031Z" fill="#FFD3C1"/>
<path d="M98.3939 120.795C96.6279 120.79 94.9365 120.231 93.6902 119.242C92.4439 118.252 91.7441 116.912 91.7441 115.515V69.6105C91.7952 68.4518 92.4248 67.3563 93.4951 66.564C94.5653 65.7717 95.989 65.3472 97.4542 65.3834H102.91C103.983 65.4003 105.041 65.1791 105.964 64.7449C106.886 64.3107 107.637 63.6808 108.13 62.9266L109.298 61.0427C109.789 60.2925 110.535 59.6652 111.451 59.2313C112.367 58.7973 113.419 58.5739 114.486 58.5859H140.387C141.36 58.5759 142.321 58.7598 143.181 59.1206C144.041 59.4814 144.772 60.0075 145.308 60.6504L146.58 62.2453C147.114 62.8879 147.845 63.4137 148.703 63.7745C149.562 64.1353 150.522 64.3194 151.494 64.3098H184.514C185.981 64.2723 187.407 64.697 188.478 65.4907C189.548 66.2844 190.177 67.382 190.224 68.5421V115.51C190.224 116.911 189.521 118.254 188.269 119.244C187.017 120.234 185.319 120.79 183.549 120.79L98.3939 120.795Z" fill="#0095E8"/>
<g opacity="0.3">
<path d="M98.3939 120.795C96.6279 120.79 94.9365 120.231 93.6902 119.242C92.4439 118.252 91.7441 116.912 91.7441 115.515V69.6105C91.7952 68.4518 92.4248 67.3563 93.4951 66.564C94.5653 65.7717 95.989 65.3472 97.4542 65.3834H102.91C103.983 65.4003 105.041 65.1791 105.964 64.7449C106.886 64.3107 107.637 63.6808 108.13 62.9266L109.298 61.0427C109.789 60.2925 110.535 59.6652 111.451 59.2313C112.367 58.7973 113.419 58.5739 114.486 58.5859H140.387C141.36 58.5759 142.321 58.7598 143.181 59.1206C144.041 59.4814 144.772 60.0075 145.308 60.6504L146.58 62.2453C147.114 62.8879 147.845 63.4137 148.703 63.7745C149.562 64.1353 150.522 64.3194 151.494 64.3098H184.514C185.981 64.2723 187.407 64.697 188.478 65.4907C189.548 66.2844 190.177 67.382 190.224 68.5421V115.51C190.224 116.911 189.521 118.254 188.269 119.244C187.017 120.234 185.319 120.79 183.549 120.79L98.3939 120.795Z" fill="black"/>
</g>
<path d="M148.18 64.3356L127.167 64.2995L125.294 61.5227C124.657 60.6213 123.724 59.8725 122.594 59.3556C121.464 58.8387 120.178 58.5728 118.872 58.5859H98.3359C94.6814 58.5859 91.7188 60.7795 91.7188 63.4892V115.226C91.7188 118.323 95.086 120.795 99.2364 120.795H182.649C186.806 120.795 190.166 118.302 190.166 115.226V68.1395C190.166 67.1307 189.66 66.1631 188.758 65.4498C187.856 64.7364 186.633 64.3356 185.357 64.3356H148.18Z" fill="#0095E8"/>
<path d="M158.771 103.541H149.472C149.299 103.541 149.133 103.487 149.011 103.39C148.888 103.293 148.82 103.162 148.82 103.025C148.82 102.888 148.888 102.757 149.011 102.66C149.133 102.563 149.299 102.509 149.472 102.509H158.771C161.183 102.513 163.501 101.771 165.231 100.443C166.961 99.1141 167.967 97.3034 168.033 95.3968C168.099 93.4902 167.221 91.6386 165.586 90.2366C163.951 88.8347 161.688 87.9934 159.28 87.8922C159.141 87.8868 159.008 87.8464 158.9 87.7767C158.792 87.707 158.715 87.6119 158.68 87.5051C157.993 85.4069 156.582 83.5011 154.604 82.0008C152.626 80.5006 150.16 79.465 147.48 79.0098C144.801 78.5546 142.014 78.6977 139.432 79.4232C136.85 80.1487 134.573 81.428 132.857 83.118C132.788 83.1875 132.696 83.2416 132.592 83.2751C132.488 83.3085 132.375 83.3202 132.264 83.3089C131.796 83.2612 131.325 83.237 130.854 83.2367C127.672 83.2949 124.646 84.3355 122.422 86.1358C120.198 87.9361 118.952 90.3532 118.952 92.8703C118.952 95.3873 120.198 97.8045 122.422 99.6048C124.646 101.405 127.672 102.446 130.854 102.504H138.391C138.564 102.504 138.73 102.558 138.853 102.655C138.975 102.752 139.044 102.883 139.044 103.02C139.044 103.157 138.975 103.288 138.853 103.385C138.73 103.482 138.564 103.536 138.391 103.536H130.821C127.242 103.536 123.81 102.412 121.279 100.41C118.748 98.4082 117.326 95.6934 117.326 92.8625C117.326 90.0317 118.748 87.3168 121.279 85.3152C123.81 83.3135 127.242 82.1889 130.821 82.1889C131.223 82.1891 131.623 82.2063 132.022 82.2405C133.896 80.469 136.345 79.1342 139.105 78.3792C141.865 77.6242 144.833 77.4776 147.69 77.9549C150.548 78.4323 153.187 79.5157 155.325 81.0889C157.464 82.6622 159.02 84.6661 159.828 86.8857C162.539 87.0852 165.048 88.105 166.831 89.7323C168.613 91.3597 169.532 93.4688 169.396 95.6193C169.26 97.7698 168.078 99.7956 166.098 101.274C164.119 102.752 161.494 103.568 158.771 103.552V103.541Z" fill="white"/>
<path d="M143.735 108.248C143.562 108.248 143.396 108.194 143.273 108.097C143.151 108 143.082 107.869 143.082 107.732V94.3125C143.082 94.1756 143.151 94.0444 143.273 93.9476C143.396 93.8508 143.562 93.7964 143.735 93.7964C143.908 93.7964 144.074 93.8508 144.196 93.9476C144.318 94.0444 144.387 94.1756 144.387 94.3125V107.732C144.387 107.869 144.318 108 144.196 108.097C144.074 108.194 143.908 108.248 143.735 108.248Z" fill="white"/>
<path d="M148.696 99.6546C148.593 99.6554 148.492 99.6372 148.4 99.6013C148.309 99.5654 148.229 99.513 148.167 99.4482L143.847 94.8649C143.831 94.8498 143.811 94.8378 143.789 94.8298C143.766 94.8217 143.741 94.8179 143.717 94.8185C143.693 94.819 143.67 94.8233 143.649 94.8313C143.627 94.8393 143.608 94.8508 143.593 94.8649L139.025 99.3191C138.915 99.4266 138.755 99.4951 138.582 99.5096C138.408 99.5242 138.234 99.4835 138.098 99.3966C137.962 99.3096 137.876 99.1836 137.857 99.0461C137.839 98.9087 137.89 98.7711 138 98.6636L142.568 94.2094C142.712 94.0734 142.891 93.9641 143.094 93.8892C143.297 93.8143 143.519 93.7756 143.743 93.7759C143.966 93.7784 144.185 93.8211 144.384 93.9007C144.583 93.9803 144.757 94.0947 144.891 94.2352L149.224 98.8237C149.277 98.8784 149.314 98.9407 149.336 99.0071C149.357 99.0734 149.361 99.1425 149.349 99.2102C149.336 99.278 149.306 99.343 149.261 99.4016C149.217 99.4602 149.157 99.5111 149.087 99.5514C148.974 99.6184 148.837 99.6546 148.696 99.6546Z" fill="white"/>
<path d="M131 131.671V129.358H131.548V131.655C131.548 132.615 132.116 133.054 133.108 133.054C134.1 133.054 134.674 132.615 134.674 131.655V129.358H135.203V131.671C135.203 132.832 134.413 133.431 133.108 133.431C131.803 133.431 131 132.832 131 131.671Z" fill="#263238"/>
<path d="M140.6 131.882C140.615 132.085 140.576 132.289 140.486 132.48C140.395 132.67 140.256 132.844 140.076 132.99C139.896 133.135 139.68 133.25 139.441 133.326C139.202 133.402 138.946 133.437 138.688 133.431C138.4 133.438 138.114 133.387 137.859 133.282C137.603 133.177 137.385 133.022 137.226 132.832V134.525H136.711V130.396H137.207V130.958C137.363 130.76 137.582 130.599 137.842 130.489C138.102 130.379 138.394 130.326 138.688 130.334C138.945 130.328 139.201 130.364 139.44 130.44C139.678 130.516 139.894 130.631 140.074 130.776C140.253 130.922 140.393 131.095 140.484 131.286C140.574 131.476 140.614 131.679 140.6 131.882ZM140.085 131.882C140.073 131.66 139.979 131.445 139.815 131.264C139.65 131.084 139.422 130.946 139.159 130.867C138.896 130.788 138.609 130.772 138.335 130.821C138.06 130.87 137.81 130.981 137.615 131.142C137.42 131.302 137.289 131.505 137.238 131.724C137.187 131.943 137.219 132.168 137.329 132.373C137.439 132.578 137.623 132.753 137.858 132.876C138.093 132.998 138.368 133.064 138.649 133.064C138.843 133.066 139.036 133.037 139.216 132.978C139.395 132.919 139.557 132.831 139.692 132.72C139.827 132.609 139.931 132.478 139.999 132.334C140.066 132.189 140.096 132.036 140.085 131.882Z" fill="#263238"/>
<path d="M141.656 129.116H142.172V133.4H141.656V129.116Z" fill="#263238"/>
<path d="M143.23 131.882C143.23 131.576 143.345 131.277 143.56 131.022C143.775 130.768 144.08 130.569 144.438 130.452C144.796 130.335 145.19 130.304 145.569 130.364C145.949 130.423 146.298 130.571 146.572 130.787C146.846 131.004 147.032 131.28 147.108 131.58C147.183 131.881 147.144 132.192 146.996 132.475C146.848 132.758 146.597 133 146.275 133.17C145.953 133.34 145.575 133.431 145.187 133.431C144.928 133.438 144.669 133.403 144.428 133.328C144.186 133.252 143.966 133.139 143.783 132.993C143.599 132.848 143.455 132.674 143.36 132.483C143.265 132.292 143.221 132.088 143.23 131.882ZM146.61 131.882C146.597 131.661 146.503 131.448 146.338 131.269C146.173 131.089 145.945 130.953 145.683 130.875C145.42 130.798 145.135 130.783 144.862 130.832C144.589 130.882 144.34 130.994 144.147 131.155C143.954 131.315 143.825 131.517 143.776 131.735C143.726 131.953 143.759 132.178 143.87 132.381C143.981 132.585 144.165 132.758 144.399 132.879C144.633 133.001 144.907 133.065 145.187 133.064C145.381 133.067 145.574 133.037 145.752 132.978C145.931 132.919 146.093 132.831 146.226 132.72C146.36 132.609 146.463 132.477 146.529 132.333C146.595 132.189 146.623 132.035 146.61 131.882Z" fill="#263238"/>
<path d="M151.067 131.516V133.4H150.571V132.925C150.43 133.094 150.236 133.232 150.006 133.322C149.777 133.413 149.521 133.454 149.266 133.441C148.398 133.441 147.869 133.085 147.869 132.558C147.869 132.032 148.248 131.701 149.35 131.701H150.564V131.516C150.564 131 150.192 130.711 149.481 130.711C149.005 130.701 148.541 130.83 148.176 131.072L147.941 130.762C148.386 130.489 148.937 130.345 149.501 130.354C149.705 130.329 149.914 130.342 150.111 130.39C150.309 130.438 150.49 130.522 150.641 130.634C150.792 130.745 150.909 130.883 150.982 131.036C151.056 131.189 151.085 131.353 151.067 131.516ZM150.545 132.486V131.97H149.344C148.6 131.97 148.359 132.202 148.359 132.512C148.359 132.821 148.717 133.085 149.331 133.085C149.584 133.099 149.837 133.052 150.054 132.948C150.271 132.845 150.443 132.69 150.545 132.507V132.486Z" fill="#263238"/>
<path d="M155.986 129.116V133.4H155.49V132.796C155.336 132.996 155.118 133.16 154.858 133.27C154.597 133.381 154.304 133.435 154.009 133.425C153.489 133.425 152.991 133.262 152.624 132.972C152.257 132.682 152.051 132.288 152.051 131.877C152.051 131.466 152.257 131.073 152.624 130.782C152.991 130.492 153.489 130.329 154.009 130.329C154.297 130.321 154.583 130.372 154.839 130.476C155.095 130.581 155.312 130.737 155.47 130.927V129.105L155.986 129.116ZM155.477 131.882C155.464 131.661 155.369 131.448 155.204 131.268C155.039 131.089 154.812 130.953 154.549 130.875C154.287 130.798 154.002 130.783 153.729 130.832C153.456 130.882 153.207 130.994 153.014 131.155C152.821 131.315 152.692 131.517 152.642 131.735C152.593 131.953 152.626 132.178 152.737 132.381C152.847 132.585 153.031 132.758 153.266 132.879C153.5 133.001 153.774 133.065 154.054 133.064C154.248 133.066 154.44 133.036 154.618 132.976C154.796 132.917 154.957 132.829 155.091 132.718C155.224 132.607 155.327 132.476 155.394 132.332C155.46 132.188 155.488 132.035 155.477 131.882Z" fill="#263238"/>
<path d="M157.096 133.111C157.094 133.07 157.103 133.029 157.121 132.991C157.14 132.953 157.168 132.918 157.204 132.889C157.24 132.859 157.283 132.836 157.331 132.82C157.378 132.804 157.429 132.796 157.481 132.796C157.533 132.796 157.584 132.804 157.632 132.82C157.68 132.836 157.724 132.859 157.76 132.888C157.797 132.918 157.825 132.952 157.845 132.991C157.864 133.029 157.873 133.07 157.872 133.111C157.873 133.193 157.831 133.273 157.758 133.332C157.685 133.39 157.585 133.424 157.481 133.426C157.43 133.425 157.379 133.416 157.332 133.4C157.284 133.384 157.242 133.36 157.206 133.331C157.17 133.302 157.142 133.267 157.123 133.23C157.104 133.192 157.095 133.151 157.096 133.111Z" fill="#263238"/>
<path d="M158.645 133.111C158.644 133.07 158.653 133.03 158.672 132.992C158.691 132.954 158.719 132.919 158.755 132.89C158.79 132.861 158.833 132.838 158.88 132.821C158.927 132.805 158.978 132.797 159.03 132.796C159.082 132.796 159.133 132.804 159.181 132.82C159.229 132.836 159.272 132.859 159.309 132.888C159.345 132.918 159.374 132.952 159.393 132.991C159.413 133.029 159.422 133.07 159.421 133.111C159.421 133.193 159.38 133.273 159.307 133.332C159.234 133.39 159.134 133.424 159.03 133.426C158.978 133.425 158.927 133.416 158.88 133.4C158.833 133.384 158.79 133.36 158.755 133.331C158.719 133.302 158.691 133.267 158.672 133.23C158.653 133.192 158.644 133.151 158.645 133.111Z" fill="#263238"/>
<path d="M160.192 133.111C160.19 133.07 160.199 133.029 160.217 132.991C160.236 132.953 160.264 132.918 160.3 132.889C160.336 132.859 160.379 132.836 160.426 132.82C160.474 132.804 160.525 132.796 160.577 132.796C160.629 132.796 160.68 132.804 160.728 132.82C160.776 132.836 160.819 132.859 160.856 132.888C160.892 132.918 160.921 132.952 160.94 132.991C160.96 133.029 160.969 133.07 160.968 133.111C160.968 133.193 160.927 133.273 160.854 133.332C160.781 133.39 160.681 133.424 160.577 133.426C160.525 133.425 160.474 133.416 160.427 133.4C160.38 133.384 160.337 133.36 160.302 133.331C160.266 133.302 160.238 133.267 160.219 133.23C160.2 133.192 160.191 133.151 160.192 133.111Z" fill="#263238"/>
<path d="M193.419 140.306H91.643C89.2535 140.306 87.3164 141.838 87.3164 143.728V144.724C87.3164 146.614 89.2535 148.146 91.643 148.146H193.419C195.808 148.146 197.745 146.614 197.745 144.724V143.728C197.745 141.838 195.808 140.306 193.419 140.306Z" fill="#E0E0E0"/>
<path d="M138.204 140.306H91.643C89.2535 140.306 87.3164 141.838 87.3164 143.728V144.724C87.3164 146.614 89.2535 148.146 91.643 148.146H138.204C140.594 148.146 142.531 146.614 142.531 144.724V143.728C142.531 141.838 140.594 140.306 138.204 140.306Z" fill="#0095E8"/>
<g opacity="0.3">
<path d="M95.6583 140.306L89.7852 147.681L90.7053 148.006C90.9659 148.099 91.2484 148.146 91.5341 148.146H93.4004L99.7826 140.306H95.6583Z" fill="white"/>
</g>
<g opacity="0.3">
<path d="M106.165 140.306L99.9199 148.146H103.907L110.283 140.306H106.165Z" fill="white"/>
</g>
<g opacity="0.3">
<path d="M116.663 140.306L110.418 148.146H114.405L120.787 140.306H116.663Z" fill="white"/>
</g>
<g opacity="0.3">
<path d="M127.172 140.306L120.92 148.146H124.907L131.289 140.306H127.172Z" fill="white"/>
</g>
<g opacity="0.3">
<path d="M137.669 140.306L131.424 148.146H135.411L140.436 141.952L141.036 141.281C140.266 140.626 139.085 140.352 137.669 140.306Z" fill="white"/>
</g>
<path d="M193.544 148.146C193.544 148.146 193.746 148.146 194.138 148.094C194.719 148.031 195.278 147.871 195.776 147.624C196.592 147.229 197.219 146.63 197.557 145.921C197.77 145.473 197.868 144.996 197.844 144.517C197.885 143.972 197.832 143.425 197.688 142.891C197.48 142.272 197.055 141.712 196.461 141.276C195.868 140.84 195.13 140.547 194.333 140.43C193.884 140.379 193.43 140.36 192.976 140.373H188.512H174.273L91.8396 140.409C90.8684 140.41 89.9274 140.676 89.1767 141.164C88.426 141.651 87.9119 142.329 87.7219 143.082C87.6492 143.461 87.623 143.845 87.6436 144.228C87.6227 144.61 87.6555 144.993 87.7415 145.369C87.9369 146.099 88.4384 146.755 89.1645 147.231C89.8907 147.707 90.7989 147.974 91.7418 147.991H100.421H122.308L159.368 148.022L184.355 148.063L191.149 148.089H192.917H193.518H192.917H191.149H184.355L159.368 148.135L122.308 148.161H100.421H91.7418C90.7143 148.154 89.7205 147.87 88.9236 147.357C88.1267 146.844 87.574 146.132 87.3564 145.338C87.2637 144.943 87.2287 144.542 87.252 144.141C87.2287 143.74 87.2571 143.339 87.3369 142.943C87.5397 142.128 88.0946 141.394 88.9065 140.866C89.7184 140.339 90.7369 140.051 91.7874 140.053L174.221 140.094H188.46H192.924C193.389 140.08 193.854 140.102 194.314 140.161C195.136 140.285 195.896 140.591 196.507 141.043C197.118 141.496 197.555 142.076 197.766 142.716C197.905 143.261 197.953 143.818 197.909 144.373C197.926 144.862 197.822 145.35 197.603 145.808C197.246 146.525 196.599 147.13 195.762 147.526C195.252 147.768 194.683 147.923 194.092 147.981C193.916 148.049 193.732 148.104 193.544 148.146Z" fill="#263238"/>
</svg>
