<svg width="293" height="204" viewBox="0 0 293 204" fill="none" xmlns="http://www.w3.org/2000/svg">
<path d="M62.0685 139.774H47.9569C47.8718 139.774 47.7903 139.745 47.7301 139.694C47.67 139.642 47.6362 139.573 47.6362 139.5V121.009H43.4476C43.3873 121.009 43.3281 120.995 43.2769 120.968C43.2257 120.941 43.1848 120.901 43.159 120.855C43.1278 120.811 43.1113 120.761 43.1113 120.709C43.1113 120.658 43.1278 120.608 43.159 120.564L54.7048 108.098C54.7355 108.066 54.7738 108.041 54.817 108.024C54.8602 108.007 54.9073 107.998 54.955 107.998C55.0026 107.998 55.0497 108.007 55.0929 108.024C55.1361 108.041 55.1744 108.066 55.2051 108.098L66.751 120.564C66.7882 120.604 66.8115 120.653 66.8181 120.704C66.8247 120.755 66.8144 120.807 66.7883 120.853C66.7622 120.9 66.7214 120.939 66.6706 120.966C66.6198 120.994 66.5609 121.008 66.5008 121.009H62.293V139.5C62.2962 139.56 62.276 139.62 62.2353 139.67C62.1947 139.719 62.1361 139.756 62.0685 139.774ZM48.2904 139.225H61.7606V120.734C61.7606 120.661 61.7944 120.592 61.8545 120.54C61.9147 120.489 61.9963 120.46 62.0813 120.46H65.9299L55.0255 108.712L44.1211 120.46H47.9697C48.0548 120.46 48.1364 120.489 48.1965 120.54C48.2567 120.592 48.2904 120.661 48.2904 120.734V139.225Z" fill="#0095E8"/>
<path d="M203.721 139.774H189.609C189.524 139.774 189.443 139.745 189.383 139.694C189.323 139.642 189.289 139.573 189.289 139.5V121.009H185.081C185.021 121.008 184.962 120.994 184.911 120.966C184.86 120.939 184.82 120.9 184.793 120.853C184.767 120.807 184.757 120.755 184.764 120.704C184.77 120.653 184.794 120.604 184.831 120.564L196.409 108.098C196.439 108.066 196.478 108.041 196.521 108.024C196.564 108.007 196.611 107.998 196.659 107.998C196.707 107.998 196.754 108.007 196.797 108.024C196.84 108.041 196.878 108.066 196.909 108.098L208.487 120.564C208.524 120.604 208.547 120.653 208.554 120.704C208.561 120.755 208.55 120.807 208.524 120.853C208.498 120.9 208.457 120.939 208.407 120.966C208.356 120.994 208.297 121.008 208.237 121.009H204.029V139.5C204.029 139.571 203.997 139.639 203.94 139.69C203.882 139.741 203.804 139.771 203.721 139.774ZM189.943 139.225H203.413V120.734C203.413 120.661 203.447 120.592 203.507 120.54C203.567 120.489 203.649 120.46 203.734 120.46H207.583L196.678 108.712L185.774 120.46H189.622C189.707 120.46 189.789 120.489 189.849 120.54C189.909 120.592 189.943 120.661 189.943 120.734V139.225Z" fill="#0095E8"/>
<path d="M239.464 170.474H225.352C225.267 170.474 225.185 170.445 225.125 170.393C225.065 170.342 225.031 170.272 225.031 170.199V151.708H220.843C220.783 151.708 220.724 151.693 220.673 151.666C220.622 151.638 220.581 151.599 220.555 151.553C220.529 151.506 220.519 151.455 220.525 151.404C220.532 151.353 220.555 151.304 220.593 151.264L232.138 138.803C232.169 138.771 232.207 138.746 232.251 138.729C232.294 138.712 232.341 138.703 232.389 138.703C232.436 138.703 232.483 138.712 232.526 138.729C232.57 138.746 232.608 138.771 232.639 138.803L244.185 151.264C244.222 151.304 244.245 151.353 244.252 151.404C244.258 151.455 244.248 151.506 244.222 151.553C244.196 151.599 244.155 151.638 244.104 151.666C244.053 151.693 243.994 151.708 243.934 151.708H239.727V170.199C239.728 170.264 239.702 170.328 239.654 170.378C239.606 170.428 239.538 170.462 239.464 170.474ZM225.692 169.925H239.162V151.434C239.162 151.361 239.196 151.291 239.256 151.24C239.316 151.188 239.398 151.159 239.483 151.159H243.331L232.427 139.412L221.523 151.159H225.371C225.456 151.161 225.536 151.19 225.596 151.241C225.656 151.292 225.69 151.361 225.692 151.434V169.925Z" fill="#0095E8"/>
<path d="M224.819 98.7695H210.707C210.622 98.7695 210.541 98.7406 210.481 98.6892C210.42 98.6377 210.387 98.5679 210.387 98.4952V80.0039H206.179C206.118 80.0042 206.058 79.9893 206.007 79.961C205.956 79.9328 205.915 79.8924 205.89 79.8448C205.865 79.798 205.855 79.746 205.861 79.6947C205.868 79.6434 205.892 79.5947 205.929 79.554L217.475 67.0929C217.506 67.0616 217.545 67.0365 217.588 67.0193C217.632 67.0021 217.68 66.9932 217.728 66.9932C217.776 66.9932 217.824 67.0021 217.867 67.0193C217.911 67.0365 217.95 67.0616 217.981 67.0929L229.527 79.554C229.564 79.5949 229.586 79.6436 229.593 79.6949C229.599 79.7461 229.589 79.7978 229.563 79.8444C229.537 79.8909 229.497 79.9304 229.446 79.9586C229.396 79.9867 229.337 80.0024 229.277 80.0039H225.069V98.4952C225.071 98.5586 225.047 98.6206 225.001 98.6706C224.956 98.7206 224.891 98.7556 224.819 98.7695ZM211.047 98.2208H224.517V79.7295C224.517 79.6568 224.551 79.587 224.611 79.5355C224.672 79.4841 224.753 79.4552 224.838 79.4552H228.687L217.782 67.702L206.878 79.4552H210.727C210.812 79.4552 210.893 79.4841 210.953 79.5355C211.014 79.587 211.047 79.6568 211.047 79.7295V98.2208Z" fill="#0095E8"/>
<path d="M91.5024 100.926H77.3908C77.3057 100.926 77.2241 100.897 77.164 100.846C77.1038 100.794 77.0701 100.724 77.0701 100.652V82.1604H72.8687C72.808 82.1612 72.7483 82.1473 72.6965 82.1202C72.6447 82.0932 72.603 82.0541 72.5761 82.0076C72.5493 81.961 72.5384 81.9089 72.5447 81.8573C72.5511 81.8057 72.5745 81.7567 72.6121 81.7159L84.19 69.2494C84.2207 69.2182 84.259 69.1932 84.3022 69.176C84.3454 69.1588 84.3925 69.1499 84.4402 69.1499C84.4878 69.1499 84.5349 69.1588 84.5781 69.176C84.6213 69.1932 84.6596 69.2182 84.6903 69.2494L96.2682 81.7159C96.3055 81.7563 96.3288 81.8048 96.3354 81.8559C96.342 81.9071 96.3317 81.9587 96.3056 82.0051C96.2795 82.0514 96.2387 82.0905 96.1879 82.118C96.137 82.1455 96.0782 82.1602 96.0181 82.1604H91.8103V100.652C91.8103 100.723 91.7783 100.791 91.7209 100.842C91.6635 100.893 91.5852 100.923 91.5024 100.926ZM77.7243 100.377H91.1945V81.886C91.1945 81.8133 91.2283 81.7435 91.2884 81.692C91.3486 81.6406 91.4301 81.6117 91.5152 81.6117H95.3638L84.4594 69.864L73.555 81.6117H77.4036C77.4887 81.6117 77.5702 81.6406 77.6304 81.692C77.6905 81.7435 77.7243 81.8133 77.7243 81.886V100.377Z" fill="#0095E8"/>
<path d="M113.954 170.474H99.8419C99.7569 170.474 99.6753 170.445 99.6151 170.393C99.555 170.342 99.5212 170.272 99.5212 170.199V151.708H95.3134C95.2533 151.708 95.1944 151.693 95.1436 151.666C95.0928 151.638 95.052 151.599 95.0259 151.553C94.9998 151.506 94.9895 151.455 94.9961 151.404C95.0027 151.353 95.026 151.304 95.0632 151.264L106.641 138.803C106.672 138.771 106.71 138.746 106.753 138.729C106.797 138.712 106.844 138.703 106.891 138.703C106.939 138.703 106.986 138.712 107.029 138.729C107.072 138.746 107.111 138.771 107.141 138.803L118.719 151.264C118.757 151.304 118.78 151.353 118.787 151.405C118.793 151.457 118.782 151.509 118.755 151.555C118.728 151.602 118.687 151.641 118.635 151.668C118.583 151.695 118.523 151.709 118.463 151.708H114.261V170.199C114.261 170.27 114.229 170.338 114.172 170.39C114.115 170.441 114.036 170.471 113.954 170.474ZM100.175 169.925H113.646V151.434C113.646 151.361 113.679 151.291 113.74 151.24C113.8 151.188 113.881 151.159 113.966 151.159H117.815L106.911 139.412L96.0061 151.159H99.8547C99.9398 151.159 100.021 151.188 100.082 151.24C100.142 151.291 100.175 151.361 100.175 151.434V169.925Z" fill="#0095E8"/>
<path d="M148.489 204C184.623 204 213.915 201.094 213.915 197.509C213.915 193.924 184.623 191.018 148.489 191.018C112.355 191.018 83.0625 193.924 83.0625 197.509C83.0625 201.094 112.355 204 148.489 204Z" fill="#0095E8"/>
<path opacity="0.5" d="M148.489 204C184.623 204 213.915 201.094 213.915 197.509C213.915 193.924 184.623 191.018 148.489 191.018C112.355 191.018 83.0625 193.924 83.0625 197.509C83.0625 201.094 112.355 204 148.489 204Z" fill="white"/>
<path d="M190.357 41.7212C191.235 37.723 190.713 33.5921 188.857 29.8466C187.001 26.101 183.894 22.9076 179.925 20.6667C175.955 18.4259 171.301 17.2373 166.546 17.2501C161.79 17.263 157.145 18.4766 153.192 20.7388C150.322 14.7694 145.118 9.83729 138.47 6.7843C131.821 3.73131 124.141 2.74668 116.738 3.99849C109.336 5.2503 102.671 8.66094 97.8806 13.6483C93.0904 18.6356 90.4722 24.8905 90.4727 31.3452C90.4727 31.6909 90.4727 32.0311 90.4727 32.3713C85.7929 33.5122 81.7139 35.9948 78.9198 39.4028C76.1256 42.8107 74.7862 46.9369 75.126 51.0894C75.4659 55.2418 77.4644 59.1681 80.7864 62.2098C84.1084 65.2514 88.552 67.2236 93.372 67.7955V67.9876H189.318C193.216 67.8719 196.917 66.4948 199.674 64.1345C202.431 61.7743 204.038 58.6068 204.17 55.2721C204.302 51.9375 202.949 48.6843 200.385 46.17C197.821 43.6556 194.237 42.0676 190.357 41.7267V41.7212Z" fill="#263238" stroke="#263238" stroke-linecap="round" stroke-linejoin="round"/>
<path d="M190.357 39.252C191.235 35.2537 190.713 31.1228 188.857 27.3773C187.001 23.6318 183.894 20.4384 179.925 18.1975C175.955 15.9566 171.301 14.7681 166.546 14.7809C161.79 14.7937 157.145 16.0073 153.192 18.2696C150.322 12.3006 145.119 7.36876 138.471 4.31571C131.824 1.26266 124.143 0.277628 116.741 1.52872C109.339 2.77982 102.674 6.18949 97.8836 11.1759C93.093 16.1622 90.4737 22.4162 90.4727 28.8705C90.4727 29.2162 90.4727 29.5564 90.4727 29.8966C85.7929 31.0375 81.7139 33.52 78.9198 36.928C76.1256 40.336 74.7862 44.4622 75.126 48.6146C75.4659 52.7671 77.4644 56.6934 80.7864 59.735C84.1084 62.7767 88.552 64.7489 93.372 65.3208V65.5129H189.318C193.216 65.3972 196.917 64.0201 199.674 61.6598C202.431 59.2995 204.038 56.1321 204.17 52.7974C204.302 49.4628 202.949 46.2096 200.385 43.6952C197.821 41.1809 194.237 39.5928 190.357 39.252Z" fill="#0095E8" stroke="#263238" stroke-linecap="round" stroke-linejoin="round"/>
<path d="M157.089 112.806L153.054 114.616C153.054 114.616 148.635 116.262 145.748 117.574C142.862 118.885 128.641 128.263 128.641 128.263L125.761 128.427L124.029 129.415C124.029 129.415 121.143 129.909 121.143 130.403C121.143 130.896 121.72 131.056 122.297 131.056C123.166 130.868 124.005 130.594 124.799 130.238C124.799 130.238 122.842 132.685 123.612 132.685C124.727 132.784 125.834 132.936 126.928 133.141C128.202 132.938 129.486 132.791 130.777 132.702C131.739 132.702 134.042 128.263 134.042 128.263C134.042 128.263 150.572 122.671 152.688 121.354C154.805 120.038 160.95 116.751 160.95 116.751L157.089 112.806Z" fill="white" stroke="#263238" stroke-linecap="round" stroke-linejoin="round"/>
<path d="M172.602 99.2959L154.584 113.299L159.78 118.561L169.773 115.274L173.231 99.4879L172.602 99.2959Z" fill="#0095E8" stroke="#263238" stroke-linecap="round" stroke-linejoin="round"/>
<path d="M156.989 111.434L154.584 113.299L159.78 118.561L162.878 117.541L156.989 111.434Z" fill="#263238" stroke="#263238" stroke-linecap="round" stroke-linejoin="round"/>
<path d="M204.052 186.919C204.052 186.919 209.773 192.01 210.357 194.507C210.941 197.004 209.542 199.204 207.208 198.6C204.873 197.997 202.769 191.813 202.185 190.716C201.602 189.618 200.902 188.416 200.902 188.416C200.902 188.416 202.653 186.419 204.052 186.919Z" fill="#0095E8" stroke="#263238" stroke-linecap="round" stroke-linejoin="round"/>
<path d="M210.41 194.776C210.833 197.157 209.454 199.165 207.203 198.616C206.388 198.413 205.605 197.519 204.906 196.422C206.433 194.309 208.89 194.424 210.41 194.776Z" fill="white" stroke="#263238" stroke-linecap="round" stroke-linejoin="round"/>
<path d="M204.111 194.979C205.394 196.477 207.023 198.085 208.255 197.805C209.487 197.525 210.134 195.544 210.359 194.513C210.936 197.004 209.538 199.188 207.209 198.59C206.068 198.31 204.99 196.691 204.111 194.979Z" fill="white" stroke="#263238" stroke-linecap="round" stroke-linejoin="round"/>
<path d="M202.885 189.717C202.885 189.717 205.451 188.515 205.573 188.916C205.695 189.316 203.122 190.414 202.77 190.414C202.417 190.414 202.186 190.315 202.885 189.717Z" fill="white" stroke="#263238" stroke-width="0.5" stroke-linecap="round" stroke-linejoin="round"/>
<path d="M203.469 190.414C203.469 190.414 206.035 189.218 206.157 189.618C206.278 190.019 203.706 191.116 203.354 191.116C203.001 191.116 202.77 191.017 203.469 190.414Z" fill="white" stroke="#263238" stroke-width="0.5" stroke-linecap="round" stroke-linejoin="round"/>
<path d="M204.053 191.116C204.053 191.116 206.619 189.915 206.741 190.315C206.862 190.716 204.29 191.813 203.938 191.813C203.585 191.813 203.354 191.714 204.053 191.116Z" fill="white" stroke="#263238" stroke-width="0.5" stroke-linecap="round" stroke-linejoin="round"/>
<path d="M204.637 191.813C204.637 191.813 207.203 190.617 207.325 191.012C207.446 191.407 204.874 192.51 204.522 192.51C204.169 192.51 203.938 192.411 204.637 191.813Z" fill="white" stroke="#263238" stroke-width="0.5" stroke-linecap="round" stroke-linejoin="round"/>
<path d="M157.954 191.5C157.954 191.5 160.186 194.161 160.385 195.67C160.584 197.179 159.102 197.217 157.216 197.047C155.33 196.877 153.079 198.068 150.423 198.008C147.768 197.947 144.695 196.954 146.171 195.873C147.646 194.792 151.495 193.903 152.328 193.283C152.826 192.911 153.293 192.509 153.727 192.082L157.954 191.5Z" fill="#0095E8" stroke="#263238" stroke-linecap="round" stroke-linejoin="round"/>
<path d="M146.171 195.873C146.69 195.525 147.259 195.235 147.865 195.012C148.543 195.322 149.14 195.748 149.618 196.264C150.097 196.779 150.448 197.372 150.648 198.008H150.418C147.762 197.947 144.696 196.954 146.171 195.873Z" fill="white" stroke="#263238" stroke-linecap="round" stroke-linejoin="round"/>
<path d="M152.571 192.933C152.571 192.933 155.31 194.156 154.617 194.398C153.925 194.639 151.846 193.267 152.571 192.933Z" fill="white" stroke="#263238" stroke-width="0.5" stroke-linecap="round" stroke-linejoin="round"/>
<path d="M151.505 193.179C151.505 193.179 154.244 194.403 153.551 194.644C152.858 194.886 150.78 193.514 151.505 193.179Z" fill="white" stroke="#263238" stroke-width="0.5" stroke-linecap="round" stroke-linejoin="round"/>
<path d="M150.891 193.542C150.891 193.542 153.63 194.765 152.938 195.007C152.245 195.248 150.167 193.876 150.891 193.542Z" fill="white" stroke="#263238" stroke-width="0.5" stroke-linecap="round" stroke-linejoin="round"/>
<path d="M149.774 193.98C149.774 193.98 152.513 195.204 151.821 195.445C151.128 195.686 149.037 194.309 149.774 193.98Z" fill="white" stroke="#263238" stroke-width="0.5" stroke-linecap="round" stroke-linejoin="round"/>
<path d="M145.862 196.208C147.782 197.175 150.066 197.464 152.231 197.015C154.242 196.637 156.283 196.395 158.338 196.29C159.037 196.273 159.73 196.173 160.397 195.994C160.346 197.185 158.96 197.207 157.19 197.048C155.304 196.872 153.052 198.068 150.397 198.008C148.036 197.953 145.342 197.152 145.862 196.208Z" fill="white" stroke="#263238" stroke-linecap="round" stroke-linejoin="round"/>
<path d="M186.004 132.855C186.004 132.855 184.657 148.899 185.471 152.789C186.286 156.68 188.294 168.263 188.294 168.263C188.294 168.263 191.334 170.161 194.368 174.353C197.402 178.546 204.054 186.935 204.054 186.935C204.054 186.935 204.291 188.433 202.187 188.933C202.187 188.933 201.135 189.333 200.552 188.933C199.968 188.532 180.026 172.757 177.672 169.465C175.317 166.172 172.187 145.914 172.187 145.914L169.153 145.415L156.325 166.386L158.557 191.879C158.557 191.879 158.73 192.757 157.274 193.114C155.818 193.47 154.644 193.596 153.772 192.955C152.899 192.313 146.145 164.395 146.716 163.396C147.287 162.397 160.231 134.951 160.231 134.951L161.276 132.658C161.276 132.658 173.534 133.854 179.019 132.954C184.503 132.054 185.542 131.341 186.004 132.855Z" fill="#263238" stroke="#263238" stroke-linecap="round" stroke-linejoin="round"/>
<path d="M169.152 145.398L162.494 143.702" stroke="white" stroke-linecap="round" stroke-linejoin="round"/>
<path d="M168.446 145.7L159.344 144.8" stroke="white" stroke-linecap="round" stroke-linejoin="round"/>
<path d="M183.912 135.96C183.912 135.96 178.986 138.649 183.912 140.443" stroke="white" stroke-linecap="round" stroke-linejoin="round"/>
<path d="M169.967 137.058L169.211 139.647L167.184 141.381L169.711 143.324" stroke="white" stroke-linecap="round" stroke-linejoin="round"/>
<path d="M198.826 106.364C194.336 103.247 188.762 99.4831 188.762 99.4831C188.762 99.4831 176.94 99.2527 172.604 99.2966L166.511 115.933C166.511 115.933 160.911 132.504 161.142 133.206C161.373 133.909 165.35 135.5 174.221 136.4C183.092 137.3 186.825 134.106 187.049 133.108C187.146 132.203 187.068 131.291 186.818 130.408L189.852 125.815L199.891 111.692C200.496 110.844 200.722 109.837 200.526 108.857C200.331 107.877 199.727 106.992 198.826 106.364Z" fill="#0095E8" stroke="#263238" stroke-linecap="round" stroke-linejoin="round"/>
<path d="M195.317 103.933C191.879 101.574 188.781 99.4832 188.781 99.4832C188.781 99.4832 184.855 99.4064 180.705 99.3516C179.653 101.404 177.838 105.596 179.333 107.67C181.154 110.227 187.177 110.99 195.317 103.933Z" fill="#263238" stroke="#263238" stroke-linecap="round" stroke-linejoin="round"/>
<path d="M189.975 82.3744C189.975 82.3744 186.594 83.1755 185.19 84.9698C183.785 86.764 179.705 97.2552 179.821 98.1386C179.936 99.022 185.19 98.1386 185.19 98.1386C185.19 98.1386 181.572 104.63 181.572 105.727C181.572 106.825 183.208 107.428 185.305 107.028C187.403 106.627 194.567 96.092 194.567 96.092C194.567 96.092 196.691 98.199 198.031 97.4747C199.571 96.6462 199.083 94.9781 197.916 94.9781C196.748 94.9781 201.181 90.8848 199.667 88.1907C198.153 85.4965 191.379 81.48 189.975 82.3744Z" fill="white" stroke="#263238" stroke-linecap="round" stroke-linejoin="round"/>
<path d="M188.69 79.1863C188.69 79.1863 182.153 79.1863 181.801 81.8805C181.448 84.5746 184.841 85.7763 188.574 85.2769C192.307 84.7776 195.694 84.9751 196.162 85.4745C196.631 85.9738 191.608 86.9724 192.776 87.6693C193.454 88.0861 194.276 88.2984 195.11 88.2729C195.11 88.2729 193.475 88.6679 193.59 89.6666C193.706 90.6652 194.726 95.0768 195.515 95.0768C196.304 95.0768 197.888 94.989 197.888 94.989C199.366 94.3531 200.708 93.5091 201.858 92.4924C203.61 90.8957 204.071 87.4992 201.858 85.5074C199.645 83.5156 197.888 81.5787 196.137 79.982C194.386 78.3852 192.75 76.6897 189.248 76.2892C185.746 75.8886 183.905 77.0848 188.69 79.1863Z" fill="#263238" stroke="#263238" stroke-linecap="round" stroke-linejoin="round"/>
<path d="M202.32 89.5078C202.441 90.0928 202.465 90.6894 202.391 91.2801" stroke="white" stroke-linecap="round" stroke-linejoin="round"/>
<path d="M190.326 82.3354C190.326 82.3354 183.162 82.9335 185.836 84.1023C188.511 85.271 192.687 83.0817 197.902 84.8485C198.781 85.1203 199.585 85.5469 200.26 86.1008C200.935 86.6546 201.467 87.3234 201.821 88.0639" stroke="white" stroke-linecap="round" stroke-linejoin="round"/>
<path d="M194.676 86.9888C194.676 86.9888 199.57 89.0354 200.218 92.0094" stroke="white" stroke-linecap="round" stroke-linejoin="round"/>
<path d="M185.188 98.1549C185.188 98.1549 190.794 97.8586 192.307 96.7612" stroke="#263238" stroke-linecap="round" stroke-linejoin="round"/>
<path d="M183.436 94.1604C183.436 94.1604 187.521 95.159 188.689 93.063" stroke="#263238" stroke-linecap="round" stroke-linejoin="round"/>
<path d="M187.992 92.6626L189.743 93.2662" stroke="#263238" stroke-linecap="round" stroke-linejoin="round"/>
<path d="M184.721 89.5674C184.721 89.5674 181.104 89.9679 181.104 90.4673C181.104 90.9666 183.438 92.3658 183.438 92.3658" fill="white"/>
<path d="M184.721 89.5674C184.721 89.5674 181.104 89.9679 181.104 90.4673C181.104 90.9666 183.438 92.3658 183.438 92.3658" stroke="#263238" stroke-linecap="round" stroke-linejoin="round"/>
<path d="M185.18 88.6072C185.013 89.0406 184.673 89.3314 184.416 89.2601C184.16 89.1888 184.096 88.7827 184.269 88.3493C184.442 87.9158 184.776 87.625 185.032 87.6963C185.289 87.7676 185.353 88.1792 185.18 88.6072Z" fill="#263238"/>
<path d="M188.262 89.941C188.089 90.3745 187.749 90.6653 187.498 90.5939C187.248 90.5226 187.178 90.1111 187.344 89.6831C187.511 89.2551 187.858 88.9588 188.108 89.0301C188.358 89.1015 188.422 89.5075 188.262 89.941Z" fill="#263238"/>
<path d="M188.42 87.1035C188.42 87.1035 190.19 87.2407 190.024 89.2983L188.42 87.1035Z" fill="#263238" stroke="#263238" stroke-linecap="round" stroke-linejoin="round"/>
<path d="M186.818 86.1437C186.818 86.1437 185.849 85.0463 184.566 86.5552L186.818 86.1437Z" fill="#263238" stroke="#263238" stroke-linecap="round" stroke-linejoin="round"/>
<path d="M154.603 49.6221L137.707 31.4326L120.818 49.6221H127.425V77.0079H147.996V49.6221H154.603Z" fill="#263238" stroke="#263238" stroke-linecap="round" stroke-linejoin="round"/>
<path d="M154.603 48.4424L137.707 30.2529L120.818 48.4424H127.425V75.8282H147.996V48.4424H154.603Z" fill="white" stroke="#263238" stroke-linecap="round" stroke-linejoin="round"/>
<path d="M153.014 93.4195L138.479 106.413L127.164 103.702C126.607 103.569 126.021 103.546 125.452 103.633C124.882 103.72 124.343 103.917 123.874 104.207L105.15 115.845V128.8H167.466V101.365L158.55 93.414C158.191 93.0966 157.76 92.8443 157.284 92.6722C156.809 92.5 156.297 92.4116 155.781 92.4121C155.264 92.4126 154.753 92.5021 154.278 92.6752C153.803 92.8482 153.373 93.1014 153.014 93.4195Z" fill="white" stroke="#263238" stroke-linecap="round" stroke-linejoin="round"/>
<path d="M143.014 88.9611C140.966 87.7249 138.513 87.1516 136.056 87.3354C133.599 87.5192 131.285 88.4492 129.492 89.9728C127.7 91.4963 126.536 93.523 126.192 95.7201C125.848 97.9172 126.344 100.154 127.599 102.064" stroke="#263238" stroke-width="0.969642" stroke-linecap="round" stroke-linejoin="round"/>
<path d="M146.877 93.1112C146.666 92.6827 146.421 92.2682 146.145 91.8706" stroke="#263238" stroke-width="0.969642" stroke-linecap="round" stroke-linejoin="round"/>
<path d="M145.949 102.541C146.76 101.456 147.321 100.236 147.6 98.9528C147.879 97.6698 147.871 96.3494 147.576 95.0693" stroke="#263238" stroke-width="0.969642" stroke-linecap="round" stroke-linejoin="round"/>
<path d="M126.149 87.3604C125.41 88.0278 124.747 88.7607 124.172 89.5479" stroke="#263238" stroke-width="0.969642" stroke-linecap="round" stroke-linejoin="round"/>
<path d="M149.004 105.478C151.192 102.934 152.317 99.7787 152.184 96.5638C152.051 93.3488 150.669 90.2779 148.278 87.8865C145.887 85.4951 142.639 83.935 139.1 83.4784C135.562 83.0218 131.957 83.6976 128.916 85.388" stroke="#263238" stroke-width="0.969642" stroke-linecap="round" stroke-linejoin="round"/>
<path d="M124.845 105.478C123.336 103.721 122.322 101.66 121.889 99.4737C121.457 97.2869 121.618 95.0383 122.36 92.9199" stroke="#263238" stroke-width="0.969642" stroke-linecap="round" stroke-linejoin="round"/>
<path d="M120.062 108.951C121.012 110.042 122.089 111.038 123.275 111.922" stroke="#263238" stroke-width="0.969642" stroke-linecap="round" stroke-linejoin="round"/>
<path d="M149.057 81.1697C145.233 78.8126 140.662 77.635 136.031 77.8136C131.4 77.9922 126.958 79.5173 123.372 82.1603C119.785 84.8032 117.247 88.4215 116.139 92.4724C115.031 96.5232 115.412 100.788 117.225 104.628" stroke="#263238" stroke-width="0.969642" stroke-linecap="round" stroke-linejoin="round"/>
<path d="M156.922 90.1072C156.346 88.7713 155.606 87.4974 154.717 86.3091" stroke="#263238" stroke-width="0.969642" stroke-linecap="round" stroke-linejoin="round"/>
<path d="M151.746 111.003C153.84 109.206 155.506 107.044 156.643 104.649C157.78 102.254 158.365 99.6762 158.361 97.0718" stroke="#263238" stroke-width="0.969642" stroke-linecap="round" stroke-linejoin="round"/>
<path d="M107 97.0718C107 103.47 109.517 109.661 114.105 114.549C118.694 119.436 125.056 122.703 132.066 123.771" stroke="#263238" stroke-width="0.969642" stroke-linecap="round" stroke-linejoin="round"/>
<path d="M161.108 113.183C164.773 108.72 166.826 103.351 166.99 97.8034C167.153 92.2556 165.419 86.7965 162.022 82.1647C158.625 77.533 153.73 73.9521 147.997 71.9067C142.265 69.8613 135.973 69.45 129.973 70.7286" stroke="#263238" stroke-width="0.969642" stroke-linecap="round" stroke-linejoin="round"/>
<path d="M107 97.072C107 91.0024 109.266 85.1088 113.433 80.3369C117.601 75.5649 123.428 72.1911 129.981 70.7568" stroke="#263238" stroke-width="0.969642" stroke-linecap="round" stroke-linejoin="round"/>
<path d="M154.717 118.903C155.481 118.398 156.216 117.862 156.922 117.295" stroke="#263238" stroke-width="0.969642" stroke-linecap="round" stroke-linejoin="round"/>
<path d="M141.941 123.771C145.363 123.256 148.658 122.208 151.679 120.675" stroke="#263238" stroke-width="0.969642" stroke-linecap="round" stroke-linejoin="round"/>
<path d="M136.937 121.346C133.89 121.343 130.969 120.252 128.815 118.313C126.661 116.374 125.449 113.745 125.445 111.003V107.521C125.445 107.372 125.511 107.228 125.629 107.123C125.746 107.017 125.905 106.958 126.071 106.958H127.635C127.801 106.958 127.96 107.017 128.077 107.123C128.194 107.228 128.26 107.372 128.26 107.521C128.26 107.67 128.194 107.813 128.077 107.919C127.96 108.025 127.801 108.084 127.635 108.084H126.703V111.003C126.703 113.448 127.782 115.792 129.703 117.521C131.623 119.249 134.228 120.22 136.944 120.22C139.66 120.22 142.265 119.249 144.185 117.521C146.106 115.792 147.185 113.448 147.185 111.003V108.084H146.246C146.08 108.084 145.921 108.025 145.804 107.919C145.687 107.813 145.621 107.67 145.621 107.521C145.621 107.372 145.687 107.228 145.804 107.123C145.921 107.017 146.08 106.958 146.246 106.958H147.81C147.976 106.958 148.135 107.017 148.252 107.123C148.37 107.228 148.436 107.372 148.436 107.521V111.003C148.432 113.747 147.219 116.376 145.063 118.315C142.908 120.255 139.985 121.344 136.937 121.346Z" fill="#263238"/>
<path d="M149.055 130V128.874C149.055 128.726 149.023 128.58 148.96 128.443C148.898 128.306 148.805 128.182 148.689 128.077C148.573 127.973 148.435 127.89 148.283 127.833C148.131 127.777 147.968 127.748 147.804 127.748H126.071C125.907 127.748 125.744 127.777 125.592 127.833C125.44 127.89 125.302 127.973 125.186 128.077C125.07 128.182 124.978 128.306 124.915 128.443C124.852 128.58 124.82 128.726 124.82 128.874V130H149.055Z" fill="#263238"/>
<path d="M138.158 129.119C138.179 129.039 138.19 128.957 138.19 128.874V120.783H135.688V128.874C135.688 128.957 135.698 129.039 135.719 129.119H138.158Z" fill="#263238"/>
<path d="M144.676 97.072C144.693 96.1473 144.506 95.2287 144.125 94.3698C143.744 93.5109 143.177 92.7289 142.456 92.0694C141.736 91.4099 140.877 90.8861 139.929 90.5285C138.981 90.171 137.964 89.9868 136.936 89.9868C135.909 89.9868 134.891 90.171 133.944 90.5285C132.996 90.8861 132.137 91.4099 131.416 92.0694C130.696 92.7289 130.129 93.5109 129.747 94.3698C129.366 95.2287 129.179 96.1473 129.196 97.072V111.004C129.231 112.831 130.062 114.572 131.509 115.853C132.957 117.134 134.906 117.852 136.936 117.852C138.966 117.852 140.915 117.134 142.363 115.853C143.811 114.572 144.641 112.831 144.676 111.004V97.072Z" stroke="#263238" stroke-width="0.969642" stroke-linecap="round" stroke-linejoin="round"/>
<path d="M144.676 97.072C144.693 96.1473 144.506 95.2287 144.125 94.3698C143.744 93.5109 143.177 92.7289 142.456 92.0694C141.736 91.4099 140.877 90.8861 139.929 90.5285C138.981 90.171 137.964 89.9868 136.936 89.9868C135.909 89.9868 134.891 90.171 133.944 90.5285C132.996 90.8861 132.137 91.4099 131.416 92.0694C130.696 92.7289 130.129 93.5109 129.747 94.3698C129.366 95.2287 129.179 96.1473 129.196 97.072V111.004C129.231 112.831 130.062 114.572 131.509 115.853C132.957 117.134 134.906 117.852 136.936 117.852C138.966 117.852 140.915 117.134 142.363 115.853C143.811 114.572 144.641 112.831 144.676 111.004V97.072Z" fill="#006CFF"/>
<path d="M133.732 97.8057H129.197V99.4946H133.732C133.981 99.4946 134.22 99.4056 134.396 99.2473C134.572 99.0889 134.671 98.8741 134.671 98.6501C134.671 98.4262 134.572 98.2114 134.396 98.053C134.22 97.8946 133.981 97.8057 133.732 97.8057Z" fill="white"/>
<path d="M144.678 97.8057H140.145C139.896 97.8057 139.658 97.8946 139.482 98.053C139.306 98.2114 139.207 98.4262 139.207 98.6501C139.207 98.8741 139.306 99.0889 139.482 99.2473C139.658 99.4056 139.896 99.4946 140.145 99.4946H144.678V97.8057Z" fill="white"/>
<path d="M136.938 97.8057C136.753 97.8057 136.571 97.8552 136.417 97.948C136.263 98.0408 136.142 98.1727 136.071 98.327C136 98.4813 135.982 98.6511 136.018 98.8149C136.054 98.9787 136.144 99.1292 136.275 99.2473C136.406 99.3654 136.573 99.4458 136.755 99.4784C136.937 99.511 137.126 99.4942 137.297 99.4303C137.469 99.3664 137.615 99.2582 137.718 99.1193C137.822 98.9804 137.877 98.8171 137.877 98.6501C137.877 98.4262 137.778 98.2114 137.602 98.053C137.426 97.8946 137.187 97.8057 136.938 97.8057Z" fill="white"/>
<path d="M136.938 101.22C136.753 101.22 136.571 101.269 136.417 101.362C136.263 101.455 136.142 101.587 136.071 101.741C136 101.895 135.982 102.065 136.018 102.229C136.054 102.393 136.144 102.543 136.275 102.661C136.406 102.779 136.573 102.86 136.755 102.892C136.937 102.925 137.126 102.908 137.297 102.844C137.469 102.78 137.615 102.672 137.718 102.533C137.822 102.394 137.877 102.231 137.877 102.064C137.877 101.84 137.778 101.625 137.602 101.467C137.426 101.309 137.187 101.22 136.938 101.22Z" fill="white"/>
<path d="M136.938 104.628C136.753 104.628 136.571 104.677 136.417 104.77C136.263 104.863 136.142 104.995 136.071 105.149C136 105.304 135.982 105.473 136.018 105.637C136.054 105.801 136.144 105.951 136.275 106.07C136.406 106.188 136.573 106.268 136.755 106.301C136.937 106.333 137.126 106.316 137.297 106.253C137.469 106.189 137.615 106.08 137.718 105.942C137.822 105.803 137.877 105.639 137.877 105.472C137.877 105.248 137.778 105.034 137.602 104.875C137.426 104.717 137.187 104.628 136.938 104.628Z" fill="white"/>
<path d="M133.732 101.22H129.197V102.909H133.732C133.981 102.909 134.22 102.82 134.396 102.661C134.572 102.503 134.671 102.288 134.671 102.064C134.671 101.84 134.572 101.625 134.396 101.467C134.22 101.309 133.981 101.22 133.732 101.22Z" fill="white"/>
<path d="M144.678 101.22H140.145C139.896 101.22 139.658 101.309 139.482 101.467C139.306 101.625 139.207 101.84 139.207 102.064C139.207 102.288 139.306 102.503 139.482 102.661C139.658 102.82 139.896 102.909 140.145 102.909H144.678V101.22Z" fill="white"/>
<path d="M133.732 104.628H129.197V106.317H133.732C133.981 106.317 134.22 106.228 134.396 106.07C134.572 105.911 134.671 105.696 134.671 105.472C134.671 105.248 134.572 105.034 134.396 104.875C134.22 104.717 133.981 104.628 133.732 104.628Z" fill="white"/>
<path d="M144.678 104.628H140.145C139.896 104.628 139.658 104.717 139.482 104.875C139.306 105.034 139.207 105.248 139.207 105.472C139.207 105.696 139.306 105.911 139.482 106.07C139.658 106.228 139.896 106.317 140.145 106.317H144.678V104.628Z" fill="white"/>
<path d="M144.676 97.072C144.693 96.1473 144.506 95.2287 144.125 94.3698C143.744 93.5109 143.177 92.7289 142.456 92.0694C141.736 91.4099 140.877 90.8861 139.929 90.5285C138.981 90.171 137.964 89.9868 136.936 89.9868C135.909 89.9868 134.891 90.171 133.944 90.5285C132.996 90.8861 132.137 91.4099 131.416 92.0694C130.696 92.7289 130.129 93.5109 129.747 94.3698C129.366 95.2287 129.179 96.1473 129.196 97.072V111.004C129.231 112.831 130.062 114.572 131.509 115.853C132.957 117.134 134.906 117.852 136.936 117.852C138.966 117.852 140.915 117.134 142.363 115.853C143.811 114.572 144.641 112.831 144.676 111.004V97.072Z" stroke="#263238" stroke-width="0.969642" stroke-miterlimit="10"/>
<path d="M129.197 111.003C129.232 112.83 130.062 114.572 131.51 115.853C132.958 117.134 134.907 117.852 136.937 117.852C138.967 117.852 140.916 117.134 142.364 115.853C143.812 114.572 144.642 112.83 144.677 111.003H129.197Z" fill="#263238" stroke="#263238" stroke-width="0.969642" stroke-miterlimit="10"/>
<path d="M135.53 92.366C137.18 88.9291 135.26 84.9991 131.242 83.5881C127.224 82.1772 122.63 83.8195 120.981 87.2564C119.331 90.6933 121.251 94.6233 125.269 96.0343C129.287 97.4453 133.881 95.8029 135.53 92.366Z" fill="white" stroke="#263238" stroke-linecap="round" stroke-linejoin="round"/>
<path d="M190.243 108.904L173.071 124.005L146.901 130.172C146.901 130.172 144.566 127.851 142.885 127.835C141.205 127.818 135.791 129.481 135.791 129.481C135.791 129.481 135.105 130.918 136.433 130.929C137.798 130.847 139.152 130.663 140.48 130.381L133.059 131.478C133.148 131.961 133.435 132.402 133.868 132.721C134.302 133.041 134.853 133.218 135.425 133.223H138.767L144.483 133.843L149.89 132.444C149.89 132.444 175.509 130.057 176.862 129.777C178.216 129.497 199.954 113.535 199.954 113.535C199.954 113.535 202.411 111.686 201.474 109.541C200.538 107.395 195.746 105.875 195.746 105.875" fill="white"/>
<path d="M190.243 108.904L173.071 124.005L146.901 130.172C146.901 130.172 144.566 127.851 142.885 127.835C141.205 127.818 135.791 129.481 135.791 129.481C135.791 129.481 135.105 130.918 136.433 130.929C137.798 130.847 139.152 130.663 140.48 130.381L133.059 131.478C133.148 131.961 133.435 132.402 133.868 132.721C134.302 133.041 134.853 133.218 135.425 133.223H138.767L144.483 133.843L149.89 132.444C149.89 132.444 175.509 130.057 176.862 129.777C178.216 129.497 199.954 113.535 199.954 113.535C199.954 113.535 202.411 111.686 201.474 109.541C200.538 107.395 195.746 105.875 195.746 105.875" stroke="#263238" stroke-linecap="round" stroke-linejoin="round"/>
<path d="M187.144 110.479L174.053 121.71L183.77 127.708L200.653 114.105C201.477 113.445 202.012 112.564 202.17 111.608C202.327 110.652 202.098 109.678 201.519 108.849L201.461 108.772C200.251 107.13 198.538 105.802 196.509 104.931" fill="#0095E8"/>
<path d="M187.144 110.479L174.053 121.71L183.77 127.708L200.653 114.105C201.477 113.445 202.012 112.564 202.17 111.608C202.327 110.652 202.098 109.678 201.519 108.849L201.461 108.772C200.251 107.13 198.538 105.802 196.509 104.931" stroke="#263238" stroke-linecap="round" stroke-linejoin="round"/>
<path d="M183.796 127.708L186.08 125.864L176.311 119.773L174.053 121.71L183.796 127.708Z" fill="#263238" stroke="#263238" stroke-linecap="round" stroke-linejoin="round"/>
<path d="M121.143 130.402L123.612 132.685L126.005 132.91L122.291 130.188L121.143 130.402Z" fill="white" stroke="#263238" stroke-linecap="round" stroke-linejoin="round"/>
<path d="M125.785 130.402L128.255 132.685L130.641 132.91L126.927 130.188L125.785 130.402Z" fill="white" stroke="#263238" stroke-linecap="round" stroke-linejoin="round"/>
<path d="M126.001 132.909L123.211 129.848H124.936L128.387 132.909L126.925 133.14L126.001 132.909Z" fill="white" stroke="#263238" stroke-linecap="round" stroke-linejoin="round"/>
<path d="M120.166 130.644L121.359 132.57L123.611 132.685L121.141 130.402L120.166 130.644Z" fill="white" stroke="#263238" stroke-linecap="round" stroke-linejoin="round"/>
</svg>
