<svg width="309" height="338" viewBox="0 0 309 338" fill="none" xmlns="http://www.w3.org/2000/svg">
<path d="M5.12 332.2C4.26667 332.2 3.46667 332.133 2.72 332C1.98667 331.88 1.35333 331.7 0.82 331.46V328.72C1.40667 328.973 2.05333 329.18 2.76 329.34C3.48 329.5 4.16 329.58 4.8 329.58C5.6 329.58 6.19333 329.507 6.58 329.36C6.98 329.213 7.18 328.893 7.18 328.4C7.18 328.067 7.08 327.8 6.88 327.6C6.69333 327.4 6.38 327.227 5.94 327.08C5.51333 326.92 4.92667 326.733 4.18 326.52C3.3 326.253 2.6 325.96 2.08 325.64C1.56 325.307 1.18667 324.907 0.96 324.44C0.733333 323.973 0.62 323.4 0.62 322.72C0.62 321.493 1.06 320.553 1.94 319.9C2.82 319.247 4.12 318.92 5.84 318.92C6.58667 318.92 7.31333 318.98 8.02 319.1C8.72667 319.207 9.3 319.333 9.74 319.48V322.24C9.16667 322.013 8.58667 321.847 8 321.74C7.42667 321.633 6.86667 321.58 6.32 321.58C5.6 321.58 5.01333 321.647 4.56 321.78C4.12 321.913 3.9 322.22 3.9 322.7C3.9 322.98 3.98 323.207 4.14 323.38C4.3 323.54 4.57333 323.687 4.96 323.82C5.36 323.953 5.9 324.113 6.58 324.3C7.63333 324.58 8.44 324.92 9 325.32C9.56 325.707 9.94667 326.16 10.16 326.68C10.3733 327.187 10.48 327.76 10.48 328.4C10.48 329.533 10.04 330.453 9.16 331.16C8.28 331.853 6.93333 332.2 5.12 332.2ZM17.0538 332.2C15.2271 332.2 13.8804 331.78 13.0138 330.94C12.1471 330.087 11.7138 328.86 11.7138 327.26C11.7138 325.673 12.1471 324.453 13.0138 323.6C13.8938 322.747 15.2404 322.32 17.0538 322.32C18.8804 322.32 20.2271 322.747 21.0938 323.6C21.9738 324.453 22.4138 325.673 22.4138 327.26C22.4138 328.86 21.9804 330.087 21.1138 330.94C20.2471 331.78 18.8938 332.2 17.0538 332.2ZM17.0538 329.68C17.8004 329.68 18.3338 329.493 18.6538 329.12C18.9738 328.747 19.1338 328.127 19.1338 327.26C19.1338 326.393 18.9738 325.773 18.6538 325.4C18.3338 325.027 17.8004 324.84 17.0538 324.84C16.3204 324.84 15.7938 325.027 15.4738 325.4C15.1538 325.773 14.9938 326.393 14.9938 327.26C14.9938 328.127 15.1538 328.747 15.4738 329.12C15.7938 329.493 16.3204 329.68 17.0538 329.68ZM24.0473 332V322.52H27.1073L27.2073 323.4C27.6207 323.147 28.134 322.92 28.7473 322.72C29.3607 322.507 29.974 322.373 30.5873 322.32V324.74C30.2407 324.78 29.854 324.847 29.4273 324.94C29.014 325.02 28.614 325.12 28.2273 325.24C27.854 325.36 27.534 325.487 27.2673 325.62V332H24.0473ZM31.8013 332V322.52H34.8613L34.9613 323.4C35.3746 323.147 35.8879 322.92 36.5013 322.72C37.1146 322.507 37.7279 322.373 38.3413 322.32V324.74C37.9946 324.78 37.6079 324.847 37.1813 324.94C36.7679 325.02 36.3679 325.12 35.9813 325.24C35.6079 325.36 35.2879 325.487 35.0213 325.62V332H31.8013ZM41.672 335.52C41.192 335.52 40.7787 335.493 40.432 335.44C40.0987 335.4 39.7654 335.313 39.432 335.18V332.94C39.6587 333.02 39.8654 333.073 40.052 333.1C40.252 333.127 40.452 333.14 40.652 333.14C41.1987 333.14 41.6054 333.04 41.872 332.84C42.152 332.653 42.432 332.313 42.712 331.82L38.452 322.52H41.832L44.332 328.54L46.792 322.52H50.152L46.532 331.22C46.172 332.087 45.772 332.84 45.332 333.48C44.892 334.133 44.3787 334.633 43.792 334.98C43.2054 335.34 42.4987 335.52 41.672 335.52ZM49.4872 334.4L50.1272 330.14H52.8672L51.7872 334.4H49.4872ZM60.913 332L58.413 322.52H61.573L62.853 327.96L64.193 323.82V322.52H66.613L68.173 327.96L69.413 322.52H72.573L70.073 332H67.153L65.533 327.08L63.873 332H60.913ZM78.3852 332.2C76.7318 332.2 75.4052 331.793 74.4052 330.98C73.4052 330.153 72.9052 328.913 72.9052 327.26C72.9052 325.753 73.3185 324.553 74.1452 323.66C74.9718 322.767 76.2118 322.32 77.8652 322.32C79.3718 322.32 80.5385 322.707 81.3652 323.48C82.1918 324.253 82.6052 325.293 82.6052 326.6V328.3H75.8852C76.0318 328.927 76.3718 329.367 76.9052 329.62C77.4518 329.86 78.1918 329.98 79.1252 329.98C79.6452 329.98 80.1718 329.933 80.7052 329.84C81.2518 329.747 81.7052 329.627 82.0652 329.48V331.58C81.6118 331.793 81.0718 331.947 80.4452 332.04C79.8185 332.147 79.1318 332.2 78.3852 332.2ZM75.8852 326.44H79.8052V326.02C79.8052 325.553 79.6652 325.187 79.3852 324.92C79.1052 324.64 78.6318 324.5 77.9652 324.5C77.1918 324.5 76.6518 324.66 76.3452 324.98C76.0385 325.287 75.8852 325.773 75.8852 326.44ZM93.5395 332.2C91.8462 332.2 90.5195 331.787 89.5595 330.96C88.6129 330.133 88.1395 328.9 88.1395 327.26C88.1395 325.593 88.6329 324.353 89.6195 323.54C90.6195 322.727 91.9462 322.32 93.5995 322.32C94.2929 322.32 94.8929 322.373 95.3995 322.48C95.9195 322.573 96.4195 322.733 96.8995 322.96V325.24C96.1529 324.88 95.2795 324.7 94.2795 324.7C93.3462 324.7 92.6329 324.887 92.1395 325.26C91.6595 325.633 91.4195 326.3 91.4195 327.26C91.4195 328.153 91.6462 328.807 92.0995 329.22C92.5529 329.62 93.2729 329.82 94.2595 329.82C95.2329 329.82 96.1195 329.62 96.9195 329.22V331.6C96.4395 331.813 95.9195 331.967 95.3595 332.06C94.8129 332.153 94.2062 332.2 93.5395 332.2ZM103.499 332.2C101.672 332.2 100.326 331.78 99.4591 330.94C98.5924 330.087 98.1591 328.86 98.1591 327.26C98.1591 325.673 98.5924 324.453 99.4591 323.6C100.339 322.747 101.686 322.32 103.499 322.32C105.326 322.32 106.672 322.747 107.539 323.6C108.419 324.453 108.859 325.673 108.859 327.26C108.859 328.86 108.426 330.087 107.559 330.94C106.692 331.78 105.339 332.2 103.499 332.2ZM103.499 329.68C104.246 329.68 104.779 329.493 105.099 329.12C105.419 328.747 105.579 328.127 105.579 327.26C105.579 326.393 105.419 325.773 105.099 325.4C104.779 325.027 104.246 324.84 103.499 324.84C102.766 324.84 102.239 325.027 101.919 325.4C101.599 325.773 101.439 326.393 101.439 327.26C101.439 328.127 101.599 328.747 101.919 329.12C102.239 329.493 102.766 329.68 103.499 329.68ZM113.753 332.2C112.633 332.2 111.759 331.887 111.133 331.26C110.506 330.62 110.193 329.693 110.193 328.48V322.52H113.413V328.3C113.413 328.833 113.539 329.227 113.793 329.48C114.059 329.72 114.453 329.84 114.973 329.84C115.359 329.84 115.726 329.76 116.073 329.6C116.419 329.44 116.706 329.24 116.933 329V322.52H120.153V332H117.153L117.053 331.2C116.666 331.493 116.199 331.733 115.653 331.92C115.106 332.107 114.473 332.2 113.753 332.2ZM125.112 332.2C124.072 332.2 123.325 331.973 122.872 331.52C122.419 331.067 122.192 330.34 122.192 329.34V318.52H125.412V329.02C125.412 329.327 125.472 329.54 125.592 329.66C125.725 329.767 125.919 329.82 126.172 329.82C126.532 329.82 126.852 329.773 127.132 329.68V331.86C126.825 331.98 126.519 332.067 126.212 332.12C125.919 332.173 125.552 332.2 125.112 332.2ZM132.324 332.2C131.404 332.2 130.618 332.053 129.964 331.76C129.311 331.467 128.811 330.987 128.464 330.32C128.118 329.64 127.944 328.733 127.944 327.6C127.944 326.453 128.144 325.493 128.544 324.72C128.944 323.933 129.491 323.34 130.184 322.94C130.891 322.527 131.698 322.32 132.604 322.32C133.098 322.32 133.538 322.373 133.924 322.48C134.324 322.587 134.698 322.747 135.044 322.96V318.52H138.264V332H135.484L135.304 331.2C134.918 331.533 134.484 331.787 134.004 331.96C133.524 332.12 132.964 332.2 132.324 332.2ZM133.244 329.86C133.951 329.86 134.551 329.62 135.044 329.14V325.3C134.591 324.887 134.011 324.68 133.304 324.68C132.624 324.68 132.104 324.94 131.744 325.46C131.398 325.967 131.224 326.687 131.224 327.62C131.224 328.527 131.391 329.127 131.724 329.42C132.071 329.713 132.578 329.86 133.244 329.86ZM140.297 332V322.52H143.297L143.397 323.34C143.784 323.073 144.271 322.84 144.857 322.64C145.444 322.427 146.071 322.32 146.737 322.32C147.964 322.32 148.857 322.613 149.417 323.2C149.977 323.787 150.257 324.693 150.257 325.92V332H147.037V326.18C147.037 325.647 146.924 325.267 146.697 325.04C146.471 324.813 146.064 324.7 145.477 324.7C145.131 324.7 144.777 324.78 144.417 324.94C144.057 325.1 143.757 325.3 143.517 325.54V332H140.297ZM151.792 323.28L152.972 318.92H155.692L154.212 323.28H151.792ZM160.525 332.2C159.352 332.2 158.485 331.9 157.925 331.3C157.379 330.7 157.105 329.873 157.105 328.82V324.96H155.825V322.52H157.105V320.54L160.325 319.68V322.52H162.625L162.485 324.96H160.325V328.6C160.325 329.053 160.439 329.373 160.665 329.56C160.892 329.733 161.232 329.82 161.685 329.82C162.072 329.82 162.465 329.753 162.865 329.62V331.8C162.239 332.067 161.459 332.2 160.525 332.2ZM168.863 332V324.96H167.603V322.52H168.863V321.78C168.863 321.1 169.023 320.487 169.343 319.94C169.676 319.393 170.156 318.96 170.783 318.64C171.409 318.307 172.169 318.14 173.063 318.14C174.156 318.14 175.043 318.273 175.723 318.54V320.82C175.563 320.74 175.323 320.68 175.003 320.64C174.696 320.587 174.416 320.56 174.163 320.56C173.389 320.56 172.849 320.667 172.543 320.88C172.236 321.093 172.083 321.42 172.083 321.86V322.52H177.643V332H174.423V324.96H172.083V332H168.863ZM179.692 332V322.52H182.692L182.792 323.34C183.179 323.073 183.665 322.84 184.252 322.64C184.839 322.427 185.465 322.32 186.132 322.32C187.359 322.32 188.252 322.613 188.812 323.2C189.372 323.787 189.652 324.693 189.652 325.92V332H186.432V326.18C186.432 325.647 186.319 325.267 186.092 325.04C185.865 324.813 185.459 324.7 184.872 324.7C184.525 324.7 184.172 324.78 183.812 324.94C183.452 325.1 183.152 325.3 182.912 325.54V332H179.692ZM195.449 332.2C194.529 332.2 193.743 332.053 193.089 331.76C192.436 331.467 191.936 330.987 191.589 330.32C191.243 329.64 191.069 328.733 191.069 327.6C191.069 326.453 191.269 325.493 191.669 324.72C192.069 323.933 192.616 323.34 193.309 322.94C194.016 322.527 194.823 322.32 195.729 322.32C196.223 322.32 196.663 322.373 197.049 322.48C197.449 322.587 197.823 322.747 198.169 322.96V318.52H201.389V332H198.609L198.429 331.2C198.043 331.533 197.609 331.787 197.129 331.96C196.649 332.12 196.089 332.2 195.449 332.2ZM196.369 329.86C197.076 329.86 197.676 329.62 198.169 329.14V325.3C197.716 324.887 197.136 324.68 196.429 324.68C195.749 324.68 195.229 324.94 194.869 325.46C194.523 325.967 194.349 326.687 194.349 327.62C194.349 328.527 194.516 329.127 194.849 329.42C195.196 329.713 195.703 329.86 196.369 329.86ZM210.679 332.2C210.079 332.2 209.519 332.093 208.999 331.88C208.493 331.667 208.086 331.34 207.779 330.9C207.473 330.447 207.319 329.887 207.319 329.22C207.319 328.247 207.646 327.487 208.299 326.94C208.966 326.38 209.959 326.1 211.279 326.1H213.919V325.88C213.919 325.4 213.759 325.06 213.439 324.86C213.119 324.647 212.519 324.54 211.639 324.54C210.559 324.54 209.499 324.707 208.459 325.04V322.96C208.926 322.773 209.493 322.62 210.159 322.5C210.839 322.38 211.553 322.32 212.299 322.32C213.766 322.32 214.913 322.62 215.739 323.22C216.579 323.82 216.999 324.773 216.999 326.08V332H214.179L214.019 331.2C213.673 331.52 213.226 331.767 212.679 331.94C212.146 332.113 211.479 332.2 210.679 332.2ZM211.699 330.22C212.206 330.22 212.646 330.133 213.019 329.96C213.393 329.787 213.693 329.567 213.919 329.3V327.96H211.639C210.693 327.96 210.219 328.34 210.219 329.1C210.219 329.447 210.339 329.72 210.579 329.92C210.819 330.12 211.193 330.22 211.699 330.22ZM218.93 332V322.52H221.93L222.03 323.34C222.417 323.073 222.903 322.84 223.49 322.64C224.077 322.427 224.703 322.32 225.37 322.32C226.597 322.32 227.49 322.613 228.05 323.2C228.61 323.787 228.89 324.693 228.89 325.92V332H225.67V326.18C225.67 325.647 225.557 325.267 225.33 325.04C225.103 324.813 224.697 324.7 224.11 324.7C223.763 324.7 223.41 324.78 223.05 324.94C222.69 325.1 222.39 325.3 222.15 325.54V332H218.93ZM233.137 335.52C232.657 335.52 232.244 335.493 231.897 335.44C231.564 335.4 231.23 335.313 230.897 335.18V332.94C231.124 333.02 231.33 333.073 231.517 333.1C231.717 333.127 231.917 333.14 232.117 333.14C232.664 333.14 233.07 333.04 233.337 332.84C233.617 332.653 233.897 332.313 234.177 331.82L229.917 322.52H233.297L235.797 328.54L238.257 322.52H241.617L237.997 331.22C237.637 332.087 237.237 332.84 236.797 333.48C236.357 334.133 235.844 334.633 235.257 334.98C234.67 335.34 233.964 335.52 233.137 335.52ZM247.153 332V322.52H250.213L250.313 323.4C250.726 323.147 251.239 322.92 251.853 322.72C252.466 322.507 253.079 322.373 253.693 322.32V324.74C253.346 324.78 252.959 324.847 252.533 324.94C252.119 325.02 251.719 325.12 251.333 325.24C250.959 325.36 250.639 325.487 250.373 325.62V332H247.153ZM259.596 332.2C257.943 332.2 256.616 331.793 255.616 330.98C254.616 330.153 254.116 328.913 254.116 327.26C254.116 325.753 254.529 324.553 255.356 323.66C256.183 322.767 257.423 322.32 259.076 322.32C260.583 322.32 261.749 322.707 262.576 323.48C263.403 324.253 263.816 325.293 263.816 326.6V328.3H257.096C257.243 328.927 257.583 329.367 258.116 329.62C258.663 329.86 259.403 329.98 260.336 329.98C260.856 329.98 261.383 329.933 261.916 329.84C262.463 329.747 262.916 329.627 263.276 329.48V331.58C262.823 331.793 262.283 331.947 261.656 332.04C261.029 332.147 260.343 332.2 259.596 332.2ZM257.096 326.44H261.016V326.02C261.016 325.553 260.876 325.187 260.596 324.92C260.316 324.64 259.843 324.5 259.176 324.5C258.403 324.5 257.863 324.66 257.556 324.98C257.249 325.287 257.096 325.773 257.096 326.44ZM268.876 332.2C268.116 332.2 267.396 332.147 266.716 332.04C266.036 331.933 265.496 331.8 265.096 331.64V329.18C265.563 329.38 266.103 329.533 266.716 329.64C267.329 329.747 267.876 329.8 268.356 329.8C268.929 329.8 269.343 329.773 269.596 329.72C269.863 329.667 269.996 329.52 269.996 329.28C269.996 329.013 269.783 328.813 269.356 328.68C268.929 328.547 268.343 328.353 267.596 328.1C266.729 327.793 266.069 327.44 265.616 327.04C265.176 326.627 264.956 326.02 264.956 325.22C264.956 324.287 265.303 323.573 265.996 323.08C266.703 322.573 267.823 322.32 269.356 322.32C269.956 322.32 270.549 322.367 271.136 322.46C271.723 322.553 272.203 322.66 272.576 322.78V325.2C272.203 325.027 271.776 324.9 271.296 324.82C270.816 324.74 270.383 324.7 269.996 324.7C269.503 324.7 269.083 324.733 268.736 324.8C268.403 324.853 268.236 324.993 268.236 325.22C268.236 325.473 268.423 325.653 268.796 325.76C269.169 325.853 269.709 326.013 270.416 326.24C271.163 326.467 271.743 326.713 272.156 326.98C272.569 327.233 272.863 327.54 273.036 327.9C273.209 328.26 273.296 328.713 273.296 329.26C273.296 330.207 272.923 330.933 272.176 331.44C271.429 331.947 270.329 332.2 268.876 332.2ZM278.186 332.2C277.066 332.2 276.193 331.887 275.566 331.26C274.94 330.62 274.626 329.693 274.626 328.48V322.52H277.846V328.3C277.846 328.833 277.973 329.227 278.226 329.48C278.493 329.72 278.886 329.84 279.406 329.84C279.793 329.84 280.16 329.76 280.506 329.6C280.853 329.44 281.14 329.24 281.366 329V322.52H284.586V332H281.586L281.486 331.2C281.1 331.493 280.633 331.733 280.086 331.92C279.54 332.107 278.906 332.2 278.186 332.2ZM289.545 332.2C288.505 332.2 287.759 331.973 287.305 331.52C286.852 331.067 286.625 330.34 286.625 329.34V318.52H289.845V329.02C289.845 329.327 289.905 329.54 290.025 329.66C290.159 329.767 290.352 329.82 290.605 329.82C290.965 329.82 291.285 329.773 291.565 329.68V331.86C291.259 331.98 290.952 332.067 290.645 332.12C290.352 332.173 289.985 332.2 289.545 332.2ZM296.17 332.2C294.997 332.2 294.13 331.9 293.57 331.3C293.023 330.7 292.75 329.873 292.75 328.82V324.96H291.47V322.52H292.75V320.54L295.97 319.68V322.52H298.27L298.13 324.96H295.97V328.6C295.97 329.053 296.083 329.373 296.31 329.56C296.537 329.733 296.877 329.82 297.33 329.82C297.717 329.82 298.11 329.753 298.51 329.62V331.8C297.883 332.067 297.103 332.2 296.17 332.2ZM303.27 332.2C302.51 332.2 301.79 332.147 301.11 332.04C300.43 331.933 299.89 331.8 299.49 331.64V329.18C299.957 329.38 300.497 329.533 301.11 329.64C301.724 329.747 302.27 329.8 302.75 329.8C303.324 329.8 303.737 329.773 303.99 329.72C304.257 329.667 304.39 329.52 304.39 329.28C304.39 329.013 304.177 328.813 303.75 328.68C303.324 328.547 302.737 328.353 301.99 328.1C301.124 327.793 300.464 327.44 300.01 327.04C299.57 326.627 299.35 326.02 299.35 325.22C299.35 324.287 299.697 323.573 300.39 323.08C301.097 322.573 302.217 322.32 303.75 322.32C304.35 322.32 304.944 322.367 305.53 322.46C306.117 322.553 306.597 322.66 306.97 322.78V325.2C306.597 325.027 306.17 324.9 305.69 324.82C305.21 324.74 304.777 324.7 304.39 324.7C303.897 324.7 303.477 324.733 303.13 324.8C302.797 324.853 302.63 324.993 302.63 325.22C302.63 325.473 302.817 325.653 303.19 325.76C303.564 325.853 304.104 326.013 304.81 326.24C305.557 326.467 306.137 326.713 306.55 326.98C306.964 327.233 307.257 327.54 307.43 327.9C307.604 328.26 307.69 328.713 307.69 329.26C307.69 330.207 307.317 330.933 306.57 331.44C305.824 331.947 304.724 332.2 303.27 332.2Z" fill="black"/>
<g clip-path="url(#clip0_2230_43277)">
<path d="M246.132 58.7802H244.776V21.5486C244.776 15.8335 242.51 10.3526 238.474 6.31143C234.439 2.27029 228.967 2.8109e-09 223.26 2.8109e-09H144.496C141.671 -4.57021e-05 138.873 0.557279 136.262 1.64015C133.652 2.72303 131.28 4.31024 129.282 6.31118C127.284 8.31212 125.699 10.6876 124.617 13.302C123.536 15.9163 122.98 18.7184 122.979 21.5482V225.804C122.979 231.519 125.246 237 129.281 241.041C133.317 245.082 138.789 247.353 144.496 247.353H223.259C228.966 247.353 234.438 245.082 238.473 241.041C242.508 237 244.775 231.519 244.775 225.804V85.2824H246.131L246.132 58.7802Z" fill="#3F3D56"/>
<path d="M240.363 20.1052V227.247C240.362 231.58 238.644 235.735 235.584 238.8C232.525 241.864 228.377 243.586 224.05 243.588H143.67C139.342 243.588 135.191 241.867 132.129 238.803C129.068 235.738 127.348 231.581 127.346 227.247V20.1052C127.348 15.7706 129.068 11.614 132.129 8.54966C135.19 5.48529 139.341 3.76409 143.669 3.76465H153.42C152.941 4.94379 152.759 6.22265 152.889 7.48884C153.02 8.75503 153.458 9.96977 154.167 11.0263C154.876 12.0828 155.833 12.9488 156.955 13.5481C158.076 14.1474 159.327 14.4616 160.598 14.4632H206.424C207.695 14.4616 208.946 14.1474 210.068 13.5481C211.189 12.9488 212.146 12.0828 212.855 11.0263C213.564 9.96977 214.003 8.75503 214.133 7.48884C214.263 6.22265 214.081 4.94379 213.602 3.76465H224.047C228.373 3.76539 232.523 5.48679 235.582 8.5504C238.642 11.614 240.361 15.7691 240.363 20.1021V20.1052Z" fill="white"/>
<path d="M183.84 103.26C202.373 103.26 217.398 88.2131 217.398 69.6519C217.398 51.0907 202.373 36.0439 183.84 36.0439C165.306 36.0439 150.282 51.0907 150.282 69.6519C150.282 88.2131 165.306 103.26 183.84 103.26Z" fill="#006CFF"/>
<path d="M220.439 139.421H149.012C148.661 139.42 148.325 139.281 148.077 139.032C147.829 138.784 147.689 138.447 147.689 138.096V120.352C147.69 120.001 147.829 119.664 148.077 119.416C148.325 119.168 148.661 119.028 149.012 119.027H220.439C220.789 119.028 221.125 119.168 221.373 119.416C221.621 119.664 221.761 120.001 221.761 120.352V138.096C221.761 138.448 221.621 138.784 221.373 139.033C221.125 139.281 220.789 139.421 220.439 139.421V139.421ZM149.012 119.557C148.801 119.557 148.599 119.641 148.451 119.79C148.302 119.939 148.218 120.141 148.218 120.352V138.096C148.218 138.307 148.302 138.509 148.451 138.658C148.599 138.807 148.801 138.891 149.012 138.891H220.439C220.649 138.891 220.851 138.807 221 138.658C221.148 138.509 221.232 138.307 221.232 138.096V120.352C221.232 120.141 221.148 119.939 221 119.79C220.851 119.641 220.649 119.557 220.439 119.557H149.012Z" fill="#E6E6E6"/>
<path d="M171.101 125.418C170.855 125.418 170.62 125.516 170.446 125.69C170.273 125.863 170.175 126.099 170.175 126.345C170.175 126.591 170.273 126.827 170.446 127.001C170.62 127.175 170.855 127.273 171.101 127.273H214.75C214.996 127.282 215.235 127.193 215.415 127.026C215.595 126.859 215.702 126.627 215.711 126.381C215.721 126.136 215.632 125.896 215.465 125.716C215.299 125.535 215.067 125.428 214.821 125.419C214.808 125.418 214.794 125.418 214.781 125.418H171.101L171.101 125.418Z" fill="#E6E6E6"/>
<path d="M171.101 130.981C170.855 130.981 170.62 131.079 170.446 131.253C170.273 131.427 170.175 131.663 170.175 131.909C170.175 132.155 170.273 132.391 170.446 132.565C170.62 132.738 170.855 132.836 171.101 132.836H214.75C214.996 132.846 215.235 132.757 215.415 132.59C215.595 132.423 215.702 132.191 215.711 131.945C215.721 131.699 215.632 131.46 215.465 131.279C215.299 131.099 215.067 130.992 214.821 130.982C214.808 130.982 214.794 130.982 214.781 130.982H171.101L171.101 130.981Z" fill="#E6E6E6"/>
<path d="M220.439 168.997H149.012C148.661 168.997 148.325 168.857 148.077 168.609C147.829 168.36 147.689 168.024 147.689 167.672V149.928C147.69 149.577 147.829 149.24 148.077 148.992C148.325 148.744 148.661 148.604 149.012 148.604H220.439C220.789 148.604 221.125 148.744 221.373 148.992C221.621 149.24 221.761 149.577 221.761 149.928V167.673C221.761 168.024 221.621 168.36 221.373 168.609C221.125 168.857 220.789 168.996 220.439 168.997ZM149.012 149.133C148.801 149.133 148.599 149.217 148.451 149.366C148.302 149.515 148.218 149.717 148.218 149.928V167.673C148.218 167.883 148.302 168.086 148.451 168.235C148.599 168.384 148.801 168.467 149.012 168.468H220.439C220.649 168.467 220.851 168.384 221 168.235C221.148 168.086 221.232 167.883 221.232 167.673V149.928C221.232 149.717 221.148 149.515 221 149.366C220.851 149.217 220.649 149.133 220.439 149.133H149.012Z" fill="#E6E6E6"/>
<path d="M171.101 155.09C170.855 155.09 170.62 155.188 170.446 155.361C170.273 155.535 170.175 155.771 170.175 156.017C170.175 156.263 170.273 156.499 170.446 156.673C170.62 156.847 170.855 156.945 171.101 156.945H214.75C214.993 156.943 215.225 156.847 215.397 156.676C215.569 156.506 215.667 156.275 215.671 156.032C215.675 155.79 215.584 155.555 215.418 155.379C215.251 155.203 215.023 155.099 214.781 155.09H171.101V155.09Z" fill="#E6E6E6"/>
<path d="M171.101 160.654C170.855 160.654 170.62 160.752 170.446 160.926C170.273 161.1 170.175 161.336 170.175 161.582C170.175 161.828 170.273 162.063 170.446 162.237C170.62 162.411 170.855 162.509 171.101 162.509H214.75C214.993 162.508 215.225 162.411 215.397 162.241C215.569 162.07 215.667 161.839 215.671 161.597C215.675 161.354 215.584 161.12 215.418 160.944C215.251 160.768 215.023 160.664 214.781 160.655H171.101V160.654Z" fill="#E6E6E6"/>
<path d="M220.439 198.67H149.012C148.661 198.669 148.325 198.53 148.077 198.281C147.829 198.033 147.689 197.696 147.689 197.345V179.601C147.69 179.25 147.829 178.913 148.077 178.665C148.325 178.417 148.661 178.277 149.012 178.276H220.439C220.789 178.277 221.125 178.417 221.373 178.665C221.621 178.913 221.761 179.25 221.761 179.601V197.346C221.761 197.697 221.621 198.033 221.373 198.282C221.125 198.53 220.789 198.67 220.439 198.67V198.67ZM149.012 178.806C148.801 178.806 148.599 178.89 148.451 179.039C148.302 179.188 148.218 179.39 148.218 179.601V197.346C148.218 197.556 148.302 197.758 148.451 197.907C148.599 198.056 148.801 198.14 149.012 198.14H220.439C220.649 198.14 220.851 198.056 221 197.907C221.148 197.758 221.232 197.556 221.232 197.346V179.601C221.232 179.39 221.148 179.188 221 179.039C220.851 178.89 220.649 178.806 220.439 178.806H149.012Z" fill="#E6E6E6"/>
<path d="M171.101 184.764C170.855 184.764 170.62 184.861 170.446 185.035C170.273 185.209 170.175 185.445 170.175 185.691C170.175 185.937 170.273 186.173 170.446 186.347C170.62 186.521 170.855 186.618 171.101 186.618H214.75C214.872 186.623 214.993 186.604 215.107 186.561C215.221 186.519 215.326 186.455 215.415 186.372C215.505 186.289 215.577 186.19 215.627 186.079C215.678 185.968 215.707 185.849 215.711 185.727C215.716 185.605 215.697 185.484 215.655 185.37C215.612 185.255 215.548 185.151 215.465 185.061C215.383 184.972 215.283 184.9 215.173 184.849C215.062 184.798 214.943 184.769 214.821 184.765C214.808 184.764 214.794 184.764 214.781 184.764H171.101L171.101 184.764Z" fill="#E6E6E6"/>
<path d="M171.101 190.328C170.855 190.328 170.62 190.426 170.446 190.6C170.273 190.774 170.175 191.01 170.175 191.255C170.175 191.501 170.273 191.737 170.446 191.911C170.62 192.085 170.855 192.183 171.101 192.183H214.75C214.872 192.187 214.993 192.168 215.107 192.126C215.221 192.084 215.326 192.019 215.415 191.936C215.505 191.854 215.577 191.754 215.627 191.643C215.678 191.533 215.707 191.413 215.711 191.291C215.716 191.17 215.697 191.048 215.655 190.934C215.612 190.82 215.548 190.715 215.465 190.626C215.383 190.536 215.283 190.464 215.173 190.413C215.062 190.362 214.943 190.334 214.821 190.329C214.808 190.329 214.794 190.328 214.781 190.328H171.101L171.101 190.328Z" fill="#E6E6E6"/>
<path d="M286.327 248H29.6735C29.3013 248 29 247.837 29 247.636C29 247.435 29.3016 247.272 29.6735 247.272H286.327C286.698 247.272 287 247.435 287 247.636C287 247.837 286.699 248 286.327 248Z" fill="#E6E6E6"/>
<path d="M275.457 233.812C274.36 234.198 273.183 234.295 272.039 234.093C270.894 233.891 269.82 233.397 268.922 232.659C266.633 230.735 265.915 227.565 265.331 224.63L263.604 215.948L267.22 218.442C269.82 220.235 272.479 222.086 274.28 224.683C276.081 227.281 276.867 230.826 275.42 233.637" fill="#E6E6E6"/>
<path d="M274.899 244.928C275.354 241.607 275.822 238.243 275.503 234.887C275.219 231.906 274.311 228.995 272.462 226.608C271.481 225.343 270.287 224.26 268.934 223.406C268.581 223.183 268.256 223.743 268.608 223.965C270.949 225.447 272.76 227.635 273.779 230.214C274.905 233.082 275.086 236.209 274.891 239.255C274.773 241.098 274.525 242.928 274.274 244.756C274.255 244.839 274.267 244.926 274.309 245C274.351 245.073 274.419 245.129 274.5 245.154C274.583 245.176 274.671 245.165 274.745 245.123C274.82 245.08 274.875 245.01 274.898 244.928H274.899Z" fill="#F2F2F2"/>
<path d="M271.623 239.599C271.152 240.315 270.506 240.897 269.746 241.29C268.985 241.683 268.137 241.873 267.282 241.843C265.084 241.738 263.252 240.202 261.603 238.745L256.726 234.431L259.954 234.277C262.275 234.165 264.657 234.062 266.87 234.779C269.082 235.495 271.12 237.221 271.524 239.512" fill="#E6E6E6"/>
<path d="M276.185 246.836C273.995 242.953 271.452 238.638 266.911 237.259C265.649 236.876 264.325 236.74 263.011 236.855C262.597 236.89 262.7 237.53 263.115 237.495C265.318 237.312 267.516 237.894 269.34 239.144C271.095 240.341 272.461 242.004 273.618 243.768C274.327 244.847 274.961 245.975 275.596 247.1C275.797 247.459 276.39 247.2 276.185 246.836Z" fill="#F2F2F2"/>
<path d="M157.923 134.679C160.991 134.679 163.478 132.188 163.478 129.115C163.478 126.043 160.991 123.552 157.923 123.552C154.855 123.552 152.367 126.043 152.367 129.115C152.367 132.188 154.855 134.679 157.923 134.679Z" fill="#006CFF"/>
<path d="M155.263 128.076C155.199 128.076 155.147 128.491 155.147 129.003C155.147 129.515 155.199 129.931 155.263 129.931H160.726C160.79 129.939 160.842 129.531 160.843 129.019C160.879 128.7 160.84 128.378 160.73 128.077H155.263V128.076Z" fill="#E6E6E6"/>
<path d="M157.923 164.364C160.991 164.364 163.478 161.873 163.478 158.8C163.478 155.727 160.991 153.236 157.923 153.236C154.855 153.236 152.367 155.727 152.367 158.8C152.367 161.873 154.855 164.364 157.923 164.364Z" fill="#006CFF"/>
<path d="M155.263 157.761C155.199 157.761 155.147 158.176 155.147 158.688C155.147 159.2 155.199 159.615 155.263 159.615H160.726C160.79 159.624 160.842 159.216 160.843 158.704C160.879 158.385 160.84 158.062 160.73 157.761H155.263V157.761Z" fill="#E6E6E6"/>
<path d="M157.923 194.037C160.991 194.037 163.478 191.546 163.478 188.473C163.478 185.4 160.991 182.909 157.923 182.909C154.855 182.909 152.367 185.4 152.367 188.473C152.367 191.546 154.855 194.037 157.923 194.037Z" fill="#006CFF"/>
<path d="M155.263 187.434C155.199 187.434 155.147 187.849 155.147 188.361C155.147 188.873 155.199 189.288 155.263 189.288H160.726C160.79 189.297 160.842 188.888 160.843 188.376C160.879 188.058 160.84 187.735 160.73 187.434H155.263V187.434Z" fill="#E6E6E6"/>
<path d="M176.591 60.4228L174.625 62.3916L191.089 78.8801L193.055 76.9114L176.591 60.4228Z" fill="white"/>
<path d="M193.055 62.3916L191.089 60.4229L174.625 76.9114L176.591 78.8802L193.055 62.3916Z" fill="white"/>
<path d="M60.3663 158.751C60.8479 158.58 61.2863 158.306 61.6506 157.947C62.0148 157.589 62.2961 157.154 62.4746 156.675C62.6531 156.195 62.7245 155.683 62.6838 155.173C62.643 154.663 62.491 154.168 62.2387 153.723L70.4279 144.373L64.0352 143.49L57.2387 152.504C56.5206 152.978 56.0011 153.7 55.7787 154.532C55.5563 155.364 55.6464 156.249 56.0319 157.019C56.4174 157.789 57.0716 158.391 57.8705 158.71C58.6693 159.029 59.5574 159.044 60.3663 158.751Z" fill="#9F616A"/>
<path d="M70.2426 241.611L64.5312 241.61L61.814 219.547L70.2436 219.547L70.2426 241.611Z" fill="#9F616A"/>
<path d="M71.6992 247.156L53.2828 247.155V246.922C53.283 245.018 54.0382 243.192 55.3825 241.846C56.7268 240.5 58.5499 239.743 60.451 239.743H60.4514L71.6996 239.744L71.6992 247.156Z" fill="#2F2E41"/>
<path d="M100.141 236.824L94.686 238.52L85.5582 218.256L93.6087 215.753L100.141 236.824Z" fill="#9F616A"/>
<path d="M103.174 241.686L85.5853 247.155L85.5162 246.932C84.9526 245.114 85.1332 243.146 86.0184 241.461C86.9036 239.776 88.4208 238.512 90.2363 237.948L90.2368 237.948L100.979 234.607L103.174 241.686Z" fill="#2F2E41"/>
<path d="M65.8687 139.89L57.4099 149.592L64.0321 150.189L65.8687 139.89Z" fill="#E6E6E6"/>
<path d="M62.5635 152.396C62.5635 152.396 59.6253 153.867 59.258 160.488C58.8907 167.109 60.36 184.398 60.36 184.398C60.36 184.398 58.891 192.122 60.36 199.111C61.8289 206.1 58.891 231.478 60.7273 231.478C62.5635 231.478 72.1125 232.582 72.4798 231.478C72.8472 230.375 73.2145 213.823 73.2145 213.823C73.2145 213.823 76.1527 205.363 73.2145 200.215C73.2145 200.215 83.4734 218.155 90.1089 231.847C91.5611 234.844 102.596 231.479 100.76 228.169C98.9235 224.858 94.5164 209.778 94.5164 209.778C94.5164 209.778 91.2108 198.743 85.3347 193.961L88.2729 170.42C88.2729 170.42 94.5167 154.604 90.8445 152.397C87.1724 150.19 62.5635 152.396 62.5635 152.396Z" fill="#2F2E41"/>
<path d="M73.5814 92.4401C78.8552 92.4401 83.1304 88.1584 83.1304 82.8768C83.1304 77.5951 78.8552 73.3135 73.5814 73.3135C68.3077 73.3135 64.0325 77.5951 64.0325 82.8768C64.0325 88.1584 68.3077 92.4401 73.5814 92.4401Z" fill="#A0616A"/>
<path d="M84.2324 93.1758L72.3613 100.164C72.3613 100.164 67.8158 102.728 66.1179 107.153C64.308 111.869 65.36 118.509 66.1179 120.027C67.5868 122.969 65.5018 130.326 65.5018 130.326L63.6655 147.245C63.6655 147.245 57.0547 153.498 62.1966 154.234C67.3384 154.97 76.52 153.866 82.0292 154.234C87.5383 154.602 93.7817 155.338 91.9455 151.658C90.1092 147.979 87.9056 145.405 90.1092 138.05C91.8336 132.294 91.7588 110.77 91.6449 101.681C91.6292 100.432 91.2949 99.209 90.6738 98.1267C90.0527 97.0443 89.1654 96.1391 88.0964 95.4972L84.2324 93.1758Z" fill="#E5E5E5"/>
<path opacity="0.1" d="M78.9085 104.763L80.0101 127.2L69.3324 148.856L67.5215 148.165L78.5398 127.935L78.9085 104.763Z" fill="black"/>
<path opacity="0.1" d="M91.027 131.982V129.406L78.5412 150.005L91.027 131.982Z" fill="black"/>
<path d="M66.8042 74.0183L65.2269 73.3862C65.2269 73.3862 68.5283 69.7468 73.12 70.0632L71.8282 68.639C71.8282 68.639 74.9854 67.3732 77.8559 70.6959C79.3648 72.4427 81.1103 74.4961 82.1998 76.8088H83.8904L83.185 78.3649L85.6544 79.9209L83.1197 79.6425C83.3597 80.9859 83.2776 82.3671 82.8799 83.6724L82.9494 84.9024C82.9494 84.9024 80.0098 80.3469 80.0098 79.7149V81.2974C80.0098 81.2974 78.431 79.8733 78.431 78.9238L77.5699 80.0316L77.1393 78.2914L71.8293 80.0316L72.6897 78.6068L69.3884 79.0815L70.6801 77.3413C70.6801 77.3413 66.9488 79.3982 66.8053 81.1391C66.6618 82.8799 64.7963 85.0948 64.7963 85.0948L63.9352 83.5123C63.9352 83.5123 62.6438 76.3919 66.8042 74.0183Z" fill="#2F2E41"/>
<path d="M72.9822 159.792C73.4259 159.538 73.8087 159.19 74.1036 158.772C74.3985 158.354 74.5983 157.877 74.6891 157.373C74.7798 156.87 74.7591 156.353 74.6286 155.858C74.4981 155.363 74.2609 154.903 73.9337 154.51L80.3358 143.854L73.8881 144.121L68.797 154.2C68.1744 154.794 67.791 155.596 67.7197 156.455C67.6483 157.313 67.8938 158.168 68.4096 158.857C68.9255 159.547 69.6759 160.022 70.5187 160.195C71.3615 160.367 72.238 160.223 72.9822 159.792Z" fill="#9F616A"/>
<path d="M87.5383 97.9589L90.2927 97.4072C90.2927 97.4072 98.5563 103.476 95.9853 115.614C93.4144 127.752 82.0292 146.144 82.0292 146.144C82.0292 146.144 79.4576 149.454 78.7237 150.189C77.9897 150.925 76.5201 150.189 77.2547 151.293C77.9894 152.397 76.1527 153.132 76.1527 153.132C76.1527 153.132 68.0727 153.132 68.8074 150.189C69.542 147.247 82.0292 126.279 82.0292 126.279L80.1929 106.785C80.1929 106.785 78.7233 97.2231 87.5383 97.9589Z" fill="#E5E5E5"/>
</g>
<defs>
<clipPath id="clip0_2230_43277">
<rect width="258" height="248" fill="white" transform="translate(29)"/>
</clipPath>
</defs>
</svg>
