<svg width="258" height="248" viewBox="0 0 258 248" fill="none" xmlns="http://www.w3.org/2000/svg">
<g clip-path="url(#clip0_2230_43279)">
<path d="M217.132 58.7802H215.776V21.5486C215.776 15.8335 213.51 10.3526 209.474 6.31143C205.439 2.27029 199.967 2.8109e-09 194.26 2.8109e-09H115.496C112.671 -4.57021e-05 109.873 0.557279 107.262 1.64015C104.652 2.72303 102.28 4.31024 100.282 6.31118C98.2837 8.31212 96.6988 10.6876 95.6175 13.302C94.5361 15.9163 93.9795 18.7184 93.9795 21.5482V225.804C93.9795 231.519 96.2464 237 100.281 241.041C104.317 245.082 109.789 247.353 115.496 247.353H194.259C199.966 247.353 205.438 245.082 209.473 241.041C213.508 237 215.775 231.519 215.775 225.804V85.2824H217.131L217.132 58.7802Z" fill="#3F3D56"/>
<path d="M211.363 20.1052V227.247C211.362 231.58 209.644 235.735 206.584 238.8C203.525 241.864 199.377 243.586 195.05 243.588H114.67C110.342 243.588 106.191 241.867 103.129 238.803C100.068 235.738 98.3476 231.581 98.3463 227.247V20.1052C98.3476 15.7706 100.068 11.614 103.129 8.54966C106.19 5.48529 110.341 3.76409 114.669 3.76465H124.42C123.941 4.94379 123.759 6.22265 123.889 7.48884C124.02 8.75503 124.458 9.96977 125.167 11.0263C125.876 12.0828 126.833 12.9488 127.955 13.5481C129.076 14.1474 130.327 14.4616 131.598 14.4632H177.424C178.695 14.4616 179.946 14.1474 181.068 13.5481C182.189 12.9488 183.146 12.0828 183.855 11.0263C184.564 9.96977 185.003 8.75503 185.133 7.48884C185.263 6.22265 185.081 4.94379 184.602 3.76465H195.047C199.373 3.76539 203.523 5.48679 206.582 8.5504C209.642 11.614 211.361 15.7691 211.363 20.1021V20.1052Z" fill="white"/>
<path d="M154.84 103.26C173.373 103.26 188.398 88.2131 188.398 69.6519C188.398 51.0907 173.373 36.0439 154.84 36.0439C136.306 36.0439 121.282 51.0907 121.282 69.6519C121.282 88.2131 136.306 103.26 154.84 103.26Z" fill="#006CFF"/>
<path d="M191.439 139.421H120.012C119.661 139.42 119.325 139.281 119.077 139.032C118.829 138.784 118.689 138.447 118.689 138.096V120.352C118.69 120.001 118.829 119.664 119.077 119.416C119.325 119.168 119.661 119.028 120.012 119.027H191.439C191.789 119.028 192.125 119.168 192.373 119.416C192.621 119.664 192.761 120.001 192.761 120.352V138.096C192.761 138.448 192.621 138.784 192.373 139.033C192.125 139.281 191.789 139.421 191.439 139.421V139.421ZM120.012 119.557C119.801 119.557 119.599 119.641 119.451 119.79C119.302 119.939 119.218 120.141 119.218 120.352V138.096C119.218 138.307 119.302 138.509 119.451 138.658C119.599 138.807 119.801 138.891 120.012 138.891H191.439C191.649 138.891 191.851 138.807 192 138.658C192.148 138.509 192.232 138.307 192.232 138.096V120.352C192.232 120.141 192.148 119.939 192 119.79C191.851 119.641 191.649 119.557 191.439 119.557H120.012Z" fill="#E6E6E6"/>
<path d="M142.101 125.418C141.855 125.418 141.62 125.516 141.446 125.69C141.273 125.863 141.175 126.099 141.175 126.345C141.175 126.591 141.273 126.827 141.446 127.001C141.62 127.175 141.855 127.273 142.101 127.273H185.75C185.996 127.282 186.235 127.193 186.415 127.026C186.595 126.859 186.702 126.627 186.711 126.381C186.721 126.136 186.632 125.896 186.465 125.716C186.299 125.535 186.067 125.428 185.821 125.419C185.808 125.418 185.794 125.418 185.781 125.418H142.101L142.101 125.418Z" fill="#E6E6E6"/>
<path d="M142.101 130.981C141.855 130.981 141.62 131.079 141.446 131.253C141.273 131.427 141.175 131.663 141.175 131.909C141.175 132.155 141.273 132.391 141.446 132.565C141.62 132.738 141.855 132.836 142.101 132.836H185.75C185.996 132.846 186.235 132.757 186.415 132.59C186.595 132.423 186.702 132.191 186.711 131.945C186.721 131.699 186.632 131.46 186.465 131.279C186.299 131.099 186.067 130.992 185.821 130.982C185.808 130.982 185.794 130.982 185.781 130.982H142.101L142.101 130.981Z" fill="#E6E6E6"/>
<path d="M191.439 168.997H120.012C119.661 168.997 119.325 168.857 119.077 168.609C118.829 168.36 118.689 168.024 118.689 167.672V149.928C118.69 149.577 118.829 149.24 119.077 148.992C119.325 148.744 119.661 148.604 120.012 148.604H191.439C191.789 148.604 192.125 148.744 192.373 148.992C192.621 149.24 192.761 149.577 192.761 149.928V167.673C192.761 168.024 192.621 168.36 192.373 168.609C192.125 168.857 191.789 168.996 191.439 168.997ZM120.012 149.133C119.801 149.133 119.599 149.217 119.451 149.366C119.302 149.515 119.218 149.717 119.218 149.928V167.673C119.218 167.883 119.302 168.086 119.451 168.235C119.599 168.384 119.801 168.467 120.012 168.468H191.439C191.649 168.467 191.851 168.384 192 168.235C192.148 168.086 192.232 167.883 192.232 167.673V149.928C192.232 149.717 192.148 149.515 192 149.366C191.851 149.217 191.649 149.133 191.439 149.133H120.012Z" fill="#E6E6E6"/>
<path d="M142.101 155.09C141.855 155.09 141.62 155.188 141.446 155.361C141.273 155.535 141.175 155.771 141.175 156.017C141.175 156.263 141.273 156.499 141.446 156.673C141.62 156.847 141.855 156.945 142.101 156.945H185.75C185.993 156.943 186.225 156.847 186.397 156.676C186.569 156.506 186.667 156.275 186.671 156.032C186.675 155.79 186.584 155.555 186.418 155.379C186.251 155.203 186.023 155.099 185.781 155.09H142.101V155.09Z" fill="#E6E6E6"/>
<path d="M142.101 160.654C141.855 160.654 141.62 160.752 141.446 160.926C141.273 161.1 141.175 161.336 141.175 161.582C141.175 161.828 141.273 162.063 141.446 162.237C141.62 162.411 141.855 162.509 142.101 162.509H185.75C185.993 162.508 186.225 162.411 186.397 162.241C186.569 162.07 186.667 161.839 186.671 161.597C186.675 161.354 186.584 161.12 186.418 160.944C186.251 160.768 186.023 160.664 185.781 160.655H142.101V160.654Z" fill="#E6E6E6"/>
<path d="M191.439 198.67H120.012C119.661 198.669 119.325 198.53 119.077 198.281C118.829 198.033 118.689 197.696 118.689 197.345V179.601C118.69 179.25 118.829 178.913 119.077 178.665C119.325 178.417 119.661 178.277 120.012 178.276H191.439C191.789 178.277 192.125 178.417 192.373 178.665C192.621 178.913 192.761 179.25 192.761 179.601V197.346C192.761 197.697 192.621 198.033 192.373 198.282C192.125 198.53 191.789 198.67 191.439 198.67V198.67ZM120.012 178.806C119.801 178.806 119.599 178.89 119.451 179.039C119.302 179.188 119.218 179.39 119.218 179.601V197.346C119.218 197.556 119.302 197.758 119.451 197.907C119.599 198.056 119.801 198.14 120.012 198.14H191.439C191.649 198.14 191.851 198.056 192 197.907C192.148 197.758 192.232 197.556 192.232 197.346V179.601C192.232 179.39 192.148 179.188 192 179.039C191.851 178.89 191.649 178.806 191.439 178.806H120.012Z" fill="#E6E6E6"/>
<path d="M142.101 184.764C141.855 184.764 141.62 184.861 141.446 185.035C141.273 185.209 141.175 185.445 141.175 185.691C141.175 185.937 141.273 186.173 141.446 186.347C141.62 186.521 141.855 186.618 142.101 186.618H185.75C185.872 186.623 185.993 186.604 186.107 186.561C186.221 186.519 186.326 186.455 186.415 186.372C186.505 186.289 186.577 186.19 186.627 186.079C186.678 185.968 186.707 185.849 186.711 185.727C186.716 185.605 186.697 185.484 186.655 185.37C186.612 185.255 186.548 185.151 186.465 185.061C186.383 184.972 186.283 184.9 186.173 184.849C186.062 184.798 185.943 184.769 185.821 184.765C185.808 184.764 185.794 184.764 185.781 184.764H142.101L142.101 184.764Z" fill="#E6E6E6"/>
<path d="M142.101 190.328C141.855 190.328 141.62 190.426 141.446 190.6C141.273 190.774 141.175 191.01 141.175 191.255C141.175 191.501 141.273 191.737 141.446 191.911C141.62 192.085 141.855 192.183 142.101 192.183H185.75C185.872 192.187 185.993 192.168 186.107 192.126C186.221 192.084 186.326 192.019 186.415 191.936C186.505 191.854 186.577 191.754 186.627 191.643C186.678 191.533 186.707 191.413 186.711 191.291C186.716 191.17 186.697 191.048 186.655 190.934C186.612 190.82 186.548 190.715 186.465 190.626C186.383 190.536 186.283 190.464 186.173 190.413C186.062 190.362 185.943 190.334 185.821 190.329C185.808 190.329 185.794 190.328 185.781 190.328H142.101L142.101 190.328Z" fill="#E6E6E6"/>
<path d="M257.327 248H0.673477C0.30129 248 0 247.837 0 247.636C0 247.435 0.301638 247.272 0.673477 247.272H257.327C257.698 247.272 258 247.435 258 247.636C258 247.837 257.699 248 257.327 248Z" fill="#E6E6E6"/>
<path d="M246.457 233.812C245.36 234.198 244.183 234.295 243.039 234.093C241.894 233.891 240.82 233.397 239.922 232.659C237.633 230.735 236.915 227.565 236.331 224.63L234.604 215.948L238.22 218.442C240.82 220.235 243.479 222.086 245.28 224.683C247.081 227.281 247.867 230.826 246.42 233.637" fill="#E6E6E6"/>
<path d="M245.899 244.928C246.354 241.607 246.822 238.243 246.503 234.887C246.219 231.906 245.311 228.995 243.462 226.608C242.481 225.343 241.287 224.26 239.934 223.406C239.581 223.183 239.256 223.743 239.608 223.965C241.949 225.447 243.76 227.635 244.779 230.214C245.905 233.082 246.086 236.209 245.891 239.255C245.773 241.098 245.525 242.928 245.274 244.756C245.255 244.839 245.267 244.926 245.309 245C245.351 245.073 245.419 245.129 245.5 245.154C245.583 245.176 245.671 245.165 245.745 245.123C245.82 245.08 245.875 245.01 245.898 244.928H245.899Z" fill="#F2F2F2"/>
<path d="M242.623 239.599C242.152 240.315 241.506 240.897 240.746 241.29C239.985 241.683 239.137 241.873 238.282 241.843C236.084 241.738 234.252 240.202 232.603 238.745L227.726 234.431L230.954 234.277C233.275 234.165 235.657 234.062 237.87 234.779C240.082 235.495 242.12 237.221 242.524 239.512" fill="#E6E6E6"/>
<path d="M247.185 246.836C244.995 242.953 242.452 238.638 237.911 237.259C236.649 236.876 235.325 236.74 234.011 236.855C233.597 236.89 233.7 237.53 234.115 237.495C236.318 237.312 238.516 237.894 240.34 239.144C242.095 240.341 243.461 242.004 244.618 243.768C245.327 244.847 245.961 245.975 246.596 247.1C246.797 247.459 247.39 247.2 247.185 246.836Z" fill="#F2F2F2"/>
<path d="M128.923 134.679C131.991 134.679 134.478 132.188 134.478 129.115C134.478 126.043 131.991 123.552 128.923 123.552C125.855 123.552 123.367 126.043 123.367 129.115C123.367 132.188 125.855 134.679 128.923 134.679Z" fill="#006CFF"/>
<path d="M126.263 128.076C126.199 128.076 126.147 128.491 126.147 129.003C126.147 129.515 126.199 129.931 126.263 129.931H131.726C131.79 129.939 131.842 129.531 131.843 129.019C131.879 128.7 131.84 128.378 131.73 128.077H126.263V128.076Z" fill="#E6E6E6"/>
<path d="M128.923 164.364C131.991 164.364 134.478 161.873 134.478 158.8C134.478 155.727 131.991 153.236 128.923 153.236C125.855 153.236 123.367 155.727 123.367 158.8C123.367 161.873 125.855 164.364 128.923 164.364Z" fill="#006CFF"/>
<path d="M126.263 157.761C126.199 157.761 126.147 158.176 126.147 158.688C126.147 159.2 126.199 159.615 126.263 159.615H131.726C131.79 159.624 131.842 159.216 131.843 158.704C131.879 158.385 131.84 158.062 131.73 157.761H126.263V157.761Z" fill="#E6E6E6"/>
<path d="M128.923 194.037C131.991 194.037 134.478 191.546 134.478 188.473C134.478 185.4 131.991 182.909 128.923 182.909C125.855 182.909 123.367 185.4 123.367 188.473C123.367 191.546 125.855 194.037 128.923 194.037Z" fill="#006CFF"/>
<path d="M126.263 187.434C126.199 187.434 126.147 187.849 126.147 188.361C126.147 188.873 126.199 189.288 126.263 189.288H131.726C131.79 189.297 131.842 188.888 131.843 188.376C131.879 188.058 131.84 187.735 131.73 187.434H126.263V187.434Z" fill="#E6E6E6"/>
<path d="M147.591 60.4228L145.625 62.3916L162.089 78.8801L164.055 76.9114L147.591 60.4228Z" fill="white"/>
<path d="M164.055 62.3916L162.089 60.4229L145.625 76.9114L147.591 78.8802L164.055 62.3916Z" fill="white"/>
<path d="M31.3663 158.751C31.8479 158.58 32.2863 158.306 32.6506 157.947C33.0148 157.589 33.2961 157.154 33.4746 156.675C33.6531 156.195 33.7245 155.683 33.6838 155.173C33.643 154.663 33.491 154.168 33.2387 153.723L41.4279 144.373L35.0352 143.49L28.2387 152.504C27.5206 152.978 27.0011 153.7 26.7787 154.532C26.5563 155.364 26.6464 156.249 27.0319 157.019C27.4174 157.789 28.0716 158.391 28.8705 158.71C29.6693 159.029 30.5574 159.044 31.3663 158.751Z" fill="#9F616A"/>
<path d="M41.2426 241.611L35.5312 241.61L32.814 219.547L41.2436 219.547L41.2426 241.611Z" fill="#9F616A"/>
<path d="M42.6992 247.156L24.2828 247.155V246.922C24.283 245.018 25.0382 243.192 26.3825 241.846C27.7268 240.5 29.5499 239.743 31.451 239.743H31.4514L42.6996 239.744L42.6992 247.156Z" fill="#2F2E41"/>
<path d="M71.1405 236.824L65.686 238.52L56.5582 218.256L64.6087 215.753L71.1405 236.824Z" fill="#9F616A"/>
<path d="M74.1735 241.686L56.5853 247.155L56.5162 246.932C55.9526 245.114 56.1332 243.146 57.0184 241.461C57.9036 239.776 59.4208 238.512 61.2363 237.948L61.2368 237.948L71.979 234.607L74.1735 241.686Z" fill="#2F2E41"/>
<path d="M36.8687 139.89L28.4099 149.592L35.0321 150.189L36.8687 139.89Z" fill="#E6E6E6"/>
<path d="M33.5635 152.396C33.5635 152.396 30.6253 153.867 30.258 160.488C29.8907 167.109 31.36 184.398 31.36 184.398C31.36 184.398 29.891 192.122 31.36 199.111C32.8289 206.1 29.891 231.478 31.7273 231.478C33.5635 231.478 43.1125 232.582 43.4798 231.478C43.8472 230.375 44.2145 213.823 44.2145 213.823C44.2145 213.823 47.1527 205.363 44.2145 200.215C44.2145 200.215 54.4734 218.155 61.1089 231.847C62.5611 234.844 73.5961 231.479 71.7598 228.169C69.9235 224.858 65.5164 209.778 65.5164 209.778C65.5164 209.778 62.2108 198.743 56.3347 193.961L59.2729 170.42C59.2729 170.42 65.5167 154.604 61.8445 152.397C58.1724 150.19 33.5635 152.396 33.5635 152.396Z" fill="#2F2E41"/>
<path d="M44.5814 92.4401C49.8552 92.4401 54.1304 88.1584 54.1304 82.8768C54.1304 77.5951 49.8552 73.3135 44.5814 73.3135C39.3077 73.3135 35.0325 77.5951 35.0325 82.8768C35.0325 88.1584 39.3077 92.4401 44.5814 92.4401Z" fill="#A0616A"/>
<path d="M55.2324 93.1758L43.3613 100.164C43.3613 100.164 38.8158 102.728 37.1179 107.153C35.308 111.869 36.36 118.509 37.1179 120.027C38.5868 122.969 36.5018 130.326 36.5018 130.326L34.6655 147.245C34.6655 147.245 28.0547 153.498 33.1966 154.234C38.3384 154.97 47.52 153.866 53.0292 154.234C58.5383 154.602 64.7817 155.338 62.9455 151.658C61.1092 147.979 58.9056 145.405 61.1092 138.05C62.8336 132.294 62.7588 110.77 62.6449 101.681C62.6292 100.432 62.2949 99.209 61.6738 98.1267C61.0527 97.0443 60.1654 96.1391 59.0964 95.4972L55.2324 93.1758Z" fill="#E5E5E5"/>
<path opacity="0.1" d="M49.9085 104.763L51.0101 127.2L40.3324 148.856L38.5215 148.165L49.5398 127.935L49.9085 104.763Z" fill="black"/>
<path opacity="0.1" d="M62.027 131.982V129.406L49.5412 150.005L62.027 131.982Z" fill="black"/>
<path d="M37.8042 74.0183L36.2269 73.3862C36.2269 73.3862 39.5283 69.7468 44.12 70.0632L42.8282 68.639C42.8282 68.639 45.9854 67.3732 48.8559 70.6959C50.3648 72.4427 52.1103 74.4961 53.1998 76.8088H54.8904L54.185 78.3649L56.6544 79.9209L54.1197 79.6425C54.3597 80.9859 54.2776 82.3671 53.8799 83.6724L53.9494 84.9024C53.9494 84.9024 51.0098 80.3469 51.0098 79.7149V81.2974C51.0098 81.2974 49.431 79.8733 49.431 78.9238L48.5699 80.0316L48.1393 78.2914L42.8293 80.0316L43.6897 78.6068L40.3884 79.0815L41.6801 77.3413C41.6801 77.3413 37.9488 79.3982 37.8053 81.1391C37.6618 82.8799 35.7963 85.0948 35.7963 85.0948L34.9352 83.5123C34.9352 83.5123 33.6438 76.3919 37.8042 74.0183Z" fill="#2F2E41"/>
<path d="M43.9822 159.792C44.4259 159.538 44.8087 159.19 45.1036 158.772C45.3985 158.354 45.5983 157.877 45.6891 157.373C45.7798 156.87 45.7591 156.353 45.6286 155.858C45.4981 155.363 45.2609 154.903 44.9337 154.51L51.3358 143.854L44.8881 144.121L39.797 154.2C39.1744 154.794 38.791 155.596 38.7197 156.455C38.6483 157.313 38.8938 158.168 39.4096 158.857C39.9255 159.547 40.6759 160.022 41.5187 160.195C42.3615 160.367 43.238 160.223 43.9822 159.792Z" fill="#9F616A"/>
<path d="M58.5383 97.9589L61.2927 97.4072C61.2927 97.4072 69.5563 103.476 66.9853 115.614C64.4144 127.752 53.0292 146.144 53.0292 146.144C53.0292 146.144 50.4576 149.454 49.7237 150.189C48.9897 150.925 47.5201 150.189 48.2547 151.293C48.9894 152.397 47.1527 153.132 47.1527 153.132C47.1527 153.132 39.0727 153.132 39.8074 150.189C40.542 147.247 53.0292 126.279 53.0292 126.279L51.1929 106.785C51.1929 106.785 49.7233 97.2231 58.5383 97.9589Z" fill="#E5E5E5"/>
</g>
<defs>
<clipPath id="clip0_2230_43279">
<rect width="258" height="248" fill="white"/>
</clipPath>
</defs>
</svg>
