<svg width="40" height="40" viewBox="0 0 40 40" fill="none" xmlns="http://www.w3.org/2000/svg">
<circle cx="20" cy="20" r="20" fill="#E6F0FF"/>
<path d="M14 14.2129C12.8954 14.2129 12 15.1083 12 16.2129V20.2129C12 21.3175 12.8954 22.2129 14 22.2129L14 16.2129H24C24 15.1083 23.1046 14.2129 22 14.2129H14Z" fill="#004DB5"/>
<path fill-rule="evenodd" clip-rule="evenodd" d="M16 20.2129C16 19.1083 16.8954 18.2129 18 18.2129H26C27.1046 18.2129 28 19.1083 28 20.2129V24.2129C28 25.3175 27.1046 26.2129 26 26.2129H18C16.8954 26.2129 16 25.3175 16 24.2129V20.2129ZM22 24.2129C23.1046 24.2129 24 23.3175 24 22.2129C24 21.1083 23.1046 20.2129 22 20.2129C20.8954 20.2129 20 21.1083 20 22.2129C20 23.3175 20.8954 24.2129 22 24.2129Z" fill="#004DB5"/>
</svg>
