<svg width="40" height="40" viewBox="0 0 40 40" fill="none" xmlns="http://www.w3.org/2000/svg">
<circle cx="20" cy="20" r="20" fill="#E6F0FF"/>
<path d="M28 13C28 12.6534 27.8205 12.3316 27.5257 12.1494C27.2309 11.9671 26.8628 11.9506 26.5528 12.1056L18.7639 16H15C13.3431 16 12 17.3431 12 19C12 20.6569 13.3431 22 15 22H15.2792L17.0513 27.3162C17.1874 27.7246 17.5696 28 18 28H19C19.5523 28 20 27.5523 20 27V22.618L26.5528 25.8944C26.8628 26.0494 27.2309 26.0329 27.5257 25.8507C27.8205 25.6684 28 25.3466 28 25V13Z" fill="#004DB5"/>
</svg>
