<svg width="40" height="40" viewBox="0 0 40 40" fill="none" xmlns="http://www.w3.org/2000/svg">
<circle cx="20" cy="20" r="20" fill="#E6F0FF"/>
<path fill-rule="evenodd" clip-rule="evenodd" d="M13 14C13 13.4477 13.4477 13 14 13H18C18.5523 13 19 13.4477 19 14C19 14.5523 18.5523 15 18 15H16.4142L18.7071 17.2929C19.0976 17.6834 19.0976 18.3166 18.7071 18.7071C18.3166 19.0976 17.6834 19.0976 17.2929 18.7071L15 16.4142V18C15 18.5523 14.5523 19 14 19C13.4477 19 13 18.5523 13 18V14ZM22 15C21.4477 15 21 14.5523 21 14C21 13.4477 21.4477 13 22 13H26C26.5523 13 27 13.4477 27 14V18C27 18.5523 26.5523 19 26 19C25.4477 19 25 18.5523 25 18V16.4142L22.7071 18.7071C22.3166 19.0976 21.6834 19.0976 21.2929 18.7071C20.9024 18.3166 20.9024 17.6834 21.2929 17.2929L23.5858 15H22ZM13 22C13 21.4477 13.4477 21 14 21C14.5523 21 15 21.4477 15 22V23.5858L17.2929 21.2929C17.6834 20.9024 18.3166 20.9024 18.7071 21.2929C19.0976 21.6834 19.0976 22.3166 18.7071 22.7071L16.4142 25H18C18.5523 25 19 25.4477 19 26C19 26.5523 18.5523 27 18 27H14C13.4477 27 13 26.5523 13 26V22ZM26 21C26.5523 21 27 21.4477 27 22V26C27 26.5523 26.5523 27 26 27H22C21.4477 27 21 26.5523 21 26C21 25.4477 21.4477 25 22 25H23.5858L21.2929 22.7071C20.9024 22.3166 20.9024 21.6834 21.2929 21.2929C21.6834 20.9024 22.3166 20.9024 22.7071 21.2929L25 23.5858V22C25 21.4477 25.4477 21 26 21Z" fill="#004DB5"/>
</svg>
