<svg width="40" height="40" viewBox="0 0 40 40" fill="none" xmlns="http://www.w3.org/2000/svg">
<circle cx="20" cy="20" r="20" fill="#E6F0FF"/>
<path fill-rule="evenodd" clip-rule="evenodd" d="M20 10C17.3941 12.2792 13.968 13.6813 10.2076 13.7311C10.0711 14.5261 10 15.3427 10 16.1756C10 22.558 14.174 27.9877 20 30C25.826 27.9877 30 22.558 30 16.1756C30 15.3427 29.9289 14.5261 29.7924 13.7311C26.032 13.6813 22.6059 12.2792 20 10ZM21.25 24.7264C21.25 25.401 20.6904 25.9479 20 25.9479C19.3096 25.9479 18.75 25.401 18.75 24.7264C18.75 24.0517 19.3096 23.5048 20 23.5048C20.6904 23.5048 21.25 24.0517 21.25 24.7264ZM21.25 16.1756C21.25 15.5009 20.6904 14.954 20 14.954C19.3096 14.954 18.75 15.5009 18.75 16.1756V19.8402C18.75 20.5148 19.3096 21.0617 20 21.0617C20.6904 21.0617 21.25 20.5148 21.25 19.8402V16.1756Z" fill="#004DB5"/>
</svg>
