<svg width="201" height="200" viewBox="0 0 201 200" fill="none" xmlns="http://www.w3.org/2000/svg">
<path d="M199.345 115.157C202.082 97.3047 199.934 79.0447 193.128 62.3157C186.322 45.5867 175.112 31.0131 160.69 20.1426C146.267 9.27204 129.169 2.51036 111.213 0.575571C93.2563 -1.35922 75.1109 1.6051 58.7036 9.15375C42.2962 16.7024 28.2395 28.5536 18.0261 43.4488C7.8126 58.344 1.82372 75.7272 0.695357 93.7524C-0.433003 111.778 3.34129 129.772 11.6174 145.825C19.8936 161.877 32.3626 175.389 47.7005 184.925L63.5739 159.393C52.8472 152.724 44.1268 143.275 38.3388 132.048C32.5507 120.821 29.9111 108.237 30.7003 95.6307C31.4894 83.0245 35.6778 70.8673 42.8207 60.4502C49.9636 50.033 59.7944 41.7447 71.2691 36.4655C82.7438 31.1862 95.434 29.1131 107.992 30.4662C120.55 31.8193 132.508 36.5482 142.594 44.1507C152.681 51.7531 160.521 61.9453 165.28 73.645C170.04 85.3447 171.543 98.115 169.628 110.6L199.345 115.157Z" fill="#76C86F"/>
<path d="M46.8578 184.479C60.7107 193.072 76.4542 198.147 92.7174 199.265C108.981 200.382 125.27 197.506 140.168 190.888L127.963 163.413C117.544 168.042 106.151 170.053 94.7774 169.272C83.4036 168.49 72.3931 164.94 62.7049 158.931L46.8578 184.479Z" fill="#FFCE54"/>
<path d="M139.563 190.407C155.291 183.683 169.032 173.038 179.471 159.488C189.911 145.939 196.7 129.938 199.19 113.015L169.626 108.664C167.88 120.53 163.119 131.749 155.799 141.25C148.479 150.751 138.845 158.215 127.817 162.929L139.563 190.407Z" fill="#FF7589"/>
<path d="M71.976 101L79.304 83.72H69.864V80.392H84.04V83.048L76.456 101H71.976ZM95.4335 101.832C93.1722 101.832 91.3588 101.405 89.9935 100.552C88.6282 99.6987 87.6362 98.4613 87.0175 96.84C86.4202 95.1973 86.1215 93.2347 86.1215 90.952C86.1215 88.648 86.4202 86.6853 87.0175 85.064C87.6362 83.4427 88.6282 82.2053 89.9935 81.352C91.3588 80.4987 93.1722 80.072 95.4335 80.072C97.6948 80.072 99.5082 80.4987 100.874 81.352C102.239 82.2053 103.22 83.4427 103.818 85.064C104.436 86.6853 104.746 88.648 104.746 90.952C104.746 93.2347 104.436 95.1973 103.818 96.84C103.22 98.4613 102.239 99.6987 100.874 100.552C99.5082 101.405 97.6948 101.832 95.4335 101.832ZM95.4335 98.12C97.2895 98.12 98.5695 97.5013 99.2735 96.264C99.9988 95.0267 100.362 93.256 100.362 90.952C100.362 88.648 99.9988 86.8773 99.2735 85.64C98.5695 84.4027 97.2895 83.784 95.4335 83.784C93.5775 83.784 92.2868 84.4027 91.5615 85.64C90.8575 86.8773 90.5055 88.648 90.5055 90.952C90.5055 93.256 90.8575 95.0267 91.5615 96.264C92.2868 97.5013 93.5775 98.12 95.4335 98.12ZM111.762 89.64C110.226 89.64 109.063 89.2133 108.274 88.36C107.506 87.5067 107.122 86.408 107.122 85.064C107.122 83.528 107.506 82.312 108.274 81.416C109.063 80.52 110.226 80.072 111.762 80.072C113.298 80.072 114.45 80.52 115.218 81.416C116.007 82.312 116.402 83.528 116.402 85.064C116.402 86.408 116.007 87.5067 115.218 88.36C114.45 89.2133 113.298 89.64 111.762 89.64ZM110.322 101L121.17 80.392H125.266L114.385 101H110.322ZM111.762 87.176C112.508 87.176 113.042 86.984 113.362 86.6C113.703 86.1947 113.874 85.6613 113.874 85C113.874 84.1467 113.703 83.528 113.362 83.144C113.02 82.76 112.487 82.568 111.762 82.568C111.036 82.568 110.503 82.76 110.161 83.144C109.842 83.528 109.682 84.1467 109.682 85C109.682 85.6613 109.842 86.1947 110.161 86.6C110.503 86.984 111.036 87.176 111.762 87.176ZM123.858 101.32C122.322 101.32 121.159 100.893 120.37 100.04C119.602 99.1867 119.218 98.088 119.218 96.744C119.218 95.208 119.602 93.992 120.37 93.096C121.159 92.2 122.322 91.752 123.858 91.752C125.394 91.752 126.546 92.2 127.314 93.096C128.103 93.992 128.498 95.208 128.498 96.744C128.498 98.088 128.103 99.1867 127.314 100.04C126.546 100.893 125.394 101.32 123.858 101.32ZM123.858 98.856C124.604 98.856 125.138 98.664 125.458 98.28C125.799 97.8747 125.97 97.3413 125.97 96.68C125.97 95.8267 125.799 95.208 125.458 94.824C125.116 94.44 124.583 94.248 123.858 94.248C123.132 94.248 122.599 94.44 122.258 94.824C121.938 95.208 121.778 95.8267 121.778 96.68C121.778 97.3413 121.938 97.8747 122.258 98.28C122.599 98.664 123.132 98.856 123.858 98.856Z" fill="#1D1D1D"/>
<path d="M87.86 120.46H84.92V118.76H87.86V115.84H89.6V118.76H92.54V120.46H89.6V123.28H87.86V120.46ZM94.3131 115.52H96.5731L99.2331 122.88L101.893 115.52H104.133L100.413 125H98.0531L94.3131 115.52ZM110.08 125.2C108.4 125.2 107.113 124.787 106.22 123.96C105.326 123.133 104.88 121.893 104.88 120.24C104.88 118.68 105.273 117.473 106.06 116.62C106.846 115.753 108.013 115.32 109.56 115.32C110.96 115.32 112.033 115.687 112.78 116.42C113.526 117.153 113.9 118.133 113.9 119.36V121.12H106.96C107.066 122.027 107.393 122.66 107.94 123.02C108.486 123.367 109.346 123.54 110.52 123.54C111 123.54 111.486 123.493 111.98 123.4C112.486 123.307 112.933 123.187 113.32 123.04V124.64C112.48 125.013 111.4 125.2 110.08 125.2ZM111.98 119.7V119.04C111.98 118.36 111.793 117.847 111.42 117.5C111.046 117.14 110.446 116.96 109.62 116.96C108.633 116.96 107.94 117.173 107.54 117.6C107.153 118.027 106.96 118.727 106.96 119.7H111.98Z" fill="#6A6A6A"/>
</svg>
