<svg width="18" height="20" viewBox="0 0 18 20" fill="none" xmlns="http://www.w3.org/2000/svg">
<path d="M15 19.5C14.3 19.5 13.7083 19.2583 13.225 18.775C12.7417 18.2917 12.5 17.7 12.5 17C12.5 16.8667 12.5127 16.729 12.538 16.587C12.5627 16.4457 12.6 16.3083 12.65 16.175L4.9 11.625C4.65 11.8917 4.36267 12.104 4.038 12.262C3.71267 12.4207 3.36667 12.5 3 12.5C2.3 12.5 1.70833 12.2583 1.225 11.775C0.741667 11.2917 0.5 10.7 0.5 10C0.5 9.3 0.741667 8.70833 1.225 8.225C1.70833 7.74167 2.3 7.5 3 7.5C3.36667 7.5 3.71267 7.57933 4.038 7.738C4.36267 7.896 4.65 8.10833 4.9 8.375L12.65 3.825C12.6 3.69167 12.5627 3.554 12.538 3.412C12.5127 3.27067 12.5 3.13333 12.5 3C12.5 2.3 12.7417 1.70833 13.225 1.225C13.7083 0.741667 14.3 0.5 15 0.5C15.7 0.5 16.2917 0.741667 16.775 1.225C17.2583 1.70833 17.5 2.3 17.5 3C17.5 3.7 17.2583 4.29167 16.775 4.775C16.2917 5.25833 15.7 5.5 15 5.5C14.6333 5.5 14.2873 5.42067 13.962 5.262C13.6373 5.104 13.35 4.89167 13.1 4.625L5.35 9.175C5.4 9.30833 5.43767 9.44567 5.463 9.587C5.48767 9.729 5.5 9.86667 5.5 10C5.5 10.1333 5.48767 10.2707 5.463 10.412C5.43767 10.554 5.4 10.6917 5.35 10.825L13.1 15.375C13.35 15.1083 13.6373 14.896 13.962 14.738C14.2873 14.5793 14.6333 14.5 15 14.5C15.7 14.5 16.2917 14.7417 16.775 15.225C17.2583 15.7083 17.5 16.3 17.5 17C17.5 17.7 17.2583 18.2917 16.775 18.775C16.2917 19.2583 15.7 19.5 15 19.5ZM15 4.5C15.4167 4.5 15.7707 4.354 16.062 4.062C16.354 3.77067 16.5 3.41667 16.5 3C16.5 2.58333 16.354 2.22933 16.062 1.938C15.7707 1.646 15.4167 1.5 15 1.5C14.5833 1.5 14.2293 1.646 13.938 1.938C13.646 2.22933 13.5 2.58333 13.5 3C13.5 3.41667 13.646 3.77067 13.938 4.062C14.2293 4.354 14.5833 4.5 15 4.5ZM3 11.5C3.41667 11.5 3.77067 11.354 4.062 11.062C4.354 10.7707 4.5 10.4167 4.5 10C4.5 9.58333 4.354 9.22933 4.062 8.938C3.77067 8.646 3.41667 8.5 3 8.5C2.58333 8.5 2.22933 8.646 1.938 8.938C1.646 9.22933 1.5 9.58333 1.5 10C1.5 10.4167 1.646 10.7707 1.938 11.062C2.22933 11.354 2.58333 11.5 3 11.5ZM15 18.5C15.4167 18.5 15.7707 18.354 16.062 18.062C16.354 17.7707 16.5 17.4167 16.5 17C16.5 16.5833 16.354 16.2293 16.062 15.938C15.7707 15.646 15.4167 15.5 15 15.5C14.5833 15.5 14.2293 15.646 13.938 15.938C13.646 16.2293 13.5 16.5833 13.5 17C13.5 17.4167 13.646 17.7707 13.938 18.062C14.2293 18.354 14.5833 18.5 15 18.5Z" fill="#006CFF"/>
</svg>
