<svg width="136" height="135" viewBox="0 0 136 135" fill="none" xmlns="http://www.w3.org/2000/svg">
<path fill-rule="evenodd" clip-rule="evenodd" d="M83.3405 17.4971C83.3405 18.8706 83.565 19.9943 83.8394 19.9943C84.1137 19.9943 84.3382 18.8706 84.3382 17.4971C84.3382 16.1237 84.1137 15 83.8394 15C83.565 15 83.3405 16.1237 83.3405 17.4971ZM79.3495 17.9391C79.3495 18.5694 81.8658 20.1386 82.254 19.7505C82.4316 19.5723 82.0195 18.9974 81.3375 18.473C79.9786 17.4277 79.3495 17.2589 79.3495 17.9391ZM86.0813 18.9984C85.5834 19.5498 85.3225 20.1476 85.5021 20.3274C85.8663 20.6915 87.8303 19.0808 87.8303 18.4186C87.8303 17.6894 87.0227 17.9571 86.0813 18.9984ZM83.5899 24.5665C81.9292 25.4755 81.345 26.5737 81.345 28.7852C81.345 30.5427 81.6099 31.116 82.9389 32.2352C84.234 33.3265 84.8645 33.5252 86.3063 33.2955C90.2773 32.6632 91.7834 27.8043 88.7896 25.2827C87.1723 23.9198 85.2532 23.6556 83.5899 24.5665ZM48.4222 27.7888C43.6285 29.5328 39.7214 33.5028 38.3765 37.9961C37.8347 39.807 37.8237 39.813 35.4481 39.5848C32.1745 39.2696 28.3991 40.5941 26.5453 42.7077C24.5523 44.9806 23.8269 47.4642 24.0649 51.2049C24.3238 55.2718 26.0454 57.9002 29.6168 59.6822C32.0398 60.8908 32.5761 60.9512 41.658 61.0356C47.6604 61.0911 49.8764 61.2289 47.6714 61.4102C44.1793 61.6964 44.1793 61.6964 44.0471 75.999C43.9149 90.3015 43.9149 90.3015 40.555 90.5063C38.6628 90.6217 36.3326 91.1291 35.2211 91.667C32.5477 92.9615 29.6991 96.0025 28.6954 98.6335C27.9366 100.623 27.6922 100.829 25.7371 101.123C22.6656 101.584 19.3217 103.896 17.6854 106.692C16.5524 108.627 16.2945 109.669 16.2855 112.349C16.2731 116.196 17.4359 118.852 20.1962 121.278C23.0672 123.802 24.3099 123.951 40.9367 123.781C57.8473 123.608 58.1945 123.545 61.7076 120.028C64.2293 117.503 65.026 115.552 65.2795 111.28C65.5074 107.424 65.5074 107.424 71.3063 107.285C77.1046 107.144 77.1046 107.144 77.2553 104.522C77.406 101.904 77.409 101.9 79.0981 101.9C80.7903 101.9 80.7903 101.9 79.8524 104.023C77.8894 108.468 76.6946 114.011 76.6497 118.881C76.6058 123.625 76.6058 123.625 98.8054 123.764C111.015 123.84 121.512 123.779 122.133 123.628C123.26 123.354 123.26 123.354 123.13 100.016C123.001 76.6792 123.001 76.6792 121.255 76.5069C120.294 76.412 117.526 76.6028 115.103 76.9309C110.958 77.4918 110.634 77.4688 109.616 76.5413C107.817 74.9032 106.484 74.4318 103.651 74.4318C100.565 74.4318 98.2123 75.7033 96.5605 78.2624C95.7633 79.4979 95.1293 79.859 93.4047 80.0598C89.274 80.5403 86.6924 84.684 87.8473 88.9786C88.3791 90.9553 88.3337 91.1146 86.7458 92.8491C85.8348 93.8445 84.9204 94.8723 84.7139 95.133C84.5074 95.3942 84.3382 88.8202 84.3382 80.5248C84.3382 67.4508 84.438 65.4421 85.0865 65.4421C86.3352 65.4421 85.9561 64.7789 83.0886 61.9436C80.3423 59.2287 80.3423 59.2287 81.9038 58.0051C85.1474 55.464 86.7323 49.2956 85.2671 44.9152C83.3849 39.2866 76.5853 35.7612 70.7326 37.3793C68.8908 37.8882 68.8419 37.8657 68.146 36.1987C67.028 33.5207 63.1493 29.7206 60.2499 28.462C56.8331 26.9797 51.4837 26.6756 48.4222 27.7888ZM58.5547 28.7802C61.3938 29.7486 65.5633 33.3959 66.9562 36.1297C67.9828 38.1444 67.9828 38.1444 65.934 39.8485C64.8065 40.7854 63.8846 41.8711 63.8846 42.2602C63.8846 43.337 64.6768 43.1067 65.5468 41.7773C66.7352 39.9618 71.1357 37.9736 73.9653 37.9736C83.7845 37.9736 88.5372 49.8745 81.4204 56.6422C79.8584 58.1275 79.6653 58.1205 77.1046 56.4834C75.7377 55.6094 74.5375 55.5235 63.261 55.49C50.914 55.4536 50.914 55.4536 50.914 57.701C50.914 59.9484 50.914 59.9484 42.3085 59.9454C37.5758 59.9439 32.8455 59.7042 31.7969 59.413C27.1958 58.134 23.7556 52.4705 24.9349 48.116C26.6261 41.8706 32.9862 38.8062 38.7855 41.4421C41.2963 42.5833 43.8231 45.8681 44.2506 48.5475C44.4188 49.5988 44.752 50.4593 44.9915 50.4593C45.612 50.4593 45.5332 49.5024 44.6752 46.6102C43.9448 44.148 40.771 40.4708 39.3762 40.4708C38.4149 40.4708 39.3493 37.3988 41.1242 34.7219C44.9191 28.9994 52.0604 26.5647 58.5547 28.7802ZM94.4368 32.0589C93.0081 33.4893 94.2817 35.6982 96.3575 35.3901C97.872 35.1648 98.7146 33.7405 98.0042 32.6048C97.3333 31.532 95.2774 31.2174 94.4368 32.0589ZM88.0339 37.663C87.6303 38.7163 88.197 39.4719 89.3913 39.4719C90.1446 39.4719 90.3546 39.1937 90.2349 38.3532C90.0488 37.0477 88.4609 36.5498 88.0339 37.663ZM74.8597 60.8848C74.8597 64.8178 74.8597 64.8178 76.4187 65.1299C77.2763 65.3017 79.1844 65.4421 80.6591 65.4421C83.3405 65.4421 83.3405 65.4421 83.3405 81.3833C83.3405 95.6474 83.2487 97.4858 82.4675 98.8602C81.5945 100.395 81.5945 100.395 71.5433 100.399C61.4915 100.402 61.4915 100.402 58.6465 98.9037C57.0815 98.0796 55.2427 97.4054 54.5603 97.4054C53.8773 97.4054 52.8975 96.9 52.3827 96.2817C51.5032 95.2264 51.4453 93.9948 51.4294 76.0549C51.4129 56.9518 51.4129 56.9518 63.1363 56.9518C74.8597 56.9518 74.8597 56.9518 74.8597 60.8848ZM76.8552 60.9767C76.8552 62.6218 76.6327 63.9438 76.3563 63.9438C76.0745 63.9438 75.8575 62.5189 75.8575 60.6681C75.8575 58.6114 76.043 57.5072 76.3563 57.701C76.6307 57.8708 76.8552 59.3446 76.8552 60.9767ZM53.9072 58.9495C53.9072 59.2347 55.4038 59.449 57.3993 59.449C59.3948 59.449 60.8914 59.2347 60.8914 58.9495C60.8914 58.6644 59.3948 58.4501 57.3993 58.4501C55.4038 58.4501 53.9072 58.6644 53.9072 58.9495ZM53.9072 61.4467C53.9072 61.7558 56.5677 61.9461 60.8914 61.9461C65.2151 61.9461 67.8756 61.7558 67.8756 61.4467C67.8756 61.1375 65.2151 60.9472 60.8914 60.9472C56.5677 60.9472 53.9072 61.1375 53.9072 61.4467ZM50.914 78.2264C50.914 94.0073 50.914 94.0073 49.2927 92.93C48.4012 92.3372 47.0543 91.619 46.2995 91.3339C44.9276 90.815 44.9276 90.815 44.9276 76.6302C44.9276 62.4455 44.9276 62.4455 47.9208 62.4455C50.914 62.4455 50.914 62.4455 50.914 78.2264ZM53.9072 63.9438C53.9072 64.248 56.1521 64.4432 59.6442 64.4432C63.1363 64.4432 65.3812 64.248 65.3812 63.9438C65.3812 63.6397 63.1363 63.4444 59.6442 63.4444C56.1521 63.4444 53.9072 63.6397 53.9072 63.9438ZM53.9072 66.9404C53.9072 67.256 57.3993 67.4398 63.3857 67.4398C69.3722 67.4398 72.8643 67.256 72.8643 66.9404C72.8643 66.6247 69.3722 66.4409 63.3857 66.4409C57.3993 66.4409 53.9072 66.6247 53.9072 66.9404ZM63.945 73.2881C62.0478 74.2235 60.5467 76.376 60.0852 78.8232C59.3354 82.7937 63.4581 88.3213 67.5094 88.7783C71.9917 89.2842 75.3531 86.3261 75.3566 81.8727C75.3626 74.663 69.7378 70.4314 63.945 73.2881ZM13.8256 73.8469C13.3402 74.3838 13 75.6034 13 76.807C13 78.4237 13.2764 79.0719 14.3145 79.889C15.0374 80.4584 16.1294 80.9243 16.7415 80.9243C17.3536 80.9243 18.4457 80.4584 19.1685 79.889C20.8457 78.5685 21.0108 75.4596 19.4853 73.9323C18.1813 72.6268 14.9725 72.5779 13.8256 73.8469ZM69.1227 74.1806C68.8484 74.2739 67.7908 74.4892 66.7726 74.6595C65.6716 74.8438 64.3067 75.5844 63.4052 76.4869C62.5716 77.3214 61.8891 77.8044 61.8891 77.5602C61.8891 76.9938 64.3945 74.643 65.3812 74.2839C65.7928 74.1341 66.9152 74.0112 67.8756 74.0112C68.8359 74.0112 69.3971 74.0877 69.1227 74.1806ZM107.267 76.3496C109.219 77.3974 109.801 78.4242 108.45 78.4332C107.947 78.4367 105.816 79.1913 103.714 80.1102C99.8915 81.7808 99.8915 81.7808 98.3569 80.8079C97.1736 80.0578 96.9247 79.6448 97.2689 79.001C98.998 75.7667 103.807 74.4917 107.267 76.3496ZM61.723 79.2597C61.5399 79.4425 61.3903 79.2927 61.3903 78.9266C61.3903 78.5605 61.5399 78.4107 61.723 78.5935C61.9056 78.7768 61.9056 79.0764 61.723 79.2597ZM24.1557 80.6746C23.7601 81.7054 24.2964 82.922 25.1455 82.922C26.1442 82.922 27.133 81.5746 26.7902 80.6811C26.4166 79.7052 24.5289 79.7007 24.1557 80.6746ZM97.3413 81.6904C98.8204 82.4561 98.8204 82.4561 95.8556 84.5621C94.2248 85.7203 92.0707 87.326 91.069 88.131C89.5744 89.3312 89.1663 89.466 88.7956 88.8802C87.6517 87.0698 89.0421 83.3855 91.4172 81.9361C93.3917 80.7305 95.3323 80.6501 97.3413 81.6904ZM18.6806 84.1371C18.1453 85.5345 18.8812 86.4964 20.3553 86.3266C21.4473 86.2008 21.7302 85.9111 21.7302 84.9197C21.7302 83.9284 21.4473 83.6387 20.3553 83.5128C19.4589 83.4095 18.8762 83.6267 18.6806 84.1371ZM14.9955 86.9174C14.9955 87.1921 15.6689 87.4169 16.4921 87.4169C17.3152 87.4169 17.9887 87.1921 17.9887 86.9174C17.9887 86.6427 17.3152 86.418 16.4921 86.418C15.6689 86.418 14.9955 86.6427 14.9955 86.9174ZM18.06 88.8163C17.7118 89.449 17.5068 90.348 17.6051 90.814C17.7532 91.5211 17.8884 91.4707 18.4162 90.5123C18.7644 89.8795 18.9695 88.9806 18.8712 88.5146C18.723 87.8074 18.5878 87.8578 18.06 88.8163ZM21.4808 88.7743C21.4808 90.2156 21.9821 91.4123 22.5858 91.4123C22.8806 91.4123 22.9464 90.8484 22.7469 90.0388C22.2959 88.2119 21.4808 87.3979 21.4808 88.7743ZM46.7096 92.8112C47.7876 93.367 49.4429 94.6281 50.3882 95.6134C52.1073 97.4054 52.1073 97.4054 50.5738 97.4054C47.174 97.4054 42.2861 100.77 40.4493 104.375C39.2959 106.638 38.6005 110.89 39.3832 110.89C39.689 110.89 39.9409 110.272 39.9439 109.516C39.9514 107.417 42.0696 103.323 44.0476 101.584C47.6868 98.3848 53.7396 97.4848 57.6927 99.5549C63.1637 102.421 66.0018 109.605 63.7629 114.922C62.7188 117.402 60.1192 120.234 57.6962 121.532C55.7506 122.574 54.9633 122.634 41.1861 122.781C24.5628 122.958 23.3495 122.777 20.2401 119.659C15.9518 115.36 15.9952 109.755 20.3518 105.279C22.058 103.526 23.2827 102.92 26.6066 102.182C27.8877 101.898 27.9676 101.969 27.6752 103.136C27.4797 103.916 27.57 104.397 27.9122 104.397C28.216 104.397 28.4649 103.956 28.4649 103.417C28.4649 100.047 32.0398 94.6416 35.4202 92.9011C38.817 91.1516 43.4205 91.1151 46.7096 92.8112ZM73.3631 93.41C73.3631 93.7036 75.1092 93.9094 77.6035 93.9094C80.0979 93.9094 81.8439 93.7036 81.8439 93.41C81.8439 93.1163 80.0979 92.9106 77.6035 92.9106C75.1092 92.9106 73.3631 93.1163 73.3631 93.41ZM66.379 95.9071C66.379 96.2188 69.2889 96.4065 74.1114 96.4065C78.934 96.4065 81.8439 96.2188 81.8439 95.9071C81.8439 95.5955 78.934 95.4077 74.1114 95.4077C69.2889 95.4077 66.379 95.5955 66.379 95.9071ZM69.3722 98.4042C69.3722 98.7104 71.7832 98.9037 75.608 98.9037C79.4329 98.9037 81.8439 98.7104 81.8439 98.4042C81.8439 98.0981 79.4329 97.9048 75.608 97.9048C71.7832 97.9048 69.3722 98.0981 69.3722 98.4042ZM76.3563 104.148C76.3563 106.395 76.3563 106.395 70.7116 106.395C64.5845 106.395 65.0824 106.66 62.9832 102.275C62.8844 102.069 65.8532 101.9 69.5802 101.9C76.3563 101.9 76.3563 101.9 76.3563 104.148Z" fill="white"/>
<path fill-rule="evenodd" clip-rule="evenodd" d="M83.3405 17.4971C83.3405 18.8706 83.565 19.9943 83.8394 19.9943C84.1137 19.9943 84.3382 18.8706 84.3382 17.4971C84.3382 16.1237 84.1137 15 83.8394 15C83.565 15 83.3405 16.1237 83.3405 17.4971ZM79.3495 17.9391C79.3495 18.5694 81.8658 20.1386 82.254 19.7505C82.4316 19.5723 82.0195 18.9974 81.3375 18.473C79.9786 17.4277 79.3495 17.2589 79.3495 17.9391ZM86.0813 18.9984C85.5834 19.5498 85.3225 20.1476 85.5021 20.3274C85.8663 20.6915 87.8303 19.0808 87.8303 18.4186C87.8303 17.6894 87.0227 17.9571 86.0813 18.9984ZM83.5899 24.5665C81.9292 25.4755 81.345 26.5737 81.345 28.7852C81.345 30.5427 81.6099 31.116 82.9389 32.2352C84.234 33.3265 84.8645 33.5252 86.3063 33.2955C90.2773 32.6632 91.7834 27.8043 88.7896 25.2827C87.1723 23.9198 85.2532 23.6556 83.5899 24.5665ZM48.4222 27.7888C43.6285 29.5328 39.7214 33.5028 38.3765 37.9961C37.8347 39.807 37.8237 39.813 35.4481 39.5848C32.1745 39.2696 28.3991 40.5941 26.5453 42.7077C24.5523 44.9806 23.8269 47.4642 24.0649 51.2049C24.3238 55.2718 26.0454 57.9002 29.6168 59.6822C32.0398 60.8908 32.5761 60.9512 41.658 61.0356C47.6604 61.0911 49.8764 61.2289 47.6714 61.4102C44.1793 61.6964 44.1793 61.6964 44.0471 75.999C43.9149 90.3015 43.9149 90.3015 40.555 90.5063C38.6628 90.6217 36.3326 91.1291 35.2211 91.667C32.5477 92.9615 29.6991 96.0025 28.6954 98.6335C27.9366 100.623 27.6922 100.829 25.7371 101.123C22.6656 101.584 19.3217 103.896 17.6854 106.692C16.5524 108.627 16.2945 109.669 16.2855 112.349C16.2731 116.196 17.4359 118.852 20.1962 121.278C23.0672 123.802 24.3099 123.951 40.9367 123.781C57.8473 123.608 58.1945 123.545 61.7076 120.028C64.2293 117.503 65.026 115.552 65.2795 111.28C65.5074 107.424 65.5074 107.424 71.3063 107.285C77.1046 107.144 77.1046 107.144 77.2553 104.522C77.4055 101.913 77.4139 101.9 79.0727 101.9C80.7394 101.9 80.7394 101.9 79.3386 105.521C76.6008 112.599 75.3511 122.883 77.1455 123.572C77.5796 123.739 87.8787 123.875 100.032 123.875C118.093 123.875 122.233 123.751 122.695 123.193C123.102 122.702 123.224 116.1 123.13 99.5954C123.001 76.6792 123.001 76.6792 118.63 76.7821C116.226 76.8385 113.491 77.0972 112.552 77.3569C111.111 77.7555 110.702 77.673 109.939 76.8285C108.446 75.1769 106.489 74.4318 103.643 74.4318C100.566 74.4318 98.2103 75.7058 96.5605 78.2624C95.7633 79.4979 95.1293 79.859 93.4047 80.0598C89.274 80.5403 86.6924 84.684 87.8473 88.9786C88.3791 90.9553 88.3337 91.1146 86.7458 92.8491C85.8348 93.8445 84.9204 94.8723 84.7139 95.133C84.5074 95.3942 84.3382 88.8202 84.3382 80.5248C84.3382 67.4508 84.438 65.4421 85.0865 65.4421C86.3352 65.4421 85.9561 64.7789 83.0886 61.9436C80.3423 59.2287 80.3423 59.2287 81.9038 58.0051C85.1474 55.464 86.7323 49.2956 85.2671 44.9152C83.3849 39.2866 76.5853 35.7612 70.7326 37.3793C68.8908 37.8882 68.8419 37.8657 68.146 36.1987C67.028 33.5207 63.1493 29.7206 60.2499 28.462C56.8331 26.9797 51.4837 26.6756 48.4222 27.7888ZM58.5547 28.7802C61.3938 29.7486 65.5633 33.3959 66.9562 36.1297C67.9828 38.1444 67.9828 38.1444 65.934 39.8485C64.8065 40.7854 63.8846 41.8711 63.8846 42.2602C63.8846 43.337 64.6768 43.1067 65.5468 41.7773C66.7352 39.9618 71.1357 37.9736 73.9653 37.9736C83.7845 37.9736 88.5372 49.8745 81.4204 56.6422C79.8584 58.1275 79.6653 58.1205 77.1046 56.4834C75.7377 55.6094 74.5375 55.5235 63.261 55.49C50.914 55.4536 50.914 55.4536 50.914 57.701C50.914 59.9484 50.914 59.9484 42.3085 59.9454C37.5758 59.9439 32.8455 59.7042 31.7969 59.413C27.1958 58.134 23.7556 52.4705 24.9349 48.116C26.6261 41.8706 32.9862 38.8062 38.7855 41.4421C41.2963 42.5833 43.8231 45.8681 44.2506 48.5475C44.4188 49.5988 44.752 50.4593 44.9915 50.4593C45.612 50.4593 45.5332 49.5024 44.6752 46.6102C43.9448 44.148 40.771 40.4708 39.3762 40.4708C38.4149 40.4708 39.3493 37.3988 41.1242 34.7219C44.9191 28.9994 52.0604 26.5647 58.5547 28.7802ZM94.4368 32.0589C93.0081 33.4893 94.2817 35.6982 96.3575 35.3901C97.872 35.1648 98.7146 33.7405 98.0042 32.6048C97.3333 31.532 95.2774 31.2174 94.4368 32.0589ZM88.0339 37.663C87.6303 38.7163 88.197 39.4719 89.3913 39.4719C90.1446 39.4719 90.3546 39.1937 90.2349 38.3532C90.0488 37.0477 88.4609 36.5498 88.0339 37.663ZM74.8597 60.8848C74.8597 64.8178 74.8597 64.8178 76.4187 65.1299C77.2763 65.3017 79.1844 65.4421 80.6591 65.4421C83.3405 65.4421 83.3405 65.4421 83.3405 81.3833C83.3405 95.6474 83.2487 97.4858 82.4675 98.8602C81.5945 100.395 81.5945 100.395 71.5433 100.399C61.4915 100.402 61.4915 100.402 58.6465 98.9037C57.0815 98.0796 55.2427 97.4054 54.5603 97.4054C53.8773 97.4054 52.8975 96.9 52.3827 96.2817C51.5032 95.2264 51.4453 93.9948 51.4294 76.0549C51.4129 56.9518 51.4129 56.9518 63.1363 56.9518C74.8597 56.9518 74.8597 56.9518 74.8597 60.8848ZM76.8552 60.9767C76.8552 62.6218 76.6327 63.9438 76.3563 63.9438C76.0745 63.9438 75.8575 62.5189 75.8575 60.6681C75.8575 58.6114 76.043 57.5072 76.3563 57.701C76.6307 57.8708 76.8552 59.3446 76.8552 60.9767ZM53.9072 58.9495C53.9072 59.2347 55.4038 59.449 57.3993 59.449C59.3948 59.449 60.8914 59.2347 60.8914 58.9495C60.8914 58.6644 59.3948 58.4501 57.3993 58.4501C55.4038 58.4501 53.9072 58.6644 53.9072 58.9495ZM53.9072 61.4467C53.9072 61.7558 56.5677 61.9461 60.8914 61.9461C65.2151 61.9461 67.8756 61.7558 67.8756 61.4467C67.8756 61.1375 65.2151 60.9472 60.8914 60.9472C56.5677 60.9472 53.9072 61.1375 53.9072 61.4467ZM50.914 78.2264C50.914 94.0073 50.914 94.0073 49.2927 92.93C48.4012 92.3372 47.0543 91.619 46.2995 91.3339C44.9276 90.815 44.9276 90.815 44.9276 76.6302C44.9276 62.4455 44.9276 62.4455 47.9208 62.4455C50.914 62.4455 50.914 62.4455 50.914 78.2264ZM53.9072 63.9438C53.9072 64.248 56.1521 64.4432 59.6442 64.4432C63.1363 64.4432 65.3812 64.248 65.3812 63.9438C65.3812 63.6397 63.1363 63.4444 59.6442 63.4444C56.1521 63.4444 53.9072 63.6397 53.9072 63.9438ZM53.9072 66.9404C53.9072 67.256 57.3993 67.4398 63.3857 67.4398C69.3722 67.4398 72.8643 67.256 72.8643 66.9404C72.8643 66.6247 69.3722 66.4409 63.3857 66.4409C57.3993 66.4409 53.9072 66.6247 53.9072 66.9404ZM63.945 73.2881C62.0623 74.2165 60.5477 76.373 60.0952 78.7693C59.2686 83.1463 63.9899 88.9151 68.3989 88.9151C73.6934 88.9151 76.7295 83.6722 74.7904 77.8773C73.2384 73.2371 68.2921 71.144 63.945 73.2881ZM13.8256 73.8469C13.3402 74.3838 13 75.6034 13 76.807C13 79.428 14.8827 81.1655 17.2324 80.7121C20.3359 80.1132 21.6349 76.0444 19.391 73.9518C17.9867 72.6418 14.966 72.5849 13.8256 73.8469ZM68.6239 74.2625C65.2889 74.9776 63.3154 76.1078 62.3606 77.8488C61.6587 79.1289 61.4551 79.3022 61.6811 78.4272C62.0657 76.9379 63.7444 74.9831 65.1318 74.4088C65.6805 74.1816 66.9152 74.0073 67.8756 74.0217C68.8359 74.0362 69.1726 74.1446 68.6239 74.2625ZM107.267 76.3496C109.068 77.3165 109.826 78.4212 108.699 78.4357C108.334 78.4402 106.196 79.1908 103.948 80.1033C99.8625 81.7624 99.8625 81.7623 98.3425 80.799C97.1711 80.0563 96.9252 79.6443 97.2689 79.001C98.998 75.7667 103.807 74.4917 107.267 76.3496ZM24.3079 80.2586C23.6758 80.8909 23.9781 82.3167 24.8122 82.6373C25.8718 83.0444 27.2033 81.7579 26.8027 80.7136C26.4994 79.9225 24.9294 79.6358 24.3079 80.2586ZM97.3936 81.7174C98.9252 82.5105 98.9252 82.5105 97.2734 83.5158C95.3383 84.694 90.842 88.3373 89.9994 89.4096C89.5025 90.0418 89.3184 89.9425 88.7752 88.7488C87.3659 85.6529 90.7736 80.9243 94.4144 80.9243C95.2106 80.9243 96.551 81.2814 97.3936 81.7174ZM18.6806 84.1371C18.1453 85.5345 18.8812 86.4964 20.3553 86.3266C21.4473 86.2008 21.7302 85.9111 21.7302 84.9197C21.7302 83.9284 21.4473 83.6387 20.3553 83.5128C19.4589 83.4095 18.8762 83.6267 18.6806 84.1371ZM14.9955 86.9174C14.9955 87.1921 15.6689 87.4169 16.4921 87.4169C17.3152 87.4169 17.9887 87.1921 17.9887 86.9174C17.9887 86.6427 17.3152 86.418 16.4921 86.418C15.6689 86.418 14.9955 86.6427 14.9955 86.9174ZM18.06 88.8163C17.7118 89.449 17.5068 90.348 17.6051 90.814C17.7532 91.5211 17.8884 91.4707 18.4162 90.5123C18.7644 89.8795 18.9695 88.9806 18.8712 88.5146C18.723 87.8074 18.5878 87.8578 18.06 88.8163ZM21.4808 88.7743C21.4808 90.2156 21.9821 91.4123 22.5858 91.4123C22.8806 91.4123 22.9464 90.8484 22.7469 90.0388C22.2959 88.2119 21.4808 87.3979 21.4808 88.7743ZM46.7096 92.8112C47.7876 93.367 49.4429 94.6281 50.3882 95.6134C52.1073 97.4054 52.1073 97.4054 50.5738 97.4054C47.174 97.4054 42.2861 100.77 40.4493 104.375C39.2959 106.638 38.6005 110.89 39.3832 110.89C39.689 110.89 39.9409 110.272 39.9439 109.516C39.9514 107.417 42.0696 103.323 44.0476 101.584C47.6868 98.3848 53.7396 97.4848 57.6927 99.5549C63.1637 102.421 66.0018 109.605 63.7629 114.922C62.7188 117.402 60.1192 120.234 57.6962 121.532C55.7506 122.574 54.9633 122.634 41.1861 122.781C24.5628 122.958 23.3495 122.777 20.2401 119.659C15.9518 115.36 15.9952 109.755 20.3518 105.279C22.058 103.526 23.2827 102.92 26.6066 102.182C27.8877 101.898 27.9676 101.969 27.6752 103.136C27.4797 103.916 27.57 104.397 27.9122 104.397C28.216 104.397 28.4649 103.956 28.4649 103.417C28.4649 100.047 32.0398 94.6416 35.4202 92.9011C38.817 91.1516 43.4205 91.1151 46.7096 92.8112ZM73.3631 93.41C73.3631 93.7036 75.1092 93.9094 77.6035 93.9094C80.0979 93.9094 81.8439 93.7036 81.8439 93.41C81.8439 93.1163 80.0979 92.9106 77.6035 92.9106C75.1092 92.9106 73.3631 93.1163 73.3631 93.41ZM66.379 95.9071C66.379 96.2188 69.2889 96.4065 74.1114 96.4065C78.934 96.4065 81.8439 96.2188 81.8439 95.9071C81.8439 95.5955 78.934 95.4077 74.1114 95.4077C69.2889 95.4077 66.379 95.5955 66.379 95.9071ZM69.3722 98.4042C69.3722 98.7104 71.7832 98.9037 75.608 98.9037C79.4329 98.9037 81.8439 98.7104 81.8439 98.4042C81.8439 98.0981 79.4329 97.9048 75.608 97.9048C71.7832 97.9048 69.3722 98.0981 69.3722 98.4042ZM76.3563 104.148C76.3563 106.395 76.3563 106.395 70.7116 106.395C64.5845 106.395 65.0824 106.66 62.9832 102.275C62.8844 102.069 65.8532 101.9 69.5802 101.9C76.3563 101.9 76.3563 101.9 76.3563 104.148Z" fill="#8ABBFF"/>
<path fill-rule="evenodd" clip-rule="evenodd" d="M83.3405 17.4971C83.3405 18.8706 83.565 19.9943 83.8394 19.9943C84.1137 19.9943 84.3382 18.8706 84.3382 17.4971C84.3382 16.1237 84.1137 15 83.8394 15C83.565 15 83.3405 16.1237 83.3405 17.4971ZM79.3495 17.9391C79.3495 18.5694 81.8658 20.1386 82.254 19.7505C82.4316 19.5723 82.0195 18.9974 81.3375 18.473C79.9786 17.4277 79.3495 17.2589 79.3495 17.9391ZM86.0813 18.9984C85.5834 19.5498 85.3225 20.1476 85.5021 20.3274C85.8663 20.6915 87.8303 19.0808 87.8303 18.4186C87.8303 17.6894 87.0227 17.9571 86.0813 18.9984ZM89.8258 26.7365C89.8258 26.8739 89.938 26.9862 90.0752 26.9862C90.2124 26.9862 90.3247 26.8739 90.3247 26.7365C90.3247 26.5992 90.2124 26.4868 90.0752 26.4868C89.938 26.4868 89.8258 26.5992 89.8258 26.7365ZM48.4222 27.7888C43.6285 29.5328 39.7214 33.5028 38.3765 37.9961C37.8347 39.807 37.8237 39.813 35.4481 39.5848C32.1745 39.2696 28.3991 40.5941 26.5453 42.7077C24.5523 44.9806 23.8269 47.4642 24.0649 51.2049C24.3238 55.2718 26.0454 57.9002 29.6168 59.6822C32.0398 60.8908 32.5761 60.9512 41.658 61.0356C47.6604 61.0911 49.8764 61.2289 47.6714 61.4102C44.1793 61.6964 44.1793 61.6964 44.0471 75.999C43.9149 90.3015 43.9149 90.3015 40.555 90.5063C38.6628 90.6217 36.3326 91.1291 35.2211 91.667C32.5477 92.9615 29.6991 96.0025 28.6954 98.6335C27.9366 100.623 27.6922 100.829 25.7371 101.123C22.6656 101.584 19.3217 103.896 17.6854 106.692C16.5524 108.627 16.2945 109.669 16.2855 112.349C16.2731 116.196 17.4359 118.852 20.1962 121.278C23.0672 123.802 24.3099 123.951 40.9367 123.781C57.8473 123.608 58.1945 123.545 61.7076 120.028C64.2293 117.503 65.026 115.552 65.2795 111.28C65.5074 107.424 65.5074 107.424 71.3063 107.285C77.1046 107.144 77.1046 107.144 77.2533 104.584C77.402 102.025 77.402 102.025 80.8701 101.682C84.3382 101.34 84.3382 101.34 84.3382 82.9979C84.3382 64.6555 84.3382 64.6555 81.8743 62.2258C79.4099 59.7961 79.4099 59.7961 81.4119 58.3442C86.2903 54.8063 87.3005 46.7261 83.5041 41.6055C80.916 38.115 75.0693 36.1802 70.7326 37.3793C68.8908 37.8882 68.8419 37.8657 68.146 36.1987C67.028 33.5207 63.1493 29.7206 60.2499 28.462C56.8331 26.9797 51.4837 26.6756 48.4222 27.7888ZM58.5547 28.7802C61.3938 29.7486 65.5633 33.3959 66.9562 36.1297C67.9828 38.1444 67.9828 38.1444 65.934 39.8485C64.8065 40.7854 63.8846 41.8711 63.8846 42.2602C63.8846 43.337 64.6768 43.1067 65.5468 41.7773C65.9754 41.122 67.5049 39.9983 68.9451 39.2801C76.491 35.5154 84.8371 40.6041 84.8371 48.97C84.8371 51.8422 83.9287 53.9658 81.6902 56.3276C79.9193 58.1959 79.5596 58.2718 78.1418 57.0767C77.1051 56.2032 77.1051 56.2032 78.058 57.3294C78.5818 57.9492 78.8851 58.582 78.7319 58.7358C78.5783 58.8896 77.842 58.2139 77.0957 57.2345C75.7392 55.4536 75.7392 55.4536 63.3264 55.4536C50.914 55.4536 50.914 55.4536 50.914 57.701C50.914 59.9484 50.914 59.9484 42.3085 59.9454C37.5758 59.9439 32.8455 59.7042 31.7969 59.413C27.1958 58.134 23.7556 52.4705 24.9349 48.116C26.6261 41.8706 32.9862 38.8062 38.7855 41.4421C41.2963 42.5833 43.8231 45.8681 44.2506 48.5475C44.4188 49.5988 44.752 50.4593 44.9915 50.4593C45.612 50.4593 45.5332 49.5024 44.6752 46.6102C43.9448 44.148 40.771 40.4708 39.3762 40.4708C38.4149 40.4708 39.3493 37.3988 41.1242 34.7219C44.9191 28.9994 52.0604 26.5647 58.5547 28.7802ZM89.8258 28.7342C89.8258 28.8716 89.938 28.9839 90.0752 28.9839C90.2124 28.9839 90.3247 28.8716 90.3247 28.7342C90.3247 28.5969 90.2124 28.4845 90.0752 28.4845C89.938 28.4845 89.8258 28.5969 89.8258 28.7342ZM84.3382 33.2291C84.3382 33.3664 84.4505 33.4788 84.5877 33.4788C84.7249 33.4788 84.8371 33.3664 84.8371 33.2291C84.8371 33.0917 84.7249 32.9794 84.5877 32.9794C84.4505 32.9794 84.3382 33.0917 84.3382 33.2291ZM87.8303 37.9736C87.8303 38.3397 87.98 38.4895 88.1631 38.3067C88.3457 38.1235 88.3457 37.8238 88.1631 37.6405C87.98 37.4577 87.8303 37.6075 87.8303 37.9736ZM89.8258 38.2233C89.8258 38.3607 89.938 38.4731 90.0752 38.4731C90.2124 38.4731 90.3247 38.3607 90.3247 38.2233C90.3247 38.086 90.2124 37.9736 90.0752 37.9736C89.938 37.9736 89.8258 38.086 89.8258 38.2233ZM74.8597 60.9472C74.8597 64.9427 74.8597 64.9427 79.1001 64.9427C83.3405 64.9427 83.3405 64.9427 83.3405 82.6723C83.3405 100.402 83.3405 100.402 72.4163 100.402C61.4915 100.402 61.4915 100.402 58.6465 98.9037C57.0815 98.0796 55.2427 97.4054 54.5603 97.4054C53.8773 97.4054 52.8975 96.9 52.3827 96.2817C51.5032 95.2264 51.4453 93.9948 51.4294 76.0549C51.4129 56.9518 51.4129 56.9518 63.1363 56.9518C74.8597 56.9518 74.8597 56.9518 74.8597 60.9472ZM79.3495 60.6975C82.5633 63.9438 82.5633 63.9438 79.2104 63.9438C75.8575 63.9438 75.8575 63.9438 75.8575 60.6975C75.8575 58.9121 75.9198 57.4513 75.9967 57.4513C76.073 57.4513 77.5821 58.9121 79.3495 60.6975ZM53.9072 58.9495C53.9072 59.2347 55.4038 59.449 57.3993 59.449C59.3948 59.449 60.8914 59.2347 60.8914 58.9495C60.8914 58.6644 59.3948 58.4501 57.3993 58.4501C55.4038 58.4501 53.9072 58.6644 53.9072 58.9495ZM82.8416 62.1958C84.3317 63.7066 85.6637 64.9427 85.8009 64.9427C85.9381 64.9427 84.8306 63.7066 83.3405 62.1958C81.8504 60.685 80.5184 59.449 80.3812 59.449C80.244 59.449 81.3515 60.685 82.8416 62.1958ZM53.9072 61.4467C53.9072 61.7558 56.5677 61.9461 60.8914 61.9461C65.2151 61.9461 67.8756 61.7558 67.8756 61.4467C67.8756 61.1375 65.2151 60.9472 60.8914 60.9472C56.5677 60.9472 53.9072 61.1375 53.9072 61.4467ZM50.914 78.2264C50.914 94.0073 50.914 94.0073 49.2927 92.93C48.4012 92.3372 47.0543 91.619 46.2995 91.3339C44.9276 90.815 44.9276 90.815 44.9276 76.6302C44.9276 62.4455 44.9276 62.4455 47.9208 62.4455C50.914 62.4455 50.914 62.4455 50.914 78.2264ZM53.9072 63.9438C53.9072 64.248 56.1521 64.4432 59.6442 64.4432C63.1363 64.4432 65.3812 64.248 65.3812 63.9438C65.3812 63.6397 63.1363 63.4444 59.6442 63.4444C56.1521 63.4444 53.9072 63.6397 53.9072 63.9438ZM53.9072 66.9404C53.9072 67.256 57.3993 67.4398 63.3857 67.4398C69.3722 67.4398 72.8643 67.256 72.8643 66.9404C72.8643 66.6247 69.3722 66.4409 63.3857 66.4409C57.3993 66.4409 53.9072 66.6247 53.9072 66.9404ZM63.8766 73.345C61.9715 74.3434 59.8937 77.7764 59.8937 79.9255C59.8937 80.6331 60.399 82.2148 61.0161 83.4404C63.6092 88.588 70.7665 88.7883 73.8939 83.8005C75.3416 81.4922 75.0488 76.9803 73.3317 75.1405C70.7151 72.3362 67.1083 71.6515 63.8766 73.345ZM14.4966 73.1832C14.4966 73.3205 14.6089 73.4329 14.746 73.4329C14.8832 73.4329 14.9955 73.3205 14.9955 73.1832C14.9955 73.0459 14.8832 72.9335 14.746 72.9335C14.6089 72.9335 14.4966 73.0459 14.4966 73.1832ZM70.9127 75.071C73.9403 77.1137 74.6901 80.3075 72.8513 83.3266C70.8079 86.6822 66.3291 87.1986 63.2391 84.4343C61.8033 83.1503 61.6397 82.7207 61.6397 80.2341C61.6397 78.1645 61.8782 77.2385 62.5831 76.5723C63.2256 75.965 63.3987 75.9196 63.1268 76.4295C62.8899 76.873 62.9123 77.0088 63.1812 76.7626C63.4306 76.5334 63.6352 76.0909 63.6352 75.7782C63.6352 74.9637 65.8666 73.9483 67.677 73.9398C68.5281 73.9358 69.9843 74.4448 70.9127 75.071ZM13 74.6815C13 74.8188 13.1122 74.9312 13.2494 74.9312C13.3866 74.9312 13.4989 74.8188 13.4989 74.6815C13.4989 74.5441 13.3866 74.4318 13.2494 74.4318C13.1122 74.4318 13 74.5441 13 74.6815ZM99.2534 75.574C98.321 76.2022 97.1093 77.4123 96.5605 78.2624C95.7633 79.4979 95.1293 79.859 93.4047 80.0598C87.5365 80.7425 85.5001 88.3228 90.0997 92.3657C91.8562 93.9094 91.8562 93.9094 103.289 93.9094C115.652 93.9094 116.828 93.7046 118.049 91.3399C119.852 87.8499 118.184 83.798 114.545 82.8231C112.771 82.3482 112.252 81.9586 112.027 80.9303C111.571 78.8537 109.918 76.4984 108.164 75.4281C105.815 73.9938 101.493 74.0647 99.2534 75.574ZM107.294 76.3556C109.302 77.4238 111.277 80.0688 111.277 81.6899C111.277 82.3307 110.745 83.1562 110.03 83.6252C108.176 84.8418 108.519 85.5655 110.404 84.4148C112.681 83.0254 114.462 83.1607 116.371 84.8688C118.555 86.8215 118.658 89.7432 116.618 91.7868C115.246 93.1603 115.246 93.1603 103.82 93.1603C90.827 93.1603 90.3486 93.0289 88.9039 89.061C88.2474 87.2595 88.2454 86.7821 88.8849 85.1C90.2927 81.3968 94.4029 79.9155 97.695 81.9252C98.5934 82.4735 99.435 82.922 99.5657 82.922C99.9648 82.922 99.8291 81.4247 99.429 81.4128C99.2235 81.4068 98.5375 81.0032 97.905 80.5158C96.7556 79.6303 96.7556 79.6303 97.8626 78.2209C100.014 75.4826 104.125 74.6695 107.294 76.3556ZM19.9842 76.6792C19.9842 76.8165 20.0964 76.9289 20.2336 76.9289C20.3708 76.9289 20.483 76.8165 20.483 76.6792C20.483 76.5418 20.3708 76.4295 20.2336 76.4295C20.0964 76.4295 19.9842 76.5418 19.9842 76.6792ZM66.4498 77.7015C65.2031 79.2882 65.0674 80.1527 66.1295 79.7447C66.7272 79.5154 66.8778 79.915 66.8778 81.7309C66.8778 84.5222 68.0447 84.5462 68.2797 81.7599C68.3804 80.5682 68.6862 79.9255 69.1527 79.9255C70.1424 79.9255 70.0302 79.415 68.6768 77.7589C67.5184 76.3411 67.5184 76.3411 66.4498 77.7015ZM122.502 76.9289C122.671 77.2036 122.922 77.4283 123.059 77.4283C123.197 77.4283 123.17 77.2036 123.001 76.9289C122.831 76.6542 122.58 76.4295 122.443 76.4295C122.306 76.4295 122.332 76.6542 122.502 76.9289ZM113.273 77.1786C113.273 77.316 113.385 77.4283 113.522 77.4283C113.659 77.4283 113.771 77.316 113.771 77.1786C113.771 77.0413 113.659 76.9289 113.522 76.9289C113.385 76.9289 113.273 77.0413 113.273 77.1786ZM21.3935 84.7569C21.606 85.8022 21.7317 85.9281 21.8769 85.2414C21.9851 84.7314 21.8554 84.0962 21.5895 83.83C21.2772 83.5173 21.2074 83.8455 21.3935 84.7569ZM96.81 83.6712C96.81 83.8085 96.9222 83.9209 97.0594 83.9209C97.1966 83.9209 97.3088 83.8085 97.3088 83.6712C97.3088 83.5338 97.1966 83.4214 97.0594 83.4214C96.9222 83.4214 96.81 83.5338 96.81 83.6712ZM18.5664 84.9197C18.5664 85.6064 18.6796 85.8876 18.8178 85.544C18.9565 85.2009 18.9565 84.639 18.8178 84.2954C18.6796 83.9523 18.5664 84.233 18.5664 84.9197ZM95.3134 84.67C95.3134 84.8074 95.4256 84.9197 95.5628 84.9197C95.7 84.9197 95.8122 84.8074 95.8122 84.67C95.8122 84.5327 95.7 84.4203 95.5628 84.4203C95.4256 84.4203 95.3134 84.5327 95.3134 84.67ZM14.9955 86.9174C14.9955 87.1921 15.6689 87.4169 16.4921 87.4169C17.3152 87.4169 17.9887 87.1921 17.9887 86.9174C17.9887 86.6427 17.3152 86.418 16.4921 86.418C15.6689 86.418 14.9955 86.6427 14.9955 86.9174ZM72.8643 87.1671C72.8643 87.3045 72.9765 87.4169 73.1137 87.4169C73.2509 87.4169 73.3631 87.3045 73.3631 87.1671C73.3631 87.0298 73.2509 86.9174 73.1137 86.9174C72.9765 86.9174 72.8643 87.0298 72.8643 87.1671ZM18.06 88.8163C17.7118 89.449 17.5068 90.348 17.6051 90.814C17.7532 91.5211 17.8884 91.4707 18.4162 90.5123C18.7644 89.8795 18.9695 88.9806 18.8712 88.5146C18.723 87.8074 18.5878 87.8578 18.06 88.8163ZM21.4808 88.7743C21.4808 90.2156 21.9821 91.4123 22.5858 91.4123C22.8806 91.4123 22.9464 90.8484 22.7469 90.0388C22.2959 88.2119 21.4808 87.3979 21.4808 88.7743ZM90.3247 88.6654C90.3247 88.8028 90.4369 88.9151 90.5741 88.9151C90.7113 88.9151 90.8235 88.8028 90.8235 88.6654C90.8235 88.5281 90.7113 88.4157 90.5741 88.4157C90.4369 88.4157 90.3247 88.5281 90.3247 88.6654ZM46.7096 92.8112C47.7876 93.367 49.4429 94.6281 50.3882 95.6134C52.1073 97.4054 52.1073 97.4054 50.5738 97.4054C47.174 97.4054 42.2861 100.77 40.4493 104.375C39.2959 106.638 38.6005 110.89 39.3832 110.89C39.689 110.89 39.9409 110.272 39.9439 109.516C39.9514 107.417 42.0696 103.323 44.0476 101.584C47.6868 98.3848 53.7396 97.4848 57.6927 99.5549C63.1637 102.421 66.0018 109.605 63.7629 114.922C62.7188 117.402 60.1192 120.234 57.6962 121.532C55.7506 122.574 54.9633 122.634 41.1861 122.781C24.5628 122.958 23.3495 122.777 20.2401 119.659C15.9518 115.36 15.9952 109.755 20.3518 105.279C22.058 103.526 23.2827 102.92 26.6066 102.182C27.8877 101.898 27.9676 101.969 27.6752 103.136C27.4797 103.916 27.57 104.397 27.9122 104.397C28.216 104.397 28.4649 103.956 28.4649 103.417C28.4649 100.047 32.0398 94.6416 35.4202 92.9011C38.817 91.1516 43.4205 91.1151 46.7096 92.8112ZM73.3631 93.41C73.3631 93.7036 75.1092 93.9094 77.6035 93.9094C80.0979 93.9094 81.8439 93.7036 81.8439 93.41C81.8439 93.1163 80.0979 92.9106 77.6035 92.9106C75.1092 92.9106 73.3631 93.1163 73.3631 93.41ZM85.336 94.1591C85.336 94.2965 85.4482 94.4088 85.5854 94.4088C85.7226 94.4088 85.8348 94.2965 85.8348 94.1591C85.8348 94.0218 85.7226 93.9094 85.5854 93.9094C85.4482 93.9094 85.336 94.0218 85.336 94.1591ZM66.379 95.9071C66.379 96.2188 69.2889 96.4065 74.1114 96.4065C78.934 96.4065 81.8439 96.2188 81.8439 95.9071C81.8439 95.5955 78.934 95.4077 74.1114 95.4077C69.2889 95.4077 66.379 95.5955 66.379 95.9071ZM69.3722 98.4042C69.3722 98.7104 71.7832 98.9037 75.608 98.9037C79.4329 98.9037 81.8439 98.7104 81.8439 98.4042C81.8439 98.0981 79.4329 97.9048 75.608 97.9048C71.7832 97.9048 69.3722 98.0981 69.3722 98.4042ZM82.3428 98.654C82.3428 98.7913 82.455 98.9037 82.5922 98.9037C82.7294 98.9037 82.8416 98.7913 82.8416 98.654C82.8416 98.5166 82.7294 98.4042 82.5922 98.4042C82.455 98.4042 82.3428 98.5166 82.3428 98.654ZM76.3563 104.148C76.3563 106.395 76.3563 106.395 70.7116 106.395C64.5845 106.395 65.0824 106.66 62.9832 102.275C62.8844 102.069 65.8532 101.9 69.5802 101.9C76.3563 101.9 76.3563 101.9 76.3563 104.148ZM76.3563 116.134C76.3563 116.271 76.4686 116.384 76.6058 116.384C76.743 116.384 76.8552 116.271 76.8552 116.134C76.8552 115.997 76.743 115.884 76.6058 115.884C76.4686 115.884 76.3563 115.997 76.3563 116.134ZM76.3563 121.628C76.3563 121.765 76.4686 121.877 76.6058 121.877C76.743 121.877 76.8552 121.765 76.8552 121.628C76.8552 121.49 76.743 121.378 76.6058 121.378C76.4686 121.378 76.3563 121.49 76.3563 121.628Z" fill="#B0D1FF"/>
<path fill-rule="evenodd" clip-rule="evenodd" d="M83.3405 17.4971C83.3405 18.8706 83.565 19.9943 83.8394 19.9943C84.1137 19.9943 84.3382 18.8706 84.3382 17.4971C84.3382 16.1237 84.1137 15 83.8394 15C83.565 15 83.3405 16.1237 83.3405 17.4971ZM79.3495 17.9391C79.3495 18.5694 81.8658 20.1386 82.254 19.7505C82.4316 19.5723 82.0195 18.9974 81.3375 18.473C79.9786 17.4277 79.3495 17.2589 79.3495 17.9391ZM86.0813 18.9984C85.5834 19.5498 85.3225 20.1476 85.5021 20.3274C85.8663 20.6915 87.8303 19.0808 87.8303 18.4186C87.8303 17.6894 87.0226 17.9571 86.0813 18.9984ZM89.8258 26.7365C89.8258 26.8739 89.938 26.9862 90.0752 26.9862C90.2124 26.9862 90.3247 26.8739 90.3247 26.7365C90.3247 26.5992 90.2124 26.4868 90.0752 26.4868C89.938 26.4868 89.8258 26.5992 89.8258 26.7365ZM48.4222 27.7888C43.6285 29.5328 39.7214 33.5028 38.3765 37.9961C37.8347 39.807 37.8237 39.813 35.4481 39.5848C32.1745 39.2696 28.3991 40.5941 26.5453 42.7077C24.5523 44.9806 23.8269 47.4642 24.0649 51.2049C24.3238 55.2718 26.0454 57.9002 29.6168 59.6822C32.0398 60.8908 32.5761 60.9512 41.658 61.0356C47.6604 61.0911 49.8764 61.2289 47.6714 61.4102C44.1793 61.6964 44.1793 61.6964 44.0471 75.999C43.9149 90.3015 43.9149 90.3015 40.555 90.5063C38.6628 90.6217 36.3326 91.1291 35.2211 91.667C32.5477 92.9615 29.6991 96.0025 28.6954 98.6335C27.9366 100.623 27.6922 100.829 25.7371 101.123C22.6656 101.584 19.3217 103.896 17.6854 106.692C16.5524 108.627 16.2945 109.669 16.2855 112.349C16.2731 116.196 17.4359 118.852 20.1962 121.278C23.0672 123.802 24.3099 123.951 40.9367 123.781C57.8473 123.608 58.1945 123.545 61.7076 120.028C64.2293 117.503 65.026 115.552 65.2794 111.28C65.5074 107.424 65.5074 107.424 71.3063 107.285C77.1046 107.144 77.1046 107.144 77.2528 104.598C77.401 102.052 77.401 102.052 80.7449 101.602C84.0888 101.151 84.0888 101.151 84.2195 82.909C84.3502 64.6675 84.3502 64.6675 81.8803 62.2318C79.4099 59.7961 79.4099 59.7961 81.4119 58.3442C86.2903 54.8063 87.3005 46.7261 83.5041 41.6055C80.916 38.115 75.0693 36.1802 70.7326 37.3793C68.8908 37.8882 68.8419 37.8657 68.146 36.1987C67.028 33.5207 63.1493 29.7206 60.2499 28.462C56.8331 26.9797 51.4837 26.6756 48.4222 27.7888ZM58.5547 28.7802C61.3938 29.7486 65.5633 33.3959 66.9561 36.1297C67.9828 38.1444 67.9828 38.1444 65.934 39.8485C64.8065 40.7854 63.8846 41.8711 63.8846 42.2602C63.8846 43.337 64.6768 43.1067 65.5468 41.7773C65.9754 41.122 67.5049 39.9983 68.9451 39.2801C76.491 35.5154 84.8371 40.6041 84.8371 48.97C84.8371 51.8422 83.9287 53.9658 81.6902 56.3276C79.9198 58.1949 79.5606 58.2713 78.1418 57.0802C77.389 56.4484 77.4364 56.5853 78.3139 57.5796C78.9794 58.3333 79.2712 58.9495 78.9629 58.9495C78.6546 58.9495 77.8031 58.1629 77.0707 57.2015C75.7392 55.4536 75.7392 55.4536 63.3264 55.4536C50.914 55.4536 50.914 55.4536 50.914 57.701C50.914 59.9484 50.914 59.9484 42.3085 59.9454C37.5758 59.9439 32.8455 59.7042 31.7969 59.413C27.1958 58.134 23.7556 52.4705 24.9349 48.116C26.6261 41.8706 32.9862 38.8062 38.7855 41.4421C41.2963 42.5833 43.8231 45.8681 44.2506 48.5475C44.4188 49.5988 44.752 50.4593 44.9915 50.4593C45.612 50.4593 45.5332 49.5024 44.6752 46.6102C43.9448 44.148 40.771 40.4708 39.3762 40.4708C38.4149 40.4708 39.3493 37.3988 41.1242 34.7219C44.9191 28.9994 52.0604 26.5647 58.5547 28.7802ZM84.3382 33.2291C84.3382 33.3664 84.4505 33.4788 84.5877 33.4788C84.7249 33.4788 84.8371 33.3664 84.8371 33.2291C84.8371 33.0917 84.7249 32.9794 84.5877 32.9794C84.4505 32.9794 84.3382 33.0917 84.3382 33.2291ZM87.8303 37.9736C87.8303 38.3397 87.98 38.4895 88.1631 38.3067C88.3456 38.1235 88.3456 37.8238 88.1631 37.6405C87.98 37.4577 87.8303 37.6075 87.8303 37.9736ZM74.8597 60.9472C74.8597 64.9427 74.8597 64.9427 79.1001 64.9427C83.3405 64.9427 83.3405 64.9427 83.341 82.7972C83.3415 100.652 83.3415 100.652 72.3499 100.492C61.3583 100.332 61.3583 100.332 58.5796 98.8687C57.0516 98.0636 55.2427 97.4054 54.5603 97.4054C53.8773 97.4054 52.8975 96.9 52.3827 96.2817C51.5032 95.2264 51.4453 93.9948 51.4294 76.0549C51.4129 56.9518 51.4129 56.9518 63.1363 56.9518C74.8597 56.9518 74.8597 56.9518 74.8597 60.9472ZM81.0123 64.3548C79.9846 64.4432 78.4047 64.3768 77.5007 64.207C75.8575 63.8984 75.8575 63.8984 75.8575 60.5637C75.8575 57.2285 75.8575 57.2285 79.369 60.711C82.8805 64.1935 82.8805 64.1935 81.0123 64.3548ZM53.9072 58.9495C53.9072 59.2347 55.4038 59.449 57.3993 59.449C59.3948 59.449 60.8914 59.2347 60.8914 58.9495C60.8914 58.6644 59.3948 58.4501 57.3993 58.4501C55.4038 58.4501 53.9072 58.6644 53.9072 58.9495ZM82.8416 62.1958C84.3317 63.7066 85.6637 64.9427 85.8009 64.9427C85.9381 64.9427 84.8306 63.7066 83.3405 62.1958C81.8504 60.685 80.5184 59.449 80.3812 59.449C80.244 59.449 81.3515 60.685 82.8416 62.1958ZM53.9072 61.4467C53.9072 61.7558 56.5677 61.9461 60.8914 61.9461C65.2151 61.9461 67.8756 61.7558 67.8756 61.4467C67.8756 61.1375 65.2151 60.9472 60.8914 60.9472C56.5677 60.9472 53.9072 61.1375 53.9072 61.4467ZM50.914 78.2264C50.914 94.0073 50.914 94.0073 49.2927 92.93C48.4012 92.3372 47.0543 91.619 46.2995 91.3339C44.9276 90.815 44.9276 90.815 44.9276 76.6302C44.9276 62.4455 44.9276 62.4455 47.9208 62.4455C50.914 62.4455 50.914 62.4455 50.914 78.2264ZM53.9072 63.9438C53.9072 64.248 56.1521 64.4432 59.6442 64.4432C63.1363 64.4432 65.3812 64.248 65.3812 63.9438C65.3812 63.6397 63.1363 63.4444 59.6442 63.4444C56.1521 63.4444 53.9072 63.6397 53.9072 63.9438ZM53.9072 66.9404C53.9072 67.256 57.3993 67.4398 63.3857 67.4398C69.3722 67.4398 72.8643 67.256 72.8643 66.9404C72.8643 66.6247 69.3722 66.4409 63.3857 66.4409C57.3993 66.4409 53.9072 66.6247 53.9072 66.9404ZM63.8766 73.345C61.9715 74.3434 59.8862 77.7879 59.9046 79.9065C59.9106 80.6037 60.3426 82.1159 60.865 83.2671C63.3074 88.6534 71.2065 88.7244 74.0141 83.386C75.2907 80.9583 74.948 76.8725 73.3217 75.1295C70.7156 72.3367 67.1033 71.654 63.8766 73.345ZM14.4966 73.1832C14.4966 73.3205 14.6089 73.4329 14.746 73.4329C14.8832 73.4329 14.9955 73.3205 14.9955 73.1832C14.9955 73.0459 14.8832 72.9335 14.746 72.9335C14.6089 72.9335 14.4966 73.0459 14.4966 73.1832ZM70.3505 74.6715C74.8163 76.9833 75.1057 82.4501 70.9127 85.2793C66.4648 88.2799 60.8126 84.7564 61.5265 79.4285C61.6836 78.2529 62.1984 76.9284 62.6694 76.4854C63.3543 75.8416 63.4461 75.8307 63.1268 76.4295C62.8899 76.873 62.9123 77.0088 63.1812 76.7626C63.4306 76.5334 63.6352 76.0909 63.6352 75.7782C63.6352 74.9921 65.8432 73.9488 67.5264 73.9398C68.2941 73.9358 69.5652 74.265 70.3505 74.6715ZM13 74.6815C13 74.8188 13.1122 74.9312 13.2494 74.9312C13.3866 74.9312 13.4989 74.8188 13.4989 74.6815C13.4989 74.5441 13.3866 74.4318 13.2494 74.4318C13.1122 74.4318 13 74.5441 13 74.6815ZM99.2534 75.574C98.321 76.2022 97.1093 77.4123 96.5605 78.2624C95.7633 79.4979 95.1293 79.859 93.4047 80.0598C86.6161 80.8494 85.4013 90.1188 91.6636 93.3475C92.3765 93.7151 96.6633 93.9094 104.061 93.9094C115.368 93.9094 115.368 93.9094 117.064 92.2114C118.454 90.8195 118.76 90.1352 118.76 88.4157C118.76 86.6962 118.454 86.012 117.064 84.6201C115.924 83.4789 114.899 82.922 113.939 82.922C112.664 82.922 112.41 82.6388 111.59 80.3C110.05 75.9076 108.052 74.4318 103.643 74.4318C101.662 74.4318 100.5 74.7344 99.2534 75.574ZM108.505 77.1237C110.395 78.566 110.954 79.4001 111.463 81.5331C111.741 82.6963 111.565 83.0054 110.239 83.6921C109.387 84.1331 108.809 84.6126 108.953 84.7579C109.099 84.9027 109.731 84.6615 110.358 84.2215C112.602 82.6478 116.292 83.5558 117.55 85.991C118.417 87.6701 118.449 88.9551 117.665 90.6771C116.535 93.1608 115.256 93.41 103.643 93.41C93.3937 93.41 92.9003 93.365 91.3134 92.2863C90.3012 91.5981 89.3688 90.3585 88.9089 89.0874C88.2474 87.2605 88.2444 86.7836 88.8849 85.1C90.2927 81.3968 94.4029 79.9155 97.6949 81.9252C98.5934 82.4735 99.435 82.922 99.5657 82.922C99.9648 82.922 99.8291 81.4247 99.429 81.4128C99.2235 81.4068 98.5375 81.0032 97.905 80.5158C96.7556 79.6303 96.7556 79.6303 97.8626 78.2209C100.291 75.1305 105.229 74.6215 108.505 77.1237ZM66.1869 78.16C65.1837 79.6927 65.1687 80.1142 66.1295 79.7447C66.7257 79.5159 66.8778 79.9105 66.8778 81.6889C66.8778 82.9165 67.1023 83.9209 67.3767 83.9209C67.6511 83.9209 67.8756 82.7697 67.8756 81.3628C67.8756 79.1454 67.9753 78.8871 68.6239 79.426C69.7668 80.3754 69.6121 78.7993 68.4597 77.7554C67.2719 76.6792 67.1407 76.7022 66.1869 78.16ZM113.273 77.1786C113.273 77.316 113.385 77.4283 113.522 77.4283C113.659 77.4283 113.771 77.316 113.771 77.1786C113.771 77.0413 113.659 76.9289 113.522 76.9289C113.385 76.9289 113.273 77.0413 113.273 77.1786ZM122.751 77.1786C122.751 77.316 122.863 77.4283 123.001 77.4283C123.138 77.4283 123.25 77.316 123.25 77.1786C123.25 77.0413 123.138 76.9289 123.001 76.9289C122.863 76.9289 122.751 77.0413 122.751 77.1786ZM96.81 83.6712C96.81 83.8085 96.9222 83.9209 97.0594 83.9209C97.1966 83.9209 97.3088 83.8085 97.3088 83.6712C97.3088 83.5338 97.1966 83.4214 97.0594 83.4214C96.9222 83.4214 96.81 83.5338 96.81 83.6712ZM18.4876 84.1706C18.4876 84.3079 18.5998 84.4203 18.737 84.4203C18.8742 84.4203 18.9864 84.3079 18.9864 84.1706C18.9864 84.0332 18.8742 83.9209 18.737 83.9209C18.5998 83.9209 18.4876 84.0332 18.4876 84.1706ZM21.4808 84.1706C21.4808 84.3079 21.593 84.4203 21.7302 84.4203C21.8674 84.4203 21.9796 84.3079 21.9796 84.1706C21.9796 84.0332 21.8674 83.9209 21.7302 83.9209C21.593 83.9209 21.4808 84.0332 21.4808 84.1706ZM95.3133 84.67C95.3133 84.8074 95.4256 84.9197 95.5628 84.9197C95.7 84.9197 95.8122 84.8074 95.8122 84.67C95.8122 84.5327 95.7 84.4203 95.5628 84.4203C95.4256 84.4203 95.3133 84.5327 95.3133 84.67ZM21.4808 85.1694C21.4808 85.3068 21.593 85.4192 21.7302 85.4192C21.8674 85.4192 21.9796 85.3068 21.9796 85.1694C21.9796 85.0321 21.8674 84.9197 21.7302 84.9197C21.593 84.9197 21.4808 85.0321 21.4808 85.1694ZM14.9955 86.9174C14.9955 87.1921 15.6689 87.4169 16.4921 87.4169C17.3152 87.4169 17.9887 87.1921 17.9887 86.9174C17.9887 86.6427 17.3152 86.418 16.4921 86.418C15.6689 86.418 14.9955 86.6427 14.9955 86.9174ZM18.06 88.8163C17.7118 89.449 17.5068 90.348 17.6051 90.814C17.7532 91.5211 17.8884 91.4707 18.4162 90.5123C18.7644 89.8795 18.9695 88.9806 18.8712 88.5146C18.723 87.8074 18.5878 87.8578 18.06 88.8163ZM21.4808 88.7743C21.4808 90.2156 21.9821 91.4123 22.5858 91.4123C22.8806 91.4123 22.9464 90.8484 22.7469 90.0388C22.2959 88.2119 21.4808 87.3979 21.4808 88.7743ZM90.3247 88.6654C90.3247 88.8028 90.4369 88.9151 90.5741 88.9151C90.7113 88.9151 90.8235 88.8028 90.8235 88.6654C90.8235 88.5281 90.7113 88.4157 90.5741 88.4157C90.4369 88.4157 90.3247 88.5281 90.3247 88.6654ZM46.7096 92.8112C47.7876 93.367 49.4429 94.6281 50.3882 95.6134C52.1073 97.4054 52.1073 97.4054 50.5738 97.4054C47.174 97.4054 42.2861 100.77 40.4493 104.375C39.2959 106.638 38.6004 110.89 39.3832 110.89C39.689 110.89 39.9409 110.272 39.9439 109.516C39.9514 107.417 42.0696 103.323 44.0476 101.584C47.6868 98.3848 53.7396 97.4848 57.6927 99.5549C63.1637 102.421 66.0018 109.605 63.7629 114.922C62.7188 117.402 60.1192 120.234 57.6961 121.532C55.7506 122.574 54.9633 122.634 41.1861 122.781C24.5628 122.958 23.3495 122.777 20.2401 119.659C15.9518 115.36 15.9952 109.755 20.3518 105.279C22.058 103.526 23.2827 102.92 26.6066 102.182C27.8877 101.898 27.9676 101.969 27.6752 103.136C27.4797 103.916 27.57 104.397 27.9122 104.397C28.216 104.397 28.4649 103.956 28.4649 103.417C28.4649 100.047 32.0398 94.6416 35.4202 92.9011C38.817 91.1516 43.4205 91.1151 46.7096 92.8112ZM73.3631 93.41C73.3631 93.7036 75.1092 93.9094 77.6035 93.9094C80.0978 93.9094 81.8439 93.7036 81.8439 93.41C81.8439 93.1163 80.0978 92.9106 77.6035 92.9106C75.1092 92.9106 73.3631 93.1163 73.3631 93.41ZM85.336 94.1591C85.336 94.2965 85.4482 94.4088 85.5854 94.4088C85.7226 94.4088 85.8348 94.2965 85.8348 94.1591C85.8348 94.0218 85.7226 93.9094 85.5854 93.9094C85.4482 93.9094 85.336 94.0218 85.336 94.1591ZM66.379 95.9071C66.379 96.2188 69.2889 96.4065 74.1114 96.4065C78.934 96.4065 81.8439 96.2188 81.8439 95.9071C81.8439 95.5955 78.934 95.4077 74.1114 95.4077C69.2889 95.4077 66.379 95.5955 66.379 95.9071ZM69.3722 98.4042C69.3722 98.7104 71.7832 98.9037 75.608 98.9037C79.4329 98.9037 81.8439 98.7104 81.8439 98.4042C81.8439 98.0981 79.4329 97.9048 75.608 97.9048C71.7832 97.9048 69.3722 98.0981 69.3722 98.4042ZM76.3563 104.148C76.3563 106.395 76.3563 106.395 70.7116 106.395C64.5845 106.395 65.0824 106.66 62.9832 102.275C62.8844 102.069 65.8531 101.9 69.5802 101.9C76.3563 101.9 76.3563 101.9 76.3563 104.148Z" fill="#808080"/>
<path fill-rule="evenodd" clip-rule="evenodd" d="M83.3411 17.4971C83.3411 18.8706 83.5656 19.9943 83.84 19.9943C84.1144 19.9943 84.3389 18.8706 84.3389 17.4971C84.3389 16.1237 84.1144 15 83.84 15C83.5656 15 83.3411 16.1237 83.3411 17.4971ZM79.3502 17.9391C79.3502 18.5694 81.8665 20.1386 82.2546 19.7505C82.4322 19.5723 82.0201 18.9974 81.3382 18.473C79.9792 17.4277 79.3502 17.2589 79.3502 17.9391ZM86.0819 18.9984C85.584 19.5498 85.3231 20.1476 85.5027 20.3274C85.8669 20.6915 87.8309 19.0808 87.8309 18.4186C87.8309 17.6894 87.0233 17.9571 86.0819 18.9984ZM48.4228 27.7888C43.6292 29.5328 39.722 33.5028 38.3771 37.9961C37.8353 39.807 37.8243 39.813 35.4487 39.5848C32.1751 39.2696 28.3997 40.5941 26.5459 42.7077C24.5529 44.9806 23.8276 47.4642 24.0655 51.2049C24.3244 55.2718 26.046 57.9002 29.6174 59.6822C32.0404 60.8908 32.5767 60.9512 41.6586 61.0356C47.661 61.0911 49.877 61.2289 47.672 61.4102C44.1799 61.6964 44.1799 61.6964 44.0477 75.999C43.9155 90.3015 43.9155 90.3015 40.5556 90.5063C38.6634 90.6217 36.3332 91.1291 35.2217 91.667C32.5483 92.9615 29.6998 96.0025 28.696 98.6335C27.9372 100.623 27.6928 100.829 25.7377 101.123C22.6662 101.584 19.3223 103.896 17.686 106.692C16.5531 108.627 16.2951 109.669 16.2862 112.349C16.2737 116.196 17.4366 118.852 20.1968 121.278C23.0678 123.802 24.3105 123.951 40.9373 123.781C57.8479 123.608 58.1951 123.545 61.7082 120.028C64.2299 117.503 65.0266 115.552 65.2801 111.28C65.5081 107.424 65.5081 107.424 71.3069 107.285C77.1053 107.144 77.1053 107.144 77.2539 104.578C77.4031 102.012 77.4031 102.012 80.5524 101.674C83.7018 101.336 83.7018 101.336 84.0166 97.9972C84.1902 96.1608 84.3334 87.9557 84.3354 79.7636C84.3389 64.8682 84.3389 64.8682 81.9029 62.3117C79.4669 59.7551 79.4669 59.7551 81.4404 58.3238C86.2904 54.8068 87.2902 46.7111 83.5047 41.6055C80.9166 38.115 75.0699 36.1802 70.7332 37.3793C68.8914 37.8882 68.8425 37.8657 68.1466 36.1987C67.0286 33.5207 63.1499 29.7206 60.2505 28.462C56.8337 26.9797 51.4844 26.6756 48.4228 27.7888ZM58.5553 28.7802C61.3944 29.7486 65.5639 33.3959 66.9568 36.1297C67.9834 38.1444 67.9834 38.1444 65.9346 39.8485C64.8071 40.7854 63.8852 41.8711 63.8852 42.2602C63.8852 43.337 64.6774 43.1067 65.5475 41.7773C65.976 41.122 67.5055 39.9983 68.9458 39.2801C76.4892 35.5164 84.8377 40.6041 84.8377 48.965C84.8377 52.1059 83.6315 54.5691 80.8203 57.1691C78.6957 59.1343 78.6956 59.1343 77.1521 57.2939C75.6086 55.4536 75.6087 55.4536 63.2616 55.4536C50.9146 55.4536 50.9146 55.4536 50.9146 57.701C50.9146 59.9484 50.9146 59.9484 42.3092 59.9454C37.5764 59.9439 32.8461 59.7042 31.7975 59.413C27.1964 58.134 23.7562 52.4705 24.9356 48.116C26.6267 41.8706 32.9868 38.8062 38.7861 41.4421C41.297 42.5833 43.8237 45.8681 44.2513 48.5475C44.4194 49.5988 44.7526 50.4593 44.9921 50.4593C45.6127 50.4593 45.5338 49.5024 44.6758 46.6102C43.9454 44.148 40.7716 40.4708 39.3768 40.4708C38.4155 40.4708 39.3499 37.3988 41.1248 34.7219C44.9197 28.9994 52.061 26.5647 58.5553 28.7802ZM74.8603 60.9472C74.8603 64.9427 74.8603 64.9427 79.1007 64.9427C83.3411 64.9427 83.3411 64.9427 83.3416 82.7972C83.3421 100.652 83.3421 100.652 72.3505 100.492C61.359 100.332 61.359 100.332 58.5803 98.8687C57.0522 98.0636 55.2433 97.4054 54.5609 97.4054C53.8779 97.4054 52.8981 96.9 52.3833 96.2817C51.5038 95.2264 51.4459 93.9948 51.43 76.0549C51.4135 56.9518 51.4135 56.9518 63.1369 56.9518C74.8603 56.9518 74.8603 56.9518 74.8603 60.9472ZM80.524 64.3493C76.1514 64.639 75.8581 64.4023 75.8581 60.5767C75.8581 57.2285 75.8581 57.2285 79.3686 60.711C82.8792 64.1935 82.8792 64.1935 80.524 64.3493ZM53.9079 58.9495C53.9079 59.2347 55.4045 59.449 57.3999 59.449C59.3954 59.449 60.892 59.2347 60.892 58.9495C60.892 58.6644 59.3954 58.4501 57.3999 58.4501C55.4045 58.4501 53.9079 58.6644 53.9079 58.9495ZM53.9079 61.4467C53.9079 61.7558 56.5683 61.9461 60.892 61.9461C65.2157 61.9461 67.8762 61.7558 67.8762 61.4467C67.8762 61.1375 65.2157 60.9472 60.892 60.9472C56.5683 60.9472 53.9079 61.1375 53.9079 61.4467ZM50.9146 78.2264C50.9146 94.0073 50.9146 94.0073 49.2933 92.93C48.4018 92.3372 47.0549 91.619 46.3001 91.3339C44.9282 90.815 44.9282 90.815 44.9282 76.6302C44.9282 62.4455 44.9282 62.4455 47.9214 62.4455C50.9146 62.4455 50.9146 62.4455 50.9146 78.2264ZM53.9079 63.9438C53.9079 64.248 56.1528 64.4432 59.6448 64.4432C63.1369 64.4432 65.3818 64.248 65.3818 63.9438C65.3818 63.6397 63.1369 63.4444 59.6448 63.4444C56.1528 63.4444 53.9079 63.6397 53.9079 63.9438ZM53.9079 66.9404C53.9079 67.256 57.3999 67.4398 63.3864 67.4398C69.3728 67.4398 72.8649 67.256 72.8649 66.9404C72.8649 66.6247 69.3728 66.4409 63.3864 66.4409C57.3999 66.4409 53.9079 66.6247 53.9079 66.9404ZM63.8773 73.345C61.9721 74.3434 59.8868 77.7879 59.9053 79.9065C59.9112 80.6037 60.3537 82.1389 60.888 83.3181C61.6598 85.0201 62.3412 85.6754 64.1935 86.4954C69.9066 89.0255 75.3383 85.0825 74.7391 78.8402C74.2432 73.6726 68.6509 70.8434 63.8773 73.345ZM70.3511 74.6715C72.6728 75.8731 73.8626 77.7809 73.8626 80.3015C73.8626 82.2358 73.5997 82.8036 71.926 84.4792C70.2957 86.1109 69.6596 86.418 67.9101 86.418C63.6079 86.418 61.0636 83.6762 61.5291 79.5414C61.6663 78.3228 62.1721 76.9554 62.653 76.5029C63.3295 75.8661 63.4368 75.8496 63.1275 76.4295C62.8905 76.873 62.9129 77.0088 63.1818 76.7626C63.4313 76.5334 63.6358 76.0909 63.6358 75.7782C63.6358 74.9921 65.8438 73.9488 67.527 73.9398C68.2947 73.9358 69.5658 74.265 70.3511 74.6715ZM99.254 75.574C98.3216 76.2022 97.1099 77.4123 96.5611 78.2624C95.7639 79.4979 95.1299 79.859 93.4053 80.0598C89.3929 80.5263 86.678 84.716 87.7855 88.7318C88.3832 90.8989 90.9119 93.2881 93.0262 93.6832C93.8727 93.841 99.3314 93.9004 105.156 93.815C115.747 93.6597 115.747 93.6597 117.042 92.3627C117.94 91.4627 118.397 90.3914 118.532 88.8667C118.711 86.85 118.695 86.813 118.338 88.4157C117.247 93.3031 116.62 93.5024 102.916 93.3126C92.232 93.1648 91.8633 93.1258 90.688 92.0191C90.0215 91.3918 89.1844 89.9949 88.8287 88.9151C87.9741 86.3231 88.9354 83.6442 91.2896 82.056C93.3579 80.6606 95.5509 80.6162 97.6956 81.9252C99.6172 83.0978 99.8038 83.1293 99.8038 82.2808C99.8038 81.9277 99.1168 81.233 98.2767 80.736C96.8689 79.9035 96.8046 79.7507 97.4536 78.7723C98.9183 76.5638 100.728 75.6803 103.785 75.6803C106.298 75.6803 106.957 75.8926 108.612 77.2336C109.667 78.0881 110.847 79.6228 111.236 80.6446C111.925 82.4571 111.907 82.533 110.488 83.7491C109.388 84.692 109.333 84.8039 110.267 84.2085C112.314 82.902 115.114 83.1902 116.804 84.8813C117.606 85.6843 118.262 86.1538 118.262 85.9246C118.262 85.0521 115.133 82.922 113.851 82.922C112.682 82.922 112.391 82.5849 111.591 80.3C110.051 75.9076 108.053 74.4318 103.644 74.4318C101.663 74.4318 100.5 74.7344 99.254 75.574ZM66.206 78.2274C65.6986 78.9241 65.4487 79.6478 65.6507 79.8346C65.8523 80.0218 66.1177 79.8945 66.2399 79.5509C66.7408 78.147 67.3364 79.0844 67.5085 81.5486C67.6916 84.1706 67.6916 84.1706 67.7839 81.4877C67.8637 79.1643 67.9765 78.8876 68.6245 79.426C69.5998 80.2366 69.5838 79.4505 68.5961 78.0391C67.6183 76.6412 67.3444 76.6627 66.206 78.2274ZM14.9961 86.9174C14.9961 87.1921 15.6696 87.4169 16.4927 87.4169C17.3158 87.4169 17.9893 87.1921 17.9893 86.9174C17.9893 86.6427 17.3158 86.418 16.4927 86.418C15.6696 86.418 14.9961 86.6427 14.9961 86.9174ZM18.0606 88.8163C17.7124 89.449 17.5074 90.348 17.6057 90.814C17.7538 91.5211 17.889 91.4707 18.4168 90.5123C18.765 89.8795 18.9701 88.9806 18.8718 88.5146C18.7236 87.8074 18.5884 87.8578 18.0606 88.8163ZM21.4814 88.7743C21.4814 90.2156 21.9828 91.4123 22.5864 91.4123C22.8812 91.4123 22.9471 90.8484 22.7475 90.0388C22.2965 88.2119 21.4814 87.3979 21.4814 88.7743ZM90.3253 88.6654C90.3253 88.8028 90.4375 88.9151 90.5747 88.9151C90.7119 88.9151 90.8241 88.8028 90.8241 88.6654C90.8241 88.5281 90.7119 88.4157 90.5747 88.4157C90.4375 88.4157 90.3253 88.5281 90.3253 88.6654ZM46.7102 92.8112C47.7882 93.367 49.4435 94.6281 50.3888 95.6134C52.1079 97.4054 52.1079 97.4054 50.5744 97.4054C47.1746 97.4054 42.2867 100.77 40.4499 104.375C39.2965 106.638 38.6011 110.89 39.3838 110.89C39.6896 110.89 39.9415 110.272 39.9445 109.516C39.952 107.417 42.0702 103.323 44.0482 101.584C47.6875 98.3848 53.7402 97.4848 57.6933 99.5549C63.1644 102.421 66.0024 109.605 63.7635 114.922C62.7194 117.402 60.1198 120.234 57.6968 121.532C55.7512 122.574 54.964 122.634 41.1867 122.781C24.5634 122.958 23.3502 122.777 20.2407 119.659C15.9524 115.36 15.9958 109.755 20.3524 105.279C22.0586 103.526 23.2833 102.92 26.6073 102.182C27.8884 101.898 27.9682 101.969 27.6758 103.136C27.4803 103.916 27.5706 104.397 27.9128 104.397C28.2166 104.397 28.4656 103.956 28.4656 103.417C28.4656 100.047 32.0404 94.6416 35.4208 92.9011C38.8176 91.1516 43.4211 91.1151 46.7102 92.8112ZM73.3637 93.41C73.3637 93.7036 75.1098 93.9094 77.6041 93.9094C80.0985 93.9094 81.8445 93.7036 81.8445 93.41C81.8445 93.1163 80.0985 92.9106 77.6041 92.9106C75.1098 92.9106 73.3637 93.1163 73.3637 93.41ZM85.3366 94.1591C85.3366 94.2965 85.4488 94.4088 85.586 94.4088C85.7232 94.4088 85.8355 94.2965 85.8355 94.1591C85.8355 94.0218 85.7232 93.9094 85.586 93.9094C85.4488 93.9094 85.3366 94.0218 85.3366 94.1591ZM66.3796 95.9071C66.3796 96.2188 69.2895 96.4065 74.112 96.4065C78.9346 96.4065 81.8445 96.2188 81.8445 95.9071C81.8445 95.5955 78.9346 95.4077 74.112 95.4077C69.2895 95.4077 66.3796 95.5955 66.3796 95.9071ZM69.3728 98.4042C69.3728 98.7104 71.7838 98.9037 75.6087 98.9037C79.4335 98.9037 81.8445 98.7104 81.8445 98.4042C81.8445 98.0981 79.4335 97.9048 75.6087 97.9048C71.7838 97.9048 69.3728 98.0981 69.3728 98.4042ZM76.357 104.148C76.357 106.395 76.3569 106.395 70.7122 106.395C64.5851 106.395 65.083 106.66 62.9838 102.275C62.885 102.069 65.8538 101.9 69.5808 101.9C76.357 101.9 76.357 101.9 76.357 104.148Z" fill="#676767"/>
<path fill-rule="evenodd" clip-rule="evenodd" d="M83.3411 17.4971C83.3411 18.8706 83.5656 19.9943 83.84 19.9943C84.1144 19.9943 84.3389 18.8706 84.3389 17.4971C84.3389 16.1237 84.1144 15 83.84 15C83.5656 15 83.3411 16.1237 83.3411 17.4971ZM79.3502 17.9391C79.3502 18.5694 81.8665 20.1386 82.2546 19.7505C82.4322 19.5723 82.0201 18.9974 81.3382 18.473C79.9792 17.4277 79.3502 17.2589 79.3502 17.9391ZM86.0819 18.9984C85.584 19.5498 85.3231 20.1476 85.5027 20.3274C85.8669 20.6915 87.8309 19.0808 87.8309 18.4186C87.8309 17.6894 87.0233 17.9571 86.0819 18.9984ZM48.4228 27.7888C43.6292 29.5328 39.722 33.5028 38.3771 37.9961C37.8353 39.807 37.8243 39.813 35.4487 39.5848C32.1751 39.2696 28.3997 40.5941 26.5459 42.7077C24.5529 44.9806 23.8276 47.4642 24.0655 51.2049C24.3244 55.2718 26.046 57.9002 29.6174 59.6822C32.0404 60.8908 32.5767 60.9512 41.6586 61.0356C47.661 61.0911 49.877 61.2289 47.672 61.4102C44.1799 61.6964 44.1799 61.6964 44.0477 75.999C43.9155 90.3015 43.9155 90.3015 40.5556 90.5063C38.6634 90.6217 36.3332 91.1291 35.2217 91.667C32.5483 92.9615 29.6998 96.0025 28.696 98.6335C27.9372 100.623 27.6928 100.829 25.7377 101.123C22.6662 101.584 19.3223 103.896 17.686 106.692C16.5531 108.627 16.2951 109.669 16.2862 112.349C16.2737 116.196 17.4366 118.852 20.1968 121.278C23.0678 123.802 24.3105 123.951 40.9373 123.781C57.8479 123.608 58.1951 123.545 61.7082 120.028C64.23 117.503 65.0266 115.552 65.2801 111.28C65.5081 107.424 65.5081 107.424 71.3069 107.285C77.1053 107.144 77.1053 107.144 77.2539 104.578C77.4031 102.012 77.4031 102.012 80.746 101.629C86.3663 100.986 82.6198 100.507 71.5439 100.452C61.4922 100.402 61.4922 100.402 58.6471 98.9037C57.0822 98.0796 55.2433 97.4054 54.5609 97.4054C53.8779 97.4054 52.8981 96.9 52.3833 96.2817C51.5038 95.2264 51.4459 93.9948 51.43 76.0549C51.4135 56.9518 51.4135 56.9518 63.1369 56.9518C74.8603 56.9518 74.8603 56.9518 74.8603 60.9472C74.8603 64.9427 74.8603 64.9427 79.1007 64.9427C83.3411 64.9427 83.3411 64.9427 83.3561 81.5486C83.3666 92.9685 83.5287 97.8843 83.8749 97.289C84.1942 96.7411 84.3254 90.5652 84.2341 80.4519C84.0894 64.4802 84.0894 64.4802 81.7198 62.0725C79.4589 59.7746 78.8323 58.8022 79.7892 59.0744C80.8004 59.3621 83.5172 56.6717 84.6287 54.2814C86.5878 50.0692 86.1542 45.1793 83.5047 41.6055C80.9166 38.115 75.0699 36.1802 70.7332 37.3793C68.8914 37.8882 68.8425 37.8657 68.1466 36.1987C67.0286 33.5207 63.1499 29.7206 60.2505 28.462C56.8337 26.9797 51.4844 26.6756 48.4228 27.7888ZM58.5553 28.7802C61.3944 29.7486 65.5639 33.3959 66.9568 36.1297C67.9834 38.1444 67.9834 38.1444 65.9346 39.8485C64.8071 40.7854 63.8852 41.8711 63.8852 42.2602C63.8852 43.337 64.6774 43.1067 65.5475 41.7773C65.976 41.122 67.5055 39.9983 68.9458 39.2801C76.4892 35.5164 84.8377 40.6041 84.8377 48.965C84.8377 52.1059 83.6315 54.5691 80.8203 57.1691C78.6957 59.1343 78.6956 59.1343 77.1521 57.2939C75.6087 55.4536 75.6087 55.4536 63.2617 55.4536C50.9146 55.4536 50.9146 55.4536 50.9146 57.701C50.9146 59.9484 50.9146 59.9484 42.3092 59.9454C37.5764 59.9439 32.8461 59.7042 31.7975 59.413C27.1964 58.134 23.7562 52.4705 24.9356 48.116C26.6267 41.8706 32.9868 38.8062 38.7861 41.4421C41.297 42.5833 43.8237 45.8681 44.2513 48.5475C44.4194 49.5988 44.7526 50.4593 44.9921 50.4593C45.6127 50.4593 45.5338 49.5024 44.6758 46.6102C43.9454 44.148 40.7716 40.4708 39.3768 40.4708C38.4155 40.4708 39.3499 37.3988 41.1248 34.7219C44.9197 28.9994 52.061 26.5647 58.5553 28.7802ZM80.2232 61.151C81.6634 62.5309 82.8422 63.8364 82.8422 64.0517C82.8422 64.5112 77.8002 64.5831 76.6473 64.1401C76.0392 63.9063 75.8581 63.0893 75.8581 60.5832C75.8581 56.84 75.7014 56.8195 80.2232 61.151ZM53.9079 58.9495C53.9079 59.2347 55.4045 59.449 57.3999 59.449C59.3954 59.449 60.892 59.2347 60.892 58.9495C60.892 58.6644 59.3954 58.4501 57.3999 58.4501C55.4045 58.4501 53.9079 58.6644 53.9079 58.9495ZM53.9079 61.4467C53.9079 61.7558 56.5683 61.9461 60.892 61.9461C65.2157 61.9461 67.8762 61.7558 67.8762 61.4467C67.8762 61.1375 65.2157 60.9472 60.892 60.9472C56.5683 60.9472 53.9079 61.1375 53.9079 61.4467ZM50.9146 78.2264C50.9146 94.0073 50.9146 94.0073 49.2933 92.93C48.4018 92.3372 47.0549 91.619 46.3001 91.3339C44.9282 90.815 44.9282 90.815 44.9282 76.6302C44.9282 62.4455 44.9282 62.4455 47.9214 62.4455C50.9146 62.4455 50.9146 62.4455 50.9146 78.2264ZM53.9079 63.9438C53.9079 64.248 56.1528 64.4432 59.6449 64.4432C63.1369 64.4432 65.3818 64.248 65.3818 63.9438C65.3818 63.6397 63.1369 63.4444 59.6449 63.4444C56.1528 63.4444 53.9079 63.6397 53.9079 63.9438ZM53.9079 66.9404C53.9079 67.256 57.3999 67.4398 63.3864 67.4398C69.3728 67.4398 72.8649 67.256 72.8649 66.9404C72.8649 66.6247 69.3728 66.4409 63.3864 66.4409C57.3999 66.4409 53.9079 66.6247 53.9079 66.9404ZM63.9456 73.2881C59.2063 75.6254 58.7249 83.2461 63.1514 85.8611C65.9441 87.5102 68.0298 87.6731 70.5736 86.4405C73.474 85.0346 75.1068 81.9596 74.7296 78.6115C74.1749 73.6851 68.6604 70.9627 63.9456 73.2881ZM70.5202 74.7354C72.8953 75.93 73.8387 77.3779 73.8516 79.8485C73.8716 83.7371 71.2974 86.42 67.5499 86.416C65.3724 86.414 62.7358 85.0036 61.8653 83.3755C61.0497 81.8498 61.5336 77.5582 62.6386 76.5169C63.3085 75.8861 63.4288 75.8646 63.1275 76.4295C62.8905 76.873 62.9129 77.0088 63.1818 76.7626C63.4313 76.5334 63.6358 76.0909 63.6358 75.7782C63.6358 74.9921 65.8438 73.9488 67.527 73.9398C68.2947 73.9358 69.6417 74.2939 70.5202 74.7354ZM99.254 75.574C98.3216 76.2022 97.1099 77.4123 96.5611 78.2624C95.7639 79.4979 95.1299 79.859 93.4053 80.0598C89.3046 80.5368 86.693 84.6855 87.8309 88.9151C88.1263 90.0139 88.6102 90.9128 88.906 90.9128C89.2343 90.9128 89.3086 90.4748 89.0961 89.7891C88.2954 87.2026 88.2829 86.4989 89.0063 84.7654C89.8678 82.7013 92.3856 80.9288 94.4609 80.9263C95.2262 80.9253 96.7417 81.3783 97.8283 81.9332C100.254 83.1722 100.643 82.1354 98.2767 80.736C96.8689 79.9035 96.8046 79.7507 97.4536 78.7723C98.9048 76.5843 100.733 75.6803 103.706 75.6803C106.92 75.6803 109.192 76.9379 110.826 79.6203C111.996 81.5396 112.03 80.7885 110.88 78.4452C109.573 75.7832 107.188 74.4318 103.795 74.4318C101.657 74.4318 100.528 74.7159 99.254 75.574ZM66.6909 77.8593C66.189 78.4147 65.8957 79.1628 66.0394 79.5219C66.2359 80.0134 66.3107 80.0203 66.3402 79.5509C66.3616 79.2078 66.5921 78.9266 66.8525 78.9266C67.1124 78.9266 67.4077 80.1068 67.5085 81.5486C67.6916 84.1706 67.6916 84.1706 67.7839 81.4877C67.8637 79.1643 67.9765 78.8876 68.6245 79.426C69.6636 80.289 69.5708 79.2822 68.4883 77.9437C67.6033 76.85 67.6033 76.85 66.6909 77.8593ZM110.529 83.6052C109.323 84.7724 109.272 84.8948 110.267 84.237C110.945 83.7885 112.291 83.391 113.26 83.3535C114.641 83.3001 114.751 83.2357 113.772 83.0534C113.086 82.9255 112.413 82.6718 112.276 82.489C112.138 82.3067 111.353 82.8086 110.529 83.6052ZM115.269 83.6712C115.269 83.8085 115.381 83.9209 115.518 83.9209C115.655 83.9209 115.768 83.8085 115.768 83.6712C115.768 83.5338 115.655 83.4214 115.518 83.4214C115.381 83.4214 115.269 83.5338 115.269 83.6712ZM116.266 84.1097C116.266 84.213 116.659 84.6066 117.139 84.9837C117.931 85.6044 117.948 85.587 117.328 84.7949C116.676 83.9628 116.266 83.6986 116.266 84.1097ZM117.763 86.1683C117.763 86.3056 117.875 86.418 118.012 86.418C118.15 86.418 118.262 86.3056 118.262 86.1683C118.262 86.031 118.15 85.9186 118.012 85.9186C117.875 85.9186 117.763 86.031 117.763 86.1683ZM14.9961 86.9174C14.9961 87.1921 15.6696 87.4169 16.4927 87.4169C17.3158 87.4169 17.9893 87.1921 17.9893 86.9174C17.9893 86.6427 17.3158 86.418 16.4927 86.418C15.6696 86.418 14.9961 86.6427 14.9961 86.9174ZM118.378 88.4157C118.378 89.3771 118.48 89.7707 118.606 89.2897C118.731 88.8088 118.731 88.0227 118.606 87.5417C118.48 87.0608 118.378 87.4543 118.378 88.4157ZM18.0606 88.8163C17.7124 89.449 17.5074 90.348 17.6057 90.814C17.7538 91.5211 17.889 91.4707 18.4168 90.5123C18.765 89.8795 18.9701 88.9806 18.8718 88.5146C18.7236 87.8074 18.5884 87.8578 18.0606 88.8163ZM21.4814 88.7743C21.4814 90.2156 21.9828 91.4123 22.5864 91.4123C22.8812 91.4123 22.9471 90.8484 22.7475 90.0388C22.2965 88.2119 21.4814 87.3979 21.4814 88.7743ZM90.3253 88.6654C90.3253 88.8028 90.4375 88.9151 90.5747 88.9151C90.7119 88.9151 90.8242 88.8028 90.8242 88.6654C90.8242 88.5281 90.7119 88.4157 90.5747 88.4157C90.4375 88.4157 90.3253 88.5281 90.3253 88.6654ZM117.763 90.6631C117.763 90.8005 117.875 90.9128 118.012 90.9128C118.15 90.9128 118.262 90.8005 118.262 90.6631C118.262 90.5258 118.15 90.4134 118.012 90.4134C117.875 90.4134 117.763 90.5258 117.763 90.6631ZM46.7102 92.8112C47.7882 93.367 49.4435 94.6281 50.3888 95.6134C52.1079 97.4054 52.1079 97.4054 50.5744 97.4054C47.1746 97.4054 42.2867 100.77 40.4499 104.375C39.2965 106.638 38.6011 110.89 39.3838 110.89C39.6896 110.89 39.9415 110.272 39.9445 109.516C39.952 107.417 42.0702 103.323 44.0482 101.584C47.6875 98.3848 53.7402 97.4848 57.6933 99.5549C63.1644 102.421 66.0024 109.605 63.7635 114.922C62.7194 117.402 60.1198 120.234 57.6968 121.532C55.7512 122.574 54.964 122.634 41.1867 122.781C24.5634 122.958 23.3502 122.777 20.2407 119.659C15.9524 115.36 15.9958 109.755 20.3524 105.279C22.0586 103.526 23.2833 102.92 26.6073 102.182C27.8884 101.898 27.9682 101.969 27.6758 103.136C27.4803 103.916 27.5706 104.397 27.9128 104.397C28.2166 104.397 28.4656 103.956 28.4656 103.417C28.4656 100.047 32.0404 94.6416 35.4208 92.9011C38.8176 91.1516 43.4211 91.1151 46.7102 92.8112ZM116.701 92.2863C116.081 93.0784 116.099 93.0958 116.89 92.4751C117.721 91.8223 117.985 91.4123 117.574 91.4123C117.471 91.4123 117.078 91.8053 116.701 92.2863ZM90.8242 92.6608C90.8242 92.7982 90.9364 92.9106 91.0736 92.9106C91.2108 92.9106 91.323 92.7982 91.323 92.6608C91.323 92.5235 91.2108 92.4111 91.0736 92.4111C90.9364 92.4111 90.8242 92.5235 90.8242 92.6608ZM73.3637 93.41C73.3637 93.7036 75.1098 93.9094 77.6041 93.9094C80.0985 93.9094 81.8445 93.7036 81.8445 93.41C81.8445 93.1163 80.0985 92.9106 77.6041 92.9106C75.1098 92.9106 73.3637 93.1163 73.3637 93.41ZM91.8219 93.1603C91.8219 93.2976 91.9341 93.41 92.0713 93.41C92.2085 93.41 92.3208 93.2976 92.3208 93.1603C92.3208 93.0229 92.2085 92.9106 92.0713 92.9106C91.9341 92.9106 91.8219 93.0229 91.8219 93.1603ZM115.269 93.1603C115.269 93.2976 115.381 93.41 115.518 93.41C115.655 93.41 115.768 93.2976 115.768 93.1603C115.768 93.0229 115.655 92.9106 115.518 92.9106C115.381 92.9106 115.269 93.0229 115.269 93.1603ZM98.1825 93.783C101.269 93.8704 106.321 93.8704 109.407 93.783C112.494 93.6951 109.968 93.6237 103.795 93.6237C97.6212 93.6237 95.096 93.6951 98.1825 93.783ZM85.3366 94.1591C85.3366 94.2965 85.4488 94.4088 85.586 94.4088C85.7232 94.4088 85.8355 94.2965 85.8355 94.1591C85.8355 94.0218 85.7232 93.9094 85.586 93.9094C85.4488 93.9094 85.3366 94.0218 85.3366 94.1591ZM66.3796 95.9071C66.3796 96.2188 69.2895 96.4065 74.112 96.4065C78.9346 96.4065 81.8445 96.2188 81.8445 95.9071C81.8445 95.5955 78.9346 95.4077 74.112 95.4077C69.2895 95.4077 66.3796 95.5955 66.3796 95.9071ZM69.3728 98.4042C69.3728 98.7104 71.7838 98.9037 75.6087 98.9037C79.4335 98.9037 81.8445 98.7104 81.8445 98.4042C81.8445 98.0981 79.4335 97.9048 75.6087 97.9048C71.7838 97.9048 69.3728 98.0981 69.3728 98.4042ZM76.357 104.148C76.357 106.395 76.357 106.395 70.7123 106.395C64.5851 106.395 65.083 106.66 62.9838 102.275C62.885 102.069 65.8538 101.9 69.5808 101.9C76.357 101.9 76.357 101.9 76.357 104.148Z" fill="#4D4D4D"/>
<path fill-rule="evenodd" clip-rule="evenodd" d="M83.3411 17.4971C83.3411 18.8706 83.5656 19.9943 83.84 19.9943C84.1144 19.9943 84.3389 18.8706 84.3389 17.4971C84.3389 16.1237 84.1144 15 83.84 15C83.5656 15 83.3411 16.1237 83.3411 17.4971ZM79.3502 17.9391C79.3502 18.5694 81.8665 20.1386 82.2546 19.7505C82.4322 19.5723 82.0201 18.9974 81.3382 18.473C79.9792 17.4277 79.3502 17.2589 79.3502 17.9391ZM86.0819 18.9984C85.584 19.5498 85.3231 20.1476 85.5027 20.3274C85.8669 20.6915 87.8309 19.0808 87.8309 18.4186C87.8309 17.6894 87.0233 17.9571 86.0819 18.9984ZM48.4228 27.7888C43.6292 29.5328 39.722 33.5028 38.3771 37.9961C37.8353 39.807 37.8243 39.813 35.4487 39.5848C32.1751 39.2696 28.3997 40.5941 26.5459 42.7077C24.5529 44.9806 23.8276 47.4642 24.0655 51.2049C24.3244 55.2718 26.046 57.9002 29.6174 59.6822C32.0404 60.8908 32.5767 60.9512 41.6586 61.0356C47.661 61.0911 49.877 61.2289 47.672 61.4102C44.1799 61.6964 44.1799 61.6964 44.0477 75.999C43.9155 90.3015 43.9155 90.3015 40.5556 90.5063C38.6634 90.6217 36.3332 91.1291 35.2217 91.667C32.5483 92.9615 29.6998 96.0025 28.696 98.6335C27.9372 100.623 27.6928 100.829 25.7377 101.123C22.6662 101.584 19.3223 103.896 17.686 106.692C16.5531 108.627 16.2951 109.669 16.2862 112.349C16.2737 116.196 17.4366 118.852 20.1968 121.278C23.0678 123.802 24.3105 123.951 40.9373 123.781C57.8479 123.608 58.1951 123.545 61.7082 120.028C64.23 117.503 65.0266 115.552 65.2801 111.28C65.5081 107.424 65.5081 107.424 71.3069 107.285C77.1053 107.144 77.1053 107.144 77.2559 104.522C77.4011 102.004 77.4634 101.9 78.8363 101.9C79.623 101.9 80.6213 101.764 81.0553 101.597C83.3481 100.717 80.8787 100.402 71.6686 100.402C61.4922 100.402 61.4922 100.402 58.6471 98.9037C57.0822 98.0796 55.2433 97.4054 54.5609 97.4054C53.8779 97.4054 52.8981 96.9 52.3833 96.2817C51.5038 95.2264 51.4459 93.9948 51.43 76.0549C51.4135 56.9518 51.4135 56.9518 63.1369 56.9518C74.8603 56.9518 74.8603 56.9518 74.8603 60.9472C74.8603 64.9427 74.8603 64.9427 76.2322 64.9267C77.4794 64.9122 77.5248 64.8508 76.7311 64.2475C76.0631 63.74 75.8581 62.8496 75.8581 60.4563C75.8581 57.7329 75.9549 57.4093 76.6064 57.9507C77.5817 58.7613 77.5657 57.9752 76.578 56.5638C75.8107 55.467 75.6511 55.4536 63.3579 55.4536C50.9146 55.4536 50.9146 55.4536 50.9146 57.701C50.9146 59.9484 50.9146 59.9484 42.3092 59.9454C37.5764 59.9439 32.8461 59.7042 31.7975 59.413C27.1964 58.134 23.7562 52.4705 24.9356 48.116C26.6267 41.8706 32.9868 38.8062 38.7861 41.4421C41.297 42.5833 43.8237 45.8681 44.2513 48.5475C44.4194 49.5988 44.7526 50.4593 44.9921 50.4593C45.6127 50.4593 45.5338 49.5024 44.6758 46.6102C43.9454 44.148 40.7716 40.4708 39.3768 40.4708C38.4155 40.4708 39.3499 37.3988 41.1248 34.7219C44.9197 28.9994 52.061 26.5647 58.5553 28.7802C61.3944 29.7486 65.5639 33.3959 66.9568 36.1297C67.9834 38.1444 67.9834 38.1444 65.9346 39.8485C64.8071 40.7854 63.8852 41.8711 63.8852 42.2602C63.8852 43.337 64.6774 43.1067 65.5475 41.7773C66.7358 39.9618 71.1363 37.9736 73.9659 37.9736C83.9083 37.9736 88.6386 50.255 81.2104 56.7845C79.1172 58.6244 78.6118 59.3955 79.5946 59.2512C81.1805 59.0185 83.4828 56.7456 84.6287 54.2814C86.5878 50.0692 86.1542 45.1793 83.5047 41.6055C80.9166 38.115 75.0699 36.1802 70.7332 37.3793C68.8914 37.8882 68.8425 37.8657 68.1466 36.1987C67.0286 33.5207 63.1499 29.7206 60.2505 28.462C56.8337 26.9797 51.4844 26.6756 48.4228 27.7888ZM53.9079 58.9495C53.9079 59.2347 55.4045 59.449 57.3999 59.449C59.3954 59.449 60.892 59.2347 60.892 58.9495C60.892 58.6644 59.3954 58.4501 57.3999 58.4501C55.4045 58.4501 53.9079 58.6644 53.9079 58.9495ZM53.9079 61.4467C53.9079 61.7558 56.5683 61.9461 60.892 61.9461C65.2157 61.9461 67.8762 61.7558 67.8762 61.4467C67.8762 61.1375 65.2157 60.9472 60.892 60.9472C56.5683 60.9472 53.9079 61.1375 53.9079 61.4467ZM50.9146 78.2264C50.9146 94.0073 50.9146 94.0073 49.2933 92.93C48.4018 92.3372 47.0549 91.619 46.3001 91.3339C44.9282 90.815 44.9282 90.815 44.9282 76.6302C44.9282 62.4455 44.9282 62.4455 47.9214 62.4455C50.9146 62.4455 50.9146 62.4455 50.9146 78.2264ZM53.9079 63.9438C53.9079 64.248 56.1528 64.4432 59.6449 64.4432C63.1369 64.4432 65.3818 64.248 65.3818 63.9438C65.3818 63.6397 63.1369 63.4444 59.6449 63.4444C56.1528 63.4444 53.9079 63.6397 53.9079 63.9438ZM83.384 81.174C83.4 91.1111 83.5891 97.74 83.84 97.1557C84.4426 95.7518 84.4426 65.8761 83.84 64.9427C83.5227 64.4512 83.3661 70.0388 83.384 81.174ZM53.9079 66.9404C53.9079 67.256 57.3999 67.4398 63.3864 67.4398C69.3728 67.4398 72.8649 67.256 72.8649 66.9404C72.8649 66.6247 69.3728 66.4409 63.3864 66.4409C57.3999 66.4409 53.9079 66.6247 53.9079 66.9404ZM63.9456 73.2881C58.9604 75.7468 58.7229 83.5298 63.5575 86.0115C66.2115 87.3734 69.4746 87.4094 71.2316 86.0959C73.7713 84.1981 74.575 82.6094 74.5935 79.454C74.6079 76.9918 74.4074 76.2941 73.3637 75.1749C70.7547 72.3771 67.2267 71.6699 63.9456 73.2881ZM70.8724 74.9327C73.1657 76.1038 73.9988 77.4308 73.9988 79.913C73.9988 83.9154 71.3453 86.418 67.1029 86.418C65.1144 86.418 64.5323 86.1668 63.0262 84.659C61.3565 82.9874 61.2806 82.7627 61.4976 80.1387C61.6453 78.3568 62.0459 77.0767 62.6266 76.5289C63.2906 75.9031 63.4218 75.8771 63.1275 76.4295C62.8905 76.873 62.9129 77.0088 63.1818 76.7626C63.4313 76.5334 63.6358 76.0909 63.6358 75.7782C63.6358 74.9931 65.8433 73.9488 67.522 73.9398C68.2873 73.9358 69.7953 74.3823 70.8724 74.9327ZM99.254 75.574C98.3216 76.2022 97.1099 77.4123 96.5611 78.2624C95.7639 79.4979 95.1299 79.859 93.4053 80.0598C89.3046 80.5368 86.693 84.6855 87.8309 88.9151C88.1263 90.0139 88.6102 90.9128 88.906 90.9128C89.2343 90.9128 89.3086 90.4748 89.0961 89.7891C88.2954 87.2026 88.2829 86.4989 89.0063 84.7654C89.8678 82.7013 92.3856 80.9288 94.4609 80.9263C95.2262 80.9253 96.7417 81.3783 97.8283 81.9332C100.254 83.1722 100.643 82.1354 98.2767 80.736C96.8689 79.9035 96.8046 79.7507 97.4536 78.7723C98.9118 76.5738 100.73 75.6803 103.745 75.6803C106.133 75.6803 106.93 75.9201 108.481 77.1042C110.538 78.6754 111.483 78.5351 109.987 76.881C107.528 74.1601 102.297 73.5233 99.254 75.574ZM66.7168 77.8304C65.6782 78.9795 65.6148 79.7691 66.629 78.9266C67.2785 78.3867 67.3873 78.6919 67.4531 81.238C67.5295 84.1706 67.5295 84.1706 67.8662 80.9243C68.2439 77.2805 67.944 76.4729 66.7168 77.8304ZM68.3751 78.8677C68.3751 79.1424 68.5995 79.5059 68.8739 79.6757C69.1483 79.8456 69.3728 79.7596 69.3728 79.485C69.3728 79.2103 69.1483 78.8467 68.8739 78.6769C68.5995 78.5071 68.3751 78.593 68.3751 78.8677ZM110.779 79.1763C110.779 79.3137 110.891 79.426 111.028 79.426C111.166 79.426 111.278 79.3137 111.278 79.1763C111.278 79.039 111.166 78.9266 111.028 78.9266C110.891 78.9266 110.779 79.039 110.779 79.1763ZM111.278 80.6746C111.278 80.8119 111.39 80.9243 111.527 80.9243C111.664 80.9243 111.777 80.8119 111.777 80.6746C111.777 80.5373 111.664 80.4249 111.527 80.4249C111.39 80.4249 111.278 80.5373 111.278 80.6746ZM111.777 83.1717C111.777 83.3091 111.889 83.4214 112.026 83.4214C112.163 83.4214 112.276 83.3091 112.276 83.1717C112.276 83.0344 112.163 82.922 112.026 82.922C111.889 82.922 111.777 83.0344 111.777 83.1717ZM109.781 84.1706C109.781 84.3079 109.893 84.4203 110.031 84.4203C110.168 84.4203 110.28 84.3079 110.28 84.1706C110.28 84.0332 110.168 83.9209 110.031 83.9209C109.893 83.9209 109.781 84.0332 109.781 84.1706ZM116.266 84.1097C116.266 84.213 116.659 84.6066 117.139 84.9837C117.931 85.6044 117.948 85.587 117.328 84.7949C116.676 83.9628 116.266 83.6986 116.266 84.1097ZM117.763 86.1683C117.763 86.3056 117.875 86.418 118.012 86.418C118.15 86.418 118.262 86.3056 118.262 86.1683C118.262 86.031 118.15 85.9186 118.012 85.9186C117.875 85.9186 117.763 86.031 117.763 86.1683ZM14.9961 86.9174C14.9961 87.1921 15.6696 87.4169 16.4927 87.4169C17.3158 87.4169 17.9893 87.1921 17.9893 86.9174C17.9893 86.6427 17.3158 86.418 16.4927 86.418C15.6696 86.418 14.9961 86.6427 14.9961 86.9174ZM118.341 88.4157C118.341 89.1024 118.454 89.3836 118.592 89.04C118.731 88.6969 118.731 88.135 118.592 87.7914C118.454 87.4483 118.341 87.729 118.341 88.4157ZM18.0606 88.8163C17.7124 89.449 17.5074 90.348 17.6057 90.814C17.7538 91.5211 17.889 91.4707 18.4168 90.5123C18.765 89.8795 18.9701 88.9806 18.8718 88.5146C18.7236 87.8074 18.5884 87.8578 18.0606 88.8163ZM21.4814 88.7743C21.4814 90.2156 21.9828 91.4123 22.5864 91.4123C22.8812 91.4123 22.9471 90.8484 22.7475 90.0388C22.2965 88.2119 21.4814 87.3979 21.4814 88.7743ZM90.3253 88.6654C90.3253 88.8028 90.4375 88.9151 90.5747 88.9151C90.7119 88.9151 90.8242 88.8028 90.8242 88.6654C90.8242 88.5281 90.7119 88.4157 90.5747 88.4157C90.4375 88.4157 90.3253 88.5281 90.3253 88.6654ZM117.763 90.6631C117.763 90.8005 117.875 90.9128 118.012 90.9128C118.15 90.9128 118.262 90.8005 118.262 90.6631C118.262 90.5258 118.15 90.4134 118.012 90.4134C117.875 90.4134 117.763 90.5258 117.763 90.6631ZM46.7102 92.8112C47.7882 93.367 49.4435 94.6281 50.3888 95.6134C52.1079 97.4054 52.1079 97.4054 50.5744 97.4054C47.1746 97.4054 42.2867 100.77 40.4499 104.375C39.2965 106.638 38.6011 110.89 39.3838 110.89C39.6896 110.89 39.9415 110.272 39.9445 109.516C39.952 107.417 42.0702 103.323 44.0482 101.584C47.6875 98.3848 53.7402 97.4848 57.6933 99.5549C63.1644 102.421 66.0024 109.605 63.7635 114.922C62.7194 117.402 60.1198 120.234 57.6968 121.532C55.7512 122.574 54.964 122.634 41.1867 122.781C24.5634 122.958 23.3502 122.777 20.2407 119.659C15.9524 115.36 15.9958 109.755 20.3524 105.279C22.0586 103.526 23.2833 102.92 26.6073 102.182C27.8884 101.898 27.9682 101.969 27.6758 103.136C27.4803 103.916 27.5706 104.397 27.9128 104.397C28.2166 104.397 28.4656 103.956 28.4656 103.417C28.4656 100.047 32.0404 94.6416 35.4208 92.9011C38.8176 91.1516 43.4211 91.1151 46.7102 92.8112ZM116.967 91.9891C116.746 92.3462 116.83 92.4301 117.187 92.2089C117.504 92.0131 117.763 91.7539 117.763 91.6325C117.763 91.216 117.323 91.4133 116.967 91.9891ZM90.8242 92.6608C90.8242 92.7982 90.9364 92.9106 91.0736 92.9106C91.2108 92.9106 91.323 92.7982 91.323 92.6608C91.323 92.5235 91.2108 92.4111 91.0736 92.4111C90.9364 92.4111 90.8242 92.5235 90.8242 92.6608ZM73.3637 93.41C73.3637 93.7036 75.1098 93.9094 77.6041 93.9094C80.0985 93.9094 81.8445 93.7036 81.8445 93.41C81.8445 93.1163 80.0985 92.9106 77.6041 92.9106C75.1098 92.9106 73.3637 93.1163 73.3637 93.41ZM115.269 93.1603C115.269 93.2976 115.381 93.41 115.518 93.41C115.655 93.41 115.768 93.2976 115.768 93.1603C115.768 93.0229 115.655 92.9106 115.518 92.9106C115.381 92.9106 115.269 93.0229 115.269 93.1603ZM113.772 93.6597C113.772 93.797 113.884 93.9094 114.022 93.9094C114.159 93.9094 114.271 93.797 114.271 93.6597C114.271 93.5223 114.159 93.41 114.022 93.41C113.884 93.41 113.772 93.5223 113.772 93.6597ZM85.3366 94.1591C85.3366 94.2965 85.4488 94.4088 85.586 94.4088C85.7232 94.4088 85.8355 94.2965 85.8355 94.1591C85.8355 94.0218 85.7232 93.9094 85.586 93.9094C85.4488 93.9094 85.3366 94.0218 85.3366 94.1591ZM66.3796 95.9071C66.3796 96.2188 69.2895 96.4065 74.112 96.4065C78.9346 96.4065 81.8445 96.2188 81.8445 95.9071C81.8445 95.5955 78.9346 95.4077 74.112 95.4077C69.2895 95.4077 66.3796 95.5955 66.3796 95.9071ZM69.3728 98.4042C69.3728 98.7104 71.7838 98.9037 75.6087 98.9037C79.4335 98.9037 81.8445 98.7104 81.8445 98.4042C81.8445 98.0981 79.4335 97.9048 75.6087 97.9048C71.7838 97.9048 69.3728 98.0981 69.3728 98.4042ZM76.357 104.148C76.357 106.395 76.357 106.395 70.7123 106.395C64.5851 106.395 65.083 106.66 62.9838 102.275C62.885 102.069 65.8538 101.9 69.5808 101.9C76.357 101.9 76.357 101.9 76.357 104.148Z" fill="#3C3C3C"/>
<path fill-rule="evenodd" clip-rule="evenodd" d="M83.3411 17.4971C83.3411 18.8706 83.5656 19.9943 83.84 19.9943C84.1144 19.9943 84.3389 18.8706 84.3389 17.4971C84.3389 16.1237 84.1144 15 83.84 15C83.5656 15 83.3411 16.1237 83.3411 17.4971ZM79.3502 17.9391C79.3502 18.5694 81.8665 20.1386 82.2546 19.7505C82.4322 19.5723 82.0201 18.9974 81.3382 18.473C79.9792 17.4277 79.3502 17.2589 79.3502 17.9391ZM86.0819 18.9984C85.584 19.5498 85.3231 20.1476 85.5027 20.3274C85.8669 20.6915 87.8309 19.0808 87.8309 18.4186C87.8309 17.6894 87.0233 17.9571 86.0819 18.9984ZM48.4228 27.7888C43.6292 29.5328 39.722 33.5028 38.3771 37.9961C37.8353 39.807 37.8243 39.813 35.4487 39.5848C32.1751 39.2696 28.3997 40.5941 26.5459 42.7077C24.5529 44.9806 23.8276 47.4642 24.0655 51.2049C24.3244 55.2718 26.046 57.9002 29.6174 59.6822C32.0404 60.8908 32.5767 60.9512 41.6586 61.0356C47.661 61.0911 49.877 61.2289 47.672 61.4102C44.1799 61.6964 44.1799 61.6964 44.0477 75.999C43.9155 90.3015 43.9155 90.3015 40.5556 90.5063C38.6634 90.6217 36.3332 91.1291 35.2217 91.667C32.5483 92.9615 29.6998 96.0025 28.696 98.6335C27.9372 100.623 27.6928 100.829 25.7377 101.123C22.6662 101.584 19.3223 103.896 17.686 106.692C16.5531 108.627 16.2951 109.669 16.2862 112.349C16.2737 116.196 17.4366 118.852 20.1968 121.278C23.0678 123.802 24.3105 123.951 40.9373 123.781C57.8479 123.608 58.1951 123.545 61.7082 120.028C64.2299 117.503 65.0266 115.552 65.2801 111.28C65.5081 107.424 65.5081 107.424 71.3069 107.285C77.1053 107.144 77.1053 107.144 77.2549 104.551C77.4046 101.964 77.4091 101.957 79.212 101.804C80.2057 101.719 81.1112 101.37 81.2239 101.026C81.383 100.541 79.212 100.402 71.4606 100.402C61.4922 100.402 61.4922 100.402 58.6471 98.9037C57.0822 98.0796 55.2433 97.4054 54.5609 97.4054C53.8779 97.4054 52.8981 96.9 52.3833 96.2817C51.5038 95.2264 51.4459 93.9948 51.43 76.0549C51.4135 56.9518 51.4135 56.9518 63.1369 56.9518C74.8603 56.9518 74.8603 56.9518 74.8603 60.9472C74.8603 64.6095 74.9437 64.9427 75.8581 64.9427C76.4068 64.9427 76.8558 64.7179 76.8558 64.4432C76.8558 64.1685 76.6313 63.9438 76.357 63.9438C76.0751 63.9438 75.8581 62.5189 75.8581 60.6681C75.8581 58.6114 76.0437 57.5072 76.357 57.701C76.6313 57.8708 76.8558 57.704 76.8558 57.3309C76.8558 55.5959 75.8282 55.4536 63.2866 55.4536C50.9146 55.4536 50.9146 55.4536 50.9146 57.701C50.9146 59.9484 50.9146 59.9484 42.3092 59.9454C37.5764 59.9439 32.8461 59.7042 31.7975 59.413C27.1964 58.134 23.7562 52.4705 24.9356 48.116C26.6267 41.8706 32.9868 38.8062 38.7861 41.4421C41.297 42.5833 43.8237 45.8681 44.2513 48.5475C44.4194 49.5988 44.7526 50.4593 44.9921 50.4593C45.6127 50.4593 45.5338 49.5024 44.6758 46.6102C43.9454 44.148 40.7716 40.4708 39.3768 40.4708C38.4155 40.4708 39.3499 37.3988 41.1248 34.7219C44.9197 28.9994 52.061 26.5647 58.5553 28.7802C61.3944 29.7486 65.5639 33.3959 66.9568 36.1297C67.9834 38.1444 67.9834 38.1444 65.9346 39.8485C64.8071 40.7854 63.8852 41.8711 63.8852 42.2602C63.8852 43.337 64.6774 43.1067 65.5475 41.7773C66.7358 39.9618 71.1363 37.9736 73.9659 37.9736C83.9772 37.9736 88.6346 50.2585 81.1256 56.8589C79.1945 58.5565 78.989 58.9495 80.0311 58.9495C81.3317 58.9495 83.4728 56.7665 84.6462 54.2444C86.5259 50.2021 86.0619 44.9716 83.5247 41.6055C80.8857 38.105 75.0654 36.1817 70.7332 37.3793C68.8914 37.8882 68.8425 37.8657 68.1466 36.1987C67.0286 33.5207 63.1499 29.7206 60.2505 28.462C56.8337 26.9797 51.4844 26.6756 48.4228 27.7888ZM53.9079 58.9495C53.9079 59.2347 55.4045 59.449 57.3999 59.449C59.3954 59.449 60.892 59.2347 60.892 58.9495C60.892 58.6644 59.3954 58.4501 57.3999 58.4501C55.4045 58.4501 53.9079 58.6644 53.9079 58.9495ZM53.9079 61.4467C53.9079 61.7558 56.5683 61.9461 60.892 61.9461C65.2157 61.9461 67.8762 61.7558 67.8762 61.4467C67.8762 61.1375 65.2157 60.9472 60.892 60.9472C56.5683 60.9472 53.9079 61.1375 53.9079 61.4467ZM50.9146 78.2264C50.9146 94.0073 50.9146 94.0073 49.2933 92.93C48.4018 92.3372 47.0549 91.619 46.3001 91.3339C44.9282 90.815 44.9282 90.815 44.9282 76.6302C44.9282 62.4455 44.9282 62.4455 47.9214 62.4455C50.9146 62.4455 50.9146 62.4455 50.9146 78.2264ZM53.9079 63.9438C53.9079 64.248 56.1528 64.4432 59.6448 64.4432C63.1369 64.4432 65.3818 64.248 65.3818 63.9438C65.3818 63.6397 63.1369 63.4444 59.6448 63.4444C56.1528 63.4444 53.9079 63.6397 53.9079 63.9438ZM83.3486 81.5486C83.3536 92.1319 83.5222 97.3984 83.84 96.906C84.505 95.8756 84.505 65.4421 83.84 65.4421C83.5177 65.4421 83.3436 71.1385 83.3486 81.5486ZM53.9079 66.9404C53.9079 67.256 57.3999 67.4398 63.3864 67.4398C69.3728 67.4398 72.8649 67.256 72.8649 66.9404C72.8649 66.6247 69.3728 66.4409 63.3864 66.4409C57.3999 66.4409 53.9079 66.6247 53.9079 66.9404ZM63.9456 73.2881C60.6735 74.9017 59.2183 79.0075 60.6176 82.6758C61.2886 84.4353 61.9087 85.1085 63.6667 85.9875C64.8805 86.5943 66.0249 86.9394 66.21 86.7546C66.3945 86.5693 66.1795 86.418 65.7315 86.418C65.2841 86.418 64.1242 85.7203 63.1544 84.8678C61.5954 83.4979 61.3949 83.0489 61.4258 80.9972C61.4682 78.1939 61.9985 76.6792 62.9379 76.6792C63.3215 76.6792 63.6358 76.3486 63.6358 75.945C63.6358 75.0161 65.7031 73.9493 67.522 73.9398C69.706 73.9283 72.9048 75.8062 73.5314 77.4683C74.2283 79.3162 75.0813 79.3826 74.6279 77.5532C73.5957 73.39 68.1491 71.215 63.9456 73.2881ZM99.254 75.574C98.3216 76.2022 97.1099 77.4123 96.5611 78.2624C95.7609 79.5024 95.1319 79.859 93.3823 80.0623C89.3345 80.5333 86.7329 84.7704 87.8693 89.04C88.1437 90.0703 88.6102 90.9128 88.906 90.9128C89.2343 90.9128 89.3086 90.4748 89.0961 89.7891C88.2954 87.2026 88.2829 86.4989 89.0063 84.7654C89.8618 82.7148 92.3821 80.9288 94.424 80.9263C95.1693 80.9253 96.5696 81.3019 97.5359 81.7628C99.243 82.5779 100.792 82.2773 99.3009 81.4202C96.6913 79.9205 96.6195 79.7302 98.0253 78.0571C100.421 75.2064 105.108 74.664 108.214 76.8785C110.152 78.2604 111.234 78.2599 109.984 76.878C107.528 74.1601 102.296 73.5243 99.254 75.574ZM63.3864 76.1798C63.3864 76.3171 63.2741 76.4295 63.1369 76.4295C62.9997 76.4295 62.8875 76.3171 62.8875 76.1798C62.8875 76.0424 62.9997 75.93 63.1369 75.93C63.2741 75.93 63.3864 76.0424 63.3864 76.1798ZM67.0271 77.5412C66.7562 77.8913 66.3447 78.5146 66.1122 78.9266C65.752 79.5644 65.8109 79.5774 66.5058 79.013C67.2396 78.4177 67.3414 78.6205 67.507 81.0107C67.6916 83.6712 67.6916 83.6712 67.7839 80.9882C67.8692 78.5136 67.944 78.3578 68.7492 78.9815C69.4307 79.5099 69.4047 79.3866 68.63 78.4187C68.0842 77.7365 67.6108 77.1172 67.5784 77.0418C67.5459 76.9664 67.298 77.1911 67.0271 77.5412ZM73.8626 81.9232C73.8626 82.2892 74.0123 82.4391 74.1954 82.2563C74.3779 82.073 74.3779 81.7733 74.1954 81.59C74.0123 81.4073 73.8626 81.5571 73.8626 81.9232ZM73.3637 83.1717C73.3637 83.3091 73.476 83.4214 73.6132 83.4214C73.7504 83.4214 73.8626 83.3091 73.8626 83.1717C73.8626 83.0344 73.7504 82.922 73.6132 82.922C73.476 82.922 73.3637 83.0344 73.3637 83.1717ZM72.0692 85.0446C71.1188 86.1683 71.1188 86.1683 72.2413 85.2169C73.2959 84.3229 73.5907 83.9209 73.1916 83.9209C73.0968 83.9209 72.592 84.4263 72.0692 85.0446ZM70.3705 86.1683C70.3705 86.3056 70.4828 86.418 70.62 86.418C70.7571 86.418 70.8694 86.3056 70.8694 86.1683C70.8694 86.031 70.7571 85.9186 70.62 85.9186C70.4828 85.9186 70.3705 86.031 70.3705 86.1683ZM14.9961 86.9174C14.9961 87.1921 15.6696 87.4169 16.4927 87.4169C17.3158 87.4169 17.9893 87.1921 17.9893 86.9174C17.9893 86.6427 17.3158 86.418 16.4927 86.418C15.6696 86.418 14.9961 86.6427 14.9961 86.9174ZM69.04 86.7511C69.2231 86.9339 69.5224 86.9339 69.7055 86.7511C69.8881 86.5678 69.7385 86.418 69.3728 86.418C69.0071 86.418 68.8575 86.5678 69.04 86.7511ZM18.0606 88.8163C17.7124 89.449 17.5074 90.348 17.6057 90.814C17.7538 91.5211 17.889 91.4707 18.4168 90.5123C18.765 89.8795 18.9701 88.9806 18.8718 88.5146C18.7236 87.8074 18.5884 87.8578 18.0606 88.8163ZM21.4814 88.7743C21.4814 90.2156 21.9828 91.4123 22.5864 91.4123C22.8812 91.4123 22.9471 90.8484 22.7475 90.0388C22.2965 88.2119 21.4814 87.3979 21.4814 88.7743ZM90.3253 88.6654C90.3253 88.8028 90.4375 88.9151 90.5747 88.9151C90.7119 88.9151 90.8241 88.8028 90.8241 88.6654C90.8241 88.5281 90.7119 88.4157 90.5747 88.4157C90.4375 88.4157 90.3253 88.5281 90.3253 88.6654ZM46.7102 92.8112C47.7882 93.367 49.4435 94.6281 50.3888 95.6134C52.1079 97.4054 52.1079 97.4054 50.5744 97.4054C47.1746 97.4054 42.2867 100.77 40.4499 104.375C39.2965 106.638 38.6011 110.89 39.3838 110.89C39.6896 110.89 39.9415 110.272 39.9445 109.516C39.947 108.761 40.4798 107.019 41.1283 105.646C46.3086 94.6755 61.8967 96.6473 64.3721 108.586C65.3699 113.396 62.5103 118.956 57.7207 121.52C55.7452 122.577 55.0134 122.633 41.1867 122.781C24.5634 122.958 23.3502 122.777 20.2407 119.659C15.9524 115.36 15.9958 109.755 20.3524 105.279C22.0586 103.526 23.2833 102.92 26.6073 102.182C27.8884 101.898 27.9682 101.969 27.6758 103.136C27.4803 103.916 27.5706 104.397 27.9128 104.397C28.2166 104.397 28.4656 103.956 28.4656 103.417C28.4656 100.047 32.0404 94.6416 35.4208 92.9011C38.8176 91.1516 43.4211 91.1151 46.7102 92.8112ZM73.3637 93.41C73.3637 93.7036 75.1098 93.9094 77.6041 93.9094C80.0985 93.9094 81.8445 93.7036 81.8445 93.41C81.8445 93.1163 80.0985 92.9106 77.6041 92.9106C75.1098 92.9106 73.3637 93.1163 73.3637 93.41ZM85.3366 94.1591C85.3366 94.2965 85.4488 94.4088 85.586 94.4088C85.7232 94.4088 85.8355 94.2965 85.8355 94.1591C85.8355 94.0218 85.7232 93.9094 85.586 93.9094C85.4488 93.9094 85.3366 94.0218 85.3366 94.1591ZM66.3796 95.9071C66.3796 96.2188 69.2895 96.4065 74.112 96.4065C78.9346 96.4065 81.8445 96.2188 81.8445 95.9071C81.8445 95.5955 78.9346 95.4077 74.112 95.4077C69.2895 95.4077 66.3796 95.5955 66.3796 95.9071ZM69.3728 98.4042C69.3728 98.7104 71.7838 98.9037 75.6087 98.9037C79.4335 98.9037 81.8445 98.7104 81.8445 98.4042C81.8445 98.0981 79.4335 97.9048 75.6087 97.9048C71.7838 97.9048 69.3728 98.0981 69.3728 98.4042ZM76.357 104.148C76.357 106.395 76.3569 106.395 70.7122 106.395C64.5851 106.395 65.083 106.66 62.9838 102.275C62.885 102.069 65.8538 101.9 69.5808 101.9C76.357 101.9 76.357 101.9 76.357 104.148Z" fill="#3389FF"/>
</svg>
