<svg width="24" height="24" viewBox="0 0 24 24" fill="none" xmlns="http://www.w3.org/2000/svg">
<mask id="mask0_2901_37579" style="mask-type:alpha" maskUnits="userSpaceOnUse" x="0" y="0" width="24" height="24">
<rect width="24" height="24" fill="#D9D9D9"/>
</mask>
<g mask="url(#mask0_2901_37579)">
<path d="M6.625 19.0004C6.15833 19.0004 5.771 18.8464 5.463 18.5384C5.15433 18.2297 5 17.8421 5 17.3754V15.0004H6V17.3754C6 17.5421 6.06267 17.6877 6.188 17.8124C6.31267 17.9377 6.45833 18.0004 6.625 18.0004H17.375C17.5417 18.0004 17.6873 17.9377 17.812 17.8124C17.9373 17.6877 18 17.5421 18 17.3754V15.0004H19V17.3754C19 17.8421 18.846 18.2297 18.538 18.5384C18.2293 18.8464 17.8417 19.0004 17.375 19.0004H6.625ZM11.5 15.2254V6.57539L9.175 8.90039L8.45 8.20039L12 4.65039L15.55 8.20039L14.825 8.90039L12.5 6.57539V15.2254H11.5Z" fill="white"/>
</g>
</svg>
