<svg width="18" height="18" viewBox="0 0 18 18" fill="none" xmlns="http://www.w3.org/2000/svg">
<path d="M17 10C17.5523 10 18 9.55229 18 9C18 8.44772 17.5523 8 17 8V10ZM17 4C17.5523 4 18 3.55228 18 3C18 2.44772 17.5523 2 17 2V4ZM1 8C0.447716 8 0 8.44772 0 9C0 9.55229 0.447716 10 1 10V8ZM17 16C17.5523 16 18 15.5523 18 15C18 14.4477 17.5523 14 17 14V16ZM1 2C0.447716 2 0 2.44772 0 3C0 3.55228 0.447716 4 1 4V2ZM1 14C0.447716 14 0 14.4477 0 15C0 15.5523 0.447716 16 1 16V14ZM15 10H17V8H15V10ZM5 4C4.44771 4 4 3.55228 4 3H2C2 4.65685 3.34315 6 5 6V4ZM4 3C4 2.44772 4.44771 2 5 2V0C3.34315 0 2 1.34315 2 3H4ZM5 2C5.55229 2 6 2.44772 6 3H8C8 1.34315 6.65685 0 5 0V2ZM6 3C6 3.55228 5.55229 4 5 4V6C6.65685 6 8 4.65685 8 3H6ZM13 10C12.4477 10 12 9.55229 12 9H10C10 10.6569 11.3431 12 13 12V10ZM12 9C12 8.44772 12.4477 8 13 8V6C11.3431 6 10 7.34315 10 9H12ZM13 8C13.5523 8 14 8.44772 14 9H16C16 7.34315 14.6569 6 13 6V8ZM14 9C14 9.55229 13.5523 10 13 10V12C14.6569 12 16 10.6569 16 9H14ZM5 16C4.44771 16 4 15.5523 4 15H2C2 16.6569 3.34315 18 5 18V16ZM4 15C4 14.4477 4.44771 14 5 14L5 12C3.34315 12 2 13.3431 2 15H4ZM5 14C5.55229 14 6 14.4477 6 15H8C8 13.3431 6.65685 12 5 12L5 14ZM6 15C6 15.5523 5.55229 16 5 16V18C6.65685 18 8 16.6569 8 15H6ZM7 4L17 4V2L7 2V4ZM1 10L11 10V8L1 8V10ZM7 16H17V14H7V16ZM1 4L3 4V2L1 2V4ZM1 16H3V14H1V16Z" fill="#00A4FF"/>
</svg>
