<svg width="16" height="16" viewBox="0 0 16 16" fill="none" xmlns="http://www.w3.org/2000/svg">
<path d="M3.725 12.5H4.725V8H3.725V12.5ZM11.275 12.5H12.275V3H11.275V12.5ZM7.5 12.5H8.5V10H7.5V12.5ZM7.5 8H8.5V6H7.5V8ZM1.625 16C1.15833 16 0.771 15.846 0.463 15.538C0.154333 15.2293 0 14.8417 0 14.375V1.625C0 1.15833 0.154333 0.771 0.463 0.463C0.771 0.154333 1.15833 0 1.625 0H14.375C14.8417 0 15.2293 0.154333 15.538 0.463C15.846 0.771 16 1.15833 16 1.625V14.375C16 14.8417 15.846 15.2293 15.538 15.538C15.2293 15.846 14.8417 16 14.375 16H1.625ZM1.625 15H14.375C14.5417 15 14.6873 14.9373 14.812 14.812C14.9373 14.6873 15 14.5417 15 14.375V1.625C15 1.45833 14.9373 1.31267 14.812 1.188C14.6873 1.06267 14.5417 1 14.375 1H1.625C1.45833 1 1.31267 1.06267 1.188 1.188C1.06267 1.31267 1 1.45833 1 1.625V14.375C1 14.5417 1.06267 14.6873 1.188 14.812C1.31267 14.9373 1.45833 15 1.625 15Z" fill="#003B8C"/>
</svg>
