<svg width="22" height="17" viewBox="0 0 22 17" fill="none" xmlns="http://www.w3.org/2000/svg">
<path d="M21.2656 4.04061C21.076 3.88438 20.8467 3.78408 20.6032 3.75096C20.3598 3.71784 20.112 3.75321 19.8875 3.85311L15.1531 5.95311C15.1323 5.96449 15.1093 5.97158 15.0857 5.97397C15.062 5.97635 15.0382 5.97398 15.0155 5.96699C14.9927 5.96 14.9717 5.94853 14.9534 5.93327C14.9352 5.91801 14.9202 5.89925 14.9094 5.87811L12.1438 0.909362C12.0316 0.703967 11.8662 0.53256 11.665 0.413145C11.4637 0.29373 11.234 0.230713 11 0.230713C10.766 0.230713 10.5363 0.29373 10.335 0.413145C10.1338 0.53256 9.9684 0.703967 9.85626 0.909362L7.09063 5.87811C7.07978 5.89925 7.0648 5.91801 7.04658 5.93327C7.02837 5.94853 7.00728 5.96 6.98457 5.96699C6.96185 5.97398 6.93797 5.97635 6.91432 5.97397C6.89068 5.97158 6.86775 5.96449 6.84688 5.95311L2.11251 3.85311C1.88884 3.75167 1.6412 3.71503 1.39774 3.74733C1.15429 3.77964 0.924775 3.87961 0.735307 4.03587C0.545839 4.19213 0.404015 4.39842 0.325959 4.63128C0.247903 4.86414 0.236747 5.11423 0.293759 5.35311L2.68438 15.5062C2.72487 15.6778 2.79975 15.8394 2.90449 15.9812C3.00924 16.123 3.14166 16.2421 3.29376 16.3312C3.49412 16.4539 3.72447 16.5188 3.95938 16.5187C4.0796 16.5176 4.19923 16.5019 4.31563 16.4719C8.68625 15.2627 13.3027 15.2595 17.675 16.4625C17.8456 16.5117 18.0243 16.5258 18.2005 16.504C18.3767 16.4822 18.5466 16.4248 18.6999 16.3354C18.8533 16.246 18.9869 16.1265 19.0928 15.9839C19.1986 15.8414 19.2744 15.6789 19.3156 15.5062L21.6969 5.35311C21.7564 5.11595 21.7474 4.86678 21.6711 4.63448C21.5948 4.40218 21.4542 4.19627 21.2656 4.04061ZM20.6094 5.09061L18.2188 15.2437C18.2059 15.2931 18.176 15.3362 18.1344 15.3656C18.0878 15.3883 18.0351 15.3949 17.9844 15.3844C13.4137 14.1218 8.5863 14.1218 4.01563 15.3844C3.99099 15.3913 3.96519 15.3932 3.9398 15.3898C3.91441 15.3865 3.88999 15.3779 3.86803 15.3647C3.84607 15.3516 3.82704 15.334 3.81211 15.3132C3.79719 15.2924 3.78669 15.2688 3.78126 15.2437L1.39063 5.09061C1.38518 5.06258 1.38589 5.0337 1.39272 5.00598C1.39954 4.97825 1.41232 4.95234 1.43015 4.93004C1.44799 4.90774 1.47047 4.88959 1.49602 4.87685C1.52157 4.86411 1.54959 4.85707 1.57813 4.85624L1.65313 4.87499L6.39688 6.98436C6.69604 7.11907 7.03501 7.13598 7.34609 7.03171C7.65717 6.92744 7.91747 6.70966 8.07501 6.42186L10.8406 1.45311C10.8554 1.42349 10.8782 1.39858 10.9063 1.38117C10.9345 1.36376 10.9669 1.35454 11 1.35454C11.0331 1.35454 11.0656 1.36376 11.0937 1.38117C11.1219 1.39858 11.1446 1.42349 11.1594 1.45311L13.925 6.42186C14.0825 6.70966 14.3428 6.92744 14.6539 7.03171C14.965 7.13598 15.304 7.11907 15.6031 6.98436L20.3469 4.87499C20.379 4.86074 20.4145 4.85582 20.4494 4.8608C20.4842 4.86577 20.5169 4.88043 20.5438 4.90311C20.5712 4.92508 20.5918 4.95431 20.6034 4.98746C20.615 5.02061 20.6171 5.05635 20.6094 5.09061Z" fill="#F69D18"/>
</svg>
