<svg width="59" height="72" viewBox="0 0 59 72" fill="none" xmlns="http://www.w3.org/2000/svg">
<path opacity="0.82" d="M46.9737 0.26672L33.3193 12.8374C35.0765 14.4669 36.0799 15.3496 37.0306 16.2904C40.9355 20.0901 43.2966 25.2247 43.6518 30.6899C44.0069 36.1551 42.3307 41.5575 38.951 45.8402C31.7877 54.9578 19.3576 56.8298 9.21765 50.3214C0.441202 44.6811 -2.59311 32.3578 2.40006 22.309C7.06675 12.9004 14.907 7.22617 24.418 3.68097C31.6485 0.969939 39.0566 -0.67414 46.9737 0.26672Z" fill="#00A4FF"/>
<path opacity="0.82" d="M11.5227 72L25.446 59.1674C23.6167 57.4361 22.5029 56.437 21.4514 55.3749C17.7279 51.6 15.4797 46.5934 15.1206 41.2769C14.7616 35.9604 16.3159 30.6918 19.4974 26.441C25.8156 17.9442 37.7993 15.3108 47.2527 20.34C57.0854 25.5729 61.1999 36.0727 57.335 46.8053C56.2116 49.9092 54.6656 53.0761 52.5339 55.5689C41.9282 68.1153 27.8465 72.0194 11.5227 72Z" fill="#005584"/>
</svg>
