<svg width="168" height="53" viewBox="0 0 168 53" fill="none" xmlns="http://www.w3.org/2000/svg">
<path d="M21.5928 18.9134V24.5037H35.0839C34.7257 27.5963 33.6512 29.9751 31.9797 31.5214C30.0695 33.4245 26.9653 35.5655 21.5928 35.5655C13.3548 35.5655 6.90776 28.9046 6.90776 20.6975C6.90776 12.4904 13.2354 5.8296 21.5928 5.8296C26.0102 5.8296 29.3531 7.61375 31.7409 9.87368L35.6808 5.94855C32.3379 2.73707 27.8011 0.239258 21.5928 0.239258C10.2507 0.239258 0.699463 9.39791 0.699463 20.6975C0.699463 31.9972 10.2507 41.1558 21.5928 41.1558C27.6817 41.1558 32.3379 39.1338 35.9196 35.4465C39.6207 31.7593 40.8146 26.5258 40.8146 22.3627C40.8146 21.0544 40.6952 19.8649 40.5758 18.9134H21.5928Z" fill="#4285F4"/>
<path d="M57.5292 14.2744C50.2464 14.2744 44.1575 19.8648 44.1575 27.4771C44.1575 35.0895 50.127 40.6799 57.5292 40.6799C64.9314 40.6799 70.9009 35.2085 70.9009 27.5961C70.9009 19.8648 64.9314 14.2744 57.5292 14.2744ZM57.5292 35.5653C53.4699 35.5653 50.0076 32.2349 50.0076 27.5961C50.0076 22.8383 53.4699 19.6269 57.5292 19.6269C61.5885 19.6269 65.0508 22.8383 65.0508 27.5961C65.0508 32.2349 61.5885 35.5653 57.5292 35.5653Z" fill="#EA4335"/>
<path d="M122.836 17.248H122.597C121.284 15.7017 118.776 14.2744 115.553 14.2744C108.867 14.2744 103.136 19.9837 103.136 27.4771C103.136 34.8516 108.867 40.6799 115.553 40.6799C118.776 40.6799 121.284 39.2525 122.597 37.7063H122.836V39.6094C122.836 44.605 120.09 47.3407 115.792 47.3407C112.21 47.3407 110.061 44.8429 109.106 42.583L104.091 44.7239C105.524 48.1733 109.464 52.5742 115.911 52.5742C122.716 52.5742 128.566 48.5301 128.566 38.7768V14.9881H123.075V17.248H122.836ZM116.15 35.5653C112.091 35.5653 109.106 32.1159 109.106 27.5961C109.106 22.9573 112.21 19.6269 116.15 19.6269C120.09 19.6269 123.194 23.0762 123.194 27.715C123.313 32.2349 120.209 35.5653 116.15 35.5653Z" fill="#4285F4"/>
<path d="M87.2574 14.2744C79.9746 14.2744 73.8857 19.8648 73.8857 27.4771C73.8857 35.0895 79.8552 40.6799 87.2574 40.6799C94.6596 40.6799 100.629 35.2085 100.629 27.5961C100.629 19.8648 94.6596 14.2744 87.2574 14.2744ZM87.2574 35.5653C83.1981 35.5653 79.7358 32.2349 79.7358 27.5961C79.7358 22.8383 83.1981 19.6269 87.2574 19.6269C91.3167 19.6269 94.779 22.8383 94.779 27.5961C94.779 32.2349 91.3167 35.5653 87.2574 35.5653Z" fill="#FBBC05"/>
<path d="M132.984 0.833984H138.715V40.799H132.984V0.833984Z" fill="#34A853"/>
<path d="M156.384 35.5653C153.4 35.5653 151.37 34.2569 149.937 31.5212L167.726 24.2657L167.13 22.7194C166.055 19.7458 162.593 14.2744 155.787 14.2744C148.982 14.2744 143.251 19.6269 143.251 27.4771C143.251 34.8516 148.863 40.6799 156.384 40.6799C162.473 40.6799 165.936 36.9926 167.488 34.8516L162.951 31.878C161.399 34.138 159.369 35.5653 156.384 35.5653ZM156.026 19.27C158.414 19.27 160.444 20.4595 161.041 22.1247L149.102 27.1203C148.982 21.6489 153.041 19.27 156.026 19.27Z" fill="#EA4335"/>
</svg>
