<svg width="194" height="41" viewBox="0 0 194 41" fill="none" xmlns="http://www.w3.org/2000/svg">
<g clip-path="url(#clip0_1430_18221)">
<path d="M31.0443 16.7447C27.7075 13.2334 22.1564 13.0903 18.6431 16.425L16.3888 18.5856C16.244 18.7244 16.0724 18.8322 15.8845 18.9025C15.6087 19.0051 15.3093 19.0262 15.0219 18.9632C14.7297 18.8989 14.4637 18.7482 14.2585 18.5305C13.9101 18.1633 13.7684 17.6461 13.881 17.1526C13.938 16.9118 14.0546 16.6891 14.22 16.505L8.0386 22.3611C8.31594 22.7808 8.62946 23.1755 8.97559 23.5406C10.5773 25.2282 12.7841 26.2101 15.11 26.27C17.4359 26.33 19.6903 25.4631 21.3769 23.8603L23.6311 21.6997C23.7764 21.5615 23.9479 21.4537 24.1355 21.3828C24.4112 21.2802 24.7107 21.2591 24.998 21.3222C25.2889 21.3818 25.5549 21.5277 25.7614 21.741C25.9011 21.8852 26.0091 22.057 26.0783 22.2454C26.1868 22.5234 26.2117 22.827 26.15 23.119C26.0858 23.4111 25.935 23.6771 25.7173 23.8823L31.9841 17.9325C31.7059 17.51 31.3915 17.1126 31.0443 16.7447Z" fill="#269EF7"/>
<path d="M33.8691 16.1412L31.9841 17.9325C34.3526 21.4803 33.8195 26.2187 30.7219 29.1515L38.8737 21.4104C39.5728 20.7482 39.9799 19.8352 40.0052 18.8727C40.0305 17.9101 39.672 16.977 39.0087 16.279C38.3467 15.577 37.4321 15.1678 36.4675 15.1419C35.5029 15.1161 34.5678 15.4757 33.8691 16.1412Z" fill="#FF8388"/>
<path d="M7.29722 13.9861C7.71764 13.0228 8.30861 12.1434 9.04167 11.3901L1.26469 18.7703C-0.190684 20.1528 -0.251116 22.4529 1.12965 23.9099C1.7936 24.6091 2.70816 25.0159 3.67207 25.0407C4.63598 25.0655 5.57026 24.7063 6.26929 24.0422L8.03854 22.3611C6.37998 19.8783 6.10056 16.7217 7.29722 13.9861Z" fill="#FF8388"/>
<path d="M16.3761 18.5913L16.3641 18.6033L16.3761 18.5913Z" fill="#1300A8"/>
<path d="M14.2998 16.4029L24.7252 6.50666C25.4232 5.84376 25.8293 4.9307 25.8541 3.96837C25.8789 3.00604 25.5204 2.07327 24.8575 1.37529C24.1946 0.677236 23.2815 0.271132 22.3192 0.246324C21.3568 0.221516 20.4241 0.580037 19.7261 1.24301L9.03894 11.39C6.15925 14.3532 5.74229 18.9259 8.03857 22.361L14.2199 16.5048C14.2447 16.4694 14.2713 16.4354 14.2998 16.4029Z" fill="#022494"/>
<path d="M33.3343 21.3388C33.1306 20.1206 32.6703 18.9595 31.984 17.9326L25.7172 23.8825L15.4076 33.6685C13.9569 35.0556 13.9039 37.3556 15.2891 38.8081C15.953 39.5073 16.8676 39.9141 17.8315 39.9389C18.7954 39.9637 19.7297 39.6045 20.4287 38.9404L25.5491 34.0791L30.7218 29.1516C32.8408 27.1459 33.8206 24.2158 33.3343 21.3388Z" fill="#022494"/>
<path d="M87.4591 13.5617C86.1458 13.5474 84.8765 14.0342 83.9096 14.9231V14.3719C83.9066 14.1479 83.7258 13.967 83.5017 13.964H80.0845C79.9761 13.9633 79.8719 14.006 79.7953 14.0827C79.7186 14.1593 79.6759 14.2635 79.6766 14.3719V33.04C79.6797 33.1435 79.7221 33.2421 79.7951 33.3155C79.8719 33.3922 79.9761 33.4349 80.0845 33.434H83.4907C83.5946 33.4321 83.6935 33.3896 83.7663 33.3155C83.8402 33.2423 83.8835 33.1439 83.8876 33.04V25.9409C84.8723 26.8515 86.1647 27.3565 87.506 27.3547C89.2384 27.3818 90.8974 26.6559 92.0531 25.3649C93.2748 24.0339 93.9301 22.2794 93.8802 20.4733C93.9339 18.6581 93.2797 16.8931 92.0559 15.5514C90.8842 14.2536 89.2073 13.5278 87.4591 13.5617ZM88.6772 22.5898C87.4958 23.7597 85.5926 23.7597 84.4112 22.5898C83.8357 22.0379 83.517 21.2706 83.5321 20.4733C83.5266 19.2519 84.2587 18.1479 85.386 17.6775C86.5132 17.2072 87.8129 17.4635 88.6772 18.3265C89.2563 18.8886 89.5748 19.6666 89.5563 20.4733C89.5714 21.2706 89.2527 22.0379 88.6772 22.5898Z" fill="#302A26"/>
<path d="M76.8465 13.956H73.4375C73.3291 13.9553 73.225 13.998 73.1483 14.0746C73.0717 14.1513 73.0289 14.2555 73.0297 14.3639V14.9564C72.039 14.0576 70.7489 13.5605 69.4112 13.5619C67.6775 13.5321 66.0166 14.2585 64.8614 15.5516C63.6436 16.8739 62.9892 18.6187 63.037 20.4157C63.037 22.3751 63.6433 24.0506 64.8614 25.3762C66.035 26.6762 67.7154 27.4022 69.4664 27.3659C70.7857 27.3742 72.0592 26.8818 73.0297 25.988V26.5557C73.0316 26.6595 73.0741 26.7585 73.1482 26.8313C73.2246 26.9087 73.3288 26.9523 73.4375 26.9525H76.8437C76.9478 26.949 77.0465 26.9056 77.1193 26.8313C77.1934 26.7585 77.2359 26.6595 77.2378 26.5557V14.3639C77.2359 14.26 77.1934 14.1611 77.1193 14.0883C77.0489 14.0105 76.9511 13.9631 76.8465 13.956ZM72.5309 22.6038C71.3307 23.6612 69.5155 23.6041 68.3841 22.4735C67.2527 21.3428 67.1944 19.5276 68.251 18.3268C68.813 17.7473 69.5908 17.4278 70.3978 17.4449C71.1981 17.4471 71.9645 17.7682 72.5273 18.3372C73.0901 18.9062 73.4028 19.6761 73.3962 20.4763C73.4173 21.2752 73.1035 22.0465 72.5309 22.6038Z" fill="#302A26"/>
<path d="M102.748 13.5619C101.431 13.5448 100.158 14.0318 99.1879 14.9233V14.3721C99.1896 14.1491 99.0139 13.9649 98.7911 13.956H95.3738C95.2654 13.9553 95.1612 13.998 95.0846 14.0747C95.0079 14.1513 94.9652 14.2555 94.966 14.3639V33.0402C94.969 33.1438 95.0114 33.2423 95.0845 33.3158C95.1612 33.3924 95.2654 33.4351 95.3738 33.4343H98.7911C98.8949 33.4324 98.9938 33.3898 99.0666 33.3158C99.1405 33.2426 99.1838 33.1441 99.1879 33.0402V25.9412C100.172 26.8511 101.463 27.356 102.804 27.3549C104.537 27.3828 106.197 26.6568 107.353 25.3652C108.575 24.0341 109.23 22.2796 109.181 20.4736C109.234 18.6578 108.579 16.8925 107.353 15.5516C106.181 14.2507 104.5 13.5245 102.748 13.5619ZM103.967 22.5901C102.785 23.7599 100.882 23.7599 99.7005 22.5901C99.125 22.0381 98.8063 21.2708 98.8214 20.4736C98.8159 19.2521 99.548 18.1481 100.675 17.6778C101.803 17.2074 103.102 17.4637 103.967 18.3268C104.549 18.8874 104.87 19.6656 104.854 20.4736C104.867 21.2721 104.545 22.0395 103.967 22.5901Z" fill="#302A26"/>
<path d="M59.8262 14.7469C59.1152 13.9201 57.933 13.5619 56.3787 13.5619C55.5657 13.5361 54.7585 13.7062 54.0252 14.0579C53.6197 14.2788 53.2484 14.5573 52.9228 14.8847V7.74429C52.9236 7.63637 52.8812 7.53262 52.8052 7.45605C52.7291 7.37948 52.6257 7.33642 52.5177 7.33643H49.117C49.0088 7.33681 48.9051 7.37931 48.8277 7.45493C48.7513 7.53181 48.7087 7.63592 48.7092 7.74429V26.5529C48.7111 26.6567 48.7536 26.7557 48.8277 26.8285C48.9041 26.9059 49.0083 26.9495 49.117 26.9497H52.5233C52.6273 26.9462 52.726 26.9028 52.7988 26.8285C52.8729 26.7557 52.9154 26.6567 52.9173 26.5529V20.3026C52.9173 19.2003 53.1295 18.4369 53.4685 17.974C53.8075 17.511 54.309 17.285 55.0862 17.2767C55.8633 17.2685 56.307 17.4862 56.5633 17.8279C56.8196 18.1696 57.018 18.8641 57.0153 19.8893V26.5529C57.0158 26.6663 57.0631 26.7744 57.1461 26.8516C57.2291 26.9289 57.3403 26.9684 57.4534 26.9608H60.8597C61.0843 26.9593 61.266 26.7775 61.2675 26.5529V18.8972C61.2835 18.1723 61.2029 17.4485 61.0278 16.7449C60.7716 16.002 60.3623 15.3213 59.8262 14.7469Z" fill="#302A26"/>
<path d="M193.694 21.2944C193.767 21.2213 193.81 21.1225 193.812 21.0188V20.5007C193.812 18.4201 193.228 16.7059 192.027 15.4493C190.825 14.1926 189.183 13.5588 187.157 13.5615C185.131 13.5643 183.442 14.1844 182.197 15.4438C180.951 16.7032 180.364 18.4063 180.364 20.4732C180.364 22.5401 180.992 24.2239 182.271 25.4778C183.55 26.7317 185.272 27.3573 187.355 27.3545C190.387 27.3738 192.592 25.9766 193.675 23.3007C193.721 23.1849 193.713 23.0543 193.653 22.9452C193.591 22.8371 193.483 22.763 193.36 22.744L190.205 22.2369C190.05 22.2116 189.894 22.2781 189.805 22.4078C189.103 23.4109 188.292 23.8546 187.242 23.8629C186.38 23.8629 185.785 23.6176 185.344 23.1491C184.935 22.6616 184.706 22.0489 184.693 21.4129H193.407C193.515 21.4133 193.618 21.3706 193.694 21.2944ZM184.906 18.4339C185.278 17.3315 185.975 16.8603 187.27 16.83C187.847 16.8025 188.414 16.9879 188.863 17.3508C189.195 17.6428 189.446 18.016 189.59 18.4339H184.906Z" fill="#302A26"/>
<path d="M160.552 6.74908C159.898 6.74456 159.27 7.0062 158.813 7.47387L159.103 7.76323L158.813 7.47387C157.975 8.31082 157.845 9.62393 158.504 10.6086C159.163 11.5932 160.426 11.9744 161.52 11.5187C162.613 11.0629 163.232 9.89734 162.996 8.73626C162.761 7.57517 161.737 6.74276 160.552 6.74908Z" fill="#302A26"/>
<path d="M172.857 13.5619C171.519 13.5594 170.229 14.0567 169.239 14.9563V7.7443C169.238 7.63611 169.196 7.53232 169.12 7.45494C169.043 7.37856 168.939 7.33593 168.831 7.33644H165.425C165.316 7.3357 165.212 7.37843 165.135 7.45508C165.059 7.53173 165.016 7.6359 165.017 7.7443V26.5529C165.018 26.7775 165.2 26.9593 165.425 26.9608H168.831C169.055 26.9593 169.237 26.7775 169.239 26.5529V25.9687C170.206 26.8659 171.48 27.3589 172.799 27.3466C174.55 27.3829 176.231 26.6568 177.404 25.3569C178.622 24.0423 179.234 22.3668 179.231 20.3964C179.283 18.5971 178.634 16.8481 177.421 15.5185C176.255 14.2351 174.59 13.5211 172.857 13.5619ZM174.026 22.59C173.162 23.4559 171.861 23.714 170.733 23.2432C169.604 22.7723 168.872 21.666 168.88 20.4432C168.868 19.6444 169.18 18.8747 169.745 18.3098C170.31 17.7449 171.08 17.4328 171.879 17.4449C172.684 17.4248 173.461 17.7391 174.026 18.3129C175.188 19.5027 175.188 21.403 174.026 22.5928V22.59Z" fill="#302A26"/>
<path d="M162.241 13.9561H158.835C158.727 13.9553 158.623 13.9981 158.546 14.0747C158.469 14.1514 158.427 14.2555 158.427 14.3639V26.553C158.429 26.6568 158.472 26.7558 158.546 26.8286C158.619 26.9027 158.717 26.9461 158.821 26.9498H162.228C162.452 26.9483 162.634 26.7666 162.636 26.542V14.3639C162.634 14.1393 162.452 13.9576 162.228 13.9561H162.241Z" fill="#302A26"/>
<path d="M130.844 18.5661C130.179 18.3625 129.533 18.0987 128.915 17.7779C128.791 17.6957 128.721 17.5519 128.733 17.4031C128.727 17.2405 128.805 17.086 128.94 16.9952C129.147 16.8519 129.397 16.7821 129.648 16.7968C130.166 16.7968 130.751 17.02 131.429 17.5299C131.6 17.6568 131.84 17.6304 131.98 17.4692L133.666 15.4712C133.739 15.3855 133.774 15.2732 133.76 15.1613C133.747 15.0494 133.688 14.948 133.597 14.8815C132.357 13.9619 130.848 13.4775 129.304 13.5036C128.086 13.4677 126.899 13.8906 125.978 14.6886C125.094 15.445 124.594 16.5569 124.616 17.72C124.616 18.7672 124.845 19.6105 125.391 20.1837C125.936 20.7569 126.749 21.1703 127.923 21.6057C128.596 21.8185 129.246 22.0954 129.866 22.4325C130.003 22.5533 130.071 22.7338 130.048 22.9148C130.057 23.1698 129.949 23.4149 129.753 23.5789C129.507 23.7777 129.195 23.8761 128.879 23.8545C128.066 23.8545 127.212 23.4522 126.297 22.54C126.217 22.4595 126.107 22.4165 125.994 22.4215C125.88 22.4241 125.772 22.4764 125.699 22.5648L123.924 24.6482C123.782 24.8041 123.782 25.0434 123.924 25.1994C125.169 26.6029 126.965 27.3921 128.841 27.3599C130.431 27.3599 131.779 26.9245 132.809 26.0371C133.826 25.1843 134.401 23.9162 134.372 22.5896C134.372 21.5451 134.096 20.6605 133.465 20.0487C132.834 19.4369 132.005 18.9849 130.844 18.5661Z" fill="#302A26"/>
<path d="M124.062 13.9558H120.149C119.994 13.9549 119.853 14.0428 119.785 14.1817L116.676 20.3961L113.397 14.1735C113.326 14.0395 113.187 13.9557 113.036 13.9558H109.068C108.918 13.9512 108.778 14.0294 108.704 14.1592C108.629 14.2889 108.633 14.4491 108.712 14.5758L114.373 24.698L110.002 32.847C109.932 32.972 109.932 33.1245 110.002 33.2494C110.075 33.3733 110.208 33.4489 110.352 33.4478H114.21C114.361 33.4467 114.499 33.3632 114.571 33.2301L124.42 14.5538C124.489 14.4294 124.489 14.2785 124.42 14.1542C124.345 14.0285 124.208 13.9528 124.062 13.9558Z" fill="#302A26"/>
<path d="M156.683 13.9034C156.165 13.6644 155.6 13.5475 155.03 13.5617C153.832 13.5399 152.685 14.0434 151.891 14.9396V14.3637C151.889 14.2598 151.846 14.1609 151.772 14.0881C151.699 14.014 151.601 13.9706 151.497 13.9668H148.082C147.857 13.9683 147.676 14.15 147.674 14.3747V26.5527C147.677 26.6569 147.721 26.7558 147.795 26.8283C147.868 26.9026 147.967 26.9461 148.071 26.9496H151.477C151.581 26.9458 151.68 26.9024 151.753 26.8283C151.827 26.7555 151.869 26.6566 151.871 26.5527V20.6966C151.871 19.5281 152.111 18.7096 152.519 18.2163C152.927 17.723 153.514 17.4585 154.42 17.4529C154.916 17.4628 155.402 17.5923 155.837 17.8305C155.954 17.8913 156.092 17.8913 156.209 17.8305C156.327 17.7725 156.408 17.6601 156.427 17.5301L156.939 14.3389C156.966 14.1517 156.86 13.971 156.683 13.9034Z" fill="#302A26"/>
<path d="M145.709 14.3418C144.723 13.8203 143.623 13.5523 142.507 13.5619C140.598 13.5079 138.748 14.224 137.373 15.5489C136.02 16.8468 135.276 18.6543 135.323 20.5287C135.289 22.3607 136.028 24.1222 137.359 25.3817C138.68 26.6794 140.468 27.3906 142.32 27.3549C143.497 27.3568 144.658 27.0811 145.709 26.5502C145.847 26.4814 145.935 26.3407 145.935 26.1864V22.8794C145.936 22.7234 145.847 22.5809 145.707 22.5123C145.567 22.4437 145.4 22.4611 145.277 22.557C144.589 23.1381 143.724 23.4659 142.824 23.4857C141.98 23.524 141.156 23.2268 140.531 22.659C139.94 22.0974 139.621 21.3073 139.657 20.4929C139.629 19.6775 139.947 18.8883 140.534 18.3213C141.132 17.7447 141.938 17.4354 142.769 17.4642C143.689 17.4922 144.574 17.829 145.279 18.4205C145.401 18.5169 145.568 18.5341 145.707 18.4646C145.847 18.3966 145.936 18.2541 145.935 18.098V14.7028C145.934 14.5496 145.846 14.4102 145.709 14.3418Z" fill="#302A26"/>
</g>
<defs>
<clipPath id="clip0_1430_18221">
<rect width="193.735" height="39.9597" fill="white" transform="translate(0.132263 0.245605)"/>
</clipPath>
</defs>
</svg>
