<svg width="112" height="113" viewBox="0 0 112 113" fill="none" xmlns="http://www.w3.org/2000/svg">
<path d="M42 102.796H70.0001C93.3334 102.796 102.667 93.4622 102.667 70.1288V42.1288C102.667 18.7955 93.3334 9.46216 70.0001 9.46216H42C18.6667 9.46216 9.33337 18.7955 9.33337 42.1288V70.1288C9.33337 93.4622 18.6667 102.796 42 102.796Z" stroke="#006CFF" stroke-width="7" stroke-linecap="round" stroke-linejoin="round"/>
<path d="M72.3334 45.6288C76.1994 45.6288 79.3334 42.4948 79.3334 38.6288C79.3334 34.7628 76.1994 31.6288 72.3334 31.6288C68.4674 31.6288 65.3334 34.7628 65.3334 38.6288C65.3334 42.4948 68.4674 45.6288 72.3334 45.6288Z" stroke="#006CFF" stroke-width="7" stroke-miterlimit="10" stroke-linecap="round" stroke-linejoin="round"/>
<path d="M39.6666 45.6288C43.5326 45.6288 46.6666 42.4948 46.6666 38.6288C46.6666 34.7628 43.5326 31.6288 39.6666 31.6288C35.8006 31.6288 32.6666 34.7628 32.6666 38.6288C32.6666 42.4948 35.8006 45.6288 39.6666 45.6288Z" stroke="#006CFF" stroke-width="7" stroke-miterlimit="10" stroke-linecap="round" stroke-linejoin="round"/>
<path d="M39.2 62.1957H72.8C75.1333 62.1957 77 64.0623 77 66.3957C77 78.0157 67.62 87.3957 56 87.3957C44.38 87.3957 35 78.0157 35 66.3957C35 64.0623 36.8667 62.1957 39.2 62.1957Z" stroke="#006CFF" stroke-width="7" stroke-miterlimit="10" stroke-linecap="round" stroke-linejoin="round"/>
</svg>
