<svg width="112" height="113" viewBox="0 0 112 113" fill="none" xmlns="http://www.w3.org/2000/svg">
<path fill-rule="evenodd" clip-rule="evenodd" d="M55.9534 9.46216C30.1934 9.46216 9.3334 30.3688 9.3334 56.1288C9.3334 81.8888 30.1934 102.796 55.9534 102.796C81.7601 102.796 102.667 81.8888 102.667 56.1288C102.667 30.3688 81.7601 9.46216 55.9534 9.46216ZM56.0001 93.4622C35.3734 93.4622 18.6667 76.7555 18.6667 56.1288C18.6667 35.5022 35.3734 18.7955 56.0001 18.7955C76.6267 18.7955 93.3334 35.5022 93.3334 56.1288C93.3334 76.7555 76.6267 93.4622 56.0001 93.4622ZM51.3334 61.1222L76.9534 76.4755L81.7134 68.4488L60.6667 55.8022V30.0888H51.3334V61.1222Z" fill="#006CFF"/>
</svg>
