<svg width="420" height="235" viewBox="0 0 420 235" fill="none" xmlns="http://www.w3.org/2000/svg">
<path d="M272.092 138.666C273.001 133.121 277.779 129.018 283.43 128.947C307.952 128.622 370.385 128.064 373.736 130.706C377.911 134.004 380.09 135.692 379.764 140.919C379.465 145.722 374.198 228.707 374.198 228.707H257.354L272.092 138.666Z" fill="#455A64"/>
<path d="M360.886 228.75C360.879 228.75 360.872 228.666 360.851 228.503C360.837 228.319 360.815 228.086 360.787 227.783C360.737 227.126 360.673 226.201 360.581 225.014C360.489 223.813 360.396 222.344 360.34 220.628C360.276 218.918 360.169 216.969 360.169 214.815C360.155 213.734 360.141 212.611 360.134 211.431C360.127 210.252 360.162 209.03 360.176 207.766C360.183 205.23 360.325 202.525 360.446 199.678C360.766 193.985 361.312 187.742 362.186 181.222C363.094 174.703 364.244 168.537 365.465 162.964C366.112 160.188 366.708 157.547 367.375 155.096C367.702 153.874 367.993 152.68 368.32 151.55C368.646 150.42 368.966 149.332 369.264 148.301C369.846 146.224 370.471 144.374 370.989 142.742C371.5 141.103 371.983 139.712 372.395 138.582C372.799 137.466 373.112 136.59 373.332 135.969C373.438 135.686 373.523 135.46 373.587 135.29C373.644 135.142 373.68 135.064 373.687 135.064C373.694 135.064 373.673 135.149 373.623 135.305C373.566 135.481 373.495 135.707 373.403 135.99C373.197 136.611 372.906 137.494 372.53 138.624C372.139 139.761 371.67 141.16 371.181 142.806C370.684 144.444 370.073 146.295 369.505 148.371C369.214 149.41 368.902 150.49 368.582 151.628C368.263 152.758 367.979 153.951 367.659 155.173C366.999 157.617 366.424 160.266 365.785 163.035C364.585 168.6 363.449 174.759 362.54 181.265C361.667 187.777 361.113 194.014 360.773 199.692C360.645 202.532 360.496 205.237 360.467 207.766C360.446 209.03 360.404 210.252 360.404 211.424C360.411 212.597 360.411 213.727 360.418 214.801C360.404 216.955 360.496 218.897 360.538 220.606C360.574 222.316 360.645 223.785 360.716 224.993C360.773 226.179 360.815 227.105 360.851 227.761C360.858 228.065 360.872 228.298 360.879 228.482C360.893 228.666 360.893 228.75 360.886 228.75Z" fill="#263238"/>
<path d="M295.18 170.711C295.18 170.697 295.237 170.676 295.357 170.64C295.478 170.612 295.663 170.591 295.904 170.612C296.38 170.647 297.083 170.923 297.615 171.615C298.169 172.3 298.304 173.48 297.786 174.511C297.537 175.027 297.154 175.507 296.642 175.874C296.131 176.241 295.492 176.46 294.832 176.503C294.172 176.545 293.497 176.397 292.965 176.023C292.425 175.662 292.106 175.076 291.999 174.511C291.801 173.36 292.269 172.321 292.894 171.728C294.207 170.612 295.372 170.577 295.343 170.683C295.336 170.697 295.279 170.69 295.166 170.718C295.052 170.746 294.882 170.796 294.676 170.888C294.264 171.064 293.654 171.361 293.086 171.919C292.546 172.47 292.141 173.444 292.34 174.447C292.44 174.942 292.724 175.429 293.178 175.733C293.625 176.051 294.222 176.178 294.811 176.143C295.407 176.107 295.982 175.91 296.437 175.585C296.898 175.26 297.253 174.829 297.48 174.37C297.956 173.444 297.871 172.406 297.402 171.778C296.948 171.128 296.316 170.838 295.883 170.76C295.436 170.669 295.18 170.746 295.18 170.711Z" fill="#263238"/>
<path d="M313.504 160.167C313.497 160.237 312.297 160.018 310.366 160.202C308.456 160.371 305.787 161.057 303.366 162.738C300.945 164.426 299.39 166.686 298.581 168.416C297.75 170.161 297.551 171.362 297.48 171.341C297.459 171.333 297.495 171.037 297.608 170.5C297.729 169.97 297.956 169.207 298.347 168.303C299.113 166.509 300.675 164.164 303.16 162.434C305.645 160.703 308.4 160.039 310.352 159.941C311.332 159.884 312.134 159.933 312.673 160.004C313.213 160.075 313.511 160.145 313.504 160.167Z" fill="#263238"/>
<path d="M279.618 181.759C279.597 181.752 279.689 181.533 279.888 181.159C280.094 180.784 280.428 180.269 280.917 179.69C281.883 178.524 283.566 177.119 285.795 176.363C288.024 175.607 290.225 175.699 291.702 176.038C292.447 176.2 293.029 176.405 293.42 176.575C293.81 176.744 294.009 176.864 294.002 176.886C293.973 176.949 293.122 176.554 291.652 176.292C290.189 176.024 288.074 175.981 285.916 176.709C283.764 177.444 282.11 178.764 281.116 179.859C280.108 180.961 279.675 181.794 279.618 181.759Z" fill="#263238"/>
<path d="M302.223 184.647C302.194 184.682 301.712 184.385 301.023 183.785C300.334 183.185 299.461 182.245 298.701 181.073C297.942 179.893 297.452 178.721 297.189 177.845C296.927 176.969 296.856 176.404 296.898 176.397C297.012 176.362 297.509 178.572 299.014 180.875C300.491 183.185 302.308 184.555 302.223 184.647Z" fill="#263238"/>
<path d="M334.641 171.693C334.641 171.679 334.698 171.658 334.818 171.623C334.939 171.595 335.124 171.573 335.365 171.595C335.841 171.63 336.544 171.905 337.076 172.598C337.63 173.283 337.765 174.462 337.246 175.493C336.998 176.009 336.615 176.489 336.103 176.857C335.592 177.224 334.953 177.443 334.293 177.485C333.633 177.528 332.958 177.379 332.426 177.005C331.886 176.645 331.567 176.058 331.46 175.493C331.262 174.342 331.73 173.304 332.355 172.711C333.668 171.595 334.833 171.559 334.804 171.665C334.797 171.679 334.74 171.672 334.627 171.7C334.513 171.729 334.343 171.778 334.137 171.87C333.725 172.047 333.115 172.343 332.547 172.901C332.007 173.452 331.602 174.427 331.801 175.43C331.9 175.924 332.184 176.412 332.639 176.715C333.086 177.033 333.682 177.16 334.272 177.125C334.868 177.09 335.443 176.892 335.898 176.567C336.359 176.242 336.714 175.811 336.941 175.352C337.417 174.427 337.332 173.389 336.863 172.76C336.409 172.11 335.777 171.821 335.344 171.743C334.904 171.651 334.641 171.729 334.641 171.693Z" fill="#263238"/>
<path d="M352.965 161.149C352.958 161.22 351.758 161.001 349.827 161.184C347.917 161.354 345.248 162.039 342.827 163.72C340.406 165.408 338.851 167.668 338.042 169.399C337.211 171.143 337.012 172.344 336.941 172.323C336.92 172.316 336.956 172.019 337.069 171.482C337.19 170.953 337.417 170.19 337.808 169.286C338.574 167.492 340.136 165.147 342.621 163.416C345.106 161.686 347.86 161.022 349.813 160.923C350.793 160.866 351.595 160.916 352.134 160.987C352.674 161.057 352.972 161.128 352.965 161.149Z" fill="#263238"/>
<path d="M319.077 182.742C319.056 182.727 319.148 182.516 319.347 182.141C319.553 181.767 319.887 181.251 320.376 180.672C321.342 179.507 323.025 178.101 325.254 177.345C327.483 176.59 329.684 176.681 331.161 177.02C331.906 177.183 332.488 177.388 332.879 177.557C333.269 177.727 333.468 177.847 333.461 177.868C333.432 177.932 332.581 177.536 331.111 177.275C329.648 177.006 327.533 176.964 325.374 177.691C323.223 178.426 321.569 179.747 320.575 180.842C319.567 181.943 319.134 182.777 319.077 182.742Z" fill="#263238"/>
<path d="M341.69 185.629C341.661 185.664 341.179 185.368 340.49 184.767C339.801 184.167 338.928 183.228 338.168 182.055C337.409 180.876 336.919 179.703 336.656 178.827C336.393 177.951 336.322 177.386 336.365 177.379C336.479 177.344 336.976 179.555 338.481 181.857C339.95 184.167 341.768 185.544 341.69 185.629Z" fill="#263238"/>
<path d="M383.896 112.95C352.438 82.0341 313.277 74.6602 313.277 74.6602C289.99 88.4687 274.279 111.657 262.316 139.493C282.38 157.963 308.179 175.663 330.259 177.295C365.181 168.508 383.896 112.95 383.896 112.95Z" fill="#8ABBFF"/>
<g opacity="0.4">
<path d="M383.896 112.95C352.438 82.0341 313.277 74.6602 313.277 74.6602C289.99 88.4687 274.279 111.657 262.316 139.493C282.38 157.963 308.179 175.663 330.259 177.295C365.181 168.508 383.896 112.95 383.896 112.95Z" fill="black"/>
</g>
<path d="M372.684 137.502C372.677 137.502 372.656 137.431 372.606 137.29C372.556 137.135 372.492 136.923 372.407 136.655C372.23 136.075 371.981 135.242 371.655 134.168C371.009 131.979 370.072 128.807 368.893 124.824L369.035 124.901C364.797 126.272 359.564 127.96 353.608 129.881L353.707 129.789C353.693 129.817 353.693 129.824 353.665 129.867C353.622 129.923 353.515 129.945 353.473 129.916C353.416 129.902 353.366 129.81 353.373 129.817C353.352 129.768 353.352 129.733 353.345 129.704L353.331 129.542L353.317 129.231L353.31 128.61C353.31 128.193 353.31 127.776 353.31 127.352C353.317 126.505 353.317 125.65 353.324 124.774C353.331 123.03 353.331 121.236 353.302 119.392C353.274 117.549 353.224 115.663 353.118 113.735C353.004 111.813 352.855 109.843 352.507 107.886L352.727 108.027C348.24 109.066 343.533 110.153 338.699 111.269C335.795 111.94 332.941 112.597 330.151 113.24L329.966 113.282L329.931 113.099C328.667 106.509 327.467 100.244 326.353 94.4662L326.559 94.5933C317.954 96.903 310.223 97.9907 304.152 98.4922L304.039 98.4993L304.025 98.3863C303.435 93.5833 302.967 89.7692 302.647 87.1346C302.498 85.8421 302.378 84.832 302.299 84.1398C302.264 83.8079 302.236 83.5536 302.214 83.3629C302.2 83.1863 302.193 83.1016 302.2 83.1016C302.207 83.1016 302.221 83.1863 302.25 83.3629C302.278 83.5536 302.314 83.8079 302.363 84.1328C302.463 84.832 302.598 85.8279 302.775 87.1205C303.123 89.748 303.627 93.5621 304.259 98.358L304.131 98.2591C310.187 97.7223 317.897 96.5993 326.466 94.2755L326.644 94.2261L326.679 94.4026C327.794 100.18 329.008 106.438 330.286 113.028L330.066 112.887C332.856 112.244 335.717 111.58 338.614 110.909C343.448 109.793 348.155 108.713 352.642 107.674L352.827 107.632L352.862 107.816C353.217 109.807 353.359 111.778 353.466 113.713C353.572 115.642 353.615 117.535 353.636 119.385C353.657 121.229 353.657 123.03 353.643 124.774C353.636 125.65 353.629 126.505 353.622 127.352C353.622 127.776 353.622 128.193 353.622 128.61L353.629 129.224L353.643 129.528L353.657 129.669L353.665 129.697C353.65 129.711 353.7 129.683 353.629 129.718C353.565 129.754 353.558 129.726 353.544 129.761C353.544 129.803 353.544 129.726 353.508 129.74C353.395 129.669 353.423 129.69 353.423 129.69L353.345 129.655L353.523 129.598C359.486 127.713 364.733 126.046 368.978 124.704L369.085 124.668L369.113 124.774C370.249 128.772 371.158 131.95 371.783 134.147C372.081 135.228 372.315 136.061 372.478 136.647C372.549 136.923 372.606 137.135 372.649 137.29C372.677 137.424 372.691 137.495 372.684 137.502Z" fill="#8ABBFF"/>
<path d="M366.673 147.332C366.666 147.332 366.645 147.276 366.602 147.17C366.552 147.043 366.495 146.88 366.417 146.675C366.254 146.216 366.02 145.567 365.714 144.726C365.104 142.996 364.224 140.488 363.102 137.303L363.223 137.366C358.501 138.616 352.211 140.29 344.835 142.254L344.664 142.296L344.643 142.12C344.203 138.758 343.72 135.141 343.181 131.334C342.634 127.527 342.066 123.522 341.328 119.397L341.548 119.539C337.217 120.542 332.709 121.58 328.087 122.654C324.992 123.367 321.946 124.073 318.971 124.758L318.787 124.801L318.751 124.617C317.487 118.02 316.288 111.762 315.173 105.985L315.379 106.112C306.774 108.421 299.043 109.509 292.973 110.011L292.859 110.018L292.845 109.905C292.256 105.102 291.787 101.288 291.468 98.653C291.319 97.3604 291.198 96.3504 291.12 95.6582C291.084 95.3262 291.056 95.0719 291.035 94.8883C291.02 94.7117 291.013 94.627 291.02 94.627C291.027 94.627 291.042 94.7117 291.07 94.8883C291.098 95.079 291.134 95.3333 291.184 95.6582C291.276 96.3504 291.418 97.3533 291.595 98.6459C291.943 101.273 292.447 105.088 293.079 109.883L292.951 109.785C299.007 109.248 306.717 108.125 315.287 105.801L315.457 105.751L315.492 105.928C316.607 111.706 317.821 117.964 319.099 124.554L318.879 124.412C321.854 123.727 324.899 123.021 327.995 122.308C332.616 121.241 337.125 120.203 341.455 119.2L341.64 119.157L341.675 119.341C342.414 123.473 342.975 127.485 343.514 131.292C344.047 135.106 344.522 138.715 344.948 142.084L344.757 141.957C352.147 140.036 358.452 138.404 363.173 137.175L363.265 137.154L363.294 137.239C364.38 140.439 365.232 142.96 365.814 144.691C366.098 145.538 366.311 146.195 366.467 146.654C366.538 146.866 366.588 147.036 366.63 147.163C366.659 147.276 366.673 147.332 366.673 147.332Z" fill="#FAFAFA"/>
<path d="M354.361 162.561C354.361 162.561 354.361 162.364 354.39 161.975C354.425 161.573 354.468 161.007 354.532 160.273C354.667 158.761 354.858 156.565 355.107 153.761L355.227 153.852C350.549 155.399 344.003 157.561 336.158 160.153L335.995 160.209L335.959 160.04C334.454 152.27 332.672 143.088 330.748 133.136L330.968 133.277C327.213 134.146 323.301 135.05 319.304 135.976C315.584 136.83 311.935 137.678 308.392 138.49L308.207 138.532L308.172 138.349C306.908 131.752 305.708 125.487 304.601 119.716L304.807 119.843C296.195 122.153 288.471 123.241 282.4 123.742L282.287 123.749L282.273 123.636C281.683 118.826 281.215 115.012 280.895 112.378C280.746 111.085 280.626 110.082 280.548 109.383C280.512 109.058 280.484 108.797 280.462 108.613C280.448 108.436 280.441 108.352 280.448 108.352C280.455 108.352 280.469 108.436 280.498 108.613C280.526 108.797 280.562 109.051 280.611 109.383C280.704 110.075 280.846 111.078 281.023 112.371C281.371 114.998 281.875 118.812 282.507 123.615L282.379 123.516C288.428 122.979 296.131 121.856 304.714 119.533L304.885 119.483L304.92 119.66C306.035 125.43 307.249 131.688 308.527 138.285L308.307 138.144C311.849 137.325 315.498 136.484 319.219 135.622C323.216 134.704 327.128 133.8 330.883 132.931L331.068 132.889L331.103 133.073C333.006 143.025 334.767 152.214 336.257 159.983L336.066 159.87C343.925 157.321 350.485 155.202 355.171 153.683L355.306 153.641L355.291 153.775C355.007 156.579 354.78 158.768 354.631 160.28C354.553 161.015 354.489 161.58 354.447 161.982C354.397 162.364 354.361 162.561 354.361 162.561Z" fill="#8ABBFF"/>
<path d="M328.974 177.175C328.967 177.175 328.953 177.133 328.924 177.041C328.896 176.935 328.861 176.808 328.811 176.638C328.711 176.264 328.577 175.741 328.406 175.07C328.058 173.679 327.561 171.666 326.937 169.123C326.326 166.559 325.588 163.451 324.736 159.913C323.919 156.36 322.968 152.362 322.123 147.976L322.322 148.103C315.584 149.664 307.896 151.444 299.752 153.337L299.568 153.379L299.532 153.189C299.412 152.574 299.284 151.91 299.156 151.246C298.034 145.419 296.955 139.804 295.947 134.556L296.167 134.69C287.69 136.972 279.938 138.081 273.761 138.589L273.64 138.596L273.626 138.476C273.051 133.744 272.583 129.93 272.256 127.274C272.107 125.974 271.986 124.957 271.901 124.244C271.865 123.912 271.837 123.651 271.816 123.46C271.802 123.283 271.795 123.191 271.802 123.191C271.809 123.191 271.823 123.283 271.851 123.453C271.88 123.643 271.922 123.905 271.972 124.237C272.071 124.943 272.213 125.96 272.391 127.26C272.739 129.908 273.25 133.723 273.875 138.448L273.74 138.335C279.895 137.784 287.626 136.64 296.075 134.351L296.259 134.302L296.295 134.485C297.31 139.733 298.396 145.349 299.518 151.176C299.646 151.84 299.774 152.504 299.894 153.118L299.674 152.977C307.825 151.105 315.513 149.332 322.258 147.785L322.428 147.75L322.457 147.92C323.287 152.299 324.217 156.296 325.013 159.856C325.829 163.409 326.546 166.517 327.135 169.088C327.725 171.638 328.193 173.651 328.52 175.049C328.669 175.727 328.79 176.25 328.875 176.631C328.91 176.801 328.939 176.935 328.96 177.041C328.974 177.126 328.981 177.175 328.974 177.175Z" fill="#FAFAFA"/>
<path d="M316.984 174.653C316.962 174.66 316.87 174.314 316.721 173.671C316.565 172.972 316.359 172.061 316.118 170.952C315.614 168.635 314.939 165.401 314.194 161.735L314.414 161.876C313.732 162.031 313.015 162.201 312.291 162.37C308.131 163.331 304.361 164.179 301.635 164.779C300.314 165.061 299.221 165.295 298.397 165.464C297.63 165.619 297.204 165.69 297.197 165.669C297.19 165.648 297.609 165.521 298.362 165.323C299.178 165.118 300.264 164.85 301.578 164.518C304.297 163.854 308.053 162.964 312.213 162.01C312.937 161.841 313.654 161.678 314.336 161.523L314.52 161.48L314.556 161.664C315.287 165.33 315.919 168.565 316.359 170.896C316.565 172.012 316.728 172.937 316.856 173.643C316.955 174.286 317.005 174.646 316.984 174.653Z" fill="#8ABBFF"/>
<path d="M290.799 161.776C290.771 161.784 290.679 161.423 290.537 160.781C290.38 160.067 290.182 159.142 289.947 158.033C289.465 155.709 288.826 152.503 288.144 148.95C288.101 148.731 288.059 148.519 288.023 148.314L288.251 148.455C284.878 149.366 281.811 150.016 279.589 150.412C278.474 150.61 277.58 150.758 276.955 150.843C276.33 150.927 275.99 150.963 275.983 150.942C275.975 150.913 276.316 150.836 276.934 150.708C277.615 150.567 278.489 150.384 279.547 150.165C281.754 149.698 284.8 149.013 288.165 148.102L288.357 148.053L288.393 148.251C288.428 148.448 288.471 148.667 288.513 148.886C289.195 152.439 289.798 155.66 290.21 157.991C290.402 159.107 290.558 160.039 290.686 160.759C290.778 161.409 290.828 161.776 290.799 161.776Z" fill="#8ABBFF"/>
<path d="M264.453 141.427C264.353 141.442 264.14 140.446 263.984 139.21C263.828 137.974 263.778 136.963 263.885 136.949C263.984 136.935 264.197 137.931 264.353 139.167C264.509 140.403 264.559 141.413 264.453 141.427Z" fill="#8ABBFF"/>
<path d="M377.989 127.174C377.982 127.174 377.968 127.118 377.947 127.005C377.918 126.871 377.89 126.708 377.847 126.489C377.762 126.016 377.634 125.345 377.478 124.476C377.159 122.696 376.704 120.111 376.122 116.848L376.243 116.933C373.261 117.406 369.626 117.985 365.515 118.642L365.373 118.663L365.352 118.522C364.273 112.109 362.981 104.389 361.554 95.9057L361.767 96.047C357.152 97.1135 352.211 98.2577 347.12 99.4373C344.593 100.024 342.101 100.596 339.659 101.161L339.481 101.203L339.439 101.026C337.856 94.6131 336.379 88.5388 335.271 82.9307L335.463 83.0649C326.724 84.3998 319.248 85.544 313.675 86.3987L313.568 86.4128L313.554 86.3069C313.135 82.8318 312.801 80.0842 312.567 78.1842C312.461 77.2589 312.375 76.5385 312.319 76.0299C312.297 75.7969 312.276 75.6132 312.262 75.472C312.248 75.3448 312.248 75.2812 312.255 75.2812C312.262 75.2812 312.276 75.3448 312.29 75.4649C312.311 75.6062 312.34 75.7827 312.375 76.0158C312.446 76.5244 312.546 77.2377 312.681 78.163C312.936 80.063 313.298 82.8106 313.767 86.2786L313.646 86.1868C319.219 85.3039 326.681 84.1243 335.413 82.74L335.57 82.7117L335.598 82.8671C336.72 88.447 338.203 94.5284 339.794 100.935L339.574 100.8C342.009 100.235 344.501 99.6633 347.035 99.0771C352.126 97.9046 357.067 96.7674 361.682 95.7009L361.866 95.6585L361.895 95.8421C363.293 104.325 364.564 112.059 365.622 118.48L365.459 118.36C369.576 117.731 373.218 117.18 376.2 116.721L376.3 116.707L376.314 116.806C376.853 120.076 377.279 122.661 377.57 124.448C377.705 125.317 377.812 125.995 377.89 126.468C377.918 126.687 377.947 126.857 377.968 126.991C377.989 127.111 377.996 127.174 377.989 127.174Z" fill="#FAFAFA"/>
<path d="M380.388 112.428C380.388 112.435 380.324 112.456 380.189 112.498C380.04 112.548 379.841 112.604 379.6 112.675C379.089 112.844 378.308 113.014 377.349 113.367C375.404 113.996 372.65 115.097 369.455 116.856C366.253 118.608 362.675 121.115 359.104 124.35C355.533 127.585 352.011 131.583 348.824 136.132C345.657 140.701 343.073 145.342 340.943 149.658C338.813 153.98 337.102 157.971 335.711 161.34C334.319 164.709 333.24 167.457 332.48 169.35C332.104 170.275 331.813 171.009 331.607 171.525C331.508 171.758 331.43 171.942 331.373 172.09C331.316 172.217 331.288 172.281 331.281 172.281C331.274 172.281 331.295 172.21 331.337 172.083C331.387 171.935 331.458 171.744 331.536 171.504C331.728 170.974 332.005 170.24 332.346 169.3C333.063 167.393 334.106 164.631 335.462 161.248C336.825 157.865 338.515 153.86 340.631 149.516C342.746 145.179 345.331 140.518 348.511 135.927C351.72 131.357 355.263 127.345 358.869 124.11C362.476 120.868 366.09 118.375 369.327 116.644C372.557 114.907 375.34 113.833 377.307 113.24C378.28 112.908 379.06 112.76 379.579 112.611C379.827 112.555 380.019 112.505 380.175 112.47C380.317 112.435 380.381 112.42 380.388 112.428Z" fill="#263238"/>
<path d="M34.5421 209.518C34.2084 209.518 33.9032 209.292 33.8109 208.96L8.57203 113.254C8.46554 112.851 8.70692 112.442 9.1116 112.336C9.51627 112.23 9.92804 112.47 10.0345 112.872L35.2734 208.578C35.3799 208.981 35.1385 209.391 34.7338 209.497C34.6699 209.511 34.606 209.518 34.5421 209.518Z" fill="#263238"/>
<path d="M27.8754 211.884C27.5417 211.884 27.2364 211.658 27.1441 211.326L1.8982 115.613C1.79171 115.211 2.03309 114.801 2.43777 114.695C2.84244 114.589 3.25421 114.829 3.36071 115.232L28.5995 210.938C28.706 211.34 28.4646 211.75 28.06 211.856C28.0032 211.877 27.9393 211.884 27.8754 211.884Z" fill="#263238"/>
<path d="M4.92886 111.46L3.71484 110.563L68.5264 23.7852L127.651 35.058L127.36 36.5342L69.1725 25.445L4.92886 111.46Z" fill="#263238"/>
<path d="M73.069 26.5268L9.31055 112.193L10.5259 113.089L74.2843 27.4221L73.069 26.5268Z" fill="#263238"/>
<path d="M66.9152 27.7755C67.6748 30.0075 70.1099 31.2012 72.3534 30.4383C74.5968 29.6826 75.7967 27.2599 75.0299 25.028C74.2703 22.796 71.8351 21.6023 69.5917 22.3651C67.3482 23.1209 66.1484 25.5436 66.9152 27.7755Z" fill="#8ABBFF"/>
<path d="M124.855 30.2062L123.797 24.0754L128.355 23.7363L128.688 29.6553L124.855 30.2062Z" fill="#8ABBFF"/>
<g opacity="0.3">
<path d="M124.855 30.2062L123.797 24.0754L128.355 23.7363L128.688 29.6553L124.855 30.2062Z" fill="black"/>
</g>
<path d="M121.12 29.7824L116.903 52.5258L106.254 82.5796L166.273 73.9696L142.05 47.737L131.94 28.2285L121.12 29.7824Z" fill="#8ABBFF"/>
<path d="M0.726562 114.003C0.726562 116.616 2.85642 118.742 5.49035 118.742C8.12427 118.742 10.2541 116.623 10.2541 114.003C10.2541 111.39 8.12427 109.264 5.49035 109.264C2.85642 109.264 0.726562 111.39 0.726562 114.003Z" fill="#8ABBFF"/>
<path d="M15.536 228.666C15.5218 228.349 15.4863 228.038 15.4863 227.72C15.4863 217.252 24.0129 208.77 34.5344 208.77C45.0559 208.77 53.5824 217.252 53.5824 227.72C53.5824 228.038 53.5469 228.349 53.5327 228.666H15.536Z" fill="#8ABBFF"/>
<path d="M119.444 221.568C119.21 221.618 118.216 222.628 119.643 224.231C121.07 225.835 129.667 230.221 131.257 227.6C132.848 224.98 129.014 223.158 129.014 223.158L119.444 221.568Z" fill="#FFBE9D"/>
<path d="M128.893 218.744C128.893 218.744 137.767 217.769 141.388 218.228C145.321 218.73 149.481 216.752 151.952 214.061C154.423 211.363 155.069 207.817 155.069 207.817L160.713 203.883C160.713 203.883 161.323 190.526 152.371 192.688L141.913 193.055C141.913 193.055 121.339 196.445 118.151 198.995C118.151 198.995 114.275 202.739 113.146 204.194C112.72 204.738 112.351 210.247 116.284 212.119C116.284 212.119 113.97 215.071 116.007 216.731L116.966 217.458C116.966 217.458 115.638 220.397 116.887 221.244C118.137 222.085 128.012 225.065 130.817 223.123C133.628 221.181 130.377 218.942 128.893 218.744Z" fill="#FFBE9D"/>
<path d="M117.832 211.603C117.839 211.575 118.251 211.631 118.997 211.73C119.742 211.829 120.821 211.956 122.156 212.055C122.823 212.104 123.555 212.14 124.343 212.161C125.131 212.182 125.975 212.154 126.877 212.217C127.772 212.295 128.751 212.465 129.596 213.072C130.391 213.658 131.08 214.654 130.924 215.791C130.846 216.349 130.526 216.837 130.129 217.19C129.724 217.536 129.255 217.769 128.787 217.932C127.836 218.256 126.898 218.348 126.004 218.44C124.215 218.588 122.603 218.49 121.261 218.348C119.92 218.207 118.848 218.03 118.102 217.903C117.364 217.776 116.952 217.691 116.959 217.663C116.966 217.635 117.378 217.677 118.123 217.762C118.869 217.84 119.948 217.981 121.283 218.087C122.617 218.193 124.215 218.264 125.968 218.101C126.842 218.002 127.772 217.896 128.659 217.585C129.099 217.43 129.525 217.211 129.88 216.907C130.221 216.604 130.491 216.187 130.555 215.728C130.69 214.796 130.1 213.884 129.376 213.348C128.638 212.804 127.708 212.62 126.849 212.535C125.975 212.458 125.131 212.479 124.335 212.443C123.54 212.415 122.802 212.359 122.135 212.295C120.793 212.168 119.714 211.991 118.975 211.857C118.23 211.73 117.825 211.631 117.832 211.603Z" fill="#EB996E"/>
<path d="M117.108 205.224C117.115 205.196 117.527 205.252 118.265 205.351C119.003 205.45 120.082 205.591 121.41 205.704C122.738 205.817 124.328 205.909 126.096 205.909C126.969 205.923 127.956 205.86 128.9 206.326C129.361 206.559 129.766 206.962 129.965 207.463C130.171 207.958 130.206 208.516 130.114 209.045C129.915 210.126 129.156 210.973 128.318 211.496C127.473 212.033 126.522 212.28 125.627 212.372C123.824 212.527 122.234 212.252 120.906 212.153C119.621 212.026 118.556 211.913 117.754 211.835C117.008 211.75 116.597 211.694 116.604 211.666C116.604 211.637 117.022 211.652 117.768 211.687C118.577 211.736 119.642 211.807 120.934 211.892C122.269 211.955 123.866 212.202 125.599 212.033C126.458 211.941 127.352 211.694 128.133 211.192C128.907 210.705 129.589 209.928 129.759 208.982C129.951 208.042 129.574 207.032 128.744 206.651C127.934 206.241 126.983 206.269 126.11 206.255C124.335 206.234 122.738 206.121 121.403 205.973C120.068 205.824 118.996 205.641 118.258 205.5C117.505 205.351 117.108 205.245 117.108 205.224Z" fill="#EB996E"/>
<path d="M121.687 206.002C121.581 206.024 121.332 205.254 120.878 204.371C120.431 203.488 119.948 202.831 120.026 202.768C120.097 202.697 120.736 203.276 121.204 204.208C121.694 205.134 121.787 205.988 121.687 206.002Z" fill="#EB996E"/>
<path d="M148.836 193.224L140.445 192.115C140.445 192.115 116.732 187.305 116.498 187.927C116.264 188.548 115.099 188.767 115.973 191.296C116.853 193.824 130.534 196.07 131.144 196.876C131.755 197.681 132.188 202.364 137.562 204.518C142.937 206.665 146.266 205.945 146.266 205.945" fill="#FFBE9D"/>
<path d="M146.266 205.938C146.266 205.945 146.209 205.966 146.088 205.988C145.968 206.009 145.783 206.037 145.542 206.065C145.059 206.115 144.349 206.136 143.433 206.065C142.517 205.995 141.403 205.825 140.146 205.486C138.897 205.133 137.463 204.702 136.021 203.89C134.58 203.092 133.238 201.764 132.322 200.047C131.854 199.2 131.534 198.232 131.179 197.3C131.137 197.18 131.08 197.081 131.023 196.989C130.981 196.926 130.888 196.89 130.775 196.834C130.548 196.735 130.299 196.657 130.058 196.579C129.561 196.431 129.043 196.29 128.524 196.156C126.437 195.619 124.229 195.096 121.971 194.432C120.843 194.1 119.7 193.74 118.564 193.281C117.996 193.048 117.435 192.794 116.895 192.462C116.625 192.299 116.37 192.101 116.128 191.861C116.022 191.727 115.908 191.6 115.837 191.43C115.759 191.268 115.731 191.127 115.681 190.971C115.511 190.371 115.369 189.707 115.568 189.05C115.66 188.718 115.88 188.436 116.079 188.21C116.178 188.097 116.27 187.991 116.313 187.885C116.334 187.856 116.299 187.899 116.37 187.793C116.455 187.708 116.476 187.722 116.512 187.708C116.583 187.687 116.611 187.694 116.668 187.687C116.753 187.68 116.838 187.68 116.917 187.687C118.159 187.765 119.323 187.977 120.495 188.153C122.816 188.534 125.045 188.944 127.168 189.347C131.414 190.152 135.226 190.915 138.421 191.565C139.223 191.72 139.983 191.904 140.7 192.024C141.424 192.123 142.113 192.221 142.759 192.313C144.037 192.497 145.137 192.652 146.053 192.779C146.933 192.914 147.629 193.013 148.133 193.09C148.353 193.126 148.531 193.154 148.673 193.182C148.793 193.203 148.857 193.217 148.857 193.224C148.857 193.232 148.793 193.232 148.673 193.217C148.531 193.203 148.346 193.182 148.126 193.161C147.622 193.104 146.919 193.02 146.039 192.921C145.123 192.808 144.015 192.674 142.737 192.518C142.091 192.44 141.403 192.349 140.679 192.257C139.947 192.144 139.188 191.974 138.385 191.826C135.169 191.211 131.357 190.491 127.119 189.686C124.996 189.297 122.767 188.895 120.452 188.513C119.295 188.337 118.109 188.125 116.924 188.054C116.853 188.054 116.782 188.054 116.711 188.054C116.689 188.061 116.64 188.061 116.64 188.061C116.633 188.047 116.647 188.09 116.618 188.033C116.576 187.969 116.611 187.977 116.583 187.948C116.576 187.941 116.562 187.934 116.554 187.927C116.838 188.033 116.625 187.962 116.689 187.991L116.675 188.026C116.597 188.203 116.483 188.33 116.384 188.443C116.185 188.669 116.022 188.888 115.944 189.149C115.788 189.679 115.894 190.286 116.065 190.858C116.157 191.169 116.228 191.402 116.434 191.607C116.633 191.805 116.867 191.988 117.122 192.144C117.626 192.455 118.18 192.709 118.734 192.935C119.849 193.387 120.985 193.747 122.106 194.079C124.35 194.743 126.558 195.266 128.645 195.817C129.17 195.958 129.681 196.092 130.193 196.255C130.448 196.332 130.697 196.417 130.945 196.523C131.059 196.579 131.222 196.643 131.329 196.791C131.414 196.918 131.471 197.046 131.513 197.166C131.875 198.14 132.173 199.059 132.628 199.892C133.501 201.566 134.786 202.859 136.185 203.65C137.576 204.455 138.996 204.907 140.231 205.267C141.474 205.62 142.574 205.811 143.476 205.903C144.377 205.995 145.087 205.995 145.563 205.973C145.804 205.966 145.982 205.945 146.11 205.938C146.202 205.938 146.266 205.931 146.266 205.938Z" fill="#EB996E"/>
<path d="M126.307 218.327C126.307 218.306 126.619 218.292 127.18 218.37C127.741 218.447 128.543 218.624 129.473 219.048C129.935 219.267 130.425 219.521 130.908 219.895C131.369 220.263 131.88 220.785 131.958 221.534C132.043 222.283 131.554 223.01 130.908 223.399C130.24 223.815 129.424 223.886 128.657 223.865C125.59 223.681 122.85 223.229 120.904 222.728C119.932 222.48 119.158 222.226 118.632 222.035C118.107 221.845 117.823 221.71 117.83 221.689C117.837 221.661 118.135 221.746 118.675 221.901C119.215 222.057 119.988 222.261 120.961 222.48C122.899 222.911 125.64 223.321 128.664 223.505C129.402 223.533 130.148 223.455 130.709 223.102C131.277 222.763 131.674 222.163 131.61 221.569C131.561 220.976 131.135 220.489 130.709 220.135C130.269 219.775 129.793 219.514 129.353 219.288C127.571 218.412 126.286 218.405 126.307 218.327Z" fill="#EB996E"/>
<path d="M188.038 170.105C188.038 170.105 198.552 152.885 200.916 141.521C203.281 130.156 215.492 112.131 219.432 107.427C223.372 102.723 239.126 97.2346 239.126 97.2346L244.934 94.1197L289.937 90.1855C289.937 90.1855 319.876 93.3216 328.935 101.55C337.994 109.779 345.087 128.595 345.087 137.996C345.087 147.404 354.238 228.857 354.238 228.857L243.336 228.708L245.821 188.547C245.821 188.547 232.424 179.535 228.882 171.695C225.339 163.854 227.305 167.774 227.305 167.774C227.305 167.774 214.732 194.367 210.401 197.503C206.071 200.639 155.7 216.016 155.7 216.016L148.799 189.72L188.038 170.105Z" fill="#8ABBFF"/>
<path d="M318.976 104.828C317.762 105.202 302.74 143.802 301.682 147.313C300.624 150.823 301.682 172.945 301.682 172.945L306.623 182.078C306.623 182.078 305.21 188.752 306.268 191.91L284.033 196.126C284.033 196.126 278.388 192.263 273.092 196.126L246.859 198.33C246.859 198.33 254.562 198.415 252.269 210.168C250.026 221.681 248.315 224.21 248.315 224.21L340.502 222.119C340.502 222.119 350.74 221.617 349.185 202.017C347.623 182.424 343.228 128.377 343.228 128.377C343.228 128.377 336.505 99.4175 318.976 104.828Z" fill="#8ABBFF"/>
<path d="M301.476 169.865C301.461 169.872 301.39 169.703 301.255 169.392C301.114 169.039 300.929 168.58 300.695 168.001C300.453 167.4 300.162 166.652 299.878 165.776C299.587 164.9 299.218 163.911 298.92 162.788C298.593 161.672 298.238 160.45 297.94 159.108C297.599 157.78 297.329 156.347 297.038 154.835C296.52 151.805 296.108 148.436 295.959 144.883C295.831 141.33 295.973 137.94 296.265 134.874C296.449 133.349 296.598 131.887 296.847 130.545C296.96 129.874 297.053 129.217 297.18 128.595C297.315 127.974 297.436 127.38 297.557 126.808C297.777 125.664 298.075 124.654 298.302 123.757C298.522 122.86 298.756 122.097 298.962 121.483C299.154 120.889 299.31 120.416 299.424 120.056C299.537 119.731 299.594 119.562 299.608 119.569C299.623 119.576 299.58 119.745 299.495 120.077C299.395 120.444 299.261 120.918 299.097 121.518C298.913 122.14 298.7 122.902 298.494 123.806C298.281 124.703 298.004 125.714 297.805 126.858C297.692 127.43 297.571 128.023 297.45 128.645C297.329 129.266 297.244 129.923 297.138 130.594C296.903 131.936 296.769 133.391 296.598 134.91C296.328 137.961 296.201 141.33 296.321 144.869C296.47 148.4 296.868 151.755 297.365 154.778C297.642 156.283 297.897 157.717 298.231 159.045C298.515 160.38 298.856 161.602 299.168 162.717C299.452 163.841 299.807 164.829 300.077 165.712C300.34 166.595 300.609 167.344 300.83 167.951C301.035 168.538 301.199 169.004 301.326 169.364C301.433 169.682 301.483 169.858 301.476 169.865Z" fill="#263238"/>
<path d="M333.549 211.723C333.542 211.73 333.457 211.638 333.315 211.454C333.152 211.235 332.946 210.967 332.697 210.642C332.435 210.282 332.115 209.851 331.71 209.371C331.313 208.883 330.88 208.318 330.347 207.732C329.829 207.139 329.261 206.489 328.601 205.832C327.969 205.147 327.238 204.476 326.485 203.762C324.938 202.364 323.156 200.909 321.182 199.532C319.187 198.175 317.192 197.031 315.332 196.085C314.388 195.633 313.5 195.188 312.634 194.842C311.782 194.46 310.973 194.164 310.227 193.888C309.489 193.598 308.8 193.394 308.204 193.196C307.608 192.991 307.089 192.843 306.663 192.73C306.273 192.617 305.946 192.518 305.684 192.44C305.463 192.369 305.343 192.327 305.35 192.313C305.35 192.299 305.478 192.32 305.705 192.362C305.975 192.419 306.308 192.497 306.706 192.581C307.139 192.673 307.671 192.807 308.275 192.991C308.878 193.175 309.574 193.358 310.32 193.634C311.072 193.895 311.896 194.185 312.755 194.552C313.628 194.891 314.53 195.322 315.481 195.767C317.362 196.706 319.386 197.85 321.388 199.214C323.383 200.598 325.172 202.074 326.712 203.494C327.465 204.229 328.196 204.907 328.821 205.606C329.474 206.277 330.035 206.941 330.546 207.548C331.072 208.142 331.49 208.728 331.874 209.229C332.264 209.724 332.57 210.169 332.811 210.543C333.038 210.882 333.223 211.165 333.372 211.398C333.5 211.61 333.556 211.715 333.549 211.723Z" fill="#263238"/>
<path d="M341.311 206.573C341.254 206.622 340.437 205.697 338.904 204.454C338.137 203.825 337.172 203.154 336.057 202.476C334.928 201.819 333.643 201.177 332.23 200.64C330.818 200.117 329.426 199.75 328.141 199.496C326.856 199.262 325.678 199.128 324.691 199.093C322.71 199.008 321.482 199.164 321.475 199.093C321.475 199.065 321.773 199.015 322.334 198.952C322.611 198.909 322.951 198.874 323.349 198.867C323.746 198.853 324.201 198.817 324.698 198.839C325.699 198.839 326.892 198.945 328.205 199.164C329.511 199.404 330.924 199.764 332.365 200.301C333.792 200.852 335.099 201.516 336.235 202.194C337.356 202.893 338.322 203.599 339.074 204.263C339.465 204.574 339.777 204.906 340.068 205.174C340.359 205.443 340.587 205.697 340.771 205.909C341.133 206.319 341.332 206.559 341.311 206.573Z" fill="#263238"/>
<path d="M332.792 193.669C332.743 193.732 331.656 192.878 329.668 191.896C329.171 191.656 328.625 191.394 328.014 191.175C327.418 190.921 326.743 190.73 326.048 190.511C324.642 190.13 323.059 189.819 321.376 189.692C319.694 189.586 318.082 189.678 316.634 189.869C315.917 189.996 315.228 190.088 314.596 190.264C313.957 190.398 313.382 190.582 312.857 190.752C310.755 191.451 309.563 192.157 309.52 192.079C309.506 192.058 309.804 191.882 310.351 191.578C310.62 191.423 310.961 191.239 311.373 191.069C311.785 190.893 312.239 190.667 312.772 190.504C313.297 190.314 313.879 190.116 314.525 189.968C315.157 189.777 315.853 189.671 316.584 189.537C318.054 189.325 319.687 189.226 321.405 189.332C323.116 189.459 324.72 189.784 326.147 190.187C326.85 190.42 327.524 190.624 328.128 190.893C328.746 191.126 329.292 191.408 329.789 191.663C330.293 191.903 330.719 192.185 331.095 192.419C331.479 192.645 331.791 192.863 332.04 193.061C332.537 193.429 332.806 193.648 332.792 193.669Z" fill="#263238"/>
<path d="M278.87 222.614C278.785 222.593 279.331 221.138 279.523 218.687C279.644 217.465 279.615 215.996 279.488 214.371C279.339 212.754 279.026 210.988 278.558 209.165C278.075 207.35 277.443 205.669 276.79 204.179C276.08 202.717 275.398 201.41 274.681 200.407C273.297 198.366 272.118 197.356 272.182 197.292C272.196 197.271 272.487 197.525 272.992 198.006C273.254 198.232 273.538 198.557 273.858 198.931C274.021 199.122 274.191 199.319 274.376 199.531C274.546 199.75 274.717 199.997 274.901 200.252C275.654 201.248 276.371 202.554 277.109 204.031C277.784 205.535 278.43 207.23 278.927 209.067C279.395 210.91 279.701 212.697 279.835 214.336C279.942 215.974 279.949 217.465 279.793 218.701C279.757 219.004 279.729 219.301 279.693 219.584C279.637 219.859 279.587 220.113 279.537 220.361C279.438 220.848 279.36 221.265 279.239 221.59C279.019 222.261 278.891 222.628 278.87 222.614Z" fill="#263238"/>
<path d="M263.415 196.105C263.408 196.105 263.393 196.035 263.372 195.9C263.344 195.745 263.315 195.547 263.273 195.3C263.195 194.742 263.081 193.965 262.939 192.976C262.655 190.956 262.272 188.025 261.839 184.409C260.965 177.169 259.922 167.139 259.105 156.036C258.296 144.933 257.863 134.853 257.671 127.564C257.572 123.92 257.522 120.967 257.515 118.926C257.515 117.923 257.508 117.139 257.508 116.574C257.508 116.32 257.515 116.122 257.515 115.967C257.522 115.832 257.522 115.762 257.529 115.762C257.536 115.762 257.543 115.832 257.55 115.967C257.558 116.122 257.565 116.327 257.579 116.574C257.6 117.139 257.621 117.923 257.657 118.919C257.721 120.981 257.813 123.927 257.934 127.55C258.189 134.839 258.665 144.904 259.474 156.008C260.291 167.104 261.292 177.134 262.101 184.38C262.513 187.983 262.854 190.907 263.088 192.962C263.202 193.958 263.294 194.735 263.358 195.293C263.379 195.54 263.4 195.745 263.415 195.9C263.422 196.035 263.422 196.105 263.415 196.105Z" fill="#263238"/>
<path d="M227.199 168.283C227.178 168.29 227.008 167.909 226.717 167.203C226.433 166.496 226.007 165.486 225.474 164.236C224.409 161.743 222.819 158.346 220.916 154.659C219.014 151.007 217.288 147.701 216.003 145.236C215.386 144.028 214.896 143.04 214.569 142.354C214.243 141.669 214.072 141.281 214.094 141.274C214.115 141.26 214.328 141.627 214.697 142.291C215.088 143.011 215.613 143.965 216.238 145.116C217.53 147.511 219.34 150.795 221.243 154.489C223.145 158.183 224.7 161.609 225.708 164.13C226.212 165.395 226.603 166.426 226.844 167.146C227.1 167.874 227.221 168.276 227.199 168.283Z" fill="#263238"/>
<path d="M221.534 155.231C221.527 155.253 221.3 155.21 220.888 155.111C220.483 155.012 219.894 154.843 219.184 154.61C217.757 154.151 215.812 153.402 213.76 152.392C211.701 151.375 209.934 150.294 208.698 149.44C208.081 149.016 207.591 148.656 207.264 148.394C206.938 148.133 206.76 147.977 206.774 147.963C206.81 147.921 207.576 148.437 208.84 149.228C210.104 150.019 211.886 151.057 213.923 152.067C215.961 153.07 217.878 153.847 219.269 154.37C220.668 154.885 221.548 155.182 221.534 155.231Z" fill="#263238"/>
<path d="M212.013 179.359C211.999 179.381 211.729 179.211 211.253 178.9C210.778 178.582 210.082 178.13 209.216 177.608C207.476 176.548 204.97 175.227 202.059 174.14C199.141 173.059 196.387 172.416 194.371 172.077C193.362 171.908 192.546 171.788 191.978 171.717C191.41 171.646 191.098 171.59 191.098 171.569C191.098 171.541 191.417 171.548 191.992 171.576C192.567 171.597 193.398 171.682 194.413 171.816C196.451 172.091 199.241 172.699 202.187 173.794C205.133 174.896 207.64 176.266 209.358 177.382C210.217 177.94 210.898 178.42 211.346 178.78C211.786 179.133 212.027 179.338 212.013 179.359Z" fill="#263238"/>
<path d="M288.774 90.2422C288.788 90.2422 288.774 90.44 288.731 90.8143C288.682 91.224 288.625 91.7678 288.547 92.453C288.362 93.8727 288.107 95.928 287.674 98.4567C287.241 100.978 286.644 103.98 285.686 107.243C284.699 110.485 283.336 114.003 281.22 117.329C280.127 119.081 278.835 120.635 277.521 122.048L277.379 122.203L277.252 122.026C275.349 119.491 272.921 117.633 270.514 116.468C269.321 115.853 268.1 115.479 266.964 115.168C265.814 114.914 264.728 114.744 263.734 114.737C261.746 114.688 260.163 115.027 259.134 115.38C258.104 115.74 257.557 116.009 257.543 115.973C257.536 115.966 257.671 115.896 257.934 115.768C258.196 115.655 258.566 115.429 259.098 115.26C260.127 114.864 261.725 114.483 263.748 114.504C264.756 114.497 265.864 114.652 267.035 114.9C268.193 115.203 269.435 115.578 270.656 116.185C273.113 117.351 275.59 119.229 277.55 121.815L277.273 121.793C278.565 120.395 279.843 118.862 280.922 117.132C283.009 113.847 284.372 110.358 285.373 107.144C286.346 103.909 286.964 100.929 287.432 98.4143C287.901 95.8998 288.192 93.8515 288.419 92.4388C288.526 91.7608 288.611 91.2169 288.675 90.8072C288.717 90.4329 288.76 90.2422 288.774 90.2422Z" fill="#263238"/>
<path d="M289.378 90.6876L282.541 81.668L275.108 81.9011L250.955 94.5936L289.378 90.6876Z" fill="#8ABBFF"/>
<path d="M257.529 115.973C257.529 115.987 257.394 115.98 257.139 115.966C256.883 115.945 256.507 115.896 256.024 115.783C255.066 115.578 253.724 115.041 252.212 114.158C251.459 113.706 250.614 113.289 249.62 113.092C248.634 112.88 247.526 112.851 246.419 113.085C244.204 113.53 241.981 115.253 241.058 117.725L240.668 118.763L240.696 117.661C240.703 117.386 240.711 117.096 240.718 116.8C240.803 111.241 240.81 106.191 241.037 102.546C241.137 100.724 241.286 99.2478 241.435 98.2377C241.499 97.7292 241.577 97.3407 241.633 97.0794C241.69 96.818 241.726 96.6768 241.733 96.6838C241.768 96.6909 241.669 97.2489 241.57 98.2589C241.463 99.269 241.357 100.745 241.286 102.56C241.122 106.205 241.158 111.241 241.073 116.814C241.066 117.111 241.058 117.407 241.051 117.683L240.696 117.612C241.676 115.013 244.005 113.226 246.333 112.774C248.683 112.286 250.884 112.979 252.325 113.953C253.816 114.857 255.108 115.415 256.046 115.663C256.997 115.91 257.536 115.938 257.529 115.973Z" fill="#263238"/>
<path d="M282.541 37.9894V92.1427C282.541 95.2364 281.441 98.2311 279.439 100.597C276.365 104.228 272.666 107.279 268.513 109.603L257.537 115.755L248.457 107.689C245.787 105.316 244.204 101.968 244.062 98.4077C243.906 94.4594 243.906 90.4899 243.906 90.4899C243.906 90.4899 228.521 89.3881 227.073 74.2941C226.391 67.1885 226.178 52.6313 226.143 39.2113C226.1 23.9054 237.9 11.1423 253.227 9.87796L253.66 9.84264C269.528 9.45417 282.591 22.1891 282.541 37.9894Z" fill="#FFBE9D"/>
<path d="M243.85 90.2717C243.85 90.2717 253.512 90.2576 263.189 83.0391C263.189 83.0391 259.412 94.2978 244.141 94.1847L243.85 90.2717Z" fill="#EB996E"/>
<path d="M231.239 49.3548C231.296 50.499 232.311 51.396 233.511 51.3607C234.71 51.3254 235.641 50.3719 235.584 49.2276C235.527 48.0834 234.512 47.1864 233.312 47.2217C232.112 47.257 231.182 48.2106 231.239 49.3548Z" fill="#263238"/>
<path d="M230.004 45.3006C230.295 45.5619 231.836 44.2128 234.172 44.0292C236.5 43.8102 238.311 44.8626 238.545 44.5589C238.658 44.4247 238.346 43.9374 237.551 43.4571C236.77 42.9768 235.478 42.56 234.022 42.6872C232.567 42.8143 231.389 43.45 230.735 44.0504C230.061 44.6578 229.862 45.1875 230.004 45.3006Z" fill="#263238"/>
<path d="M253.445 48.4231C253.502 49.5674 254.517 50.4644 255.717 50.4291C256.917 50.3938 257.847 49.4402 257.79 48.296C257.733 47.1518 256.718 46.2548 255.518 46.2901C254.326 46.3254 253.396 47.2789 253.445 48.4231Z" fill="#263238"/>
<path d="M252.985 43.8455C253.276 44.1068 254.823 42.7578 257.152 42.5741C259.481 42.3552 261.291 43.4076 261.525 43.1038C261.639 42.9696 261.327 42.4823 260.531 42.002C259.75 41.5217 258.458 41.105 257.003 41.2321C255.548 41.3592 254.369 41.9949 253.716 42.5953C253.041 43.2027 252.843 43.7254 252.985 43.8455Z" fill="#263238"/>
<path d="M245.941 61.7655C245.941 61.6313 244.471 61.5041 242.093 61.3982C241.49 61.384 240.915 61.3134 240.787 60.9179C240.609 60.5012 240.808 59.8443 241.035 59.1309C241.475 57.6476 241.937 56.1008 242.42 54.4692C244.329 47.8369 245.664 42.4053 245.394 42.3347C245.125 42.264 243.357 47.5756 241.44 54.2079C240.986 55.8395 240.545 57.4004 240.126 58.8907C239.956 59.5829 239.629 60.3811 240.013 61.2428C240.212 61.6736 240.673 61.9562 241.064 62.0268C241.454 62.1116 241.788 62.0904 242.086 62.0833C244.478 62.0056 245.948 61.8997 245.941 61.7655Z" fill="#263238"/>
<path d="M252.95 62.8037C252.567 62.8108 252.772 65.3323 250.756 67.3029C248.74 69.2736 246.014 69.217 246.028 69.5702C246.007 69.7327 246.667 70.0081 247.81 69.9446C248.932 69.888 250.536 69.4007 251.771 68.1929C253 66.9851 253.447 65.4736 253.447 64.4353C253.454 63.3758 253.12 62.7754 252.95 62.8037Z" fill="#263238"/>
<path d="M251.622 34.7898C251.906 35.4043 254.214 34.9099 256.975 35.0159C259.744 35.0653 262.016 35.6798 262.336 35.0794C262.478 34.7969 262.037 34.2319 261.1 33.6951C260.163 33.1583 258.701 32.6921 257.046 32.6497C255.385 32.6073 253.901 32.9887 252.943 33.4761C251.963 33.9635 251.502 34.5003 251.622 34.7898Z" fill="#263238"/>
<path d="M230.302 38.5041C230.756 38.9985 232.318 38.3205 234.249 38.1297C236.173 37.8755 237.849 38.1933 238.182 37.6071C238.324 37.3245 238.026 36.816 237.267 36.3781C236.521 35.9402 235.307 35.6294 233.98 35.7777C232.652 35.926 231.544 36.5052 230.913 37.0985C230.281 37.706 230.103 38.2639 230.302 38.5041Z" fill="#263238"/>
<path d="M264.672 22.7754C264.7 22.7966 264.729 22.8178 264.757 22.8319C267.334 24.5342 269.159 27.1546 269.84 30.1565C269.862 30.2624 269.89 30.3613 269.911 30.4602C270.863 34.7193 271.118 39.1126 272.112 43.3646C273.106 47.6166 272.922 50.8657 277.203 51.8263C279.9 52.4337 282.201 50.9363 283.166 49.4177C283.535 48.8315 283.55 48.0898 283.542 47.3977C283.486 36.923 285.601 32.8546 284.678 21.9773C284.43 19.0178 282.797 16.348 280.227 14.8223C277.799 13.3814 274.867 11.9123 272.417 13.3249C269.968 14.7376 267.072 19.7453 265.261 21.9137" fill="#263238"/>
<path d="M277.992 45.2498C278.241 45.1156 288.173 41.3227 288.698 51.6773C289.224 62.039 278.667 60.4286 278.631 60.1319C278.596 59.8353 277.992 45.2498 277.992 45.2498Z" fill="#FFBE9D"/>
<path d="M281.614 56.0429C281.657 56.0076 281.799 56.163 282.118 56.2831C282.424 56.4031 282.942 56.4738 283.474 56.2407C284.553 55.7816 285.391 54.0017 285.349 52.1299C285.327 51.1835 285.086 50.3006 284.71 49.5731C284.355 48.8314 283.836 48.3299 283.275 48.2593C282.715 48.1604 282.345 48.5065 282.232 48.8102C282.104 49.1069 282.182 49.3117 282.132 49.3329C282.104 49.3612 281.898 49.1705 281.962 48.7396C281.998 48.5348 282.104 48.2805 282.338 48.0686C282.58 47.8567 282.942 47.7296 283.325 47.7578C284.127 47.7719 284.894 48.4712 285.299 49.2693C285.753 50.0675 286.051 51.0634 286.073 52.1229C286.115 54.2136 285.136 56.2195 283.652 56.728C282.928 56.9541 282.31 56.7634 281.976 56.5373C281.643 56.2901 281.579 56.0641 281.614 56.0429Z" fill="#EB996E"/>
<path d="M272.901 14.8927C275.116 10.5488 267.612 5.18789 262.358 4.00834C257.105 2.82879 250.559 5.85889 245.596 7.96372C242.465 9.29159 239.384 11.0362 235.984 11.1775C233.705 11.2693 231.468 10.6265 229.26 10.0474C227.052 9.46817 224.766 8.9455 222.509 9.29159C220.251 9.63063 218.015 11.0221 217.333 13.1905C216.644 15.3518 218.121 18.1206 220.393 18.2477C217.39 16.9128 213.4 19.3213 213.201 22.5845C213.002 25.8547 216.666 28.7153 219.811 27.7547C218.242 26.7659 216.133 28.7859 216.467 30.6082C216.801 32.4305 218.583 33.6242 220.343 34.2246C224.83 35.7573 229.828 34.7402 234.187 32.8685C238.546 30.9967 242.508 28.3198 246.817 26.3421C251.127 24.3644 258.326 20.8611 262.919 22.0547C266.299 22.9376 268.911 26.6811 270.693 25.664C272.418 24.6752 273.398 22.7187 273.59 20.7481C273.796 18.7845 273.348 16.8209 272.901 14.8927Z" fill="#263238"/>
<path d="M219.116 18.0648C219.201 18.0083 219.712 18.7852 220.933 19.9012C222.147 20.996 224.163 22.3945 227.01 23.122C229.808 23.8424 233.535 23.8424 236.879 21.9071C240.279 20.0424 243.041 16.6451 246.271 13.3889C249.494 10.1116 253.406 7.55476 257.481 6.84845C261.528 6.128 265.426 7.30755 267.698 9.45476C269.984 11.6231 270.63 14.2577 270.609 15.9387C270.601 16.8005 270.438 17.4503 270.317 17.8741C270.161 18.2978 270.062 18.5027 270.033 18.4956C269.934 18.4744 270.296 17.5845 270.211 15.9529C270.112 14.3637 269.387 11.9269 267.208 9.99156C265.057 8.0845 261.429 7.05328 257.652 7.78078C253.854 8.49416 250.148 10.9168 247.003 14.1164C243.829 17.3019 240.982 20.7911 237.34 22.7335C233.719 24.7606 229.722 24.6688 226.819 23.8212C223.851 22.9666 221.821 21.4056 220.656 20.1908C220.074 19.5692 219.669 19.0536 219.442 18.6722C219.201 18.2908 219.087 18.0859 219.116 18.0648Z" fill="#455A64"/>
<path d="M280.596 44.5787C280.561 44.614 280.128 44.3315 279.666 43.5404C279.205 42.7635 278.786 41.4639 278.835 39.8393C278.786 36.4914 281.448 32.6773 281.441 28.0438C281.484 25.7554 280.894 23.5729 279.78 21.9695C278.672 20.3732 277.061 19.4056 275.648 18.9677C274.214 18.5086 272.964 18.6075 272.141 18.784C271.317 18.9818 270.884 19.2149 270.841 19.1372C270.813 19.0948 271.182 18.7417 272.027 18.4026C272.865 18.0918 274.242 17.8588 275.847 18.2684C277.43 18.6569 279.247 19.6387 280.561 21.4186C281.86 23.1844 282.52 25.5859 282.477 28.0509C282.47 30.516 281.76 32.8115 281.015 34.7256C280.284 36.6539 279.673 38.3702 279.567 39.8676C279.261 42.9542 280.745 44.5152 280.596 44.5787Z" fill="#455A64"/>
<path d="M278.239 59.8064L276.549 58.2454C275.931 57.6804 275.896 56.7198 276.464 56.1124L282.811 49.2964C283.379 48.6819 284.344 48.6466 284.955 49.2116L286.644 50.7726C287.262 51.3377 287.298 52.2982 286.73 52.9057L280.383 59.7216C279.815 60.3361 278.856 60.3715 278.239 59.8064Z" fill="#263238"/>
<path d="M345.165 140.32C345.165 140.32 345.187 140.462 345.208 140.73C345.229 141.013 345.258 141.415 345.3 141.945C345.378 143.026 345.492 144.615 345.634 146.684C345.918 150.837 346.323 156.905 346.848 164.589C347.359 172.288 347.977 181.605 348.687 192.249C348.864 194.912 349.042 197.652 349.234 200.477C349.34 201.883 349.39 203.324 349.461 204.779C349.517 205.506 349.461 206.241 349.439 206.982C349.397 207.717 349.432 208.466 349.312 209.207C349.219 209.949 349.127 210.698 349.035 211.453C348.871 212.195 348.715 212.944 348.552 213.693C348.339 214.427 348.083 215.162 347.849 215.903C347.523 216.61 347.253 217.351 346.869 218.036C345.386 220.784 343.057 223.355 339.834 224.414L339.82 224.421H339.791C319.082 224.414 295.391 224.414 270.336 224.407C262.861 224.4 255.498 224.4 248.314 224.393H248.072L248.136 224.16C248.811 221.773 249.478 219.407 250.138 217.062C250.472 215.889 250.799 214.724 251.125 213.558C251.459 212.393 251.792 211.249 251.949 210.076C252.304 207.738 252.062 205.337 251.338 203.14C250.969 202.045 250.436 201.007 249.677 200.159C248.938 199.312 247.909 198.669 246.844 198.507L245.389 198.281L246.844 198.161C256.017 197.391 264.792 196.663 273.077 195.971L272.999 195.999C274.653 194.813 276.669 194.163 278.65 194.269C280.624 194.361 282.505 194.989 284.124 195.999L284.01 195.978C292.025 194.467 299.459 193.068 306.246 191.79L306.146 191.959C305.862 191.097 305.799 190.215 305.763 189.36C305.735 188.505 305.763 187.658 305.834 186.831C305.969 185.178 306.203 183.596 306.509 182.064L306.523 182.141C304.741 178.829 303.101 175.799 301.596 173.002L301.581 172.98V172.959C301.234 164.815 301.113 158.395 301.17 154.016C301.191 151.826 301.276 150.145 301.397 149.015C301.454 148.45 301.51 148.026 301.589 147.744C301.652 147.461 301.688 147.32 301.688 147.32C301.688 147.32 301.667 147.468 301.617 147.751C301.553 148.033 301.503 148.457 301.454 149.022C301.354 150.152 301.29 151.826 301.283 154.016C301.262 158.395 301.411 164.808 301.787 172.945L301.773 172.903C303.292 175.693 304.932 178.716 306.729 182.021L306.75 182.057L306.743 182.099C306.445 183.618 306.21 185.2 306.083 186.838C306.019 187.658 305.99 188.491 306.019 189.339C306.054 190.179 306.125 191.048 306.395 191.867L306.445 192.009L306.296 192.037C299.508 193.329 292.075 194.749 284.067 196.275L284.01 196.289L283.953 196.254C282.399 195.286 280.546 194.664 278.643 194.587C276.733 194.488 274.795 195.109 273.198 196.261L273.162 196.289L273.119 196.296C264.834 196.995 256.059 197.737 246.887 198.514V198.168C248.115 198.358 249.159 199.044 249.954 199.933C250.749 200.83 251.303 201.911 251.686 203.034C252.431 205.294 252.673 207.738 252.318 210.14C252.162 211.34 251.814 212.513 251.487 213.671C251.161 214.837 250.834 216.002 250.5 217.175C249.84 219.52 249.173 221.886 248.505 224.273L248.328 224.04C255.52 224.04 262.875 224.047 270.351 224.047C295.405 224.068 319.089 224.082 339.805 224.097L339.77 224.104C341.282 223.637 342.659 222.705 343.795 221.632C344.931 220.53 345.875 219.265 346.6 217.895C346.976 217.217 347.246 216.49 347.565 215.797C347.799 215.063 348.048 214.342 348.261 213.615C348.424 212.873 348.58 212.139 348.744 211.404C348.836 210.662 348.928 209.921 349.021 209.186C349.141 208.452 349.106 207.71 349.148 206.975C349.17 206.241 349.226 205.513 349.17 204.793C349.106 203.345 349.056 201.918 348.957 200.506C348.779 197.68 348.602 194.94 348.431 192.277C347.75 181.633 347.16 172.309 346.671 164.611C346.188 156.919 345.812 150.851 345.549 146.698C345.428 144.629 345.329 143.04 345.265 141.959C345.236 141.429 345.215 141.02 345.201 140.744C345.165 140.455 345.165 140.32 345.165 140.32Z" fill="#263238"/>
<path d="M325.059 101.832C325.074 101.861 324.612 102.115 323.796 102.616C322.979 103.111 321.829 103.881 320.509 104.961C317.853 107.087 314.651 110.619 312.003 115.09C309.348 119.561 307.587 123.947 306.324 127.112C305.713 128.665 305.216 129.937 304.847 130.876C304.684 131.286 304.542 131.625 304.435 131.893C304.336 132.126 304.279 132.246 304.265 132.239C304.251 132.232 304.286 132.105 304.364 131.865C304.456 131.59 304.57 131.243 304.712 130.82C305.024 129.916 305.479 128.616 306.075 127.013C307.282 123.82 309.007 119.399 311.684 114.899C314.353 110.393 317.619 106.847 320.345 104.757C321.701 103.697 322.88 102.955 323.725 102.496C324.136 102.256 324.484 102.101 324.704 101.988C324.932 101.868 325.059 101.818 325.059 101.832Z" fill="#263238"/>
<g opacity="0.3">
<path d="M297.273 128.801C294.255 135.327 293.034 142.743 293.304 149.927C293.574 157.11 294.44 164.307 293.73 171.455C293.02 178.603 290.528 185.906 285.161 190.717C284.515 191.296 283.819 191.854 283.428 192.631C283.045 193.401 283.073 194.467 283.762 194.997C284.373 195.47 285.232 195.357 285.991 195.23C291.131 194.34 296.321 193.711 301.461 192.821C302.562 192.631 306.268 191.91 306.268 191.91C306.268 191.91 305.778 189.106 305.955 187.708C306.119 186.429 306.623 182.078 306.623 182.078C306.473 181.407 305.984 180.899 305.636 180.263C302.256 174.019 301.376 169.393 301.376 169.393C299.622 165.819 298.834 162.238 298.025 158.897C295.775 149.644 295.838 140.526 297.273 128.801Z" fill="black"/>
</g>
<g opacity="0.3">
<path d="M240.995 118.256C241.414 119.315 241.839 120.375 242.258 121.434C242.386 121.759 242.549 122.112 242.869 122.239C243.501 122.479 244.005 121.71 244.303 121.102C245.489 118.715 247.945 117.005 250.6 116.695C252.759 116.448 254.974 117.069 257.096 116.631C255.215 115.515 253.319 114.392 251.232 113.728C249.152 113.064 246.838 112.888 244.793 113.665C242.748 114.449 241.059 116.32 240.902 118.489" fill="black"/>
</g>
<g opacity="0.3">
<path d="M258.545 115.578C261.065 115.62 263.614 115.67 266.063 116.249C268.512 116.828 270.905 118.001 272.502 119.943C274.221 122.027 274.859 124.753 275.555 127.359C275.69 127.861 275.932 128.454 276.45 128.511C276.762 128.546 277.046 128.355 277.302 128.172C281.547 125.071 284.352 120.31 285.892 115.303C287.426 110.288 287.781 104.997 287.866 99.7637C285.835 103.373 284.955 107.484 283.613 111.397C282.271 115.31 280.298 119.251 276.819 121.511C276.933 120.628 276.585 119.731 276.024 119.032C275.47 118.333 274.725 117.81 273.958 117.351C269.279 114.54 263.38 113.819 258.154 115.43" fill="black"/>
</g>
<path d="M247.512 198.775H238.822C238.822 198.775 219.206 191.726 215.174 192.397C211.539 193.004 198.241 201.791 195.636 203.535C195.345 203.726 195.125 204.008 195.004 204.333C194.471 205.767 195.174 207.356 196.587 207.936L196.864 208.049L196.743 208.444C196.594 208.931 196.516 209.482 196.545 210.026C196.644 211.884 199.15 212.449 200.109 210.853L199.604 211.736C199.399 212.096 199.306 212.505 199.328 212.922L199.37 213.727C199.42 214.624 200.016 215.394 200.875 215.67C201.692 215.931 202.586 215.705 203.161 215.076C204.851 213.233 208.493 209.532 210.957 209.122C213.15 208.762 216.8 208.713 219.007 208.72C220.129 208.727 221.13 209.412 221.542 210.45C220.08 210.556 209.885 215.839 206.278 217.732C205.163 218.318 204.326 219.371 204.184 220.621C204.049 221.744 204.624 222.924 206.853 222.401C211.645 221.285 220.271 217.344 220.271 217.344C220.271 217.344 224.723 216.079 227.605 218.099C231.659 220.946 233.519 221.991 236.998 220.84C240.476 219.689 243.046 218.043 243.046 218.043L249.905 217.365C249.89 217.372 256.379 201.247 247.512 198.775Z" fill="#FFBE9D"/>
<path d="M221.606 202.072C221.591 202.15 220.214 201.705 217.921 201.564C215.642 201.408 212.405 201.67 209.181 203.04C205.958 204.41 203.523 206.55 202.061 208.295C200.577 210.04 199.945 211.332 199.881 211.297C199.86 211.29 200.002 210.958 200.314 210.393C200.626 209.828 201.131 209.037 201.855 208.132C203.282 206.324 205.738 204.099 209.032 202.708C212.319 201.309 215.635 201.091 217.935 201.309C219.092 201.415 220.015 201.599 220.647 201.769C221.279 201.924 221.613 202.051 221.606 202.072Z" fill="#EB996E"/>
<path d="M219.533 197.333C219.511 197.425 218.113 196.74 215.699 196.67C213.299 196.564 209.927 197.284 206.775 199.184C203.623 201.091 201.266 203.507 199.583 205.237C198.788 206.078 198.128 206.777 197.609 207.321C197.141 207.815 196.878 208.077 196.857 208.062C196.836 208.048 197.07 207.752 197.503 207.229C197.936 206.706 198.575 205.965 199.391 205.061C201.024 203.281 203.374 200.809 206.583 198.873C209.799 196.938 213.264 196.246 215.706 196.415C216.934 196.486 217.907 196.712 218.553 196.931C218.88 197.023 219.121 197.15 219.284 197.213C219.455 197.277 219.533 197.319 219.533 197.333Z" fill="#EB996E"/>
<path d="M332.784 1.125C316.746 1.125 303.754 14.0577 303.754 30.0063C303.754 36.1513 305.685 41.8371 308.972 46.52L305.486 57.2913L316.157 53.675C320.871 56.9594 326.6 58.8876 332.791 58.8876C348.829 58.8876 361.821 45.9549 361.821 30.0063C361.821 14.0577 348.822 1.125 332.784 1.125Z" fill="white"/>
<path d="M325.131 29.7878C325.089 31.1651 323.939 32.2458 322.554 32.2034C321.17 32.161 320.084 31.0168 320.126 29.6395C320.169 28.2621 321.319 27.1815 322.703 27.2239C324.088 27.2592 325.174 28.4105 325.131 29.7878Z" fill="#263238"/>
<path d="M335.149 30.0847C335.106 31.462 333.956 32.5427 332.572 32.5003C331.187 32.4579 330.101 31.3137 330.144 29.9363C330.186 28.559 331.337 27.4784 332.721 27.5207C334.105 27.5631 335.192 28.7073 335.149 30.0847Z" fill="#263238"/>
<path d="M345.181 29.1386C345.834 30.3535 345.38 31.8579 344.159 32.5148C342.938 33.1646 341.425 32.7126 340.765 31.4977C340.112 30.2829 340.566 28.7784 341.787 28.1215C343.001 27.4717 344.521 27.9308 345.181 29.1386Z" fill="#263238"/>
<path d="M333.678 0.927894C333.678 0.913768 333.849 0.920831 334.182 0.934957C334.552 0.956147 335.041 0.984399 335.666 1.01972C335.993 1.04797 336.362 1.05503 336.76 1.10447C337.157 1.1751 337.597 1.24574 338.066 1.33049C338.541 1.41525 339.046 1.50001 339.592 1.5989C340.125 1.74722 340.693 1.90261 341.289 2.07213C343.674 2.75725 346.557 3.89443 349.475 5.91449C352.393 7.90631 355.403 10.7104 357.803 14.4821C360.152 18.2538 361.913 22.9579 362.254 28.1988C362.261 29.5055 362.382 30.8404 362.211 32.1895C362.14 32.8605 362.133 33.5456 362.02 34.2237C361.899 34.9017 361.771 35.5798 361.643 36.272C361.004 38.9772 360.103 41.7459 358.612 44.3028C357.156 46.8667 355.303 49.2965 353.06 51.4366C350.781 53.5344 348.14 55.3355 345.215 56.6916C342.304 58.0619 339.088 58.973 335.773 59.2697C334.949 59.4039 334.111 59.3827 333.274 59.4039C332.436 59.4321 331.591 59.4392 330.746 59.3756C329.064 59.2556 327.374 58.9942 325.713 58.5916C322.099 57.7158 318.727 56.1407 315.78 54.0782L316.086 54.1206C312.557 55.4061 309.093 56.6704 305.713 57.9065L305.096 58.1325L305.287 57.5109C306.437 53.8028 307.552 50.1935 308.631 46.6972L308.674 46.9656C305.912 43.0738 304.208 38.6805 303.583 34.3437C303.271 32.1754 303.172 30.0211 303.378 27.9516C303.456 26.9133 303.534 25.8891 303.761 24.8932C303.853 24.3917 303.945 23.8973 304.038 23.41C304.144 22.9226 304.308 22.4494 304.442 21.9761C306.657 14.362 311.577 8.83864 316.377 5.73085C318.783 4.1487 321.141 3.03978 323.292 2.36172C323.824 2.1922 324.342 2.02269 324.839 1.86023C325.351 1.74722 325.84 1.64127 326.309 1.53533C326.778 1.43644 327.225 1.33756 327.651 1.24574C328.077 1.1751 328.496 1.14685 328.879 1.09741C329.66 1.01972 330.342 0.906704 330.938 0.899641C331.527 0.899641 332.024 0.892578 332.443 0.892578C332.826 0.892578 333.125 0.899641 333.366 0.899641C333.572 0.913768 333.678 0.920831 333.678 0.927894C333.678 0.934957 333.572 0.949083 333.366 0.96321C333.132 0.977336 332.826 0.991463 332.45 1.00559C332.031 1.01972 331.534 1.0409 330.952 1.06209C330.356 1.09035 329.681 1.21748 328.907 1.30931C325.876 1.76841 321.318 2.82789 316.597 6.05576C311.883 9.16355 307.083 14.6375 304.954 22.1245C304.826 22.5906 304.67 23.0568 304.563 23.53C304.478 24.0103 304.386 24.4977 304.3 24.9921C304.08 25.9668 304.009 26.9698 303.938 27.994C303.747 30.0282 303.846 32.14 304.166 34.2661C304.797 38.511 306.48 42.8125 309.192 46.6125L309.284 46.7396L309.242 46.8879C308.17 50.3842 307.062 53.9935 305.919 57.7087L305.5 57.3132C308.88 56.0771 312.344 54.8058 315.866 53.5132L316.029 53.4567L316.171 53.5556C319.053 55.5686 322.355 57.1083 325.883 57.963C327.509 58.3585 329.156 58.6128 330.803 58.7329C331.627 58.7964 332.45 58.7894 333.274 58.7611C334.097 58.7399 334.914 58.7611 335.723 58.6269C338.967 58.3444 342.105 57.4544 344.959 56.1195C347.821 54.7916 350.405 53.04 352.641 50.9916C354.835 48.9009 356.652 46.5277 358.094 44.0203C359.563 41.5199 360.451 38.8147 361.09 36.159C361.217 35.488 361.338 34.817 361.466 34.153C361.587 33.4891 361.594 32.8181 361.665 32.1542C361.835 30.8334 361.721 29.5196 361.721 28.2412C361.409 23.0992 359.705 18.4657 357.419 14.7364C355.083 11.0141 352.144 8.21708 349.283 6.22527C346.422 4.19814 343.589 3.03978 341.239 2.31934C340.65 2.14276 340.089 1.98031 339.564 1.81785C339.024 1.71191 338.527 1.61302 338.059 1.52826C337.59 1.43644 337.164 1.35168 336.767 1.27399C336.369 1.21748 336.007 1.19629 335.68 1.16098C335.056 1.09741 334.566 1.04797 334.204 1.01265C333.849 0.96321 333.678 0.94202 333.678 0.927894Z" fill="#263238"/>
<path d="M396.938 221.771C395.113 222.026 393.331 222.909 392.224 224.378C391.116 225.847 390.768 227.916 391.563 229.569C392.359 231.222 394.361 232.281 396.143 231.794C396.199 233.094 397.385 234.245 398.691 234.266C399.998 234.287 401.226 233.179 401.325 231.879C402.17 232.839 403.654 233.179 404.84 232.691C406.025 232.197 406.82 230.904 406.728 229.633C406.671 228.828 406.295 228.072 406.196 227.267C406.089 226.391 406.316 225.501 406.295 224.618C406.274 223.735 405.89 222.746 405.045 222.464" fill="#263238"/>
<path d="M360.515 226.553C363.262 224.801 366.408 223.763 369.567 222.951C371.867 222.357 374.323 221.884 376.581 222.619C378.704 223.311 380.422 225.119 381.011 227.266C381.231 228.086 381.288 228.997 380.891 229.745C380.358 230.741 379.187 231.2 378.086 231.469C377.249 231.674 376.169 231.737 375.701 231.017C375.147 231.716 374.288 232.168 373.401 232.239C372.506 232.309 371.59 231.991 370.937 231.384C370.334 232.768 368.615 233.567 367.16 233.136C365.705 232.712 364.697 231.123 364.938 229.632C364.263 230.6 363.085 231.222 361.906 231.123C360.728 231.024 359.635 230.134 359.407 228.976C359.18 227.817 359.94 226.532 361.083 226.256" fill="#263238"/>
<path d="M333.957 226.101C333.233 223.05 334.426 219.864 336.982 218.028C339.828 215.986 341.83 213.613 345.544 211.417C348.185 209.849 352.615 208.203 354.61 207.546C361.887 205.144 366.807 204.53 369.796 202.976C373.076 201.267 377.442 198.59 377.442 198.59L414.594 201.45C414.594 201.45 419.059 228.75 412.293 231.412C412.293 231.412 380.821 231.744 378.343 230.65C375.66 229.47 334.703 229.491 334.823 229.76L333.957 226.101Z" fill="#263238"/>
<path d="M354.057 220.889C346.112 222.075 342.137 222.436 334.107 222.485C331.757 222.499 329.379 222.464 327.078 222.937C325.68 223.227 324.274 223.721 323.245 224.71C322.215 225.699 321.654 227.26 322.158 228.588C322.663 229.915 324.43 230.721 325.644 229.965C325.85 231.074 326.78 232.013 327.895 232.225C329.009 232.437 330.224 231.914 330.827 230.954C331.338 231.611 332.275 231.801 333.099 231.667C333.922 231.533 334.675 231.13 335.427 230.777C338.672 229.273 342.108 229.64 345.686 229.668C351.934 229.711 359.005 229.647 356.399 229.668" fill="#263238"/>
<path d="M356.406 229.675C356.406 229.661 356.583 229.654 356.931 229.64H356.945H356.952H356.96C356.967 229.767 356.952 229.675 356.96 229.703H356.924H356.853C356.803 229.703 356.754 229.703 356.697 229.711C356.59 229.711 356.47 229.718 356.349 229.718C356.093 229.725 355.795 229.732 355.469 229.739C354.113 229.753 352.189 229.774 349.789 229.802C348.575 229.802 347.24 229.809 345.799 229.809C344.351 229.809 342.803 229.739 341.163 229.781C339.53 229.831 337.791 230.014 336.122 230.678C335.292 230.996 334.497 231.505 333.538 231.766C333.063 231.893 332.544 231.943 332.04 231.844C331.536 231.752 331.032 231.505 330.691 231.074L330.982 231.06C330.358 232.041 329.122 232.621 327.922 232.423C326.723 232.218 325.7 231.236 325.466 230.007L325.743 230.127C324.848 230.685 323.606 230.452 322.804 229.767C322.271 229.343 321.923 228.701 321.831 228.044C321.725 227.387 321.838 226.716 322.08 226.115C322.555 224.901 323.606 224.018 324.706 223.502C325.828 222.979 327.014 222.732 328.164 222.57C329.321 222.407 330.464 222.358 331.572 222.33C336.002 222.308 339.97 222.28 343.307 222.04C346.637 221.814 349.32 221.461 351.173 221.228C352.082 221.115 352.792 221.023 353.31 220.952C353.538 220.924 353.722 220.903 353.864 220.889C353.992 220.875 354.056 220.875 354.056 220.882C354.056 220.889 353.992 220.903 353.871 220.931C353.729 220.959 353.545 220.988 353.317 221.03C352.806 221.115 352.089 221.228 351.188 221.369C349.335 221.644 346.658 222.033 343.314 222.294C339.977 222.577 335.98 222.626 331.572 222.669C330.471 222.697 329.342 222.753 328.206 222.916C327.078 223.078 325.92 223.325 324.855 223.827C323.798 224.321 322.846 225.134 322.413 226.25C321.952 227.323 322.065 228.722 323.031 229.477C323.741 230.078 324.813 230.269 325.537 229.809L325.764 229.661L325.814 229.93C326.006 230.996 326.929 231.879 327.972 232.056C329.016 232.232 330.13 231.724 330.67 230.862L330.805 230.65L330.961 230.848C331.522 231.547 332.587 231.66 333.439 231.42C334.326 231.187 335.121 230.685 335.988 230.36C337.713 229.689 339.495 229.513 341.142 229.47C342.796 229.435 344.344 229.527 345.785 229.534C347.226 229.548 348.561 229.562 349.775 229.569C352.174 229.583 354.098 229.598 355.454 229.612C355.781 229.619 356.072 229.619 356.335 229.619C356.463 229.619 356.576 229.626 356.683 229.626C356.732 229.626 356.789 229.626 356.839 229.626H356.91H356.945C356.952 229.654 356.938 229.562 356.945 229.689H356.938H356.924C356.583 229.696 356.406 229.689 356.406 229.675Z" fill="#455A64"/>
<path d="M406.102 228.227C406.102 228.227 406.293 228.375 406.52 228.771C406.733 229.159 406.968 229.823 406.861 230.678C406.811 231.101 406.677 231.568 406.393 232.006C406.116 232.451 405.683 232.853 405.122 233.093C404.028 233.581 402.388 233.461 401.345 232.288L401.608 232.239C401.267 233.256 400.259 234.117 399.03 234.202C397.809 234.287 396.524 233.482 396.098 232.217L396.311 232.338C394.345 232.825 392.144 231.504 391.313 229.526C390.667 228.029 390.944 226.348 391.619 225.041C392.307 223.72 393.386 222.675 394.586 222.025C395.786 221.361 397.057 221.029 398.249 220.874C399.442 220.719 400.571 220.74 401.586 220.817C403.617 220.994 405.221 221.347 406.336 221.552C406.861 221.658 407.287 221.736 407.614 221.799C407.905 221.856 408.061 221.891 408.054 221.905C408.054 221.919 407.898 221.905 407.6 221.87C407.301 221.835 406.868 221.771 406.307 221.686C405.186 221.524 403.574 221.213 401.565 221.072C399.584 220.952 397.071 221.036 394.757 222.315C393.613 222.944 392.591 223.939 391.945 225.197C391.306 226.433 391.058 228.015 391.654 229.378C392.421 231.214 394.473 232.422 396.226 231.984L396.389 231.942L396.439 232.097C396.801 233.199 397.951 233.934 399.016 233.863C400.088 233.8 401.018 233.03 401.324 232.133L401.409 231.885L401.579 232.083C402.495 233.143 404.014 233.291 405.03 232.86C406.094 232.436 406.591 231.426 406.698 230.642C406.826 229.837 406.627 229.194 406.449 228.806C406.251 228.417 406.08 228.248 406.102 228.227Z" fill="#455A64"/>
<path d="M411.66 221.149C411.617 221.192 411.234 220.817 410.488 220.415C409.757 220.012 408.621 219.617 407.343 219.68C406.065 219.744 404.979 220.252 404.29 220.726C403.595 221.199 403.247 221.616 403.204 221.573C403.169 221.552 403.446 221.072 404.134 220.514C404.809 219.963 405.952 219.377 407.322 219.306C408.692 219.235 409.885 219.701 410.616 220.182C411.369 220.676 411.688 221.128 411.66 221.149Z" fill="#455A64"/>
<path d="M360.382 230.875C360.375 230.882 360.283 230.826 360.105 230.692C359.949 230.543 359.708 230.324 359.495 229.964C359.062 229.272 358.7 228.022 359.097 226.567C359.495 225.112 360.751 223.699 362.434 222.724C364.116 221.714 366.197 221.156 368.206 220.273C372.245 218.458 375.064 215.414 376.576 212.984C377.35 211.769 377.854 210.71 378.159 209.961C378.472 209.212 378.621 208.796 378.649 208.803C378.663 208.81 378.635 208.916 378.578 209.121C378.514 209.325 378.443 209.636 378.294 210.011C378.024 210.781 377.549 211.868 376.796 213.118C375.327 215.612 372.48 218.755 368.355 220.605C366.303 221.509 364.244 222.053 362.604 223.014C360.957 223.939 359.75 225.274 359.346 226.637C358.934 228.001 359.232 229.208 359.615 229.893C360.013 230.593 360.411 230.84 360.382 230.875Z" fill="#455A64"/>
<path d="M375.176 230.656C375.212 230.621 375.396 230.981 375.979 231.285C376.54 231.589 377.569 231.801 378.634 231.32C379.699 230.868 380.522 229.519 380.473 227.986C380.466 227.224 380.238 226.433 379.819 225.712C379.394 224.999 378.79 224.349 378.052 223.847C376.575 222.83 374.829 222.414 373.281 222.421C371.712 222.414 370.313 222.731 369.163 223.049C368.013 223.374 367.097 223.699 366.458 223.911C365.819 224.13 365.464 224.243 365.457 224.215C365.45 224.193 365.784 224.031 366.408 223.777C367.033 223.522 367.935 223.155 369.092 222.802C370.242 222.449 371.662 222.096 373.281 222.089C374.892 222.067 376.71 222.484 378.265 223.558C379.039 224.088 379.685 224.78 380.132 225.543C380.572 226.312 380.813 227.174 380.813 227.993C380.849 229.639 379.926 231.101 378.733 231.567C377.555 232.048 376.469 231.772 375.901 231.412C375.602 231.235 375.418 231.031 375.304 230.896C375.219 230.741 375.169 230.663 375.176 230.656Z" fill="#455A64"/>
<path d="M371.037 231.166C371.073 231.145 371.378 231.632 372.223 231.929C372.628 232.077 373.16 232.233 373.7 232.183C374.239 232.12 374.814 231.774 375.134 231.23C375.453 230.686 375.432 230.029 375.276 229.485C375.12 228.941 374.836 228.496 374.573 228.136C374.026 227.437 373.622 227.034 373.671 226.992C373.7 226.964 374.161 227.289 374.779 227.974C375.077 228.32 375.418 228.779 375.602 229.386C375.794 229.973 375.837 230.742 375.453 231.406C375.07 232.063 374.388 232.452 373.742 232.508C373.082 232.551 372.55 232.346 372.124 232.162C371.698 231.964 371.392 231.731 371.222 231.526C371.044 231.322 371.016 231.173 371.037 231.166Z" fill="#455A64"/>
<path d="M365.075 229.844C365.103 229.851 365.053 230.049 365.046 230.402C365.039 230.748 365.117 231.271 365.437 231.815C365.742 232.352 366.324 232.888 367.133 233.051C367.921 233.227 368.894 233.058 369.632 232.472C370.371 231.885 370.761 230.995 370.847 230.19C370.939 229.371 370.719 228.629 370.435 228.071C369.838 226.941 369.093 226.517 369.143 226.468C369.157 226.447 369.341 226.532 369.64 226.765C369.931 226.991 370.328 227.372 370.669 227.951C371.003 228.523 371.272 229.329 371.187 230.233C371.109 231.123 370.69 232.104 369.86 232.768C369.022 233.425 367.943 233.602 367.055 233.39C366.147 233.185 365.508 232.549 365.21 231.949C364.897 231.342 364.855 230.769 364.904 230.402C364.954 230.021 365.06 229.837 365.075 229.844Z" fill="#455A64"/>
<path d="M379.828 204.947C379.828 204.947 387.687 213.557 397.427 212.462C407.168 211.368 414.665 201.974 414.665 201.974C416.163 199.607 415.545 197.157 415.077 195.348C414.608 193.54 413.714 191.81 413.707 189.938C413.7 188.342 414.338 186.823 414.8 185.297C415.836 181.879 415.993 178.263 416.149 174.696C416.213 173.163 416.135 171.341 414.835 170.521C414.026 170.013 412.961 170.083 412.088 170.472C411.215 170.86 410.498 171.517 409.809 172.174C406.877 174.978 404.115 177.966 401.559 181.116C397.612 178.326 391.684 178.806 388.241 182.183C384.066 180.438 382.696 174.625 378.422 173.142C377.492 172.817 376.384 172.76 375.596 173.347C374.56 174.124 374.503 175.621 374.539 176.913C374.716 182.726 374.929 188.709 377.307 194.02C376.271 197.594 377.151 201.67 379.586 204.502" fill="#263238"/>
<path d="M394.082 206.169C394.593 205.42 395.381 204.862 396.254 204.615C397.128 204.368 398.093 204.431 398.924 204.798C399.13 204.89 399.336 205.003 399.471 205.187C399.605 205.37 399.648 205.632 399.52 205.823C399.371 205.589 398.995 205.618 398.796 205.815C398.604 206.013 398.555 206.31 398.548 206.585C398.541 206.861 398.555 207.143 398.455 207.405C398.335 207.715 398.051 207.949 397.724 208.012C397.398 208.076 397.043 207.956 396.822 207.715C396.624 207.504 396.531 207.214 396.404 206.953C396.276 206.691 396.07 206.437 395.779 206.388C395.552 206.345 395.324 206.444 395.104 206.529C394.891 206.614 394.643 206.684 394.43 206.592C394.217 206.501 394.118 206.169 394.309 206.034" fill="#455A64"/>
<path d="M397.718 207.242C397.775 207.249 397.761 207.553 397.875 208.012C397.981 208.464 398.265 209.079 398.805 209.538C399.344 209.99 400.004 210.166 400.466 210.195C400.942 210.23 401.24 210.159 401.254 210.216C401.268 210.258 400.984 210.421 400.459 210.449C399.948 210.484 399.188 210.336 398.556 209.813C397.931 209.284 397.662 208.563 397.612 208.055C397.562 207.539 397.676 207.235 397.718 207.242Z" fill="#455A64"/>
<path d="M397.775 206.784C397.81 206.77 398.023 207.109 398.044 207.737C398.073 208.352 397.846 209.27 397.121 209.948C396.39 210.619 395.453 210.781 394.842 210.711C394.211 210.647 393.884 210.414 393.905 210.379C393.927 210.322 394.282 210.456 394.857 210.449C395.425 210.449 396.241 210.259 396.873 209.672C397.498 209.086 397.746 208.281 397.789 207.723C397.824 207.158 397.711 206.805 397.775 206.784Z" fill="#455A64"/>
<path d="M412.812 210.018C412.762 210.131 410.59 208.958 407.622 208.612C404.654 208.231 402.262 208.845 402.24 208.725C402.226 208.683 402.808 208.478 403.788 208.316C404.768 208.153 406.152 208.069 407.665 208.252C409.177 208.436 410.497 208.853 411.406 209.248C412.322 209.644 412.833 209.983 412.812 210.018Z" fill="#455A64"/>
<path d="M417.333 208.104C417.319 208.161 416.445 207.942 415.018 207.695C413.591 207.441 411.604 207.186 409.396 207.151C407.188 207.116 405.193 207.306 403.759 207.511C402.324 207.716 401.444 207.9 401.43 207.843C401.423 207.822 401.636 207.744 402.033 207.638C402.424 207.525 402.999 207.391 403.716 207.257C405.15 206.981 407.166 206.755 409.403 206.791C411.639 206.833 413.648 207.13 415.068 207.448C415.778 207.61 416.353 207.758 416.736 207.886C417.127 207.999 417.34 208.083 417.333 208.104Z" fill="#455A64"/>
<path d="M419.727 203.096C419.72 203.152 418.655 203.103 416.929 203.103C415.204 203.11 412.812 203.18 410.235 203.654C407.65 204.12 405.407 204.953 403.873 205.723C402.333 206.493 401.474 207.136 401.438 207.079C401.424 207.058 401.623 206.882 402.013 206.592C402.404 206.302 402.993 205.914 403.753 205.497C405.272 204.65 407.544 203.767 410.164 203.293C412.783 202.813 415.197 202.785 416.929 202.841C417.796 202.87 418.498 202.926 418.981 202.976C419.464 203.032 419.727 203.074 419.727 203.096Z" fill="#455A64"/>
<path d="M379.017 214.319C379.002 214.298 379.151 214.157 379.428 213.91C379.705 213.662 380.138 213.337 380.692 212.956C381.792 212.2 383.432 211.303 385.378 210.646C387.323 209.997 389.176 209.721 390.511 209.65C391.178 209.615 391.725 209.615 392.094 209.643C392.47 209.665 392.676 209.693 392.669 209.714C392.669 209.778 391.845 209.771 390.525 209.905C389.211 210.039 387.401 210.35 385.491 210.985C383.582 211.628 381.956 212.476 380.827 213.161C379.712 213.867 379.059 214.369 379.017 214.319Z" fill="#455A64"/>
<path d="M378.422 210.4C378.415 210.379 378.607 210.28 378.962 210.117C379.317 209.955 379.842 209.75 380.502 209.531C381.823 209.086 383.697 208.613 385.82 208.38C387.943 208.154 389.881 208.217 391.265 208.373C391.961 208.45 392.515 208.535 392.898 208.62C393.281 208.698 393.487 208.754 393.48 208.782C393.473 208.839 392.621 208.726 391.244 208.634C389.867 208.549 387.957 208.521 385.862 208.747C383.768 208.973 381.908 209.397 380.58 209.778C379.253 210.16 378.443 210.456 378.422 210.4Z" fill="#455A64"/>
<path d="M373.473 208.746C373.466 208.725 373.728 208.605 374.211 208.414C374.694 208.217 375.411 207.976 376.306 207.715C378.095 207.192 380.643 206.691 383.49 206.592C386.344 206.5 388.921 206.818 390.739 207.214C391.648 207.411 392.379 207.602 392.876 207.765C393.373 207.92 393.643 208.019 393.635 208.047C393.614 208.111 392.514 207.793 390.689 207.468C388.872 207.143 386.323 206.861 383.504 206.959C380.686 207.058 378.166 207.517 376.369 207.969C374.58 208.414 373.494 208.803 373.473 208.746Z" fill="#455A64"/>
<path d="M392.4 199.071C392.428 199.099 392.073 199.495 391.306 199.841C390.554 200.194 389.347 200.448 388.083 200.123C386.819 199.791 385.889 198.986 385.399 198.315C384.902 197.637 384.782 197.122 384.824 197.115C384.881 197.086 385.087 197.552 385.605 198.153C386.116 198.753 387.004 199.459 388.175 199.763C389.34 200.06 390.468 199.869 391.207 199.601C391.959 199.325 392.364 199.015 392.4 199.071Z" fill="#455A64"/>
<path d="M408.211 195.674C408.247 195.667 408.367 196.182 408.09 196.952C407.842 197.715 407.075 198.669 405.925 199.156C404.789 199.658 403.653 199.707 402.872 199.714C402.084 199.714 401.602 199.658 401.602 199.608C401.602 199.552 402.084 199.516 402.865 199.453C403.632 199.382 404.718 199.283 405.776 198.817C406.848 198.365 407.551 197.539 407.849 196.853C408.162 196.168 408.147 195.674 408.211 195.674Z" fill="#455A64"/>
<path d="M380.708 185.261C381.141 184.802 381.574 184.336 381.893 183.757C382.213 183.178 382.412 182.486 382.326 181.8C382.234 181.066 381.836 180.444 381.425 179.879C380.296 178.347 378.982 177.012 377.527 175.945C377.527 175.945 376.398 175.097 375.894 175.945C375.56 176.51 375.773 185.791 377.066 186.377C378.372 186.978 380.708 185.261 380.708 185.261Z" fill="#455A64"/>
<path d="M412.917 172.005C410.844 173.623 410.049 176.406 408.494 178.524C408.217 178.906 407.933 179.294 407.748 179.725C407.564 180.156 407.486 180.658 407.628 181.11C407.777 181.576 408.146 181.936 408.522 182.247C409.346 182.939 410.276 183.497 411.27 183.907C411.27 183.907 413.421 184.571 413.989 182.621C414.557 180.679 414.308 170.925 412.917 172.005Z" fill="#455A64"/>
<path d="M346.949 212.017C344.45 212.399 338.678 211.445 336.995 209.715C335.235 207.914 335.781 205.272 336.697 202.934C337.613 200.589 339.026 198.484 340.226 196.274C342.242 192.58 343.705 188.511 343.818 184.309C343.925 180.113 342.562 175.769 339.573 172.803C336.584 169.836 331.87 168.494 327.929 170.013C324.692 171.263 322.179 174.985 323.435 178.206C324.223 180.226 326.19 181.512 327.574 183.186C329.527 185.545 330.301 188.815 329.619 191.796C328.874 195.031 326.573 197.729 325.7 200.935C324.373 205.823 326.779 211.248 330.833 214.306C334.887 217.364 340.283 218.282 345.337 217.696" fill="#263238"/>
<path d="M399.465 210.321C399.465 210.321 399.77 212.214 399.117 212.984C398.826 213.33 398.421 213.606 397.967 213.655C397.299 213.726 396.653 213.274 396.32 212.694C395.986 212.115 395.901 211.423 395.865 210.759C395.865 210.759 397.555 210.152 397.796 209.17C397.803 209.17 398.478 210.222 399.465 210.321Z" fill="#8ABBFF"/>
<path d="M408.07 211.092C408.085 211.107 407.9 211.34 407.524 211.714C407.147 212.088 406.558 212.604 405.763 213.148C404.194 214.236 401.695 215.394 398.742 215.627C395.788 215.86 393.133 215.118 391.408 214.292C390.542 213.882 389.874 213.473 389.441 213.162C389.008 212.851 388.788 212.653 388.795 212.632C388.838 212.569 389.775 213.303 391.514 214.052C393.232 214.808 395.831 215.486 398.706 215.26C401.581 215.027 404.038 213.946 405.614 212.929C407.211 211.912 408.021 211.036 408.07 211.092Z" fill="#455A64"/>
<path d="M397.931 223.813C397.959 223.869 397.441 224.131 396.795 224.773C396.156 225.402 395.418 226.483 395.205 227.839C394.992 229.195 395.361 230.445 395.78 231.243C396.199 232.048 396.618 232.458 396.568 232.5C396.547 232.529 396.05 232.183 395.553 231.37C395.056 230.572 394.615 229.244 394.843 227.782C395.077 226.32 395.901 225.19 396.618 224.583C397.342 223.961 397.917 223.777 397.931 223.813Z" fill="#455A64"/>
<path d="M404.844 224.632C404.844 224.703 404.262 224.646 403.46 225.013C402.672 225.367 401.692 226.228 401.259 227.493C400.833 228.764 400.996 230.028 401.209 230.883C401.422 231.752 401.657 232.26 401.607 232.288C401.571 232.31 401.245 231.836 400.961 230.954C400.677 230.092 400.457 228.757 400.911 227.38C401.38 225.995 402.48 225.098 403.361 224.78C404.255 224.441 404.859 224.604 404.844 224.632Z" fill="#455A64"/>
<path d="M385.598 220.062C385.641 220.09 385.428 220.486 385.009 221.079C384.59 221.665 383.958 222.456 383.113 223.184C382.261 223.911 381.36 224.392 380.692 224.667C380.018 224.943 379.578 225.042 379.564 224.999C379.514 224.879 381.232 224.307 382.879 222.901C384.505 221.482 385.492 219.977 385.598 220.062Z" fill="#455A64"/>
<path d="M377.014 198.845C377.022 198.852 376.88 198.965 376.61 199.156C376.34 199.354 375.928 199.622 375.396 199.961C374.324 200.632 372.712 201.529 370.653 202.476C368.587 203.415 366.074 204.404 363.22 205.336C360.366 206.269 357.2 207.137 353.92 208.218C350.647 209.292 347.58 210.499 344.96 211.919C342.34 213.332 340.161 214.928 338.528 216.475C336.895 218.022 335.773 219.47 335.092 220.522C334.403 221.575 334.098 222.203 334.062 222.189C334.048 222.182 334.119 222.027 334.268 221.723C334.403 221.419 334.644 220.988 334.971 220.444C335.624 219.364 336.718 217.866 338.35 216.284C339.976 214.702 342.163 213.063 344.797 211.623C347.431 210.175 350.512 208.953 353.799 207.872C357.086 206.791 360.267 205.923 363.107 205.018C365.953 204.107 368.467 203.154 370.533 202.243C372.599 201.331 374.217 200.477 375.311 199.848C375.857 199.53 376.276 199.283 376.56 199.107C376.851 198.916 377.007 198.831 377.014 198.845Z" fill="#455A64"/>
<path d="M380.764 205.125C380.736 205.153 380.26 204.715 379.656 203.874C379.053 203.034 378.35 201.77 377.874 200.251C377.406 198.732 377.278 197.291 377.306 196.26C377.335 195.222 377.477 194.6 377.519 194.607C377.647 194.607 377.292 197.178 378.237 200.145C379.131 203.126 380.87 205.061 380.764 205.125Z" fill="#455A64"/>
<path d="M124.854 229.055L101.297 170.226C99.2102 165.169 102.952 159.617 108.447 159.617H181.834C185.143 159.617 188.089 161.715 189.154 164.837L209.388 224.175L233.022 224.288C234.939 224.295 236.494 227.092 236.494 228.999L210.481 228.702L124.854 229.055Z" fill="#263238"/>
<path d="M125.429 173.213C123.761 173.15 122.093 173.573 120.687 174.478C120.225 174.774 119.771 175.127 119.395 175.544C118.138 176.95 115.895 179.683 116.789 183.949C117.684 188.215 120.453 188.802 121.738 188.943C123.03 189.084 132.046 186.534 132.046 186.534C132.046 186.534 135.319 183.766 134.155 180.142C133.154 177.034 130.257 173.39 125.429 173.213Z" fill="#8ABBFF"/>
<path d="M121.127 187.672C121.127 187.672 121.454 189.954 122.604 190.533C123.754 191.112 125.898 191.006 127.538 190.596C129.178 190.187 131.627 189.247 131.911 187.983C132.202 186.719 131.954 185.179 131.769 185.009C131.585 184.84 129.078 183.434 125.72 184.458C122.362 185.476 121.127 187.672 121.127 187.672Z" fill="#F5F5F5"/>
<g opacity="0.4">
<path d="M128.433 176.78C129.015 179.083 127.609 181.414 125.295 181.993C122.98 182.572 120.637 181.173 120.055 178.871C119.473 176.568 120.879 174.237 123.193 173.658C125.508 173.079 127.858 174.477 128.433 176.78Z" fill="white"/>
</g>
<g opacity="0.4">
<path d="M117.535 186.124C118.337 185.107 118.849 183.765 118.756 182.48C118.671 181.194 118.089 179.944 117.159 179.047C117.159 179.047 116.335 181.477 116.69 183.391C117.06 185.432 117.535 186.124 117.535 186.124Z" fill="white"/>
</g>
<g opacity="0.4">
<path d="M134.411 181.907C133.225 181.392 132.139 180.445 131.599 179.273C131.067 178.1 130.932 176.907 131.322 175.678C131.322 175.678 132.977 177.239 133.772 179.103C134.617 181.067 134.411 181.907 134.411 181.907Z" fill="white"/>
</g>
<path d="M158.776 196.769C158.776 199.389 156.639 201.508 154.012 201.508C151.378 201.508 149.248 199.382 149.248 196.769C149.248 194.148 151.385 192.029 154.012 192.029C156.639 192.022 158.776 194.148 158.776 196.769Z" fill="#F5F5F5"/>
</svg>
