<svg width="313" height="339" viewBox="0 0 313 339" fill="none" xmlns="http://www.w3.org/2000/svg">
<path d="M69.7159 201.039C66.7175 198.099 62.8445 194.55 58.2552 195.816C53.9407 197.007 52.2916 201.713 51.517 205.636C50.5175 210.692 49.7512 215.798 48.9433 220.887C48.1354 226.026 47.3691 231.173 46.6278 236.329C46.2114 239.236 45.7949 242.143 45.3868 245.049C45.1869 246.507 44.9787 247.956 44.7788 249.414C44.5789 250.838 44.3456 252.262 44.2624 253.703C44.2374 254.161 44.9537 254.228 45.0536 253.795C45.6117 251.371 45.8365 248.847 46.1947 246.39C46.5528 243.917 46.911 241.443 47.2691 238.961C47.9854 234.047 48.7351 229.133 49.4763 224.218C50.2176 219.304 50.9839 214.39 51.7668 209.484C52.4332 205.32 52.7497 200.147 56.4394 197.407C58.4634 195.9 61.0454 195.883 63.3442 196.758C65.7763 197.682 67.7169 199.423 69.616 201.147C69.6909 201.18 69.7742 201.097 69.7159 201.039Z" fill="#263238"/>
<path d="M65.6087 198.032C65.6087 198.032 59.4785 195.825 56.455 200.297C53.4316 204.77 57.0464 216.148 84.957 222.569C84.957 222.569 84.2241 210.384 78.2438 197.341C72.2552 184.297 61.6024 189.237 65.6087 198.032Z" fill="#549DFF"/>
<path d="M83.3497 220.712C82.9666 219.921 82.4252 219.188 81.9421 218.446C81.4757 217.73 81.0009 217.014 80.5262 216.297C80.168 215.764 79.8016 215.231 79.4351 214.698C79.4601 214.573 79.4684 214.432 79.4851 214.298C79.5184 214.057 79.5517 213.815 79.5767 213.574C79.6433 213.049 79.7183 212.533 79.8016 212.008C79.8765 211.483 79.9681 210.967 80.0681 210.45C80.168 209.926 80.2263 209.301 80.4346 208.81C80.4679 208.726 80.3263 208.685 80.3096 208.785C80.2763 209.093 80.143 209.409 80.0598 209.709C79.9931 209.942 79.9348 210.176 79.8765 210.417C79.7433 210.95 79.61 211.475 79.4934 212.008C79.3851 212.499 79.2935 212.991 79.2019 213.491C79.1602 213.732 79.1269 213.965 79.0936 214.207C78.5938 213.499 78.0858 212.791 77.5694 212.108C76.0868 210.159 74.5209 208.277 72.8968 206.444C72.9051 206.428 72.9218 206.419 72.9218 206.394C73.0634 203.462 72.9967 200.564 73.6464 197.674C73.6631 197.599 73.5464 197.549 73.5298 197.632C72.9218 200.339 72.3137 203.179 72.4887 205.978C71.9056 205.328 71.3226 204.678 70.7229 204.045C69.3653 202.588 67.9826 201.147 66.5667 199.739C66.5084 199.681 66.4168 199.764 66.4751 199.823C68.8239 202.355 71.0561 204.987 73.2383 207.677C71.5475 207.619 69.8234 207.744 68.1326 207.868C66.2419 208.01 64.3595 208.252 62.4771 208.51C62.3939 208.518 62.4188 208.643 62.5021 208.635C64.3678 208.352 66.2585 208.21 68.1409 208.127C69.965 208.052 71.7724 208.135 73.5881 208.127C74.7625 209.584 75.9286 211.05 77.0696 212.533C76.9863 212.533 76.903 212.533 76.8114 212.524C76.3866 212.516 75.9535 212.508 75.5288 212.516C74.6792 212.533 73.8296 212.591 72.9884 212.666C71.256 212.816 69.5318 213.057 67.8327 213.441C67.7494 213.457 67.7744 213.574 67.8577 213.566C69.5735 213.374 71.2893 213.207 73.0134 213.149C73.838 213.124 74.6625 213.124 75.4788 213.124C75.9036 213.124 76.3367 213.124 76.7615 213.124C77.0197 213.124 77.2529 213.157 77.4694 213.057C78.219 214.032 78.9686 215.006 79.7183 215.989C80.3096 216.772 80.8927 217.555 81.4674 218.346C82.0504 219.154 82.5835 220.046 83.2331 220.803C83.2998 220.837 83.383 220.77 83.3497 220.712Z" fill="#263238"/>
<path d="M68.2827 204.37C67.2999 204.211 66.2837 204.228 65.3009 204.228C64.3014 204.228 63.3103 204.261 62.3108 204.295C62.2192 204.295 62.2275 204.428 62.3191 204.42C63.3269 204.345 64.3347 204.328 65.3509 204.345C66.3254 204.361 67.3082 204.453 68.2827 204.428C68.3077 204.42 68.316 204.378 68.2827 204.37Z" fill="#263238"/>
<path d="M77.0434 206.619C77.16 205.669 77.2766 204.711 77.4765 203.77C77.4932 203.678 77.3682 203.653 77.3516 203.745C77.21 204.686 77.0267 205.619 76.8852 206.552C76.8185 207.018 76.7519 207.493 76.6936 207.959C76.6436 208.393 76.5437 208.859 76.577 209.292C76.5853 209.375 76.7186 209.384 76.7436 209.3C76.8602 208.876 76.8435 208.409 76.8852 207.968C76.9351 207.526 76.9851 207.077 77.0434 206.619Z" fill="#263238"/>
<path d="M75.2041 196.058C74.9626 196.982 74.721 197.923 74.5461 198.864C74.4628 199.339 74.3879 199.822 74.3212 200.305C74.2629 200.763 74.1713 201.247 74.2296 201.713C74.2379 201.746 74.2879 201.755 74.3046 201.721C74.4378 201.288 74.4628 200.822 74.5211 200.38C74.5794 199.914 74.6544 199.456 74.7377 198.989C74.9043 198.015 75.0792 197.049 75.329 196.091C75.3457 196.024 75.2291 195.983 75.2041 196.058Z" fill="#263238"/>
<path d="M38.8645 252.662C38.7146 250.904 38.5397 249.147 38.3565 247.398C37.99 243.925 37.5652 240.451 37.0988 236.986C36.6324 233.53 36.1909 230.073 35.6329 226.625C35.3747 225.051 35.1165 223.427 34.5668 221.919C34.092 220.62 33.3174 219.446 31.9598 218.979C28.6781 217.846 26.4626 221.253 25.1383 223.66C25.0966 223.735 25.2049 223.785 25.2466 223.718C26.0378 222.577 28.2367 219.371 30.7271 219.521C32.4012 219.62 33.7422 220.812 34.5501 224.984C36.5574 235.396 38.3648 256.526 38.573 257.909C38.6813 258.642 39.206 258.609 39.206 257.826C39.2144 256.118 39.0145 254.386 38.8645 252.662Z" fill="#263238"/>
<path d="M26.0206 222.369C26.0206 222.369 28.8941 212.233 22.5474 217.305C11.9861 225.742 11.6113 244.091 11.6113 244.091C11.6113 244.091 30.385 233.188 32.7171 225.992C36.1987 215.281 26.0206 222.369 26.0206 222.369Z" fill="#549DFF"/>
<path d="M29.5765 227.35C28.1023 227.65 26.6114 227.841 25.1205 228.058C24.4125 228.158 23.7129 228.258 23.0049 228.358C22.5302 228.424 22.0471 228.466 21.5723 228.524C22.9716 226.6 24.3792 224.676 25.7202 222.711C25.7702 222.636 25.6536 222.552 25.5953 222.619C24.4792 223.752 23.4464 224.976 22.4552 226.242C22.1803 225.459 21.8972 224.676 21.6223 223.893C21.3058 222.986 20.956 222.086 20.7311 221.145C20.7144 221.07 20.5895 221.103 20.6145 221.178C20.8727 222.111 21.0559 223.052 21.2975 223.985C21.539 224.885 21.8139 225.776 22.1304 226.65C21.4391 227.542 20.7811 228.458 20.1397 229.382C19.8149 228.466 19.4151 227.583 19.1319 226.65C19.1069 226.575 18.982 226.609 19.0153 226.684C19.3485 227.708 19.5317 228.783 19.8482 229.815C19.4151 230.448 18.9903 231.073 18.5739 231.706C17.8159 232.88 17.0996 234.071 16.4 235.271C16.2917 235.329 16.2168 235.421 16.2334 235.554C15.0507 237.603 13.9179 239.685 12.8018 241.793C12.7602 241.867 12.8768 241.926 12.9101 241.851C14.0262 239.777 15.2672 237.753 16.5499 235.771C16.5582 235.771 16.5582 235.771 16.5666 235.771C16.6998 235.696 17.008 235.687 17.1829 235.654C17.3995 235.612 17.616 235.562 17.8326 235.512C18.3157 235.404 18.7988 235.279 19.2818 235.163C20.2314 234.929 21.1725 234.704 22.147 234.538C22.222 234.521 22.1887 234.405 22.1137 234.421C20.981 234.638 19.8399 234.763 18.6905 234.896C18.1491 234.963 17.6077 235.029 17.0663 235.113C17.0413 235.113 17.0163 235.121 16.9914 235.121C17.666 234.096 18.349 233.08 19.0403 232.072C19.7233 231.081 20.4229 230.107 21.1309 229.132C21.7806 229.041 22.4302 228.866 23.0716 228.749C23.7962 228.608 24.5208 228.466 25.2538 228.324C26.703 228.033 28.1523 227.708 29.6182 227.467C29.6931 227.458 29.6598 227.333 29.5765 227.35Z" fill="#263238"/>
<path d="M18.2912 228.349C18.1995 228.083 18.1246 227.808 18.0413 227.541C17.8664 226.983 17.7248 226.417 17.6082 225.842C17.5915 225.767 17.4666 225.8 17.4916 225.875C17.6165 226.45 17.7498 227.016 17.883 227.591C18.008 228.149 18.1579 228.741 18.3745 229.274C18.4328 229.407 18.6327 229.349 18.591 229.207C18.4994 228.915 18.3911 228.632 18.2912 228.349Z" fill="#263238"/>
<path d="M31.5003 225.001C30.6424 225.126 29.7762 225.193 28.9183 225.268C28.0521 225.343 27.1942 225.468 26.3363 225.593C26.2863 225.601 26.2863 225.668 26.3363 225.668C27.2025 225.609 28.0604 225.543 28.9183 225.426C29.7762 225.318 30.6341 225.185 31.5003 225.126C31.5836 225.118 31.5753 224.993 31.5003 225.001Z" fill="#263238"/>
<path d="M52.6846 239.835C52.3514 232.373 51.8767 224.926 51.127 217.497C50.7522 213.799 50.3358 210.101 49.8111 206.411C49.303 202.805 48.6783 199.19 47.6705 195.683C46.9042 193.001 45.8964 190.303 44.0973 188.12C42.3232 185.972 39.7163 184.622 36.8844 184.972C33.6194 185.372 30.9874 187.429 28.7136 189.67C26.1649 192.177 23.8244 194.917 21.459 197.599C20.8593 198.274 20.2679 198.956 19.6766 199.648C19.6266 199.706 19.7182 199.798 19.7682 199.731C22.0753 197.074 24.4824 194.5 26.9895 192.035C29.3133 189.753 31.7037 187.263 34.9187 186.321C36.4096 185.888 38.0255 185.763 39.5247 186.213C40.7407 186.58 41.7985 187.296 42.6731 188.204C44.4805 190.086 45.4966 192.635 46.2212 195.1C48.2285 201.955 48.9448 209.151 49.6945 216.231C50.4524 223.427 50.9605 230.64 51.3269 237.87C51.6934 245.133 51.9766 252.404 52.6762 259.65C52.7595 260.541 52.8761 261.433 52.9928 262.324C53.0677 262.924 54.0006 262.924 53.9506 262.299C53.3592 254.819 53.0177 247.332 52.6846 239.835Z" fill="#263238"/>
<path d="M28.3124 190.477C28.3124 190.477 32.5768 182.59 27.5378 180.066C22.4987 177.534 5.64903 196.341 0.726562 223.843C0.726562 223.843 27.9459 211.8 37.1828 199.806C46.428 187.804 35.9501 185.163 28.3124 190.477Z" fill="#549DFF"/>
<path d="M32.3108 196.891C29.2541 196.899 26.2056 196.658 23.1405 196.683C23.7152 196.025 24.2816 195.367 24.8646 194.717C25.6642 193.817 26.5804 192.934 27.2551 191.935C27.2967 191.868 27.2051 191.785 27.1468 191.827C26.2972 192.493 25.5726 193.368 24.8313 194.15C24.0651 194.967 23.2988 195.783 22.5408 196.599C21.3748 197.865 20.2254 199.148 19.0843 200.439C19.0843 200.314 19.076 200.189 19.076 200.064C19.076 199.531 19.076 198.99 19.076 198.457C19.0843 197.415 19.1009 196.383 19.1093 195.342C19.1259 193.243 19.1259 191.127 19.2675 189.028C19.2759 188.945 19.1509 188.953 19.1426 189.028C18.9927 191.135 18.7761 193.234 18.6762 195.35C18.6262 196.391 18.6012 197.424 18.5845 198.465C18.5762 198.998 18.5679 199.539 18.5762 200.072C18.5762 200.364 18.5679 200.672 18.5929 200.972C18.418 201.172 18.2264 201.372 18.0515 201.572C15.6111 204.362 13.2873 207.244 11.0301 210.184C11.0301 210.026 11.0051 209.859 10.9885 209.701C10.9551 209.376 10.9218 209.051 10.8802 208.735C10.8052 208.035 10.7053 207.335 10.597 206.636C10.497 205.978 10.3971 205.328 10.2805 204.67C10.1556 203.937 9.98064 203.188 9.92234 202.446C9.91401 202.355 9.78074 202.371 9.7974 202.463C9.95565 203.188 9.98064 203.962 10.0556 204.703C10.1222 205.378 10.1805 206.053 10.2388 206.719C10.2971 207.394 10.3638 208.068 10.4304 208.743C10.4637 209.068 10.4887 209.393 10.5304 209.717C10.547 209.876 10.5637 210.042 10.5887 210.201C10.6136 210.417 10.647 210.442 10.7219 210.584C10.3305 211.092 9.94732 211.592 9.55586 212.1C8.01499 214.14 6.4991 216.206 4.98321 218.271C4.93324 218.338 5.02486 218.421 5.07483 218.355C6.50743 216.481 7.99 214.648 9.4809 212.824C10.597 212.874 11.7464 212.791 12.8625 212.774C14.0452 212.758 15.2196 212.749 16.4023 212.741C16.4856 212.741 16.4773 212.616 16.4023 212.616C15.2196 212.633 14.0452 212.658 12.8625 212.658C11.788 212.658 10.6886 212.608 9.61416 212.666C10.9302 211.067 12.2628 209.476 13.5954 207.893C14.0785 207.319 14.5699 206.736 15.0614 206.161C15.5028 206.253 15.9776 206.211 16.4273 206.211C16.9604 206.211 17.5018 206.211 18.0348 206.211C19.0426 206.211 20.0421 206.186 21.0499 206.169C23.1239 206.136 25.2061 206.069 27.2801 206.061C27.3634 206.061 27.355 205.936 27.2801 205.936C25.1978 205.911 23.1239 205.819 21.0416 205.77C20.0338 205.745 19.026 205.711 18.0265 205.695C17.4934 205.686 16.9521 205.686 16.419 205.678C16.1108 205.678 15.8026 205.653 15.4861 205.661C16.6272 204.304 17.7683 202.946 18.9177 201.597C18.9427 201.58 18.9677 201.555 18.9843 201.522C20.1004 200.206 21.2165 198.89 22.3409 197.582C22.4992 197.407 22.6491 197.224 22.8074 197.049C25.9807 197.149 29.1458 196.941 32.3108 196.999C32.3941 197.016 32.3941 196.891 32.3108 196.891Z" fill="#263238"/>
<path d="M30.7456 202.296C30.4957 202.296 30.2542 202.304 30.0043 202.304C29.9294 202.304 29.9377 202.421 30.0043 202.421C30.2542 202.421 30.4957 202.429 30.7456 202.429C30.8289 202.421 30.8289 202.296 30.7456 202.296Z" fill="#263238"/>
<path d="M29.0955 202.305C28.1127 202.288 27.1382 202.271 26.1554 202.246C25.664 202.23 25.1725 202.213 24.6895 202.196C24.248 202.18 23.7483 202.113 23.3235 202.213C23.2735 202.221 23.2818 202.288 23.3235 202.305C23.7483 202.43 24.2563 202.396 24.6895 202.405C25.1809 202.413 25.6723 202.421 26.1554 202.43C27.1382 202.438 28.1127 202.446 29.0955 202.438C29.1788 202.43 29.1788 202.305 29.0955 202.305Z" fill="#263238"/>
<path d="M20.5426 211.491C18.552 211.208 16.5363 210.933 14.5207 210.95C14.4957 210.95 14.4957 210.992 14.5207 210.992C16.5197 211.183 18.527 211.291 20.5093 211.616C20.5926 211.625 20.6259 211.5 20.5426 211.491Z" fill="#263238"/>
<path d="M12.3633 202.737C12.3467 202.562 12.3217 202.388 12.305 202.213C12.255 201.821 12.1884 201.43 12.1301 201.038C12.0135 200.289 11.8802 199.547 11.7386 198.806C11.722 198.739 11.6054 198.756 11.6137 198.823C11.7053 199.589 11.7886 200.364 11.8636 201.13C11.8969 201.505 11.9302 201.888 11.9635 202.263C11.9968 202.604 11.9635 203.029 12.1134 203.337C12.1718 203.454 12.3467 203.404 12.38 203.295C12.4216 203.112 12.38 202.921 12.3633 202.737Z" fill="#263238"/>
<path d="M52.407 180.349C51.4325 178.533 50.1915 176.143 47.7594 176.293C45.7521 176.418 44.8443 178.467 44.4195 180.158C43.0952 185.396 43.0035 190.919 42.7453 196.291C42.1956 207.635 41.7125 218.988 41.6376 230.348C41.6209 233.497 41.6292 236.645 41.6542 239.793C41.6875 243 41.6792 246.232 41.8791 249.439C41.8958 249.738 42.3455 249.73 42.3539 249.43C42.3705 246.682 42.2706 243.933 42.2623 241.193C42.2539 238.511 42.2706 235.829 42.3122 233.155C42.3955 227.725 42.5454 222.302 42.7453 216.872C42.9452 211.483 43.1784 206.086 43.4117 200.697C43.5283 198.007 43.6365 195.308 43.7615 192.618C43.8781 190.011 43.9947 187.395 44.2945 184.797C44.4611 183.339 44.6777 181.89 44.9775 180.457C45.1941 179.433 45.5023 178.333 46.2352 177.551C47.193 176.518 48.6423 176.593 49.7834 177.292C50.9661 178.017 51.6824 179.233 52.2987 180.432C52.3404 180.482 52.4487 180.416 52.407 180.349Z" fill="#263238"/>
<path d="M51.75 179.483C51.75 179.483 49.7511 172.42 54.1738 175.952C61.5283 181.824 61.7949 194.609 61.7949 194.609C61.7949 194.609 48.7183 187.013 47.0941 182.007C44.662 174.544 51.75 179.483 51.75 179.483Z" fill="#549DFF"/>
<path d="M59.0384 189.37C58.9218 189.179 58.7885 188.987 58.6636 188.796C58.6969 188.604 58.6636 188.379 58.6636 188.196C58.6636 187.896 58.6552 187.588 58.6636 187.288C58.6802 186.688 58.6969 186.097 58.7302 185.497C58.7302 185.414 58.6052 185.422 58.6052 185.497C58.5719 186.08 58.547 186.663 58.5386 187.255C58.5303 187.546 58.5136 187.838 58.5053 188.129C58.5053 188.246 58.4886 188.379 58.4803 188.504C57.9639 187.705 57.4392 186.922 56.8978 186.139C56.7395 185.914 56.573 185.697 56.4147 185.472C56.2981 184.714 56.3647 183.923 56.3731 183.165C56.3814 182.341 56.3981 181.524 56.423 180.708C56.423 180.625 56.2981 180.633 56.2981 180.708C56.2731 181.558 56.2315 182.416 56.1898 183.265C56.1565 183.873 56.1065 184.481 56.1399 185.089C54.8738 183.373 53.5412 181.716 52.1836 180.067C52.1419 180.009 52.042 180.092 52.0836 180.142C52.9248 181.208 53.7328 182.299 54.5157 183.398C52.9748 183.04 51.409 182.832 49.8514 182.607C49.7681 182.599 49.7431 182.715 49.8181 182.732C51.4756 182.982 53.0997 183.398 54.7322 183.757C54.7489 183.757 54.7489 183.748 54.7656 183.748C55.3902 184.631 56.0149 185.514 56.6229 186.405C56.8728 186.763 57.1144 187.138 57.3642 187.496C57.3392 187.496 57.3142 187.488 57.2976 187.488C57.131 187.463 56.9561 187.438 56.7895 187.421C56.4314 187.38 56.0649 187.346 55.6984 187.321C54.9488 187.263 54.1909 187.221 53.4329 187.18C53.3496 187.171 53.358 187.305 53.4329 187.305C54.1742 187.321 54.9155 187.38 55.6568 187.455C56.0482 187.496 56.4397 187.546 56.8228 187.596C56.9894 187.613 57.1643 187.638 57.3309 187.655C57.3809 187.663 57.4309 187.671 57.4808 187.68C57.8973 188.296 58.3221 188.912 58.7385 189.529C59.4798 190.62 60.1378 191.794 60.9207 192.844C60.9707 192.91 61.054 192.852 61.0207 192.777C60.4876 191.611 59.7297 190.486 59.0384 189.37Z" fill="#263238"/>
<path d="M55.782 181.399C55.782 181.124 55.7903 180.85 55.7903 180.575C55.7903 180 55.782 179.417 55.857 178.842C55.8736 178.751 55.732 178.734 55.732 178.826C55.732 179.4 55.6654 179.967 55.6404 180.541C55.6238 180.825 55.6238 181.116 55.6238 181.399C55.6238 181.533 55.6238 181.666 55.6238 181.799C55.6238 181.932 55.6071 182.082 55.6571 182.207C55.6737 182.257 55.7487 182.257 55.7654 182.207C55.807 182.091 55.782 181.957 55.782 181.832C55.782 181.682 55.782 181.541 55.782 181.399Z" fill="#263238"/>
<path d="M54.1657 184.323C53.6826 184.24 53.1829 184.215 52.6915 184.173C52.1501 184.132 51.617 184.082 51.0757 184.015C50.984 184.007 50.9674 184.132 51.059 184.14C52.0918 184.207 53.1163 184.39 54.1491 184.431C54.2157 184.423 54.224 184.332 54.1657 184.323Z" fill="#263238"/>
<path d="M58.2786 184.364C58.3203 184.414 58.2953 184.572 58.2953 184.639V184.864C58.2953 185.03 58.2953 185.197 58.2953 185.355C58.2953 185.522 58.2953 185.688 58.2953 185.846C58.2953 185.98 58.262 186.155 58.3203 186.28C58.3286 186.296 58.3619 186.296 58.3702 186.28C58.4035 186.213 58.3952 186.146 58.3952 186.071C58.3952 185.996 58.3952 185.921 58.3952 185.846C58.3952 185.68 58.3952 185.513 58.3952 185.355C58.3952 185.197 58.3952 185.022 58.3952 184.864V184.639C58.3952 184.572 58.3702 184.422 58.4119 184.364C58.4619 184.247 58.187 184.247 58.2786 184.364Z" fill="#263238"/>
<path d="M52.7159 218.013C49.9673 215.947 47.4936 212.982 43.7955 212.832C40.7387 212.716 38.6065 215.015 37.3821 217.572C36.7408 218.921 36.291 220.353 35.8829 221.786C35.3332 223.718 34.8085 225.659 34.3254 227.608C33.3675 231.439 32.543 235.312 31.8766 239.21C31.5018 241.384 31.1603 243.567 30.8855 245.749C30.6106 247.956 30.2441 250.221 30.2441 252.445C30.2441 252.828 30.8522 252.903 30.9271 252.52C31.3019 250.688 31.4519 248.806 31.7267 246.956C32.0016 245.099 32.2764 243.242 32.5929 241.393C33.2259 237.686 33.9506 233.996 34.7835 230.332C35.5747 226.875 36.3493 223.36 37.4654 219.987C38.265 217.572 39.5477 214.756 42.1547 213.882C46.1276 212.558 49.7258 215.922 52.6326 218.105C52.6909 218.155 52.7825 218.063 52.7159 218.013Z" fill="#263238"/>
<path d="M49.8672 216.039C49.8672 216.039 47.3352 208.801 51 207.377C56.4971 205.253 70.8814 221.453 68.0662 246.274C68.0662 246.274 56.9552 240.152 48.7428 233.264C40.5387 226.376 38.4398 217.38 42.0546 215.056C45.6694 212.733 49.8672 216.039 49.8672 216.039Z" fill="#549DFF"/>
<path d="M66.4018 240.96C66.077 240.085 65.5189 239.269 65.0691 238.453C64.6027 237.603 64.128 236.754 63.6366 235.921C62.6787 234.288 61.7292 232.647 60.7547 231.032C60.5965 230.765 60.4299 230.507 60.2716 230.249C60.2966 230.149 60.3133 230.057 60.3299 229.957C60.3882 229.716 60.4382 229.482 60.4965 229.241C60.6214 228.699 60.7131 228.158 60.813 227.617C61.0129 226.551 61.1961 225.476 61.4793 224.435C61.5043 224.36 61.3711 224.335 61.3544 224.41C61.1295 225.468 60.7963 226.517 60.4798 227.558C60.3216 228.066 60.1633 228.583 60.0217 229.099C59.9718 229.274 59.9301 229.457 59.8802 229.632C58.6974 227.692 57.498 225.768 56.1987 223.902C56.307 223.66 56.2987 223.385 56.3237 223.102C56.3653 222.736 56.4069 222.378 56.4486 222.011C56.5485 221.195 56.6402 220.379 56.7568 219.562C56.99 217.963 57.2315 216.372 57.6313 214.807C57.648 214.732 57.523 214.707 57.5064 214.782C57.1149 216.347 56.6818 217.905 56.382 219.496C56.2404 220.27 56.0988 221.053 55.9988 221.836C55.9488 222.228 55.9072 222.619 55.8656 223.019C55.8572 223.136 55.8322 223.252 55.8239 223.377C55.4241 222.811 55.0243 222.253 54.6079 221.703C53.3419 220.037 52.0259 218.405 50.6932 216.781C50.6432 216.722 50.535 216.789 50.5933 216.856C52.9254 219.704 54.8911 222.861 56.8401 225.984C57.2065 226.567 57.5563 227.15 57.9228 227.742C57.7979 227.725 57.6813 227.708 57.5647 227.7C57.0983 227.642 56.6318 227.608 56.1654 227.567C55.2325 227.483 54.2914 227.4 53.3585 227.325C51.4845 227.175 49.6104 227.059 47.7447 226.859C47.6614 226.85 47.6448 226.975 47.7197 226.984C49.6104 227.2 51.4928 227.5 53.3835 227.775C54.308 227.908 55.2409 228.033 56.1654 228.15C56.8067 228.233 57.6063 228.425 58.306 228.366C59.0389 229.557 59.7802 230.757 60.5132 231.948C60.3466 231.923 60.18 231.931 60.0134 231.931C59.7052 231.923 59.3887 231.931 59.0806 231.931C58.4975 231.931 57.9228 231.931 57.3398 231.931C56.1321 231.931 54.9327 231.956 53.725 231.956C53.6417 231.956 53.6584 232.081 53.7333 232.081C54.9577 232.098 56.1737 232.156 57.3898 232.223C57.9645 232.256 58.5475 232.289 59.1222 232.331C59.4137 232.348 59.6969 232.373 59.9884 232.389C60.2383 232.406 60.5132 232.456 60.7547 232.356C61.3794 233.372 62.0124 234.388 62.6287 235.404C63.2034 236.345 63.7865 237.278 64.3778 238.203C64.9775 239.136 65.5272 240.202 66.2602 241.035C66.3352 241.076 66.4351 241.035 66.4018 240.96Z" fill="#263238"/>
<path d="M61.1124 220.895C61.0208 221.686 60.8125 222.486 60.6126 223.252C60.4044 224.06 60.1712 224.851 59.913 225.643C59.8797 225.751 60.0296 225.801 60.0629 225.693C60.3128 224.91 60.5294 224.118 60.7209 223.327C60.9125 222.528 61.0374 221.72 61.229 220.92C61.254 220.837 61.1207 220.812 61.1124 220.895Z" fill="#263238"/>
<path d="M52.9417 225.743C52.7668 225.568 52.5752 225.551 52.3337 225.518C51.9839 225.468 51.634 225.426 51.2842 225.376C50.6345 225.285 49.9849 225.218 49.3269 225.143C47.9693 224.985 46.6199 224.852 45.2623 224.685C45.179 224.677 45.1624 224.802 45.2373 224.81C46.5117 224.968 47.786 225.16 49.0604 225.326C49.685 225.41 50.3097 225.493 50.9344 225.568C51.2342 225.601 51.5341 225.634 51.8339 225.668C52.1671 225.701 52.5586 225.693 52.8667 225.843C52.9417 225.868 52.9917 225.784 52.9417 225.743Z" fill="#263238"/>
<path d="M61.087 236.662C60.4457 236.604 59.8043 236.587 59.163 236.57C58.8382 236.562 58.5133 236.554 58.1885 236.537C58.0302 236.529 57.8803 236.529 57.7221 236.52C57.5222 236.512 57.3056 236.537 57.114 236.487C57.0224 236.462 57.0141 236.629 57.1057 236.612C57.2889 236.587 57.4888 236.62 57.6721 236.629C57.8387 236.637 58.0052 236.645 58.1802 236.662C58.505 236.678 58.8298 236.703 59.1463 236.72C59.7877 236.762 60.429 236.795 61.0703 236.803C61.162 236.795 61.1703 236.662 61.087 236.662Z" fill="#263238"/>
<path d="M65.0103 233.88C65.0852 233.514 65.1519 233.156 65.2185 232.789C65.3518 232.073 65.485 231.357 65.61 230.64C65.6266 230.557 65.5017 230.54 65.485 230.615C65.3268 231.315 65.1685 232.006 65.0103 232.706C64.9353 233.056 64.852 233.406 64.7854 233.755C64.7521 233.914 64.7188 234.08 64.6854 234.238C64.6521 234.405 64.5938 234.58 64.6271 234.755C64.6355 234.813 64.7271 234.863 64.7687 234.796C64.9353 234.547 64.952 234.18 65.0103 233.88Z" fill="#263238"/>
<path d="M59.6044 255.277L58.9881 265.53L57.164 295.823H26.0967L24.2726 265.53L23.6562 255.277H59.6044Z" fill="#37474F"/>
<path d="M59.6044 255.277L58.9881 265.53H24.2726L23.6562 255.277H59.6044Z" fill="#263238"/>
<path d="M62.4696 248.015H20.791V258.284H62.4696V248.015Z" fill="#37474F"/>
<path d="M196.893 39.7632C196.893 46.0683 201.765 51.224 207.962 51.6821V51.7154H275.677C283.44 51.7154 289.728 45.4269 289.728 37.6643C289.728 30.343 284.131 24.3295 276.993 23.6715C276.577 10.9614 266.14 0.766602 253.322 0.766602C243.119 0.766602 234.423 7.22161 231.092 16.2753C229.201 15.3174 227.069 14.7927 224.812 14.7927C217.34 14.7927 211.227 20.6147 210.785 27.9776C210.152 27.8693 209.503 27.8193 208.845 27.8193C202.24 27.811 196.893 33.1666 196.893 39.7632Z" fill="#549DFF"/>
<path d="M250.571 34.3242H236.037V51.7236H250.571V34.3242Z" fill="white"/>
<path d="M231.49 36.8733H255.12L243.301 22.9971L231.49 36.8733Z" fill="white"/>
<path d="M276.477 57.0381H211.785V61.5774H276.477V57.0381Z" fill="#DBDBDB"/>
<path d="M260.085 57.0381H211.785V61.5774H260.085V57.0381Z" fill="#549DFF"/>
<path d="M183.016 338.31C180.942 338.501 124.588 325.017 122.814 323.192C122.597 322.993 123.713 317.87 125.346 310.882L125.379 310.741C126.404 306.309 142.862 270.503 142.862 270.503L179.393 280.731L162.76 313.956C162.76 313.956 169.632 318.928 175.52 323.651C175.528 323.659 175.537 323.659 175.528 323.667C179.168 326.566 182.3 329.173 182.966 330.014C184.682 332.213 185.082 338.135 183.016 338.31Z" fill="#D3766A"/>
<path d="M183.016 338.31C180.951 338.51 124.596 325.017 122.814 323.193C122.597 322.985 123.713 317.87 125.346 310.882L125.379 310.749C125.754 309.1 128.286 303.078 131.31 296.182C137.323 297.806 158.87 303.653 166.7 306.077L162.76 313.948C162.76 313.948 169.632 318.92 175.52 323.643C175.52 323.651 175.528 323.651 175.528 323.659C179.168 326.558 182.308 329.165 182.966 330.006C184.682 332.213 185.09 338.135 183.016 338.31Z" fill="white"/>
<path d="M183.201 338.577C181.069 338.76 124.673 325.117 122.849 323.243C122.157 322.535 123.415 313.632 126.505 304.203L162.853 313.04C162.853 313.04 181.41 327.758 183.184 330.032C184.958 332.314 185.333 338.402 183.201 338.577Z" fill="#549DFF"/>
<path d="M182.934 336.128C173.538 333.613 135.391 324.334 125.913 322.56C125.838 322.543 125.821 322.593 125.896 322.618C135.158 325.317 173.372 334.279 182.892 336.278C183.1 336.328 183.133 336.178 182.934 336.128Z" fill="#263238"/>
<path d="M180.051 327.132C177.828 326.499 175.379 327.032 173.838 328.073C172.355 329.073 170.914 330.63 170.506 332.613C170.498 332.671 170.598 332.696 170.623 332.638C172.056 329.064 176.212 326.632 180.026 327.249C180.101 327.257 180.126 327.149 180.051 327.132Z" fill="#263238"/>
<path d="M165.593 314.705C161.82 313.739 157.114 314.014 154.015 316.537C153.899 316.637 154.032 316.804 154.165 316.771C158.013 315.838 161.578 315.305 165.551 315.18C165.826 315.18 165.868 314.78 165.593 314.705Z" fill="#263238"/>
<path d="M168.242 316.555C164.469 315.588 159.763 315.863 156.657 318.387C156.54 318.487 156.682 318.653 156.807 318.62C160.655 317.687 164.219 317.154 168.192 317.029C168.476 317.029 168.517 316.621 168.242 316.555Z" fill="#263238"/>
<path d="M170.89 318.396C167.117 317.43 162.411 317.705 159.313 320.229C159.196 320.329 159.338 320.495 159.463 320.462C163.311 319.529 166.876 318.996 170.849 318.871C171.124 318.871 171.157 318.471 170.89 318.396Z" fill="#263238"/>
<path d="M173.532 320.244C169.759 319.278 165.053 319.553 161.955 322.076C161.838 322.176 161.972 322.343 162.105 322.31C165.953 321.377 169.518 320.844 173.491 320.719C173.765 320.719 173.807 320.311 173.532 320.244Z" fill="#263238"/>
<path d="M130.496 314.165C126.248 313.148 124.665 319.753 128.921 320.769C133.169 321.786 134.752 315.181 130.496 314.165Z" fill="#263238"/>
<path d="M172.131 305.602C170.599 303.553 167.808 304.519 166.234 305.885C163.677 308.092 161.453 311.516 160.454 314.731C160.429 314.814 160.479 314.855 160.545 314.864C160.562 315.155 160.829 315.464 161.153 315.33C164.302 314.114 167.808 313.215 170.49 311.074C172.048 309.825 173.58 307.543 172.131 305.602ZM165.543 312.515C164.01 313.148 162.453 313.706 160.945 314.397C162.078 312.673 163.127 310.916 164.435 309.308C165.06 308.542 165.709 307.767 166.434 307.093C167.558 306.043 172.04 303.778 171.415 307.984C171.073 310.3 167.367 311.765 165.543 312.515Z" fill="#263238"/>
<path d="M150.708 313.857C153.881 315.156 157.505 315.039 160.861 315.323C161.211 315.356 161.378 314.981 161.311 314.698C161.369 314.673 161.403 314.606 161.361 314.54C159.503 311.741 156.405 309.076 153.332 307.668C151.433 306.802 148.484 306.652 147.593 309.051C146.752 311.333 148.859 313.09 150.708 313.857ZM148.942 311.15C147.168 307.285 152.099 308.201 153.473 308.893C154.356 309.342 155.206 309.9 156.014 310.458C157.721 311.633 159.22 313.032 160.794 314.365C159.154 314.123 157.505 314.032 155.855 313.848C153.898 313.64 149.925 313.282 148.942 311.15Z" fill="#263238"/>
<path d="M166.883 310.915L127.745 299.179C127.745 299.179 160.003 231.956 158.987 228.532C158.304 226.25 109.946 226.092 95.7696 213.365C81.1021 200.189 92.5212 174.319 92.5212 174.319L133.184 174.11C133.184 174.11 132.484 182.598 134.042 183.914C135.066 184.797 190.662 189.686 201.307 210.125C210.969 228.674 166.883 310.915 166.883 310.915Z" fill="#263238"/>
<path d="M158.988 228.533C159.163 229.108 158.38 231.523 156.948 235.138L186.174 271.044C196.594 247.282 206.397 219.887 201.308 210.126C190.655 189.686 135.067 184.789 134.034 183.914C132.493 182.598 133.185 174.103 133.185 174.103L107.373 174.236L150.268 226.925C155.44 227.492 158.813 227.941 158.988 228.533Z" fill="#263238"/>
<path d="M167.858 302.638C166.842 302.13 165.734 301.813 164.668 301.455C163.544 301.072 162.411 300.68 161.278 300.322C159.046 299.606 156.805 298.915 154.548 298.282C150.001 296.999 145.453 295.733 140.872 294.575C138.49 293.967 133.376 292.643 133.059 292.693C132.909 292.718 132.876 292.968 133.009 293.018C137.432 294.6 141.921 295.958 146.419 297.324C150.9 298.69 155.398 300.039 159.937 301.188C161.195 301.505 162.461 301.788 163.727 302.088C165.051 302.404 166.384 302.829 167.75 302.954C167.866 302.963 168 302.713 167.858 302.638Z" fill="#455A64"/>
<path d="M94.7046 182.057C94.8295 180.7 94.9794 179.342 95.1377 177.993C95.1543 177.834 95.4042 177.834 95.3875 178.001C94.8462 183.498 94.2881 189.129 95.3043 194.609C96.2538 199.731 98.7608 204.221 102.567 207.769C110.638 215.29 121.916 217.506 132.427 219.296C138.449 220.321 144.504 221.112 150.584 221.704C153.558 221.995 156.539 222.237 159.53 222.42C162.486 222.603 165.451 222.636 168.408 222.795C169.341 222.845 170.174 223.278 170.032 224.344C169.941 224.993 169.583 225.618 169.324 226.21C169.008 226.926 168.691 227.65 168.375 228.367C167.184 231.049 165.993 233.731 164.793 236.413C162.32 241.935 159.804 247.44 157.264 252.929C152.208 263.832 146.969 274.643 141.539 285.362C140.864 286.695 140.189 288.019 139.515 289.352C139.473 289.435 139.348 289.36 139.39 289.277C144.579 278.424 149.71 267.538 154.765 256.619C157.272 251.197 159.788 245.783 162.27 240.352C163.511 237.637 164.744 234.922 165.968 232.198C166.584 230.84 167.192 229.474 167.8 228.117C168.108 227.434 168.408 226.751 168.716 226.076C168.966 225.51 169.891 224.152 169.258 223.619C168.833 223.269 167.95 223.386 167.442 223.369C166.659 223.344 165.868 223.319 165.085 223.294C163.594 223.244 162.095 223.186 160.604 223.111C157.581 222.961 154.557 222.753 151.542 222.495C145.628 221.987 139.74 221.237 133.884 220.288C123.44 218.605 112.079 216.714 103.725 209.701C100.035 206.611 97.1366 202.63 95.704 198.007C94.0632 192.852 94.2215 187.355 94.7046 182.057Z" fill="#455A64"/>
<path d="M269.005 286.785C267.53 288.26 215.524 313.813 212.992 313.53C212.692 313.513 210.285 308.857 207.087 302.436L207.02 302.311C204.979 298.246 186.48 264.081 186.48 264.081L218.839 247.697L237.854 280.955C237.854 280.955 246.316 280.405 253.862 280.28C253.871 280.28 253.879 280.28 253.887 280.289C258.535 280.197 262.616 280.206 263.666 280.43C266.398 281.022 270.479 285.328 269.005 286.785Z" fill="#D3766A"/>
<path d="M269.004 286.786C267.53 288.26 215.523 313.813 212.983 313.538C212.691 313.522 210.276 308.866 207.086 302.444L207.019 302.319C206.878 302.036 206.728 301.744 206.578 301.461C206.478 301.253 206.37 301.045 206.253 300.845C206.095 300.545 205.936 300.237 205.77 299.929C204.362 297.255 202.047 292.932 199.498 288.201L232.489 271.568L237.853 280.947C237.853 280.947 246.316 280.397 253.862 280.272C253.87 280.272 253.878 280.272 253.887 280.281C258.534 280.197 262.616 280.197 263.657 280.422C266.397 281.022 270.478 285.328 269.004 286.786Z" fill="white"/>
<path d="M269.313 286.877C267.789 288.376 215.649 313.838 213.051 313.555C212.06 313.455 207.354 305.792 203.73 296.555L237.363 280.18C237.363 280.18 261.043 279.681 263.858 280.305C266.665 280.922 270.838 285.378 269.313 286.877Z" fill="#549DFF"/>
<path d="M267.546 285.153C258.7 289.209 223.41 306.392 214.973 311.073C214.906 311.115 214.931 311.156 214.998 311.131C223.852 307.308 259.008 289.834 267.612 285.303C267.796 285.203 267.737 285.07 267.546 285.153Z" fill="#263238"/>
<path d="M259.592 280.064C257.477 280.989 255.936 282.963 255.403 284.754C254.895 286.469 254.778 288.593 255.727 290.376C255.752 290.426 255.852 290.384 255.836 290.326C254.661 286.661 256.31 282.138 259.642 280.181C259.709 280.131 259.659 280.031 259.592 280.064Z" fill="#263238"/>
<path d="M240.527 279.714C237.004 281.372 233.556 284.587 232.773 288.51C232.74 288.66 232.956 288.701 233.04 288.601C235.405 285.428 237.82 282.746 240.794 280.114C241.01 279.931 240.786 279.589 240.527 279.714Z" fill="#263238"/>
<path d="M243.742 279.448C240.219 281.105 236.771 284.321 235.988 288.243C235.955 288.393 236.171 288.435 236.254 288.335C238.62 285.162 241.035 282.48 244.009 279.848C244.225 279.665 244 279.331 243.742 279.448Z" fill="#263238"/>
<path d="M246.957 279.181C243.434 280.839 239.986 284.054 239.203 287.977C239.169 288.127 239.386 288.168 239.469 288.069C241.835 284.895 244.25 282.213 247.224 279.581C247.44 279.398 247.215 279.065 246.957 279.181Z" fill="#263238"/>
<path d="M250.172 278.915C246.649 280.572 243.2 283.787 242.418 287.71C242.384 287.86 242.601 287.902 242.684 287.802C245.05 284.629 247.465 281.947 250.438 279.315C250.655 279.131 250.43 278.798 250.172 278.915Z" fill="#263238"/>
<path d="M213.15 301.678C209.227 303.602 212.218 309.699 216.149 307.767C220.064 305.843 217.073 299.746 213.15 301.678Z" fill="#263238"/>
<path d="M239.755 268.528C237.264 267.929 235.74 270.452 235.39 272.51C234.824 275.841 235.299 279.897 236.581 283.004C236.615 283.079 236.681 283.079 236.74 283.054C236.939 283.271 237.339 283.337 237.506 283.029C239.155 280.089 241.287 277.149 241.979 273.792C242.387 271.835 242.104 269.103 239.755 268.528ZM239.097 278.065C238.322 279.531 237.481 280.947 236.756 282.446C236.531 280.397 236.215 278.373 236.198 276.299C236.19 275.308 236.198 274.3 236.323 273.318C236.515 271.793 238.522 267.187 240.729 270.827C241.945 272.826 240.021 276.316 239.097 278.065Z" fill="#263238"/>
<path d="M228.518 288.551C231.792 287.535 234.515 285.128 237.28 283.204C237.564 283.004 237.464 282.612 237.23 282.438C237.255 282.379 237.247 282.313 237.172 282.288C233.949 281.313 229.868 281.238 226.611 282.121C224.595 282.662 222.23 284.437 223.071 286.852C223.862 289.126 226.611 289.142 228.518 288.551ZM225.437 287.585C221.605 285.736 225.986 283.295 227.494 282.954C228.46 282.737 229.468 282.629 230.451 282.537C232.516 282.354 234.565 282.471 236.622 282.504C235.206 283.37 233.874 284.345 232.491 285.261C230.842 286.352 227.552 288.609 225.437 287.585Z" fill="#263238"/>
<path d="M237.695 275.567L198.674 295.066C198.674 295.066 168.214 233.147 164.874 229.158C160.418 223.836 102.407 231.348 88.722 214.174C74.5709 196.408 86.698 174.344 86.698 174.344L130.859 174.319C130.859 174.319 130.992 179.217 128.443 186.38C128.443 186.38 178.942 183.373 193.235 197.266C204.204 207.927 237.695 275.567 237.695 275.567Z" fill="#263238"/>
<path d="M120.4 190.835C122.683 189.294 124.99 187.837 127.422 186.546C128.654 185.896 131.17 184.78 132.744 184.397C134.035 184.081 134.593 183.989 133.385 184.564C132.694 184.888 131.37 185.521 130.137 186.104C130.37 186.096 130.595 186.088 130.82 186.079C131.686 186.038 132.552 186.005 133.427 185.98C135.126 185.938 136.825 185.946 138.524 185.938C141.973 185.921 145.379 186.246 148.819 186.413C148.911 186.421 148.911 186.554 148.819 186.554C145.388 186.446 141.939 186.621 138.508 186.613C136.809 186.604 135.11 186.654 133.41 186.688C132.577 186.704 131.753 186.721 130.92 186.729C130.237 186.737 129.504 186.796 128.813 186.729C128.446 186.904 128.113 187.062 127.863 187.179C125.365 188.353 122.874 189.586 120.467 190.944C120.4 190.977 120.325 190.885 120.4 190.835Z" fill="#455A64"/>
<path d="M131.901 172.661C131.451 174.744 131.068 176.843 130.543 178.908C130.302 179.858 130.069 180.824 129.744 181.748C129.469 182.531 129.044 183.422 128.161 183.622C127.145 183.856 126.82 182.989 126.87 182.14C126.929 181.19 127.145 180.232 127.295 179.3C127.478 178.217 127.653 177.142 127.811 176.06C127.895 175.518 127.978 174.977 128.045 174.435C128.061 174.302 128.128 173.261 128.195 172.97C128.203 172.995 128.22 173.02 128.253 173.011C128.261 173.011 128.278 173.003 128.286 173.003C128.311 172.995 128.345 172.978 128.345 172.945C128.353 172.861 128.353 172.845 128.286 172.795C128.261 172.77 128.22 172.77 128.195 172.795C128.003 172.911 127.995 173.178 127.936 173.378C127.786 173.902 127.637 174.435 127.503 174.969C127.253 175.968 127.004 176.959 126.787 177.967C126.57 178.966 126.362 179.974 126.146 180.982C125.987 181.732 125.796 182.523 126.021 183.281C126.271 184.114 126.954 184.505 127.687 184.547C127.653 184.614 127.612 184.68 127.587 184.755C127.503 184.963 127.445 185.18 127.378 185.388C127.303 185.605 127.245 185.821 127.187 186.038C127.162 186.146 127.145 186.254 127.137 186.363C127.128 186.479 127.153 186.596 127.145 186.721C127.128 186.904 127.378 187.012 127.47 186.829C127.52 186.721 127.595 186.638 127.653 186.538C127.712 186.429 127.753 186.304 127.786 186.188C127.853 185.98 127.903 185.771 127.945 185.555C127.986 185.347 128.045 185.13 128.078 184.922C128.095 184.797 128.095 184.664 128.103 184.539C128.519 184.48 128.936 184.322 129.277 184.047C129.877 183.564 130.219 182.839 130.452 182.115C130.735 181.24 130.943 180.349 131.16 179.458C131.684 177.259 132.118 175.018 132.251 172.753C132.292 172.495 131.959 172.42 131.901 172.661Z" fill="#455A64"/>
<path d="M110.612 178.6C110.462 179.633 110.378 180.674 110.17 181.698C109.97 182.698 109.737 183.706 109.437 184.68C109.154 185.613 108.804 186.563 108.263 187.387C107.746 188.187 107.047 188.886 106.322 189.494C104.906 190.702 103.29 191.677 101.558 192.36C100.683 192.709 99.7921 193.001 98.8842 193.242C98.4095 193.367 97.9347 193.467 97.4516 193.542C97.0519 193.609 96.6521 193.634 96.3022 193.85C96.1523 193.942 96.1856 194.184 96.3356 194.25C96.9602 194.533 97.8265 194.334 98.4845 194.25C99.2507 194.142 100.017 193.992 100.767 193.767C102.274 193.326 103.723 192.643 105.039 191.793C106.33 190.96 107.63 189.936 108.563 188.711C109.529 187.437 110.045 185.955 110.353 184.397C110.728 182.531 110.953 180.507 110.795 178.608C110.803 178.492 110.628 178.483 110.612 178.6Z" fill="#455A64"/>
<path d="M229.777 268.47C228.686 268.795 227.661 269.328 226.645 269.794C225.562 270.294 224.471 270.785 223.397 271.293C221.281 272.301 219.174 273.342 217.1 274.433C212.911 276.616 208.738 278.831 204.615 281.13C202.466 282.329 197.835 284.878 197.643 285.128C197.552 285.253 197.702 285.461 197.835 285.403C202.141 283.52 206.339 281.422 210.537 279.331C214.735 277.249 218.932 275.141 223.022 272.859C224.155 272.226 225.271 271.56 226.395 270.91C227.57 270.236 228.836 269.619 229.91 268.778C230.01 268.695 229.927 268.42 229.777 268.47Z" fill="#455A64"/>
<path d="M86.7251 184.613C86.7334 184.422 87.0166 184.43 87.0166 184.622C86.9333 194.208 88.4159 204.936 95.7954 211.808C103.891 219.354 115.56 220.253 126.072 220.162C132.102 220.112 138.124 219.953 144.154 220.145C150.209 220.337 156.331 220.636 162.345 221.403C164.777 221.711 166.809 222.585 168.525 224.359C170.19 226.084 171.39 228.207 172.623 230.248C175.654 235.27 178.594 240.36 181.435 245.49C187.082 255.702 192.312 266.138 197.118 276.766C197.718 278.09 198.309 279.406 198.892 280.739C198.934 280.83 198.801 280.897 198.759 280.814C193.878 270.144 188.589 259.65 182.984 249.338C180.177 244.183 177.278 239.077 174.288 234.029C172.881 231.656 171.515 229.224 169.949 226.958C168.566 224.951 166.826 223.068 164.427 222.335C162.978 221.894 161.437 221.819 159.937 221.686C158.397 221.544 156.856 221.419 155.315 221.303C152.308 221.086 149.301 220.92 146.286 220.811C140.206 220.586 134.134 220.661 128.054 220.778C117.501 220.969 105.965 220.603 97.2114 213.881C93.4216 210.975 90.6981 206.993 89.0739 202.521C87.4247 197.965 86.8334 193.067 86.7251 188.245C86.6918 187.029 86.7001 185.821 86.7251 184.613Z" fill="#455A64"/>
<path d="M149.935 226.617C152.092 226.658 154.241 226.741 156.398 226.816C158.189 226.875 159.988 226.858 161.746 227.291C163.378 227.699 164.669 227.891 166.002 229.715C167.668 231.989 176.73 249.505 180.536 257.259C181.594 259.408 182.635 261.565 183.659 263.731C184.717 265.971 185.65 268.262 186.7 270.502C186.741 270.586 186.616 270.652 186.575 270.569C185.642 268.695 184.601 266.879 183.643 265.022C182.677 263.164 181.744 261.29 180.811 259.416C178.92 255.635 177.038 251.854 175.13 248.08C173.248 244.341 170.958 240.693 169.05 236.961C167.443 233.829 165.252 229.557 163.72 228.915C161.921 228.166 158.98 227.433 157.056 227.3C154.683 227.133 152.309 226.991 149.935 226.783C149.819 226.775 149.819 226.608 149.935 226.617Z" fill="#455A64"/>
<path d="M146.868 131.9C146.859 132.1 146.718 132.3 146.501 132.316C146.018 132.325 145.443 132.316 144.794 132.316C143.528 128.243 142.087 124.978 142.436 126.244C142.945 128.068 143.236 130.667 143.111 132.308C142.362 132.3 140.612 132.275 139.738 132.258C138.872 125.178 137.506 119.881 137.506 121.488C137.514 127.968 136.998 130.026 136.406 132.208C128.269 132.058 117.599 131.75 109.887 131.367C109.245 127.444 108.737 123.204 108.587 123.487C107.396 125.603 106.905 128.76 106.722 131.2C104.273 131.059 102.307 130.9 101.124 130.742C101.124 130.742 100.766 127.452 100.75 126.378C100.7 123.637 101.183 120.864 102.141 118.29C103.132 115.633 104.698 113.326 106.188 110.961C106.197 110.944 106.213 110.919 106.222 110.911C106.222 110.902 106.23 110.902 106.23 110.894C107.255 109.253 108.038 107.671 108.604 105.98C108.612 105.971 108.612 105.963 108.621 105.938C109.012 104.739 109.304 103.489 109.503 102.107C110.17 97.3509 113.127 93.3946 117.699 92.4201C126.695 84.9822 134.965 88.8886 137.139 95.177C137.347 95.7933 137.539 96.493 137.731 97.2509L137.739 97.2759C138.43 100.091 138.972 103.723 139.513 106.538C139.505 106.546 139.513 106.554 139.513 106.554C139.505 106.563 139.505 106.571 139.521 106.588V106.596C139.788 107.937 140.046 109.078 140.321 109.861C142.145 114.975 146.851 118.115 146.868 131.9Z" fill="#263238"/>
<path d="M115.667 93.6112C112.619 94.9605 110.67 97.0844 109.987 100.541C109.587 102.557 109.329 104.531 108.421 106.396C107.488 108.32 106.106 109.87 104.69 111.402C102.441 113.842 100.825 116.316 100.275 119.714C99.7256 123.171 99.6256 127.277 100.583 130.592C100.592 130.609 100.617 130.601 100.617 130.584C99.8755 127.236 100.15 122.688 100.958 119.281C101.849 115.542 104.14 113.301 106.514 110.561C108.404 108.387 109.67 105.938 110.237 103.048C110.57 101.341 110.662 99.5415 111.453 97.9673C112.402 96.0849 114.135 94.9522 115.842 93.9694C116.084 93.8444 115.901 93.5113 115.667 93.6112Z" fill="#263238"/>
<path d="M144.919 115.508C143.02 112.668 141.004 110.219 140.005 106.788C139.097 103.656 138.672 100.383 137.739 97.2509C137.723 97.2009 137.648 97.2176 137.665 97.2675C139.055 102.806 139.039 108.312 142.245 113.101C143.986 115.7 145.744 118.123 146.81 121.18C147.926 124.387 148.284 127.685 148.151 131.125C148.142 131.242 148.301 131.25 148.317 131.133C149.192 125.603 147.901 119.973 144.919 115.508Z" fill="#263238"/>
<path d="M121.64 135.105C124.313 151.139 135.016 171.395 137.59 172.636C142.137 174.835 172.555 177.2 173.763 177.092C176.745 176.809 180.443 156.869 177.969 154.829C177.403 154.362 148.492 154.146 147.26 153.779C145.752 153.329 138.623 143.043 131.235 132.573C126.046 125.219 120.224 126.585 121.64 135.105Z" fill="#D3766A"/>
<path d="M170.082 176.068C170.449 176.226 175.671 178.367 178.869 179.091C181.251 179.633 188.156 181.007 189.014 178.45C189.597 176.701 185.641 175.418 182.859 174.444C181.393 173.927 179.544 172.536 179.91 171.595C180.552 169.946 184.333 171.345 186.832 172.611C191.671 175.06 198.201 179.591 200.925 177.051C201.949 176.093 200.6 174.527 198.667 173.028C201.757 174.718 205.031 176.068 206.214 175.043C206.897 174.46 206.88 173.719 206.438 172.894C207.38 173.136 208.188 173.036 208.721 172.403C209.628 171.329 209.07 169.863 207.921 168.388C208.262 168.33 208.554 168.138 208.771 167.755C210.636 164.507 199.842 156.128 196.244 155.495C185.649 153.621 174.588 155.178 174.588 155.178C170.657 158.685 170.074 176.059 170.082 176.068Z" fill="#D3766A"/>
<path d="M184.874 165.431C187.356 165.672 189.854 166.414 192.003 167.705C194.544 169.237 196.609 171.411 198.975 173.177C199.041 173.227 198.958 173.327 198.9 173.277C197.784 172.361 196.568 171.553 195.41 170.678C194.285 169.829 193.178 168.929 191.995 168.163C189.829 166.747 187.447 165.806 184.874 165.481C184.84 165.464 184.849 165.422 184.874 165.431Z" fill="#263238"/>
<path d="M186.565 160.884C189.355 161.475 192.212 162.066 194.835 163.216C197.709 164.474 200.024 166.664 202.307 168.771C203.673 170.037 205.014 171.328 206.321 172.653C206.379 172.711 206.305 172.803 206.246 172.753C203.931 170.579 201.557 168.463 199.117 166.431C196.818 164.524 194.302 163.099 191.446 162.2C189.838 161.692 188.197 161.309 186.556 160.925C186.523 160.925 186.531 160.875 186.565 160.884Z" fill="#263238"/>
<path d="M189.271 156.827C191.97 157.219 194.327 157.552 196.776 158.843C200.016 160.55 203.222 163.565 204.347 164.631C205.588 165.814 206.796 167.03 207.978 168.271C208.028 168.321 207.937 168.405 207.887 168.355C205.188 165.648 202.298 163.099 199.275 160.767C197.825 159.651 196.268 158.701 194.552 158.077C192.853 157.46 191.045 157.16 189.271 156.835C189.255 156.844 189.263 156.827 189.271 156.827Z" fill="#263238"/>
<path d="M170.872 162.933L170.855 177.942C170.855 177.942 145.568 176.909 137.448 173.403C133.083 171.52 121.964 143.485 120.448 134.514C118.957 125.694 122.447 120.463 131.476 130.7C138.397 138.554 148.559 152.722 149.367 153.113C150.174 153.505 170.889 151.98 170.889 151.98L170.872 162.933Z" fill="#549DFF"/>
<path d="M122.388 140.628C122.388 140.845 122.314 141.053 122.189 141.211C122.03 140.703 121.872 140.204 121.73 139.721C122.114 139.845 122.388 140.204 122.388 140.628ZM134.466 139.662C133.933 139.662 133.499 140.095 133.499 140.628C133.499 141.161 133.933 141.595 134.466 141.595C134.999 141.595 135.432 141.161 135.432 140.628C135.432 140.095 134.999 139.662 134.466 139.662ZM127.944 129.692C127.411 129.692 126.978 130.125 126.978 130.659C126.978 131.192 127.411 131.625 127.944 131.625C128.477 131.625 128.91 131.192 128.91 130.659C128.91 130.125 128.477 129.692 127.944 129.692ZM134.466 159.019C133.933 159.019 133.499 159.452 133.499 159.985C133.499 160.518 133.933 160.951 134.466 160.951C134.999 160.951 135.432 160.518 135.432 159.985C135.432 159.452 134.999 159.019 134.466 159.019ZM147.501 159.019C146.967 159.019 146.534 159.452 146.534 159.985C146.534 160.518 146.967 160.951 147.501 160.951C148.034 160.951 148.467 160.518 148.467 159.985C148.475 159.452 148.042 159.019 147.501 159.019ZM160.544 159.019C160.011 159.019 159.578 159.452 159.578 159.985C159.578 160.518 160.011 160.951 160.544 160.951C161.077 160.951 161.51 160.518 161.51 159.985C161.51 159.452 161.077 159.019 160.544 159.019ZM127.944 149.049C127.411 149.049 126.978 149.482 126.978 150.015C126.978 150.548 127.411 150.981 127.944 150.981C128.477 150.981 128.91 150.548 128.91 150.015C128.91 149.482 128.477 149.049 127.944 149.049ZM140.987 149.049C140.454 149.049 140.021 149.482 140.021 150.015C140.021 150.548 140.454 150.981 140.987 150.981C141.52 150.981 141.953 150.548 141.953 150.015C141.953 149.482 141.52 149.049 140.987 149.049ZM140.987 168.406C140.454 168.406 140.021 168.839 140.021 169.372C140.021 169.905 140.454 170.338 140.987 170.338C141.52 170.338 141.953 169.905 141.953 169.372C141.953 168.839 141.52 168.406 140.987 168.406ZM154.022 168.406C153.489 168.406 153.056 168.839 153.056 169.372C153.056 169.905 153.489 170.338 154.022 170.338C154.555 170.338 154.988 169.905 154.988 169.372C154.997 168.839 154.555 168.406 154.022 168.406ZM167.065 168.406C166.532 168.406 166.099 168.839 166.099 169.372C166.099 169.905 166.532 170.338 167.065 170.338C167.599 170.338 168.032 169.905 168.032 169.372C168.032 168.839 167.599 168.406 167.065 168.406Z" fill="white"/>
<path d="M165.467 164.474C165.492 162.642 165.517 160.818 165.566 158.985C165.608 157.169 165.583 155.32 165.758 153.505C165.766 153.421 165.9 153.405 165.908 153.496C166.066 155.254 166.033 157.045 166.058 158.802C166.091 160.668 166.1 162.542 166.116 164.407C166.133 168.105 166.008 171.795 165.816 175.485C165.808 175.577 165.683 175.56 165.675 175.477C165.525 171.812 165.425 168.147 165.467 164.474Z" fill="#263238"/>
<path opacity="0.1" d="M156.963 176.959C149.683 176.26 141.463 175.135 137.448 173.395C133.084 171.512 121.964 143.477 120.457 134.506C119.624 129.559 120.348 125.728 122.756 125.161L156.963 176.959Z" fill="black"/>
<path d="M134.249 165.507L135.107 180.99L81.8594 180.974C81.8594 180.974 97.0349 137.196 107.271 127.943C114.193 121.687 121.539 122.879 125.812 128.084C126.895 129.4 138.022 144.917 138.863 152.238C139.588 158.693 134.249 165.507 134.249 165.507Z" fill="#549DFF"/>
<path d="M134.715 174.027C134.432 171.195 134.199 168.355 133.99 165.515V165.431L134.057 165.348C135.481 163.433 136.689 161.3 137.522 159.051C137.947 157.927 138.23 156.761 138.413 155.587C138.605 154.404 138.646 153.221 138.455 152.047C138.297 150.864 137.98 149.698 137.597 148.557C137.239 147.407 136.772 146.283 136.289 145.175C135.29 142.968 134.165 140.803 132.916 138.712C134.349 140.686 135.615 142.785 136.706 144.984C137.772 147.183 138.738 149.481 139.104 151.955C139.529 154.445 139.03 156.986 138.155 159.285C137.247 161.592 136.039 163.757 134.449 165.673L134.507 165.498C134.607 168.338 134.69 171.179 134.715 174.027Z" fill="#263238"/>
<path d="M135.482 140.919C136.024 141.802 136.407 142.751 136.732 143.718C136.882 144.209 137.023 144.7 137.115 145.208C137.207 145.716 137.281 146.233 137.24 146.749C136.932 145.766 136.59 144.834 136.282 143.867C135.974 142.901 135.674 141.935 135.482 140.919Z" fill="#263238"/>
<path d="M109.353 140.627C109.353 141.161 108.92 141.594 108.387 141.594C107.854 141.594 107.42 141.161 107.42 140.627C107.42 140.094 107.854 139.661 108.387 139.661C108.92 139.661 109.353 140.094 109.353 140.627ZM121.422 139.661C120.888 139.661 120.455 140.094 120.455 140.627C120.455 141.161 120.888 141.594 121.422 141.594C121.955 141.594 122.388 141.161 122.388 140.627C122.388 140.094 121.955 139.661 121.422 139.661ZM133.69 140.044C133.565 140.203 133.49 140.411 133.49 140.627C133.49 141.161 133.932 141.594 134.465 141.594C134.498 141.594 134.531 141.594 134.565 141.585C134.282 141.069 133.99 140.552 133.69 140.044ZM114.9 129.691C114.367 129.691 113.934 130.125 113.934 130.658C113.934 131.191 114.367 131.624 114.9 131.624C115.433 131.624 115.866 131.191 115.866 130.658C115.866 130.125 115.433 129.691 114.9 129.691ZM127.227 130.016C127.069 130.183 126.977 130.408 126.977 130.658C126.977 131.191 127.41 131.624 127.943 131.624C128.068 131.624 128.193 131.599 128.301 131.557C127.91 130.982 127.552 130.466 127.227 130.016ZM95.3433 159.018C94.8102 159.018 94.3771 159.451 94.3771 159.984C94.3771 160.517 94.8102 160.95 95.3433 160.95C95.8764 160.95 96.3095 160.517 96.3095 159.984C96.3095 159.451 95.8764 159.018 95.3433 159.018ZM108.378 159.018C107.845 159.018 107.412 159.451 107.412 159.984C107.412 160.517 107.845 160.95 108.378 160.95C108.911 160.95 109.344 160.517 109.344 159.984C109.353 159.451 108.92 159.018 108.378 159.018ZM121.422 159.018C120.888 159.018 120.455 159.451 120.455 159.984C120.455 160.517 120.888 160.95 121.422 160.95C121.955 160.95 122.388 160.517 122.388 159.984C122.388 159.451 121.955 159.018 121.422 159.018ZM134.465 159.018C133.932 159.018 133.499 159.451 133.499 159.984C133.499 160.517 133.932 160.95 134.465 160.95C134.998 160.95 135.431 160.517 135.431 159.984C135.431 159.451 134.998 159.018 134.465 159.018ZM101.865 149.048C101.332 149.048 100.899 149.481 100.899 150.014C100.899 150.547 101.332 150.98 101.865 150.98C102.398 150.98 102.831 150.547 102.831 150.014C102.831 149.481 102.398 149.048 101.865 149.048ZM114.9 149.048C114.367 149.048 113.934 149.481 113.934 150.014C113.934 150.547 114.367 150.98 114.9 150.98C115.433 150.98 115.866 150.547 115.866 150.014C115.874 149.481 115.433 149.048 114.9 149.048ZM127.943 149.048C127.41 149.048 126.977 149.481 126.977 150.014C126.977 150.547 127.41 150.98 127.943 150.98C128.476 150.98 128.909 150.547 128.909 150.014C128.909 149.481 128.476 149.048 127.943 149.048ZM82.7331 178.483C82.4583 179.258 82.2417 179.866 82.0918 180.29C82.1584 180.307 82.2251 180.315 82.3 180.315C82.8331 180.315 83.2662 179.882 83.2662 179.341C83.2662 178.966 83.0496 178.641 82.7331 178.483ZM95.3433 178.375C94.8102 178.375 94.3771 178.808 94.3771 179.341C94.3771 179.874 94.8102 180.307 95.3433 180.307C95.8764 180.307 96.3095 179.874 96.3095 179.341C96.3095 178.808 95.8764 178.375 95.3433 178.375ZM108.378 178.375C107.845 178.375 107.412 178.808 107.412 179.341C107.412 179.874 107.845 180.307 108.378 180.307C108.911 180.307 109.344 179.874 109.344 179.341C109.353 178.808 108.92 178.375 108.378 178.375ZM121.422 178.375C120.888 178.375 120.455 178.808 120.455 179.341C120.455 179.874 120.888 180.307 121.422 180.307C121.955 180.307 122.388 179.874 122.388 179.341C122.388 178.808 121.955 178.375 121.422 178.375ZM134.973 178.525C134.823 178.425 134.648 178.375 134.465 178.375C133.932 178.375 133.49 178.808 133.49 179.341C133.49 179.882 133.932 180.315 134.465 180.315C134.69 180.315 134.898 180.24 135.056 180.107L134.973 178.525ZM88.8217 168.405C88.2886 168.405 87.8555 168.838 87.8555 169.371C87.8555 169.904 88.2886 170.337 88.8217 170.337C89.3547 170.337 89.7878 169.904 89.7878 169.371C89.7878 168.838 89.3547 168.405 88.8217 168.405ZM101.865 168.405C101.332 168.405 100.899 168.838 100.899 169.371C100.899 169.904 101.332 170.337 101.865 170.337C102.398 170.337 102.831 169.904 102.831 169.371C102.831 168.838 102.398 168.405 101.865 168.405ZM114.9 168.405C114.367 168.405 113.934 168.838 113.934 169.371C113.934 169.904 114.367 170.337 114.9 170.337C115.433 170.337 115.866 169.904 115.866 169.371C115.874 168.838 115.433 168.405 114.9 168.405ZM127.943 168.405C127.41 168.405 126.977 168.838 126.977 169.371C126.977 169.904 127.41 170.337 127.943 170.337C128.476 170.337 128.909 169.904 128.909 169.371C128.909 168.838 128.476 168.405 127.943 168.405Z" fill="white"/>
<path d="M125.987 162.292C123.489 162.55 120.973 162.892 118.541 163.516C117.325 163.825 116.134 164.191 114.951 164.582C114.36 164.774 113.76 164.949 113.161 165.124C112.544 165.299 111.886 165.465 111.245 165.482C111.187 165.482 111.187 165.574 111.245 165.574C111.87 165.59 112.469 165.607 113.094 165.54C113.685 165.474 114.277 165.349 114.86 165.207C116.092 164.907 117.308 164.541 118.541 164.224C121.023 163.583 123.505 162.95 126.029 162.492C126.129 162.475 126.104 162.275 125.987 162.292Z" fill="#263238"/>
<path d="M132.184 164.516C130.126 164.308 128.027 164.191 125.962 164.216C124.921 164.225 123.888 164.3 122.855 164.399C122.364 164.449 121.864 164.508 121.372 164.566C120.831 164.633 120.298 164.774 119.757 164.841C119.698 164.849 119.698 164.933 119.757 164.933C120.273 164.891 120.789 164.933 121.306 164.924C121.822 164.916 122.339 164.899 122.855 164.883C123.888 164.858 124.929 164.841 125.962 164.808C128.036 164.741 130.101 164.691 132.175 164.691C132.3 164.683 132.292 164.524 132.184 164.516Z" fill="#263238"/>
<path d="M108.978 125.611C89.6875 133.874 66.8576 153.88 67.6571 161.085C68.54 169.105 96.2424 157.453 96.0509 156.245C95.8843 155.221 102.073 147.067 110.927 135.381C119.93 123.496 113.75 123.562 108.978 125.611Z" fill="#549DFF"/>
<path d="M96.3093 140.628C96.3093 141.161 95.8762 141.594 95.3431 141.594C94.8101 141.594 94.377 141.161 94.377 140.628C94.377 140.095 94.8101 139.662 95.3431 139.662C95.8762 139.662 96.3093 140.095 96.3093 140.628Z" fill="white"/>
<path d="M102.831 130.659C102.831 131.192 102.398 131.625 101.865 131.625C101.332 131.625 100.898 131.192 100.898 130.659C100.898 130.125 101.332 129.692 101.865 129.692C102.398 129.692 102.831 130.125 102.831 130.659Z" fill="white"/>
<path d="M114.567 129.751C114.392 130.109 114.192 130.484 113.959 130.884C113.942 130.817 113.934 130.734 113.934 130.659C113.934 130.242 114.2 129.893 114.567 129.751Z" fill="white"/>
<path d="M70.2312 159.985C70.2312 160.518 69.7981 160.951 69.265 160.951C68.7319 160.951 68.2988 160.518 68.2988 159.985C68.2988 159.452 68.7319 159.019 69.265 159.019C69.7981 159.019 70.2312 159.452 70.2312 159.985Z" fill="white"/>
<path d="M83.2663 159.985C83.2663 160.518 82.8332 160.951 82.3002 160.951C81.7671 160.951 81.334 160.518 81.334 159.985C81.334 159.452 81.7671 159.019 82.3002 159.019C82.8332 159.019 83.2663 159.452 83.2663 159.985Z" fill="white"/>
<path d="M76.7527 150.015C76.7527 150.548 76.3195 150.981 75.7865 150.981C75.2534 150.981 74.8203 150.548 74.8203 150.015C74.8203 149.482 75.2534 149.049 75.7865 149.049C76.3195 149.049 76.7527 149.482 76.7527 150.015Z" fill="white"/>
<path d="M89.7878 150.015C89.7878 150.548 89.3547 150.981 88.8216 150.981C88.2886 150.981 87.8555 150.548 87.8555 150.015C87.8555 149.482 88.2886 149.049 88.8216 149.049C89.3547 149.049 89.7878 149.482 89.7878 150.015Z" fill="white"/>
<path d="M67.6578 161.084C68.9322 166.732 76.953 170.979 96.1348 183.573C98.7918 185.314 116.125 169.888 113.393 167.881C109.944 165.357 96.0016 156.295 94.9021 155.754C85.5986 151.256 66.7916 157.253 67.6578 161.084Z" fill="#D3766A"/>
<path d="M109.612 165.224C109.612 165.224 117.899 170.163 121.456 174.111C126.212 179.391 128.144 185.905 128.785 188.687C130.135 194.492 129.377 209.451 125.029 209.984C121.097 210.467 122.638 195.217 122.638 195.217C122.638 195.217 123.63 211.025 118.782 210.742C113.935 210.45 116.741 192.851 116.741 192.851C116.741 192.851 117.391 209.118 112.444 208.035C108.704 207.21 110.345 191.127 110.345 191.127C110.345 191.127 110.811 205.111 106.921 204.437C102.632 203.687 103.215 188.737 103.215 188.737C93.6366 185.347 90.4633 179.808 88.6725 175.61C88.2394 174.577 109.612 165.224 109.612 165.224Z" fill="#D3766A"/>
<path d="M122.644 189.72C122.827 191.569 123.027 193.451 123.044 195.309C123.061 197.174 123.011 199.04 122.861 200.897C122.478 205.453 121.528 208.244 121.57 208.06C122.511 203.829 122.553 197.158 122.536 195.3C122.519 193.443 122.594 191.577 122.578 189.72C122.569 189.678 122.636 189.678 122.644 189.72Z" fill="#263238"/>
<path d="M115.916 189.662C116.049 192.036 116.266 194.393 116.291 196.775C116.316 199.149 116.132 201.398 115.999 203.763C115.991 203.946 115.891 203.88 115.899 203.696C115.941 201.323 115.799 199.132 115.816 196.758C115.832 194.393 115.932 192.019 115.866 189.654C115.857 189.629 115.907 189.629 115.916 189.662Z" fill="#263238"/>
<path d="M110.143 188.579C110.526 192.202 110.252 195.892 109.885 199.498C109.868 199.681 109.752 199.582 109.76 199.398C109.91 195.767 110.06 192.927 110.01 188.596C110.018 188.521 110.135 188.504 110.143 188.579Z" fill="#263238"/>
<path d="M113.851 165.982C113.851 165.982 89.7718 181.957 89.5386 181.857C89.2971 181.749 67.6332 167.056 67.6582 161.084C67.6832 155.121 86.6318 151.881 94.8859 155.72C103.148 159.543 113.851 165.982 113.851 165.982Z" fill="#549DFF"/>
<path d="M106.247 162.942C105.314 163.425 97.6929 168.789 96.0604 169.988C94.4279 171.188 87.7147 176.035 86.1405 177.409C86.0738 177.468 86.1405 177.576 86.2238 177.526C88.0312 176.468 94.8193 171.604 96.5018 170.413C98.1926 169.222 105.614 163.758 106.338 163.042C106.397 162.983 106.313 162.908 106.247 162.942Z" fill="#263238"/>
<path d="M70.2331 159.985C70.2331 160.518 69.8 160.951 69.267 160.951C68.7339 160.951 68.3008 160.518 68.3008 159.985C68.3008 159.452 68.7339 159.019 69.267 159.019C69.8 159.019 70.2331 159.452 70.2331 159.985ZM82.3019 159.019C81.7689 159.019 81.3357 159.452 81.3357 159.985C81.3357 160.518 81.7689 160.951 82.3019 160.951C82.835 160.951 83.2681 160.518 83.2681 159.985C83.2681 159.452 82.835 159.019 82.3019 159.019ZM95.3452 159.019C94.8121 159.019 94.379 159.452 94.379 159.985C94.379 160.518 94.8121 160.951 95.3452 160.951C95.8783 160.951 96.3114 160.518 96.3114 159.985C96.3114 159.452 95.8783 159.019 95.3452 159.019ZM75.7803 168.405C75.2472 168.405 74.8141 168.838 74.8141 169.372C74.8141 169.905 75.2472 170.338 75.7803 170.338C76.3133 170.338 76.7464 169.905 76.7464 169.372C76.7548 168.838 76.3217 168.405 75.7803 168.405ZM88.8236 168.405C88.2905 168.405 87.8574 168.838 87.8574 169.372C87.8574 169.905 88.2905 170.338 88.8236 170.338C89.3566 170.338 89.7897 169.905 89.7897 169.372C89.7897 168.838 89.3566 168.405 88.8236 168.405ZM101.867 168.405C101.334 168.405 100.901 168.838 100.901 169.372C100.901 169.905 101.334 170.338 101.867 170.338C102.4 170.338 102.833 169.905 102.833 169.372C102.833 168.838 102.4 168.405 101.867 168.405Z" fill="white"/>
<path d="M84.7406 154.163C86.7313 153.98 92.1784 153.88 96.4263 156.37C96.4762 156.395 96.4429 156.462 96.3929 156.437C92.6948 154.838 86.7146 154.196 84.7489 154.238C84.699 154.238 84.6906 154.171 84.7406 154.163Z" fill="#263238"/>
<path d="M112.368 166.965L113.817 165.932V166.032C112.368 165.157 110.885 164.324 109.419 163.466C107.953 162.617 106.471 161.784 104.988 160.968C102.031 159.31 99.0329 157.728 95.9845 156.262L95.668 156.112L95.8512 155.82C97.8002 152.747 99.8075 149.723 101.948 146.783C104.08 143.843 106.312 140.97 108.728 138.263C106.504 141.128 104.38 144.068 102.331 147.058C100.291 150.048 98.2666 153.063 96.3759 156.145L96.2427 155.704C99.3078 157.186 102.29 158.819 105.238 160.518C106.704 161.384 108.153 162.259 109.594 163.158C111.043 164.049 112.459 164.991 113.867 165.932L113.942 165.982L113.867 166.032L112.368 166.965Z" fill="#263238"/>
<path d="M103.705 144.742C104.013 144.409 104.313 144.076 104.638 143.76C104.954 143.435 105.288 143.135 105.621 142.835C106.304 142.252 106.995 141.686 107.778 141.211C107.212 141.927 106.562 142.552 105.896 143.152C105.554 143.443 105.213 143.735 104.846 144.001C104.48 144.268 104.122 144.543 103.705 144.742Z" fill="#263238"/>
<path d="M83.166 177.31C84.1072 177.793 84.9734 178.367 85.823 178.967C86.6642 179.583 87.4805 180.225 88.2384 180.966C87.3055 180.491 86.431 179.908 85.5814 179.309C84.7402 178.692 83.9156 178.051 83.166 177.31Z" fill="#263238"/>
<path d="M115.197 126.26C115.264 127.676 117.713 134.39 121.952 134.806C124.134 135.023 125.176 127.426 125.176 127.426L125.359 126.885L127.891 119.264L118.063 111.543C118.063 111.543 115.172 125.852 115.197 126.26Z" fill="#D3766A"/>
<path d="M116.996 116.882C118.729 122.938 123.226 125.828 125.358 126.877L127.89 119.248L118.071 111.535C118.062 111.535 117.571 113.984 116.996 116.882Z" fill="#263238"/>
<path d="M139.986 108.336C139.586 122.429 131.099 123.787 128.059 123.695C125.302 123.612 115.915 122.987 114.857 108.928C113.799 94.8682 120.479 90.5954 126.793 90.4455C133.123 90.2956 140.386 94.2352 139.986 108.336Z" fill="#D3766A"/>
<path d="M137.954 104.93C137.629 104.864 137.338 104.747 137.021 104.647C136.663 104.531 136.372 104.481 136.122 104.181C135.989 104.014 136.03 103.714 136.172 103.573C136.513 103.24 136.988 103.273 137.421 103.39C137.896 103.514 138.221 103.739 138.504 104.131C138.787 104.514 138.387 105.014 137.954 104.93Z" fill="#263238"/>
<path d="M128.958 104.18C129.291 104.172 129.599 104.105 129.924 104.064C130.29 104.014 130.59 104.014 130.89 103.756C131.048 103.614 131.065 103.314 130.94 103.148C130.657 102.764 130.19 102.715 129.741 102.748C129.258 102.789 128.891 102.948 128.541 103.289C128.208 103.631 128.525 104.197 128.958 104.18Z" fill="#263238"/>
<path d="M130.526 107.886C130.517 107.853 130.451 107.928 130.443 107.97C130.409 108.927 130.218 110.027 129.326 110.285C129.301 110.293 129.301 110.343 129.335 110.335C130.401 110.26 130.651 108.802 130.526 107.886Z" fill="#263238"/>
<path d="M129.735 106.837C128.202 106.621 127.885 109.702 129.301 109.902C130.701 110.094 131.017 107.012 129.735 106.837Z" fill="#263238"/>
<path d="M129.109 106.937C128.825 107.087 128.526 107.362 128.201 107.362C127.818 107.362 127.568 107.012 127.36 106.671C127.335 106.637 127.31 106.662 127.301 106.704C127.235 107.295 127.393 107.92 128.018 108.078C128.584 108.22 129.059 107.737 129.267 107.162C129.309 107.046 129.225 106.879 129.109 106.937Z" fill="#263238"/>
<path d="M135.798 108.269C135.806 108.236 135.865 108.319 135.865 108.361C135.731 109.311 135.731 110.427 136.564 110.835C136.589 110.851 136.581 110.893 136.548 110.885C135.506 110.627 135.515 109.144 135.798 108.269Z" fill="#263238"/>
<path d="M136.764 107.362C138.313 107.412 138.088 110.51 136.655 110.46C135.239 110.41 135.464 107.32 136.764 107.362Z" fill="#263238"/>
<path d="M137.39 107.612C137.623 107.795 137.839 108.112 138.131 108.145C138.464 108.195 138.739 107.879 138.98 107.57C139.005 107.537 139.03 107.57 139.022 107.604C138.997 108.195 138.756 108.795 138.181 108.87C137.656 108.936 137.315 108.403 137.215 107.804C137.198 107.704 137.298 107.545 137.39 107.612Z" fill="#263238"/>
<path d="M129.374 115.374C129.515 115.657 129.64 116.032 129.957 116.166C130.265 116.299 130.681 116.282 131.014 116.265C131.048 116.265 131.064 116.307 131.039 116.324C130.681 116.59 130.115 116.64 129.715 116.424C129.332 116.216 129.249 115.791 129.274 115.374C129.274 115.324 129.357 115.333 129.374 115.374Z" fill="#263238"/>
<path d="M134.04 112.393C134.04 112.393 134.107 113.843 134.049 114.509C134.04 114.576 131.916 114.834 130.617 113.101C130.567 113.035 130.667 112.968 130.725 113.018C131.55 113.751 132.516 114.009 133.574 114.126C133.641 113.943 133.374 111.652 133.482 111.652C133.857 111.652 134.557 111.969 134.982 112.135C134.932 109.12 134.39 106.138 134.382 103.131C134.382 103.023 134.54 103.006 134.565 103.106C135.348 106.196 135.481 109.661 135.623 112.776C135.64 113.168 134.299 112.535 134.04 112.393Z" fill="#263238"/>
<path d="M133.133 114.359C133.133 114.359 132.458 115.083 131.625 115.283C131.317 115.358 130.992 115.366 130.668 115.241C130.001 114.983 130.051 114.35 130.234 113.825C130.384 113.392 130.634 113.034 130.634 113.034C130.634 113.034 131.534 114.084 133.133 114.359Z" fill="#263238"/>
<path d="M131.625 115.283C131.317 115.358 130.992 115.366 130.668 115.241C130.001 114.983 130.051 114.35 130.234 113.825C130.967 113.983 131.642 114.566 131.625 115.283Z" fill="#FF9BBC"/>
<path d="M118.897 91.3036C120.171 91.0954 122.595 84.6654 118.839 80.6508C115.141 76.6945 108.786 79.1599 110.077 85.0652C110.893 88.7966 116.198 91.7534 118.897 91.3036Z" fill="#263238"/>
<path d="M112.808 79.0684C111.259 79.9013 110.101 81.2756 109.468 82.7914C108.827 84.3157 108.985 86.0398 109.96 87.3308C110.884 88.6717 112.35 89.6129 113.891 90.2959C114.674 90.6291 115.49 90.8956 116.323 91.0872C117.156 91.2871 118.022 91.412 118.897 91.2954C118.064 91.6286 117.14 91.6036 116.257 91.5536C115.365 91.4703 114.483 91.2871 113.625 90.9956C111.934 90.4125 110.276 89.4297 109.177 87.8805C108.644 87.1059 108.261 86.1814 108.202 85.2152C108.144 84.2574 108.369 83.2995 108.786 82.4749C109.618 80.8341 111.109 79.5598 112.808 79.0684Z" fill="#263238"/>
<path d="M115.689 108.628C118.255 109.303 119.721 103.414 119.721 103.414C119.721 103.414 131.09 103.014 133.239 94.0854C133.239 94.0854 134.371 100.107 139.852 103.497C139.852 103.497 140.785 93.519 133.172 90.5455C133.172 90.5455 123.885 85.6897 117.363 92.7027C110.842 99.7241 113.974 108.17 115.689 108.628Z" fill="#263238"/>
<path d="M133.365 93.4277C133.331 94.827 132.94 96.218 132.315 97.4923C131.69 98.7667 130.824 99.941 129.733 100.866C129.475 101.115 129.167 101.299 128.884 101.515L128.45 101.832C128.3 101.923 128.142 102.007 127.984 102.09C127.667 102.257 127.359 102.431 127.043 102.59C126.71 102.723 126.376 102.848 126.043 102.964C125.877 103.023 125.71 103.089 125.544 103.139L125.027 103.264L124.003 103.506C123.303 103.606 122.603 103.664 121.912 103.714C122.587 103.523 123.27 103.398 123.928 103.198L124.911 102.873L125.402 102.715C125.56 102.648 125.71 102.573 125.868 102.498C126.177 102.348 126.485 102.207 126.801 102.073C127.101 101.915 127.384 101.732 127.684 101.557L128.126 101.299L128.534 100.991C128.8 100.782 129.092 100.607 129.333 100.366C130.383 99.4996 131.207 98.4085 131.907 97.2424C132.248 96.6511 132.54 96.0347 132.79 95.3934C133.031 94.7687 133.223 94.1107 133.365 93.4277Z" fill="#263238"/>
<path d="M127.187 112.709C125.204 112.276 123.688 110.535 123.622 108.42C123.538 105.913 125.512 103.806 128.019 103.722C130.526 103.639 132.634 105.613 132.717 108.12C132.8 110.627 130.826 112.734 128.319 112.818C127.928 112.826 127.545 112.784 127.187 112.709ZM129.011 104.414C128.694 104.347 128.369 104.314 128.036 104.322C125.862 104.397 124.155 106.221 124.23 108.387C124.305 110.56 126.129 112.268 128.294 112.193C130.468 112.118 132.176 110.294 132.101 108.128C132.042 106.296 130.726 104.797 129.011 104.414Z" fill="#549DFF"/>
<path d="M137.579 113.692C135.88 113.318 134.722 111.235 134.956 108.878C135.072 107.687 135.53 106.596 136.23 105.813C136.955 104.997 137.862 104.597 138.779 104.689C139.703 104.78 140.503 105.347 141.052 106.288C141.586 107.196 141.81 108.353 141.694 109.544C141.444 112.043 139.728 113.917 137.871 113.734C137.771 113.726 137.671 113.709 137.579 113.692ZM138.945 105.33C138.87 105.313 138.795 105.305 138.72 105.297C138.004 105.222 137.279 105.555 136.688 106.213C136.072 106.904 135.672 107.87 135.564 108.936C135.347 111.102 136.405 112.984 137.937 113.134C139.462 113.284 140.878 111.652 141.094 109.495C141.202 108.428 141.003 107.404 140.536 106.604C140.128 105.913 139.57 105.463 138.945 105.33Z" fill="#549DFF"/>
<path d="M132.509 108.628L132.168 108.128C132.909 107.62 134.575 107.003 135.566 108.294L135.083 108.661C134.192 107.503 132.576 108.578 132.509 108.628Z" fill="#549DFF"/>
<path d="M112.227 107.77L111.719 107.437C111.877 107.204 113.268 105.113 114.642 105.03C115.925 104.955 123.962 106.529 124.304 106.596L124.187 107.195C121.889 106.746 115.675 105.58 114.684 105.646C113.768 105.696 112.602 107.195 112.227 107.77Z" fill="#549DFF"/>
<path d="M117.414 108.328C117.414 108.328 114.857 103.606 112.75 104.464C110.643 105.321 112.209 111.926 114.441 113.059C116.673 114.192 117.764 112.151 117.764 112.151L117.414 108.328Z" fill="#D3766A"/>
<path d="M113.252 106.346C113.218 106.337 113.202 106.387 113.235 106.404C114.792 107.254 115.475 108.869 115.9 110.51C115.484 109.852 114.859 109.444 113.985 109.927C113.935 109.952 113.968 110.027 114.018 110.019C114.701 109.952 115.176 110.127 115.559 110.71C115.834 111.127 116 111.635 116.175 112.093C116.233 112.251 116.508 112.201 116.475 112.026C116.475 112.009 116.467 112.001 116.467 111.984C116.741 109.91 115.459 106.812 113.252 106.346Z" fill="#263238"/>
<path d="M114.767 112.576C114.817 112.909 115.125 113.134 115.458 113.084C115.791 113.034 116.016 112.726 115.966 112.393C115.916 112.06 115.608 111.835 115.275 111.885C114.942 111.935 114.717 112.243 114.767 112.576Z" fill="#455A64"/>
<path d="M115.076 112.527C115.101 112.685 115.242 112.793 115.401 112.768C115.559 112.743 115.667 112.602 115.642 112.443C115.617 112.285 115.476 112.177 115.317 112.202C115.168 112.227 115.059 112.368 115.076 112.527Z" fill="#263238"/>
<path d="M113.791 111.718C113.825 111.951 114.041 112.109 114.274 112.076C114.508 112.043 114.666 111.826 114.633 111.593C114.599 111.36 114.383 111.202 114.15 111.235C113.925 111.268 113.758 111.485 113.791 111.718Z" fill="#455A64"/>
<path d="M31.7512 188.039L312.273 188.039V178.061L31.7512 178.061V188.039Z" fill="#37474F"/>
<path d="M41.7915 198.015L302.232 198.015V188.045L41.7915 188.045V198.015Z" fill="#455A64"/>
<path d="M302.214 337.985H306.245L294.51 198.016H284.215L302.214 337.985Z" fill="#455A64"/>
<path d="M284.215 198.016L285.423 207.377H295.292L294.51 198.016H284.215Z" fill="#263238"/>
<path d="M41.8125 337.985H37.7812L49.5169 198.016H59.8116L41.8125 337.985Z" fill="#455A64"/>
<path d="M59.812 198.016L58.6043 207.377H48.7344L49.5173 198.016H59.812Z" fill="#263238"/>
<path d="M252.443 104.554L246.074 70.0908L211.611 76.4592L217.979 110.922L252.443 104.554Z" fill="#455A64"/>
<path d="M230.534 100.315C230.809 101.98 229.676 103.546 228.018 103.821C226.353 104.096 224.787 102.963 224.512 101.306C224.237 99.6399 225.37 98.074 227.027 97.7992C228.693 97.5243 230.259 98.6487 230.534 100.315Z" fill="white"/>
<path d="M228.059 85.148L225.758 85.5244L228.234 100.666L230.536 100.289L228.059 85.148Z" fill="white"/>
<path d="M239.563 94.3428C239.838 96.0087 238.705 97.5745 237.048 97.8494C235.382 98.1242 233.816 96.9915 233.541 95.334C233.266 93.6682 234.399 92.1023 236.057 91.8275C237.722 91.5526 239.296 92.677 239.563 94.3428Z" fill="white"/>
<path d="M237.091 79.1702L234.789 79.5469L237.267 94.688L239.568 94.3114L237.091 79.1702Z" fill="white"/>
<path d="M237.088 79.2007L226.085 87.5464L225.752 85.5225L236.755 77.1768L237.088 79.2007Z" fill="white"/>
<path d="M237.713 83.0152L226.71 91.3609L226.377 89.3369L237.38 80.9912L237.713 83.0152Z" fill="white"/>
<path d="M259.284 125.736L233.072 113.375L248.939 79.7344L268.396 88.913L272.127 98.4997L259.284 125.736Z" fill="#EBEBEB"/>
<path d="M268.395 88.9131L272.126 98.4998L265.371 95.3181L268.395 88.9131Z" fill="#DBDBDB"/>
<path d="M248.422 87.4452L262.992 94.3154L263.401 93.4491L248.831 86.5788L248.422 87.4452Z" fill="#DBDBDB"/>
<path d="M247.397 89.6259L261.967 96.4961L262.375 95.6297L247.805 88.7595L247.397 89.6259Z" fill="#DBDBDB"/>
<path d="M246.367 91.8036L260.938 98.6738L261.346 97.8075L246.776 90.9372L246.367 91.8036Z" fill="#DBDBDB"/>
<path d="M245.345 93.9825L266.695 104.05L267.104 103.183L245.754 93.1161L245.345 93.9825Z" fill="#DBDBDB"/>
<path d="M244.308 96.1671L265.658 106.234L266.067 105.368L244.716 95.3007L244.308 96.1671Z" fill="#DBDBDB"/>
<path d="M243.286 98.3477L264.637 108.415L265.045 107.549L243.695 97.4813L243.286 98.3477Z" fill="#DBDBDB"/>
<path d="M242.257 100.524L263.607 110.592L264.016 109.725L242.666 99.6581L242.257 100.524Z" fill="#DBDBDB"/>
<path d="M241.234 102.706L262.584 112.773L262.993 111.907L241.642 101.84L241.234 102.706Z" fill="#DBDBDB"/>
<path d="M240.202 104.883L261.553 114.95L261.961 114.084L240.611 104.017L240.202 104.883Z" fill="#DBDBDB"/>
<path d="M239.167 107.068L260.518 117.136L260.926 116.269L239.576 106.202L239.167 107.068Z" fill="#DBDBDB"/>
<path d="M238.146 109.248L259.496 119.315L259.905 118.449L238.554 108.382L238.146 109.248Z" fill="#DBDBDB"/>
<path d="M237.115 111.427L258.465 121.494L258.873 120.628L237.523 110.56L237.115 111.427Z" fill="#DBDBDB"/>
<path d="M258.054 135.936L264.805 103.822L226.952 95.8658L220.202 127.98L258.054 135.936Z" fill="#549DFF"/>
<path d="M238.438 122.404L259.96 126.918L251.989 111.401L238.438 122.404Z" fill="#549DFF"/>
<g opacity="0.3">
<path d="M238.438 122.404L259.96 126.918L251.989 111.401L238.438 122.404Z" fill="white"/>
</g>
<path d="M227.844 120.189L246.926 124.195L239.196 113.559L227.844 120.189Z" fill="#549DFF"/>
<g opacity="0.5">
<path d="M227.844 120.189L246.926 124.195L239.196 113.559L227.844 120.189Z" fill="white"/>
</g>
<path d="M259.944 126.928L222.092 118.972L220.195 127.995L258.048 135.951L259.944 126.928Z" fill="#549DFF"/>
<g opacity="0.5">
<path d="M259.944 126.928L222.092 118.972L220.195 127.995L258.048 135.951L259.944 126.928Z" fill="white"/>
</g>
<path opacity="0.9" d="M230.867 110.527C232.841 111.352 234.973 109.952 235.023 107.82C235.048 106.629 234.315 105.505 233.215 105.046C231.241 104.222 229.109 105.621 229.059 107.753C229.034 108.953 229.767 110.069 230.867 110.527Z" fill="white"/>
<path d="M189.361 131.591V129.925" stroke="#263238" stroke-width="0.832905" stroke-miterlimit="10"/>
<path d="M189.361 127.201V103.163" stroke="#263238" stroke-width="0.832905" stroke-miterlimit="10" stroke-dasharray="3.63 3.63"/>
<path d="M189.361 101.805V100.14H191.027" stroke="#263238" stroke-width="0.832905" stroke-miterlimit="10"/>
<path d="M193.443 100.14H203.521" stroke="#263238" stroke-width="0.832905" stroke-miterlimit="10" stroke-dasharray="3.23 3.23"/>
<path d="M204.73 100.14H206.396" stroke="#263238" stroke-width="0.832905" stroke-miterlimit="10"/>
<path d="M189.363 133.082C190.228 133.082 190.929 132.381 190.929 131.516C190.929 130.651 190.228 129.95 189.363 129.95C188.498 129.95 187.797 130.651 187.797 131.516C187.797 132.381 188.498 133.082 189.363 133.082Z" fill="#263238"/>
<path d="M206.32 101.706C207.185 101.706 207.886 101.005 207.886 100.14C207.886 99.2753 207.185 98.5742 206.32 98.5742C205.455 98.5742 204.754 99.2753 204.754 100.14C204.754 101.005 205.455 101.706 206.32 101.706Z" fill="#263238"/>
<path d="M277.959 99.5732H279.625" stroke="#263238" stroke-width="0.832905" stroke-miterlimit="10"/>
<path d="M282.439 99.5732H294.175" stroke="#263238" stroke-width="0.832905" stroke-miterlimit="10" stroke-dasharray="3.75 3.75"/>
<path d="M295.582 99.573H297.248V97.9072" stroke="#263238" stroke-width="0.832905" stroke-miterlimit="10"/>
<path d="M297.25 95.4429V62.21" stroke="#263238" stroke-width="0.832905" stroke-miterlimit="10" stroke-dasharray="3.28 3.28"/>
<path d="M297.248 60.9773V59.3115H295.582" stroke="#263238" stroke-width="0.832905" stroke-miterlimit="10"/>
<path d="M292.394 59.3115H286.547" stroke="#263238" stroke-width="0.832905" stroke-miterlimit="10" stroke-dasharray="4.25 4.25"/>
<path d="M284.955 59.3115H283.289" stroke="#263238" stroke-width="0.832905" stroke-miterlimit="10"/>
<path d="M278.042 101.14C277.176 101.14 276.477 100.44 276.477 99.5737C276.477 98.7075 277.176 98.0078 278.042 98.0078C278.909 98.0078 279.608 98.7075 279.608 99.5737C279.608 100.44 278.9 101.14 278.042 101.14Z" fill="#263238"/>
<path d="M283.365 57.7451C282.498 57.7451 281.799 58.4448 281.799 59.311C281.799 60.1772 282.498 60.8768 283.365 60.8768C284.231 60.8768 284.931 60.1772 284.931 59.311C284.931 58.4448 284.231 57.7451 283.365 57.7451Z" fill="#263238"/>
</svg>
