<svg width="32" height="20" viewBox="0 0 32 20" fill="none" xmlns="http://www.w3.org/2000/svg">
<path d="M16 0.666016C14.7623 0.666016 13.5753 1.15768 12.7002 2.03285C11.825 2.90802 11.3333 4.09501 11.3333 5.33268C11.3333 6.57036 11.825 7.75734 12.7002 8.63251C13.5753 9.50768 14.7623 9.99935 16 9.99935C17.2377 9.99935 18.4247 9.50768 19.2998 8.63251C20.175 7.75734 20.6667 6.57036 20.6667 5.33268C20.6667 4.09501 20.175 2.90802 19.2998 2.03285C18.4247 1.15768 17.2377 0.666016 16 0.666016ZM16 3.33268C16.5304 3.33268 17.0391 3.5434 17.4142 3.91847C17.7893 4.29354 18 4.80225 18 5.33268C18 5.86311 17.7893 6.37182 17.4142 6.7469C17.0391 7.12197 16.5304 7.33268 16 7.33268C15.4696 7.33268 14.9609 7.12197 14.5858 6.7469C14.2107 6.37182 14 5.86311 14 5.33268C14 4.80225 14.2107 4.29354 14.5858 3.91847C14.9609 3.5434 15.4696 3.33268 16 3.33268ZM7.33333 4.66602C6.44928 4.66602 5.60143 5.0172 4.97631 5.64233C4.35119 6.26745 4 7.11529 4 7.99935C4 9.25268 4.70667 10.3327 5.72 10.906C6.2 11.1727 6.74667 11.3327 7.33333 11.3327C7.92 11.3327 8.46667 11.1727 8.94667 10.906C9.44 10.626 9.85333 10.226 10.16 9.74602C9.18667 8.47935 8.66667 6.93268 8.66667 5.33268C8.66667 5.21268 8.66667 5.07935 8.66667 4.95935C8.26667 4.77268 7.81333 4.66602 7.33333 4.66602ZM24.6667 4.66602C24.1867 4.66602 23.7333 4.77268 23.3333 4.95935C23.3333 5.07935 23.3333 5.21268 23.3333 5.33268C23.3333 6.93268 22.8133 8.47935 21.84 9.74602C22 9.99935 22.1733 10.1993 22.3733 10.3993C22.5867 10.5993 22.8 10.7727 23.0533 10.906C23.5333 11.1727 24.08 11.3327 24.6667 11.3327C25.2533 11.3327 25.8 11.1727 26.28 10.906C27.2933 10.3327 28 9.25268 28 7.99935C28 7.11529 27.6488 6.26745 27.0237 5.64233C26.3986 5.0172 25.5507 4.66602 24.6667 4.66602ZM16 12.666C12.88 12.666 6.66667 14.226 6.66667 17.3327V19.3327H25.3333V17.3327C25.3333 14.226 19.12 12.666 16 12.666ZM6.28 13.3993C3.70667 13.706 0 15.0127 0 17.3327V19.3327H4V16.7593C4 15.4127 4.92 14.2927 6.28 13.3993ZM25.72 13.3993C27.08 14.2927 28 15.4127 28 16.7593V19.3327H32V17.3327C32 15.0127 28.2933 13.706 25.72 13.3993ZM16 15.3327C18.04 15.3327 20.32 15.9993 21.64 16.666H10.36C11.68 15.9993 13.96 15.3327 16 15.3327Z" fill="#313131"/>
</svg>
