<svg width="31" height="20" viewBox="0 0 31 20" fill="none" xmlns="http://www.w3.org/2000/svg">
<path d="M24.334 16.666V19.3327H8.33398V16.666C8.33398 16.666 8.33398 11.3327 16.334 11.3327C24.334 11.3327 24.334 16.666 24.334 16.666ZM20.334 4.66602C20.334 3.87489 20.0994 3.10153 19.6599 2.44374C19.2203 1.78594 18.5956 1.27325 17.8647 0.970499C17.1338 0.667749 16.3295 0.588535 15.5536 0.742876C14.7777 0.897217 14.065 1.27818 13.5056 1.83759C12.9461 2.397 12.5652 3.10973 12.4108 3.88566C12.2565 4.66158 12.3357 5.46585 12.6385 6.19675C12.9412 6.92765 13.4539 7.55237 14.1117 7.99189C14.7695 8.43142 15.5429 8.66602 16.334 8.66602C17.3948 8.66602 18.4123 8.24459 19.1624 7.49444C19.9126 6.7443 20.334 5.72688 20.334 4.66602ZM24.6007 11.4127C25.3295 12.0851 25.9171 12.8959 26.3292 13.7979C26.7412 14.6999 26.9695 15.6749 27.0006 16.666V19.3327H31.0006V16.666C31.0006 16.666 31.0007 12.066 24.6007 11.4127ZM23.0007 0.666017C22.5978 0.666258 22.1975 0.729235 21.814 0.852684C22.5941 1.97131 23.0123 3.30226 23.0123 4.66602C23.0123 6.02977 22.5941 7.36072 21.814 8.47935C22.1975 8.6028 22.5978 8.66578 23.0007 8.66602C24.0615 8.66602 25.0789 8.24459 25.8291 7.49444C26.5792 6.7443 27.0006 5.72688 27.0006 4.66602C27.0006 3.60515 26.5792 2.58774 25.8291 1.83759C25.0789 1.08744 24.0615 0.666017 23.0007 0.666017ZM8.78732 5.89268L10.334 7.77268L4.00065 14.106L0.333984 10.106L1.88065 8.55935L4.00065 10.666L8.78732 5.89268Z" fill="#313131"/>
</svg>
