<svg width="28" height="27" viewBox="0 0 28 27" fill="none" xmlns="http://www.w3.org/2000/svg">
<path d="M17.9993 22.6667C17.9993 22.313 17.8589 21.9739 17.6088 21.7239C17.3588 21.4738 17.0196 21.3333 16.666 21.3333H15.3327V18.6667H20.666C21.3733 18.6667 22.0515 18.3857 22.5516 17.8856C23.0517 17.3855 23.3327 16.7072 23.3327 16V2.66667C23.3327 1.95942 23.0517 1.28115 22.5516 0.781048C22.0515 0.280951 21.3733 0 20.666 0H7.33268C6.62544 0 5.94716 0.280951 5.44706 0.781048C4.94697 1.28115 4.66602 1.95942 4.66602 2.66667V16C4.66602 16.7072 4.94697 17.3855 5.44706 17.8856C5.94716 18.3857 6.62544 18.6667 7.33268 18.6667H12.666V21.3333H11.3327C10.9791 21.3333 10.6399 21.4738 10.3899 21.7239C10.1398 21.9739 9.99935 22.313 9.99935 22.6667H0.666016V25.3333H9.99935C9.99935 25.687 10.1398 26.0261 10.3899 26.2761C10.6399 26.5262 10.9791 26.6667 11.3327 26.6667H16.666C17.0196 26.6667 17.3588 26.5262 17.6088 26.2761C17.8589 26.0261 17.9993 25.687 17.9993 25.3333H27.3327V22.6667H17.9993ZM8.99935 9.44L10.546 7.89333L12.666 10L17.4527 5.22667L18.9993 7.10667L12.666 13.44L8.99935 9.44Z" fill="#313131"/>
</svg>
