<svg width="18" height="18" viewBox="0 0 18 18" fill="none" xmlns="http://www.w3.org/2000/svg">
<rect x="0.5" y="0.5" width="17" height="17" rx="2.5" fill="#006CFF"/>
<path d="M13.916 4.88984L13.9147 4.89089L7.12204 10.879L4.0847 8.20144C4.08464 8.20139 4.08458 8.20133 4.08451 8.20127C3.9965 8.12314 3.87674 8.07919 3.75183 8.07919C3.62688 8.07919 3.5071 8.12315 3.41908 8.20132C3.41904 8.20136 3.419 8.2014 3.41894 8.20144L2.91602 8.64479C2.91596 8.64485 2.91589 8.64491 2.91583 8.64497C2.82719 8.72255 2.77734 8.82812 2.77734 8.93824C2.77734 9.04839 2.82722 9.15398 2.91589 9.23157C2.91594 9.23161 2.91598 9.23165 2.91602 9.23169L6.79275 12.6492C6.79282 12.6493 6.7929 12.6493 6.79297 12.6494C6.88098 12.7275 7.00073 12.7715 7.12563 12.7715C7.25054 12.7715 7.37028 12.7275 7.45829 12.6494C7.45836 12.6493 7.45844 12.6493 7.45851 12.6492L15.0831 5.92775C15.0831 5.92773 15.0832 5.9277 15.0832 5.92769C15.1719 5.85009 15.2218 5.74448 15.2218 5.63431C15.2218 5.52428 15.172 5.4188 15.0835 5.34123C15.0834 5.34111 15.0833 5.34098 15.0831 5.34085L14.5804 4.89137V4.89135L14.5787 4.88984C14.394 4.73203 14.1006 4.73203 13.916 4.88984Z" fill="white" stroke="white" stroke-width="0.25"/>
<rect x="0.5" y="0.5" width="17" height="17" rx="2.5" stroke="#006CFF"/>
</svg>
